<?xml version="1.0" encoding="utf-8"?>
<!-- Generator: Adobe Illustrator 25.2.0, SVG Export Plug-In . SVG Version: 6.00 Build 0)  -->
<svg version="1.1" id="圖層_1" xmlns="http://www.w3.org/2000/svg" xmlns:xlink="http://www.w3.org/1999/xlink" x="0px" y="0px"
	 viewBox="0 0 473 567" style="enable-background:new 0 0 473 567;" xml:space="preserve">
<style type="text/css">
	.st0{fill-rule:evenodd;clip-rule:evenodd;fill:#FFFFFF;}
	.st1{fill-rule:evenodd;clip-rule:evenodd;}
</style>
<desc>Created with Sketch.</desc>
<desc>Created with Sketch.</desc>
<g id="head_x2F_mono_x2F_Bangs-2">
	<path id="_xD83C__xDFA8_-Background" class="st0" d="M310.5,189.4c-23.2-16-69.7-14.3-95.2-4.5c-24.9,8.3-33.6,31.3-37.8,56.1
		c-5,27.9-4.4,68.2,31.8,67.7c5.1,2.6,10.7,3.7,16,5.9c7.2,2.6,14.3,5.6,21.5,7.9c14.4,4.9,30.4,4.4,44-2.7
		c7.5-3.9,10.6-9.7,15.6-16c14.3-18.3,21.5-44.7,20.9-68.1C326.2,219.2,323.6,200.1,310.5,189.4z"/>
	<path id="_xD83D__xDD8D_-Ink" class="st1" d="M339.8,257c-2.4-15.5-3-31.2-6.1-46.5c-2.9-14.4-8.4-28.1-18-39.1
		c-8.5-9.8-19.6-17.1-31.5-21.6c-23.2-8.9-49.8-6.9-72.1,3.5c-21,9.7-37.7,27.8-47.5,49.4c-6.3,14-9.5,29-10.9,44.4
		c-1.6,17.1-1.7,34.4-2.4,51.6c-0.1,2.1-0.2,4.2-0.2,6.4c0,2.3,0.8,4.4,1.6,6.5c0,0.2,0.1,0.3,0.2,0.5c-0.6,0.1-1.1,0.2-1.7,0.3
		c-0.6,0.1-0.6,1.2,0,1.3c5,1.1,10.2,1.2,15.2,1.5c5.2,0.3,10.5,0.5,15.8,0.6c5.1,0.2,10.3,0.4,15.4,0.6c2.7,0.1,5.4,0.2,8.1,0.3
		c1.3,0,2.6,0.1,3.9,0.1c0.6,0,1.3,0,1.9,0.1c0.6,0,1.4,0.4,1.4,0c0.1,0,0.2,0.1,0.3,0.1c0.1,0.1,0.3,0.1,0.4,0.3
		c0.6,0.5,1.6,0.4,2.2,0c0,0,0.1-0.1,0.2-0.1c0.5-0.3,0.8-0.7,1-1.2c2.7,3.3,7.3-0.5,4.6-3.9c-1.5-1.9-15.9-48.4-9.9-83.7l23.9-3.3
		c2.9-0.3,7.2-0.7,12.5-1.4c1.3-4.6,2.2-7.5,2.6-9c0-0.2,0.1-0.4,0.1-0.5c0.6,1.1,1.2,2.1,1.7,3.2l2.9,6.3
		c29.1-0.6,47.2-0.7,54.3-0.6c0.2,0,1,13.6,0.6,19.5c-0.7,12-1.7,24-2.8,36c-0.7,7.7-2.6,15.2-5.2,22.3
		c-4.2,11.2-16.4,21.8-28.4,21.8c-7.4,0-24.2-6.3-26.7-7.6c-2.5-1.3-3.9,2.2-1.7,3.6c4.5,2.8,17,8.8,28.3,8.8
		c16.5,0,29.1-16.4,30.5-18.8c15-0.8,30.4-0.5,45.5,1.1c1.3,0.1,2.4-1.5,1.9-2.7C346.6,290.7,342.4,274,339.8,257z"/>
</g>
<desc>Created with Sketch.</desc>
</svg>
