<?xml version="1.0" encoding="utf-8"?>
<!-- Generator: Adobe Illustrator 25.2.0, SVG Export Plug-In . SVG Version: 6.00 Build 0)  -->
<svg version="1.1" id="圖層_1" xmlns="http://www.w3.org/2000/svg" xmlns:xlink="http://www.w3.org/1999/xlink" x="0px" y="0px"
	 viewBox="0 0 473 567" style="enable-background:new 0 0 473 567;" xml:space="preserve">
<style type="text/css">
	.st0{fill-rule:evenodd;clip-rule:evenodd;fill:#FFFFFF;}
	.st1{fill-rule:evenodd;clip-rule:evenodd;}
</style>
<desc>Created with Sketch.</desc>
<desc>Created with Sketch.</desc>
<g id="head_x2F_mono_x2F_Bun">
	<path id="_xD83C__xDFA8_-Background" class="st0" d="M209.4,161c23.1-1.3,43.6-7.8,59.9,6.9c17.5-13.3,27.8-17.3,30.7-12.3
		c2.9,5.1-1.1,11.8,0,18.1c7.1,12.3,6.7,33,7.1,37.9c1,12.3,7.4,58.4,7.4,69.4c0,5.6-4.6,20.3-7.4,28.4
		c-6.4,18.2-18.4,27.4-38.3,27.4S216.5,320,206.1,305c-0.9-1.3-6.8,2.5-13-4.1c-6.7-7.2-10.4-20.8-10.4-28.9
		c0-10.3-6.6-17.4-5.8-30.6C178.7,212.1,184.6,162.3,209.4,161z"/>
	<path id="_xD83D__xDD8D_-Ink" class="st1" d="M206.8,126.7c0.3,0,0.6,0,0.9,0c0.3,0,0.6,0,0.9,0.1c1.7,0.3,3.2,1.3,4.4,2.5
		c0,0,0,0.1,0.1,0.1c0.5,0.4,1,0.9,1.6,1.4c0.1-0.1,0.2-0.1,0.2-0.2c0.2-0.2,0.5-0.4,0.7-0.6c1.1-0.9,2.4-1.7,3.8-2.1h0.2h0.1
		c0.9-0.3,2-0.5,3.1-0.5c1.3,0,2.5,0.2,3.7,0.6c1.4,0.6,2.6,1.5,3.7,2.6c0.6,0.5,1.3,1.1,1.9,1.8c1.3,1.4,2.3,2.9,2.9,4.7
		c0.1,0.3,0.2,0.5,0.2,0.7c1.6-0.2,3.1-0.3,4.7-0.3c1.8-0.1,3.4-0.1,5.2-0.1c4.8,0.2,9.5,1,14.1,2.6c0.9,0.3,1.8,0.6,2.6,1
		c1.4,0.5,2.6,1.3,3.8,2.1l1,0.6c0.5,0.3,1,0.6,1.6,0.9c1.1,0.7,2.3,1.6,3.3,2.5c1.1,0.9,2.2,1.9,3.1,2.9c0.3,0.3,0.5,0.6,0.8,0.8
		c2.3,1.3,4.4,2.8,6.4,4.8c1.6-0.9,3.1-1.7,4.7-2.4c1.7-0.7,3.8-1.5,5.6-2c1.6-0.4,3.1-0.7,4.7-0.9c0.7-0.1,1.5-0.2,2.2-0.3l0,0l0,0
		c0.5,0,1-0.1,1.6-0.1l0,0l0,0c0.2,0,0.4,0,0.6,0h0.5l0,0c0.2,0,0.4,0.3,0.4,0.5v0.1l0,0c0.1,0.1,0.2,0.3,0.3,0.4c0.1,0,0.2,0,0.3,0
		c0.3,0,0.6,0.5,0.8,0.6l0.1,0.2c0.2,0.2,0.3,0.4,0.3,0.7c0.2,1.6,0.3,3.1,0.5,4.6c0,1.1,0,2.3-0.2,3.4c-0.1,1.1-0.3,2.2-0.4,3.3
		c-0.2,0.7-0.4,1.6-0.7,2.3c-0.1,0.3-0.2,0.6-0.3,0.9c-0.6,2-1.3,3.9-2.1,5.7c0.6,0.6,1.1,1.4,1.7,2.1c0.1,0.1,0.3,0.3,0.3,0.4
		l0.1-0.1c0.2-0.1,0.3,0,0.4,0.2c1.1,1.1,2,2.4,2.5,3.9l0.3,0.7c0,0.1,0.1,0.3,0.2,0.4c0.4,1.1,0.7,2.3,0.9,3.4
		c0.2,0.9,0.4,1.9,0.5,2.8c0.8,2.7,1.5,5.4,2,8.1c0.1,0.4,0,0.8-0.1,1.1l0.3,0.3l0,0l0.6,0.6c0.9,0.9,2,2.1,2.7,3.2
		c0.7,1.3,1.4,2.5,1.9,3.9l0.1,0.3l0,0l0.3,0.5c0.3,0.6,0.4,0.9,0.7,1.7c0.4,1.3,0.6,2.5,0.7,3.8c0.2,1.9,0.1,4-0.6,5.7l0,0
		c-0.3,1.7-1.3,3.2-2.7,4.3c-0.3,0.3-0.6,0.5-0.9,0.7c-0.8,0.5-1.6,0.5-2.5,0.3h-0.1c-0.1,0-0.2,0-0.3-0.1c0.1,0.1,0.2,0.3,0,0.3
		c-0.2,0.1-0.4,0.2-0.6,0.2c0.1,0.1,0.1,0.2-0.1,0.3c-0.3,0.2-0.6,0.3-0.9,0.2v0.5c0.5,3.9,0.9,4.7,1.3,8.9
		c0.3,4.3,0.6,8.6,1.3,12.8l0.2,1.6c0.6,4.9,1.3,9.8,2.3,14.6c0.5,2.1,0.9,4.2,1.4,6.4c0.5,1.6,0.9,3.2,1.1,5
		c0.3,1.7,0.5,3.4,0.6,5.2c0.4,1.1,0.6,2.2,0.6,3.4c0,1.6,0,3.1-0.2,4.7c-0.1,1.6-0.3,3.2-0.6,4.8c-0.3,2.2-0.9,4.3-1.7,6.4
		c-0.6,2.3-1.5,4.5-2.4,6.7c-1.4,3.3-3.1,6.5-5.1,9.6c-1.9,2.9-3.8,5.7-6.1,8.3c-2.8,3.3-6.2,6.4-9.8,9c-2.1,1.6-4.2,2.9-6.5,4.1
		c-2.8,1.5-5.6,2.7-8.6,3.7c-1.9,0.5-3.8,0.9-5.7,1.3c-3.8,0.6-7.7,0.5-11.5-0.2c-2.5-0.3-4.9-0.9-7.2-1.8c-1.9-0.6-3.7-1.5-5.4-2.3
		c-0.9-0.4-1.8-0.9-2.6-1.6c-1.5-0.9-2.8-2-4.1-3.1c-0.4-0.3-0.8-0.7-1.3-1c-0.2-0.2-0.1-0.4,0.1-0.5l0,0l0,0
		c-0.1-0.1-0.2-0.1-0.3-0.2l0,0l-0.1-0.1c-0.1-0.1,0-0.4,0.1-0.5c0,0,0.1,0,0.2,0l0,0c0,0,0,0,0-0.1l0,0l0,0
		c-0.2-0.2-0.1-0.4,0.1-0.5c0.1,0,0.3,0,0.4,0h0.1l-0.1-0.1c-0.2-0.2-0.1-0.4,0.1-0.5c0.2,0,0.4,0,0.6,0.1h0.1c0.1,0,0.1,0,0.2,0
		c-0.1-0.1-0.3-0.2-0.3-0.3c-0.1-0.1,0-0.4,0.1-0.5c0.1-0.1,0.4,0,0.6,0.1c0.3,0,0.7,0.2,0.9,0.3c0.4,0.4,0.9,0.8,1.4,1.3
		c0.3,0.1,0.5,0.2,0.7,0.4c0.5,0.5,1,0.9,1.7,1.5l0.4,0.3c0.1,0,0.1,0.1,0.2,0.1c0.8,0.5,1.6,0.9,2.4,1.5c2.9,0.9,5.8,2,8.9,3
		l0.4,0.1l0,0l2.8,0.3l0,0c1.9,0.2,3.8,0.2,5.6,0c1.4,0,2.8-0.1,4.2-0.4c2.3-0.4,4.6-0.9,6.9-1.8c2.5-0.9,5-2.2,7.4-3.6
		c0.8-0.5,1.7-0.9,2.5-1.6c0.3-0.2,0.5-0.4,0.8-0.6c1.8-1.4,3.4-2.8,5.1-4.3c0.7-0.7,1.5-1.5,2.2-2.2c0.1-0.1,0.2-0.2,0.3-0.3
		c0.6-0.7,1.4-1.6,2-2.3l0.6-0.6l0,0c2.4-3,4.6-6.3,6.5-9.6c1.9-3.3,3.4-6.8,4.7-10.4c0.4-1.3,0.7-2.6,1-4c0.5-1.6,0.9-3.2,1-4.9
		c0-0.3,0.1-0.6,0.1-0.9v-0.5c0-0.1,0-0.2,0-0.3c0.1-0.5,0.1-1,0.2-1.6c0-0.5,0-1,0-1.6v-3.1l0,0c0-0.1,0-0.2,0-0.3l-0.1-0.7
		c-0.2-1.5-0.3-2.9-0.5-4.4l0,0c0-0.5-0.1-1-0.2-1.7c0-0.3-0.1-0.6-0.1-0.9l-0.1-0.6l0,0c-0.2-0.9-0.3-2-0.6-2.9l-0.1-0.4L309,265
		l-0.7-3.1c-0.4-2.2-0.8-4.3-1.1-6.5c-0.5-3.4-1-6.9-1.5-10.4c0-0.2,0-0.3,0-0.5c-0.4-3.2-0.7-6.5-0.9-9.7c-0.3-3.1-0.4-6.4-0.4-9.6
		c0-0.1,0.1-0.3,0.2-0.3v-0.9c0-0.5,0,0.1,0-0.5v-1.7c0-0.1,0-0.2,0-0.3c-2,0.1-3.2,0-5.1-0.1h-0.2c-1.8-0.1-3.4-0.3-5.1-0.6
		c0,0.1,0,0.1-0.2,0.2c-0.2,0-0.3,0-0.5,0v0.2l0,0c0,0.1,0,0.2-0.2,0.2h-0.5c-0.6,0-1.3,0-2,0c-0.6-0.1-1.1-0.2-1.7-0.3
		c-0.3,0-0.7-0.1-1-0.2c-0.9-0.3-1.9-0.6-2.8-0.9c-0.9-0.2-1.9-0.3-2.9,0c-1,0.3-2,0.7-3.1,0.4c-0.2,0-0.4-0.1-0.6-0.2h-0.2h-0.1
		c-1.1-0.2-2.2-0.9-3.3-1.3c-0.4-0.1-0.7-0.1-1.1,0.1h-0.1l-0.3,0.3c-0.1,0.2-0.3,0.3-0.4,0.5l-0.2,0.3c-0.4,0.5-0.8,0.9-1.4,1.3
		c-0.6,0.6-1.4,0.9-2.2,0.9c-0.5,0-0.9-0.1-1.5-0.3c-1.9,0.6-3.8,0.6-5.6,0.1c-0.7-0.1-1.5-0.3-2.1-0.6c-0.3-0.1-0.6-0.3-0.9-0.5
		c-1.3,0.5-2.5,1.3-3.8,1.9l-0.3,0.1c-1.3,0.6-2.7,1.3-4.1,1.1c-1.8-0.1-3.6-0.3-5.4-0.6l0,0h-0.2l0,0l-0.9-0.2l0,0l-0.7-0.1l0,0
		l-0.3,0.1c-2.9,1.1-6.2,2-9.1,1.3c-1.3-0.2-2.5-0.6-3.6-1.4c0,0-0.1,0-0.1-0.1c-0.2-0.1-0.3-0.2-0.5-0.3l0,0l0,0l0,0l0,0
		c-1.6-0.7-2.5-2.3-2.4-4.1c-0.1-0.6-0.1-1.1,0-1.7c-0.5,0.6-1,1.3-1.6,1.9c-2,2.4-4,4.9-5.7,7.4l-0.4,0.6c-0.9,1.4-1.9,2.8-2.8,4.4
		c-0.8,1.5-1.8,2.9-2.6,4.4c-1.1,1.4-2.3,2.7-3.4,4.1l-0.5,0.6l-1.6,2.1c-1.1,1.4-2.1,2.8-2.8,4.4c-0.6,1.1-1.1,2.3-1.7,3.4
		c-0.2,0.3-0.3,0.7-0.4,1c-0.5,1.5-0.9,2.8-1.3,4.4c-0.3,1-0.4,2.2-0.6,3.2v0.3c0,0.4-0.1,0.8-0.1,1.3c0.1,0,0.2,0.1,0.3,0.2
		l0.3,0.1l0,0h0.2c0.3,0.1,0.9,0.3,0.7,0.6l-0.7,1.4l0,0c0.1,0.1,0.1,0.2,0,0.3c-0.5,0.9-0.9,1.9-1.5,2.7c0,0,0,0,0,0.1
		c0.4,0.2,0.8,0.4,1.1,0.6c0.7,0.4,1.3,0.9,1.8,1.6c0.5,0.3,1,0.6,1.5,1c0.6,0.6,1,1.3,1.6,2c0.4,0.6,0.7,1.4,0.9,2.2
		c0.1,0.4,0.2,0.8,0.2,1.3c-0.4,3.1-4.1,0.9-4.1,0.7c-0.5-1.9-1-3.1-2.3-4.5l0,0l0,0c-0.7-0.3-1.5-0.6-2.2-0.9c-0.1,0-0.2,0-0.3,0
		c0.1,0.2,0,0.3-0.2,0.4c-1.1,0.2-2.3,0.3-3.4,0.2l-1.8-0.3l0,0c-0.7,0.3-1.5,0.6-2.1,1l-0.2,0.1l0,0c-1.7,1.4-3,3.2-4,5.3
		c-0.1,0.2-0.2,0.3-0.2,0.5l-0.1,0.3l0,0c-1.1,4.7-0.1,9.8,2.1,14.2c1.1,1.9,2.4,3.8,3.8,5.6l1.3,1.7l0,0c0.7,0.7,1.5,1.5,2.2,2.2
		c0.1,0.1,0.2,0.2,0.3,0.3c0.3,0.3,0.7,0.4,1.1,0.6c0.1,0,0.3,0.1,0.4,0.1c0.7,0.3,1.6,0.5,2.4,0.6c1,0.1,2.2,0,3.1-0.4l0.2-0.1h0.1
		c0.5-0.3,1-0.8,1.6-1.4c0.1-0.1,0.3-0.1,0.5,0c0.1-0.1,0.3-0.3,0.3-0.4c0.1-0.1,0.2-0.1,0.3,0c0.3,0,1.3,0.5,1,0.8
		c0,0-0.1,0.1-0.1,0.2c0.2,0.1,0.3,0.2,0.5,0.3c0.7,0.2,1.9,0.9,1.8,1.3l0,0c-0.2,0.3-0.4,0.6-0.7,0.8l-0.1,0.1l-0.2,0.1
		c0.3,0.2,0.6,0.4,0.4,0.6c0,0.1-0.1,0.2-0.2,0.3c0.6,0.7,1.3,1.6,1.9,2.3c0.6,1.4,1.4,2.6,2.3,3.8c0.7,1.3,1.7,2.4,2.7,3.4
		c0.1,0.1,0.2,0.2,0.3,0.3c0.8,0.6,1.6,1.1,2.5,1.7l0.3,0.2c0.2,0.1,0.5,0.3,0.3,0.5c0,0,0,0,0,0.1c0.5,0.3,1,0.6,1.7,0.9l0,0
		c0.2,0.1,0.5,0.4,0.2,0.6c-0.3,0.2-0.9-0.3-1.3-0.5c0,0-0.1,0-0.2,0c0.1,0,0.2,0.1,0.3,0.2l0.2,0.1c0.1,0.1,0.7,0.5,0.3,0.6
		c-0.2,0-0.4,0-0.6-0.2c-0.2-0.1-0.4-0.2-0.6-0.3c0.1,0.1,0.1,0.2-0.1,0.3c0,0-0.1,0-0.2,0c0.4,0.3,0.9,0.5,1.4,0.7h0.1
		c0.2,0.1,0.5,0.3,0.3,0.6c-0.3,0.2-0.9-0.3-1.1-0.3l-0.5-0.3l0,0h-0.1c0.2,0.1,0.3,0.2,0.5,0.3l0.2,0.1c0.3,0.1,0.6,0.4,0.5,0.6
		c-0.1,0.2-0.6,0-0.8-0.1l-0.3-0.2l0,0l0,0l0,0c-0.1,0.2-0.5,0.1-0.7,0l-0.2-0.1c-0.3-0.2-0.6-0.4-0.9-0.6l-0.5-0.3l0,0
		c-1.7-0.9-3.1-2-4.6-3.2c-0.8-0.7-1.7-1.6-2.4-2.5c-1.6-1.8-2.7-3.8-3.8-5.7c0,0,0-0.1,0-0.2c-0.1-0.3-0.2-0.5-0.3-0.7
		c-1.1,0.3-2.4,0.4-3.6,0.3c-0.6,0-1.3-0.1-1.9-0.3c-2-0.3-3.9-1.1-5.4-2.2c-0.1,0-0.2-0.1-0.3-0.2c-0.6-0.4-1.3-0.8-1.9-1.4
		c-1.1-0.9-2.3-2.1-3.3-3.2c-0.7-0.9-1.5-1.8-2.1-2.8c-0.6-0.9-1.4-1.9-2-2.8c-1.9-2.9-3.1-6.4-3.6-9.8c-0.2-1.3-0.3-2.6-0.3-3.9
		c0-0.9,0.1-1.9,0.3-2.8c-0.1-0.1-0.2-0.2-0.3-0.3c0,0.1-0.1,0.2-0.1,0.1L181,277c-0.6-0.6-0.9-1-1.7-2c-1-1.6-1.9-3.2-2.5-5.1
		c-0.4-1.3-0.7-2.8-0.8-4.2c0-0.2-0.1-0.5-0.1-0.7c-0.2-1.9,0-3.8,0.3-5.7c0-0.1,0.1-0.2,0.2-0.2c0-0.1,0-0.3,0.1-0.4
		c-2.4-2.6-4.2-5.7-4.1-9.5c0-1.3,0.3-2.4,0.7-3.4v-0.1l0,0c-2-0.3-3.7-1.8-4.8-3.6c-0.1-0.1-0.2-0.2-0.3-0.3
		c-2.2-1.9-3.7-4.5-4.7-7.3c-0.7-1.6-1.3-3.3-1.5-5.1c0-0.1,0-0.3,0-0.4c-0.5-2.8-0.6-5.7-0.4-8.6c-0.5-1.8-0.9-3.6-1.3-5.3
		c-0.1-0.8-0.2-1.8-0.3-2.6l0,0v-0.1v-0.4c0,0,0-0.1,0-0.2c-0.6-7.9,1.1-15.8,4.1-23.1c0.3-0.6,0.5-1.3,0.7-2l0.3-0.6l0,0
		c2.9-4.7,7.3-8.6,11-12.6c1.3-1.4-0.8-3.4-2.1-2.1c-2.5,2.7-5.1,5.3-7.5,8c-0.4,0-0.8,0-1.3,0c-0.7,0-1.5-0.1-2.2-0.3
		c-1.7-0.3-3.2-0.9-4.7-2c-1.9-0.9-3.6-2.6-3.7-4.8c0-0.2,0-0.4,0-0.6c-0.2-1,0-2.2,0.4-3.2c0.1-0.3,0.2-0.6,0.3-0.8
		c0.3-0.8,0.9-1.6,1.7-2.2l0,0c0.1-0.1,0.1-0.2,0.2-0.2c0.1-0.1,0.3-0.2,0.4-0.3c-0.5-0.8-0.9-1.7-1.4-2.5c-0.4-0.9-0.6-2-0.7-3
		c0-0.4,0-0.8-0.1-1.3c0-0.2,0-0.4,0-0.6c-0.1-1.5,0.1-3,0.6-4.4c0-0.1,0.1-0.2,0.1-0.3c0.1-0.3,0.2-0.6,0.3-0.9
		c0.5-1.1,1.3-2.2,2.2-2.9c0.5-0.5,1-0.9,1.7-1.4c0.3-0.2,0.8-0.4,1.3-0.6c0.8-0.4,1.8-0.8,2.6-0.8c0.1,0,0.2,0,0.3,0
		c0.1-2.1,0.3-4.4,1.1-6.4c0.5-1.4,1.3-2.6,2.3-3.6c0.6-0.6,1.5-1.3,2.4-1.6h0.2l0,0c0.9-0.4,1.9-0.6,2.8-0.6c1.1,0,2.3,0.1,3.2,0.6
		c0.2,0.1,0.4,0.3,0.6,0.4c0.2-0.3,0.3-0.6,0.5-0.9c0.7-1.1,1.6-2.2,2.5-3c0.1-0.1,0.2-0.2,0.3-0.3c0.5-0.4,0.9-0.8,1.6-1.3
		c1.1-0.8,2.4-1.4,3.8-1.8c1.6-0.6,3.1-0.8,4.7-0.7h0.3l0,0c0.1,0,0.1,0,0.2,0c1.6,0.1,3.1,0.5,4.7,1c1.6,0.6,2.8,1.6,4.1,2.6
		c0.3-0.4,0.6-0.7,1-1.1c0.1-0.1,0.2-0.2,0.3-0.3c0.1-0.1,0.2-0.2,0.3-0.3c0.4-0.4,0.9-0.7,1.4-1c0.6-0.3,1.1-0.6,1.8-0.7
		C205.4,126.9,206,126.8,206.8,126.7z M199.2,279.3c0,0,3.4,1.3,5.1,2.1h0.1c2,0.9,2.8,1.7,4.7,2.9c0.1,0.1,0.2,0.2,0.2,0.3
		c0,1.9-0.4,4.1-2,3.1c-0.2-0.1-0.4-0.3-0.6-0.4l-0.3-0.2l0,0l0,0c-3.3-2-6.8-3.7-10.4-4.8c-0.3-0.1,1.6-2.9,2.2-2.8
		C197.7,279.5,199.1,279.3,199.2,279.3z M234,198.6c-2.2,0.2-4.4,0.5-6.6,0.7c-1.4,0.2-2.8,0.3-4.2,0.4c-2.1,0.2-4.2,0.2-6.4-0.1
		c-0.7-0.1-1.5-0.3-2.2-0.4c-0.5,0.3-0.9,0.7-1.6,1l-5.8,4.5l0,0c-3.9,3.1-7.7,6.4-11.2,10c-6.1,6.4-10.9,13.7-14,21.9
		c-0.3,0.2-0.5,0.4-0.6,0.9c-0.5,3.3-2.2,6.4-2.7,9.8c-0.6,3.3,0.2,6.1,2.2,8.7c0.4,0.5,1.4,0.5,1.9,0.1c0.1,0.3,0.6,0.2,0.9-0.9
		c0.9-0.9,1.7-2.1,2.2-3.3c0.4-0.9-0.3-1.6-1-1.8c0.3-1.3,0.7-2.4,1.1-3.6c1.3-3.4,2.8-6.8,4.8-9.9c1.8-2.7,3.8-5.1,6-7.6h0.1
		l0.4-0.5l0,0c0-0.1,0.2,0,0.3,0c0.1-0.1,0.3-0.3,0.4-0.4s0.3-0.1,0.3,0c0.2,0,0.6,0.2,0.7,0.3c0.2,0.1,0.3,0.3,0.1,0.5
		c0,0,0,0.1-0.1,0.1c0.3,0.1,0.5,0.3,0.7,0.4c0.6,0.1,1.6,0.8,1.5,0.9c-0.3,0.3-0.6,0.7-1,1.1c0.3,0.2,0.5,0.4,0.4,0.5
		c-1.5,1.6-2.7,3.1-4,4.8c-0.9,1.3-1.8,2.6-2.5,4c-1.1,2-2.1,4-2.8,6.1c-0.1,0.3-0.2,0.6-0.3,0.9c-1.3,3.4-2.1,7-2.5,10.7v0.2
		c-0.1,1.3-0.1,4.8-0.2,5.6c0.8,0.4,1.7,0.7,2.5,1c0.2,0,0.3,0.1,0.5,0.1c0.1,0,0.2-0.1,0.3-0.1c0.8-0.3,1.7-0.6,2.5-0.6
		c0.6-0.1,1.1-0.1,1.8-0.1h0.3c0.3,0,0.5,0,0.7,0c0-0.1,0-0.3,0-0.4c-0.1,0-0.1-0.1-0.1-0.2c-0.2-1.7-0.2-3.3,0-5
		c0.1-0.8,0.2-1.8,0.3-2.6c0.1-0.7,0.3-1.4,0.5-2.1c0.5-2,1.1-3.9,1.9-5.7c2.2-5.3,5.3-10.1,8.6-14.9c2.3-3.4,4.5-7.1,6.9-10.4
		c2-2.9,4.2-5.8,6.5-8.6c2.3-2.7,4.7-5.4,7.3-7.8c0.4-0.4,0.8-0.7,1.3-1.1c2.5-2.2,5.1-4.1,7.9-5.8c0.1-0.1,0.3,0,0.4,0.1l0.4-0.3
		c0.1,0,0.1-0.1,0.2-0.1c0.1,0,0.1,0,0.2,0.1c0.2-0.1,0.4-0.2,0.6-0.3c0.1-0.1,0.3-0.2,0.4-0.3C238.2,199,236.1,198.8,234,198.6z
		 M259.9,173.9c-1.7-0.3-3.3-0.4-5-0.1c-0.7,0.1-1.4,0.2-2.1,0.3c1.6,1.4,2.8,3.1,3.7,5.2c0.9,2.2-2.6,3.1-3.6,0.9
		c-0.8-2.1-2.5-3.8-4.4-4.7c-0.4,0.2-0.8,0.5-1.3,0.7c-0.5,0.4-0.9,0.8-1.5,1.4c-0.9,1-1.9,2.5-2.5,3.9c-0.2,0.7-0.4,1.6-0.5,2.4
		c0,0.2,0,0.3,0,0.6c-0.3,3.8,0.7,7.6,2.6,10.9h0.1l0,0c1.7-0.9,3.4-1.7,5.2-2.3c1.5-0.9,2.9-1.9,4.5-2.7c3.2-1.8,6.7-3.1,10.2-4
		l0.4-0.1c0.8-0.2,1.7-0.4,2.5-0.6l0.5-0.1l0,0v-0.5l0,0c-0.3-2.2-1.1-4.2-2.2-6.1c-0.8-1.4-2.1-2.8-3.4-4l0,0
		c-0.6-0.3-1.3-0.6-1.9-0.9l-0.3-0.1L259.9,173.9z M215.2,170.6c-3.4-0.3-6.9-0.3-10.4,0c-2.2,0.2-4.5,0.5-6.7,0.9
		c-1.6,0.3-3,0.6-4.4,1l0.8,1.7c1.4,2.8,2.8,5.6,4.5,8.4c0.8,1.4,1.8,2.7,2.8,4c0.6,0.9,1.5,1.8,2.3,2.5c0.2,0.3,0.4,0.5,0.6,0.7
		c0.7,0.6,1.6,1.3,2.5,1.7c0.7,0.5,1.5,0.9,2.2,1.4l0.3,0.1l2.7,1c0.1,0,0.3,0.1,0.4,0.1h0.2l0.4,0.1l0.3-0.2c0,0,0.1,0,0.2-0.1
		c0.1,0,0.1,0,0.2,0.1c0,0,0,0,0,0.1l0.4-0.2l0,0c0.6,0.3,1.5,0.5,2.2,0.6c0.3,0,0.7,0.1,1,0.2l0,0l0,0h0.4l0,0
		c2.7,0.3,5.5-0.1,8.3-0.6c3.9-0.4,7.7-0.8,11.6-1.3c0.1,0,0.1,0,0.1,0.1h0.2l0,0c0.3,0,0.7,0.5,0.5,0.7c0.2,0.1,0.4,0.3,0.6,0.4
		h0.1c-0.5-1-0.9-2.2-1.3-3.2l-0.3-1.9l0,0c-0.1-0.7-0.2-1.5-0.2-2.2c0-0.3,0-0.6,0-0.9c0-0.3,0-0.5,0-0.8c-0.7-0.3-1.5-0.6-2.2-0.8
		c-2.2-0.3-4.3-0.5-6.4-0.8c-1.3,0-2.5,0.1-3.9,0.3c-1.5,0.1-2.9,0.3-4.4,0.5c-0.1,0-0.3-0.2-0.5-0.4l-0.6,0.1l0,0
		c-0.3,0-0.6-0.6-0.2-0.7c0.1,0,0.3-0.1,0.4-0.2l0.2-0.1h-0.1c0,0-0.1,0-0.2,0c-0.3,0-0.6,0.1-1,0.1s-0.3-0.5,0-0.6h0.1
		c-0.3-0.2-0.5-0.6-0.2-0.7l0,0c0.1,0,0.3-0.1,0.4-0.2v-0.1l-0.6,0.1l0,0c0,0,0.2-0.4,0.3-0.4l0,0l0.3-0.1c0-0.1,0.3-0.4,0.3-0.4
		c1-0.3,2.1-0.6,3.1-0.8c0,0,0.1-0.1,0.2-0.1c0.6-0.1,1.3-0.3,2-0.3l0.1-0.1c1.6-0.2,3.2-0.3,4.9-0.1c0.3,0,0.6,0,0.9,0.1
		c0.6,0,1.3,0.1,1.8,0.3c1.5,0.3,2.9,0.6,4.4,1.1l0.3,0.1c0.3,0.1,0.7,0.3,1,0.4c0.2-0.6,0.4-1.3,0.6-1.9c0-0.1,0.1-0.2,0.1-0.3
		l-0.3-0.2l0,0c-0.1,0.1-0.2,0.3-0.3,0.2c-2.5-1.8-5.2-3.1-8-4.4c-1.6-0.7-3.2-1.3-4.9-1.9c-0.8-0.3-1.7-0.5-2.5-0.7
		c-0.4-0.1-0.8-0.2-1.3-0.3C219.7,171.2,217.4,170.8,215.2,170.6z M299.2,176.5c-0.3,0.5-0.6,1-0.9,1.6c-1.7,2.5-3.7,5-6,7
		c0.6,0,1.1,0,1.8,0.1c0.9,0.1,2,0.3,2.9,0.5c0.1,0,0.2-0.1,0.2,0l0.3,0.2l0,0c2.1,0.5,4,1.5,5.7,2.6v-0.2v-0.1c0-0.4,0-0.9,0-1.4
		c-0.3-2.7-1.3-5.1-2.3-7.6c0,0,0-0.1,0-0.2C300.4,178.1,299.8,177.3,299.2,176.5z M299.6,155.5c-0.7,0.1-1.6,0.3-2.3,0.5
		c-1.5,0.2-2.8,0.6-4.1,1.1c-1.9,0.6-3.6,1.5-5.4,2.2c-3.4,1.6-6.7,3.6-9.6,6c-0.2,0.1-0.3,0.3-0.5,0.4c-0.6,0.6-1.3,1.1-1.9,1.8
		c-0.6,0.7-1.3,1.4-1.9,2.1c-0.7,0.8-1.7,1.6-2.4,2.5c-0.1,0.2-0.3,0.4-0.4,0.6l0.4,0.1l0,0c0.3,0.1,0.3,0.7,0,0.6
		c-0.1,0-0.2-0.1-0.3-0.1c0,0,0.1,0.1,0.1,0.2c0,0.2-0.1,0.4-0.3,0.3c-0.1,0-0.2,0-0.3-0.1c0,0.1,0,0.2,0,0.3l0,0
		c0.2,0.1,0.7,0.4,0.7,0.7c0,0.2-0.1,0.4-0.3,0.3s-0.3-0.1-0.5-0.2c0.1,0.1,0.2,0.2,0.2,0.3c0,0.2-0.1,0.4-0.3,0.3
		c-0.3-0.1-0.6-0.3-0.9-0.4c0,0.1-0.2,0.2-0.2,0.1h-0.1l0,0l0.1,0.1l0,0c1,1.1,1.9,2.3,2.6,3.7l0.1-0.1c0.3-0.3,0.6-0.5,1-0.8
		l0.1-0.1l0,0l0.1-0.1l-0.7,0.3l0,0c0-0.1,0.2-0.3,0.3-0.3l0,0c1-0.9,2.2-1.8,3.4-2.4c0.8-0.5,1.7-0.9,2.5-1.4
		c2.1-0.9,4.3-1.8,6.5-2.4c0.3-0.1,0.6-0.2,0.9-0.3c0.1,0,0.1,0,0.1,0.1h0.2l0,0c0.3-0.1,0.8,0.4,0.6,0.7c0.1,0.1,0.3,0.2,0.3,0.3
		l0.1,0.1h0.1c0.3-0.1,0.7,0.3,0.9,0.6l0.2,0.2c0.2,0.2,0.4,0.5,0.1,0.6l-0.5,0.2l0,0c0,0.1,0,0.2-0.2,0.2c-0.2,0-0.3,0.1-0.5,0.2
		c0.1,0.1,0.2,0.2,0.3,0.3l0.1,0.1c0.2,0.2,0.5,0.5,0.2,0.7l0,0l-0.4,0.2c0,0.1,0,0.3-0.1,0.3c-2.6,0.9-5.2,2-7.7,3.1
		c-1.9,1-3.9,1.9-6,2.3c-0.2,0-0.5-0.2-0.7-0.4l-0.3,0.1H273l0,0l0,0c0.4,1,0.6,2.2,0.8,3.3c0,0.1,0,0.2,0,0.3c0.4,0,0.8,0,1.3-0.1
		c2.8-0.1,5.7,0,8.6,0.3c1.1-0.6,2.2-1.5,3.3-2.3c0.3-0.3,0.6-0.5,0.9-0.7c1.9-1.7,3.6-3.4,5.1-5.5c1.4-1.9,2.6-3.9,3.7-6
		c0.9-2,1.7-4,2.2-6.1c0.5-1.9,0.7-3.8,0.8-5.7c0-0.3,0.1-0.6,0.1-0.9V158l0,0v-0.1C299.8,156.9,299.7,156.3,299.6,155.5z
		 M272.8,180.3c-0.1,0-0.2,0-0.3,0.1c0,0.1,0.1,0.2,0.1,0.3l0,0l0,0l0.3-0.3l0,0C273,180.4,272.9,180.4,272.8,180.3z M299.1,150.3
		c0.6-0.3,1.1-0.3,1.5-0.1C300.1,150.2,299.6,150.2,299.1,150.3z"/>
</g>
<desc>Created with Sketch.</desc>
</svg>
