<?xml version="1.0" encoding="utf-8"?>
<!-- Generator: Adobe Illustrator 25.2.0, SVG Export Plug-In . SVG Version: 6.00 Build 0)  -->
<svg version="1.1" id="圖層_1" xmlns="http://www.w3.org/2000/svg" xmlns:xlink="http://www.w3.org/1999/xlink" x="0px" y="0px"
	 viewBox="0 0 473 567" style="enable-background:new 0 0 473 567;" xml:space="preserve">
<style type="text/css">
	.st0{fill-rule:evenodd;clip-rule:evenodd;fill:#FFFFFF;}
	.st1{fill-rule:evenodd;clip-rule:evenodd;}
</style>
<desc>Created with Sketch.</desc>
<desc>Created with Sketch.</desc>
<g id="head_x2F_mono_x2F_Medium-Bangs-3">
	<path id="_xD83C__xDFA8_-Background" class="st0" d="M252.7,149.2c22.1,0,49.7,25.2,57.8,35.9c6.8,9,5.8,55.4,5.8,82.9
		c0,5.8-2.6,16.6-3.5,22.2c-3.5,20.1-18.6,37.1-48.4,37.1c-24.3,0-43-7.7-61.1-27.4c-4.2-4.5-24.3,11.6-28.4,5.8
		c-10.7,0-19.8-100.5,1.4-130.7S230.7,149.2,252.7,149.2z"/>
	<path id="_xD83D__xDD8D_-Ink" class="st1" d="M186.4,156.3c12.8-11.6,29.8-17.2,46.9-16.7c8.9,0.2,17.7,1.9,26.1,4.8
		c4.2,1.4,8.2,3.4,12.1,5.5c1.4,0.8,2.7,1.6,3.9,2.6l0.3,0.2l0,0c3.3,1.2,6.3,3.4,9,5.9c5.4-0.4,10.8,0,16.1,1.8
		c7.3,2.3,14,6.6,18.7,12.6c5.5,7,7.3,15.5,6.7,24.4l-0.1,1.5c-0.7,7.8-1.8,17.8-8.2,22.9c-0.4,0.4-1,0.7-1.5,0.9
		c4.2,7,7.4,14.9,9.5,22.8c7.8,30.2,1.8,61.7-7.4,90.8c-0.8,2.4-4.4,3.9-6.2,1.6c-3.3-4.2-8.1-7.4-13.5-8c-3.3-0.3-6.7,0.3-9.7-1.2
		c-1.2-0.5-2.4-1.5-3.3-2.7c-5.3,2-11.1,3-16.6,2.7c-9.3-0.3-19.3-3.6-25.6-10.6c-1-1.1-1.3-2.4-1.1-3.5c0.8-0.3,1.6-0.5,2.5-0.7
		c8.1,4.8,17.1,8,26.7,8.2c5.6,0.1,10.9-0.7,15.4-4.2c1-0.8,1.9-1.5,2.7-2.5c9.4-6,16.1-16.3,19.1-27.4c3-10.3,2.6-21,1.5-31.5
		l-0.5-5.6c-0.8-8.2-1.5-16.3-1.8-24.5h0.1l0,0c2-0.1,2-3.3,0-3.1c-5.1,0.3-10.3-0.5-15.4-0.1c0-2.4-0.2-4.9-1-7.2
		c-0.4-1.3-2.7-1.6-3,0c-0.3,2.2-0.4,4.3-0.4,6.5c-7.8-0.1-15.4-0.8-23.2-0.4c-1.4-1.5-1.9-4.3-2.5-6.1c-0.1-0.3-0.2-0.5-0.3-0.9
		c-0.5,2.6-1.4,5.3-2.5,7.9h-1.9c-10.7,0-21.8,0.3-32.2,2.6c-0.8-0.5-1.2-1.5-1.3-2.4c-0.8-5.8-1.9-11.4-3.7-16.8l-0.3-0.8
		c0-0.1,0-0.1-0.1-0.2c-1.4,2.3-3.1,4.4-4.9,6.5c-1.1,1.2-2.2,2.3-3.4,3.4c-1.1,1.3-2.3,2.5-3.5,3.8c0,0.2,0.1,0.4,0.1,0.7
		c0.3,2.6,0.4,5.3,0.1,8c-0.4,4.8-1.9,9.4-3.9,13.7l-0.1,0.4c-0.3,2-0.8,4-1.9,5.6c1.3,1.5,2.4,3.4,3.1,5.4c0.5,1.8-2,3.4-3.3,1.9
		c-1-1.2-2.2-2.2-3.4-3c-0.1,0.1-0.2,0.1-0.3,0.1c-3.5-2-9.4-1.3-12.9,0.4c-4.4,2.3-6,6.9-5.6,11.7c0.4,4.5,2.4,9.7,6.2,12.1
		c1.8,1.1,3.2,1.2,5,0.7c0.5-0.1,1.3-0.7,1.6-0.9l0.3-0.2c1.2-1,2.4-1.6,3.8-1.6c1.4-0.4,3,0.2,3.5,1.8v0.1c0.2,0.8,0.8,1.8,0.7,3
		c-0.1,1.3-0.7,2.5-1.5,3.4c-0.1,0.1-0.3,0.3-0.4,0.4c15.2,16.4,17.2,42.1,9.4,62.7c-0.3,0.9-0.7,1.8-1.1,2.6
		c-1.3,3.1-6.3,2.1-7-0.9c-0.2-0.9-0.4-1.8-0.7-2.6c-0.4-1.6-0.9-3.3-1.4-4.8l-0.2-0.5c-0.4-1.3-0.9-2.6-1.3-3.9v-0.1
		c0-0.1,0-0.1-0.1-0.2l-0.8,1.8l0,0l-2.4,5.3c-1.1,2.4-4.7,1.1-4.8-1.2v-0.1c0-0.4,0-0.9,0-1.3c-0.2-3.2-0.8-6.2-1.6-9.3l-0.3,0.4
		c-4.7,5.8-10.2,11.2-17.7,12.6c-1.9,0.3-4-1.6-2.7-3.5c0.5-0.8,1.1-1.6,1.5-2.4c-0.4-0.2-0.9-0.4-1.2-0.7c-2.8-1.6-5.3-3.9-7.2-6.5
		c-4.2-5.5-5.7-12.4-6-19.1c-0.4-7.1,0.2-14.7,2.2-21.6c0.9-3,2-5.8,3.3-8.6c-0.1-0.2-0.2-0.5-0.2-0.8c-1.4-3.9-2.6-8.1-3.6-12.1
		c-2-8.3-3.1-17-3.2-25.5c-0.2-15.3,2.4-30.9,8-45.2C166,181.1,174.6,167,186.4,156.3z M179.2,290.2c-1.1-1.6-3.7-0.2-2.7,1.5v0.1
		c1.6,2.6,2.4,5.7,3.4,8.5c0.7,1.9,3.6,1.1,3-0.9l-0.2-0.7C181.8,296,180.9,292.9,179.2,290.2z M188.5,258.5l0.7-0.3
		c2.2-1.1,4.2-1.8,6.8-0.9c3.5,1.2,7.2,5.1,4.9,9c-0.9,1.4-2.4,2-4,1.6c-2.7-0.5-3.4-3-4.7-4.9l-0.2-0.3c-0.9-1.2-1.9-2.8-3.3-3.3
		C188.3,259.1,188.1,258.7,188.5,258.5z M190.5,177.7l0.2-0.2c1.5-1.3-0.7-3.5-2.2-2.2c-6.9,6-9.2,15.5-12.8,23.6
		c-0.8,1.9,1.9,3.4,2.7,1.5C181.7,192.7,184,183.5,190.5,177.7L190.5,177.7z M272.7,175.1c-1.8-0.8-3.4,1.8-1.6,2.6h0.1
		c6,2.7,8.6,9,11.1,14.7c0.8,1.9,3.5,0.2,2.7-1.5l-0.4-1C281.9,183.9,278.9,177.8,272.7,175.1z M282.3,171.3c-1.9-0.7-2.7,2.3-0.9,3
		c5.1,1.8,8.6,5.6,11.6,10.1c1.1,1.6,3.8,0.1,2.7-1.5C292.2,177.6,288.2,173.3,282.3,171.3z"/>
</g>
<desc>Created with Sketch.</desc>
</svg>
