<?xml version="1.0" encoding="utf-8"?>
<!-- Generator: Adobe Illustrator 25.2.0, SVG Export Plug-In . SVG Version: 6.00 Build 0)  -->
<svg version="1.1" id="圖層_1" xmlns="http://www.w3.org/2000/svg" xmlns:xlink="http://www.w3.org/1999/xlink" x="0px" y="0px"
	 viewBox="0 0 473 567" style="enable-background:new 0 0 473 567;" xml:space="preserve">
<style type="text/css">
	.st0{fill-rule:evenodd;clip-rule:evenodd;fill:#FFFFFF;}
	.st1{fill-rule:evenodd;clip-rule:evenodd;}
</style>
<desc>Created with Sketch.</desc>
<desc>Created with Sketch.</desc>
<g id="head_x2F_mono_x2F_hat-hip">
	<path id="_xD83C__xDFA8_-Background" class="st0" d="M313,243.6c-0.1-8.3-0.3-16.7-1.5-24.9c-1.2-8-4.5-15.3-10.2-21.1
		c-12.1-12.4-29.6-15.4-45.9-18.1l-27.9-4.7c-8.5-1.4-17.6-3.8-26.2-1.7c-4.2,1-7.9,3.3-11.1,6.1c-3.1,2.7-6.6,5.5-8.7,9.2
		c-2.2,3.6-2.9,7.8-3.6,11.9c-0.8,4.6-1.4,9.2-1.8,13.9c-0.9,9.3-1,18.7-0.3,27.9c0.3,4.5,0.8,9.1,1.4,13.5c0.3,2.3,0.6,4.4,1.1,6.7
		c0.1,0.6,0.2,1.4,0.3,2c-0.9,2.5-1.4,5.1-1.3,7.7c0.1,7.5,6.6,12.4,13,15c3.8,1.5,7.7,2.5,11.3,4.2c3.9,1.7,6.5,4.6,9.2,7.9
		c5.1,6.1,10.8,11.8,17.2,16.4c13.8,9.8,31.3,14.4,48,10.9c4-0.9,8.1-2.2,11.6-4.1c3.8-2,6.7-5.1,9.1-8.7
		c4.4-6.7,7.7-14.1,10.1-21.7c2.5-7.8,4.2-15.5,5.2-23.6C312.9,259.9,313.1,251.7,313,243.6L313,243.6z"/>
	<path id="_xD83D__xDD8D_-Ink" class="st1" d="M224,145.9c11.5-1.6,27.5,3.6,33.2,14c27.4-6.5,62-6.7,84.6,14.9
		c23.6,25.6-6,59.2-25.7,66.8c1.4,6.9-0.8,51.5-16.6,71.4c-12.5,16.8-41.7,24.6-55.2,4.5l-0.1-0.2c-1.4-2.4-0.2-2.3,1.3-0.5
		c13.3,11.6,31.2,11.9,45.1-0.4c26-22.4,23.3-77.4,10.9-109.2c-35.1-3.9-72.8,6.8-97.1,33.3l1.6,9.9c0.3,1.7,0.6,3.3,0.9,5.1
		c0.1,1.1,0.2,2.2-0.5,3c-2.5,2.9-6.7-1.4-10.1-3.2c-1-0.1-2-0.2-3-0.1c-16.5,2.2-13.3,34.2,4.9,28.6c1.5-1,2.8-0.6,3.4,0.8
		c4.3,4,7.2,11,14.3,17.8c2.6,2.6,4.9,4.6,7.7,6.7c1.7,1.7,6.7,3.4,5.2,6.4c-3,6.6-20.9-14.1-24-19.8c-9.9,3.9-20.9,2.6-31.2,1.6
		c-54.1-2.8-46.9-59.8-2.5-95.8c8.3-6.1,17.6-11.1,27.2-15c1.3-0.5,0.8-2.7-0.5-2.2c-6.4,2.6-12.5,5.6-18.4,9.1V191
		c0-3.6,0-7.2,0.6-10.5c0.3-2.3,0.9-4.6,1.6-6.5C182.5,168.5,197.9,149.5,224,145.9z M192.5,262.3c0.9-0.8,2.4,0.1,3.1,0.1
		c1.9,0.2,3.7,1.1,5.1,2c1,0.5,1.6,1,2.2,1.5l0,0l0,0l0,0c0.8,0.5,3.7,3.8,1.8,2.9c-0.1-0.2-0.3-0.3-0.4-0.5c0,0,0,0-0.1,0.1
		l0.1,0.1c1.5,2.4-1.2-0.1-1.5-0.8c0,0,0,0-0.1,0l0.5,0.6c0.1,0.1,0.1,0.2,0.2,0.2l0.1,0.1c1.8,1.7,1.8,3.3-0.2,0.8
		c0.1,0.1,0.1,0.2,0.1,0.3l0.1,0.1c1.6,2.2,0.3,1.4-0.5,0.4l-0.1-0.1l0,0c0.8,1.2-0.8,0.3-1-0.3l0,0c-0.3-0.2-0.4-0.5-0.5-0.5l0,0
		c-1.4-1.4-3.4-2.7-5.2-3.2c-0.2,0-0.5-0.1-0.8-0.1c-1.1-0.2-2.2-0.4-3.1-0.4c-0.1,0-0.2-0.1-0.3-0.2c-1.6-0.1-1.1-0.8-0.4-0.9l0,0
		h-0.1c-1.1-0.1-1.7-0.4-0.6-0.8h0.1c0,0,0,0,0-0.1c-0.9-0.1-0.3-1,0.2-0.8c-0.2-0.6,0.8-0.3,0.9-0.4s0.2-0.2,0.3-0.2
		C192.5,262.3,192.4,262.4,192.5,262.3z M198,251.2l-0.2,0.1c-0.2,0.1-0.3,0.2-0.5,0.2c0.2,0.1,0.5,0.2,0.8,0.3c0-0.1,0-0.3,0-0.4
		V251.2z"/>
</g>
</svg>
