<?xml version="1.0" encoding="utf-8"?>
<!-- Generator: Adobe Illustrator 25.2.0, SVG Export Plug-In . SVG Version: 6.00 Build 0)  -->
<svg version="1.1" id="圖層_1" xmlns="http://www.w3.org/2000/svg" xmlns:xlink="http://www.w3.org/1999/xlink" x="0px" y="0px"
	 viewBox="0 0 473 567" style="enable-background:new 0 0 473 567;" xml:space="preserve">
<style type="text/css">
	.st0{fill-rule:evenodd;clip-rule:evenodd;fill:#FFFFFF;}
	.st1{fill-rule:evenodd;clip-rule:evenodd;}
</style>
<desc>Created with Sketch.</desc>
<g id="head_x2F_mono_x2F_Long-Bangs">
	<path id="_xD83C__xDFA8_-Background" class="st0" d="M316.1,199.9c-4.3-15.6-20.8-22.4-35.6-23.4c-40.2-4.2-81.1,18.2-98.9,54.6
		c-14.3,27.6-14.7,56.6,16,72.3c1.7,0.9,3.4,1.9,5.2,2.8c1.6,1.4,3.1,2.8,4.9,4c16.7,11,37.2,15.7,57.1,14.7
		c29.3-0.6,39.8-20.5,46.2-46C317.6,253.5,321.4,225.9,316.1,199.9L316.1,199.9z"/>
	<path id="_xD83D__xDD8D_-Ink" class="st1" d="M335.3,346.7c-1.4-4.1-3.1-8.2-4.7-12.2c-0.3-2-0.6-4.1-0.6-6.1
		c-0.2-7.3,1.2-14.7,2.7-21.9c3.1-14.5,6.5-28.9,8.1-43.7c3-26.5,1.2-54-10.8-78.2c-10.4-20.9-28.1-38.1-51-44.5
		c-6.8-1.9-13.7-2.9-20.7-3.4c-0.9-0.1-1.7-0.3-2.6-0.4c-9.7-1.5-19.6-2.2-29.4-1.6c-16.3,1-32.5,5.7-46.1,15
		c-13.7,9.3-23.4,22.4-27.9,38.4c-4.7,16.6-4.3,34.6-12.4,50.2c-2.4,4.6-5.2,9-7.9,13.4c-7.1,7.9-14.8,16.7-16.5,27.6
		c-2.1,13.4,5.7,24.8,13,35.3c6.6,9.5,15.6,22.5,8.8,34.2c-3.2,5.5-8.4,9.6-12.2,14.6c-4,5.2-7.1,11.2-8.8,17.6
		c-3,12-0.2,24.5,7.9,33.9c4.2,4.9,9.7,8.1,15.5,10.6c6,2.6,11.9,5,16.9,9.4c2.3,2,4.4,4.2,6.3,6.5c1.8,2.9,4,5.5,6.4,8
		c2.7,2.7,7.8-1,5.4-4.2c-0.2-0.2-0.4-0.5-0.5-0.7c-1.8-2.3-3.6-4.6-5.4-6.9c-5.6-8.8-7.7-19.7-5-30c0.7-2.7,1.7-5.2,3-7.6
		c0.3,0.7,0.6,1.4,0.9,2.1c1.2,2.6,2.9,5.8,5,8.5c0.1,1.8,0.4,3.7,0.9,5.4c3.3,11.1,14.4,16.5,24.4,20.8c1,0.4,1.9,0.8,2.9,1.2
		c2.6,1.1,5.4-2.6,3.7-4.9c-0.4-0.6-0.8-1.2-1.2-1.8c-4.7-7.3-6.9-15.9-5.7-24.6c1.3-9.1,6.7-16.7,12.1-24
		c5.3-7.1,10.9-14.4,13.3-23.1c2.6-9.6,0.2-19.2-3.8-28.1c-3.7-8.1-8.6-15.6-12.7-23.5c1.4,1.4,2.9,2.8,4.4,4.1
		c1.7,1.5,3.4,3.2,5.4,4.2c1.5,0.8,3-1.1,1.8-2.3c-1.5-1.6-3.5-2.9-5.2-4.3c-1.6-1.4-3.2-2.9-4.8-4.3c-1.9-1.8-3.7-3.8-5.5-5.7
		c-1.4-3.6-2.6-7.2-3.5-10.9c-1.3-5-2.5-10.4-2.4-15.6c0.1-5.4,2.9-9.1,6.6-12.7c1.6-1.5,3.2-3,4.7-4.5c3.4-2.5,6.5-5.2,9.6-8
		c5.5-4.9,10.8-10.1,15.9-15.4c1.4-1.4,2.7-2.9,4-4.3c4.7-4.8,9.1-9.8,13.3-14.9c4.2-1.5,8.2-3.5,11.9-5.9c-1.6,1.7-3.3,3.3-4.9,4.9
		c-3.7,3.7-7.5,7.4-11.7,10.3c-0.4,0.3-0.2,1,0.4,0.9c5.4-1.1,10.4-2.9,15.1-5.7c4.8-2.9,9-6.9,12.9-10.8c2.2-1,4.4-2.3,6.3-3.6
		c0.1-0.1,0.2-0.1,0.3-0.2c-1.9,6.1-4.8,13.1-10.8,15.3c-0.2,0.1-0.2,0.4,0.1,0.4c5.1-0.3,9.2-2.6,12.4-5.9c2.6-1.9,5.1-3.9,7.5-6
		c2.3-2.1,4.5-4.3,6.5-6.7c-2.9,5.7-6.1,11.3-9.3,16.8c-0.2,0.3,0.2,0.7,0.5,0.5c6.7-4.6,11.8-10.4,16-17.4c0.6-1,1.2-2.1,1.8-3.1
		c-0.4,1.6-0.9,3.3-1.4,4.9c-0.9,2.9-1.8,5.9-2.7,8.8c-0.5,1.6-1.1,3.1-1.8,4.6c-0.5,1.1-1.1,2.2-1.2,3.4c0,0.1,0.1,0.1,0.1,0.1
		c2.7-0.7,5.2-3.7,7.1-5.6c1.1-1.1,2.1-2.2,3-3.4c0.2,7,0.3,14.1,0.1,21.1c-0.3,13-1.1,25.9-2.2,38.8c-0.9,11.4-1.6,23.4-8,33.3
		c-4.9,7.7-12.9,13-21.6,15.6c-0.8,0.2-1.5,0.4-2.3,0.6c-12.6,3-25.1-0.4-36.2-6.4c-3.3-1.8-6.2,3.1-3,5.1
		c12.1,7.5,27.4,10.1,41,6.7c-0.4,16.1,7.5,31.4,15.4,45.1c4.4,7.7,8.9,15.3,12,23.6c2.7,7.1,4.5,14.4,5.1,21.9
		c0.7,8.9,0,17.8-1.2,26.6c-0.1,0.5-0.1,1-0.2,1.4c-0.3,1.9,1.4,3.5,3.3,2.5c8.1-4.3,11.6-13.4,13.8-21.8c2-7.9,3.3-15.9,4.1-24
		c1.1,3.1,2,6.2,2.7,9.4c0.1,0.5,0.2,0.9,0.3,1.4c0.5,2.7,4.6,2.5,5.2,0c0.1-0.4,0.2-0.9,0.3-1.3c3.3-13.5,4.2-27.5,2.5-41.3
		C339.2,360.8,337.6,353.6,335.3,346.7"/>
</g>
</svg>
