<?xml version="1.0" encoding="utf-8"?>
<!-- Generator: Adobe Illustrator 25.2.0, SVG Export Plug-In . SVG Version: 6.00 Build 0)  -->
<svg version="1.1" id="圖層_1" xmlns="http://www.w3.org/2000/svg" xmlns:xlink="http://www.w3.org/1999/xlink" x="0px" y="0px"
	 viewBox="0 0 473 567" style="enable-background:new 0 0 473 567;" xml:space="preserve">
<style type="text/css">
	.st0{fill-rule:evenodd;clip-rule:evenodd;fill:#FFFFFF;}
	.st1{fill-rule:evenodd;clip-rule:evenodd;}
</style>
<desc>Created with Sketch.</desc>
<g id="head_x2F_mono_x2F_Pomp">
	<path id="_xD83C__xDFA8_-Background" class="st0" d="M305.8,213.1c-1.3-8.4,3.2-10.3,0-18.2c-7.1-14.9-26.4-14.3-40.6-15.4
		c-15.8-0.6-31.8,1.5-46.5,7.8c-3.4,1.5-6.8,3.3-10,5.4c-2.8,1.7-2.4,5.1-0.6,6.8c-12.6,17.8-5.4,41.9-15.5,60.8
		c-1.8,3.4-4.3,6.4-6,9.9c-2.4,5.4-2.6,13,2.9,16.5c7.8,4.2,12.2-4.2,16.1,7.9c19.3,42.2,58.1,44.6,94.9,22.6
		c3.2-1.7,6.5-3.8,8.8-6.6c5.5-6.1,4.8-14.8,4.9-22.5c0.1-4.5,0.1-9,0-13.4C314.1,256.4,308.1,231.1,305.8,213.1z"/>
	<path id="_xD83D__xDD8D_-Ink" class="st1" d="M227.5,162.5c22.2-10,47.4-13.9,71.6-11.4c12,1.2,23.7,3.9,35,8.2l1,0.4
		c2.8,1.1,5.7,2.1,7.8,4.3c2.4,2.6,3.2,6.4,1.3,9.4c-1.3,2.4-3.8,4.2-6.5,5.1c1,0.7,1.8,1.6,2.6,2.6c1.3,1.6,1.5,3.8,0,5.4
		c-2.8,2.9-6.6,5.1-10.5,6.2c0.5,2.2,0.2,4.5-0.7,6.7c-2.8,6.2-10.5,7-16.5,6.6h-0.1l-0.4,3.8c-0.1,2.1-1.3,3.7-3.4,3.9
		c-0.1,0-0.1,0-0.2,0c3.3,11.9,5.3,24,7.1,36.1c1,6.4,1.8,12.7,2.6,18.9l0.2,2.1c0.9,6.8,2,13.7,2.3,20.7c0.4,6.2-0.9,12.2-4.6,17.2
		c-3.4,4.5-8.2,7.9-13.2,10.4c-11.5,5.6-23.5,9.9-36.2,11.9l-0.9,0.1c-4.9,0.7-9.9,1.3-14.8,0c-4.3-1.2-8.7-4.3-7.7-9.2
		c0.4-1.7,2.7-1.7,3.4-0.5l0.2,0.2c1,1.5,2,2.9,3.7,3.7c2,1,4.2,1.2,6.4,1.2c6,0.1,12.1-1.5,17.8-2.9c10.8-2.8,21.8-7.3,30.4-14.2
		c3.8-2.9,6.7-6.6,7.8-11.2c1.3-5.7,0.1-12.1-0.5-18c-1.2-12-2.7-24-4.2-35.9l-0.4-2.4c-1.3-10-2.7-20-3.3-30.1
		c-0.2-0.4-0.5-0.7-0.5-1.2l-0.1-0.6l0,0c-0.1-0.6-0.1-1.1,0-1.6c0-1.8,0-3.7,0.1-5.5c0-0.4,0-0.6,0-1c-1.8,0.4-3.8,0.7-5.7,1.1
		c-13.4,2.1-27.1,2.6-40.7,1.5c-6.7-0.5-13.4-1.3-20.2-2.4c-3.4-0.6-6.8-1.1-10.1-1.8c-2.4-0.5-4.9-1.1-7.2-1.8
		c-2.4,3.7-3.8,8.1-3.5,12.5c0.2,5,3.7,9.5,2.7,14.5c-0.9,4.8-5,6.2-8.9,7.5l-1.7,0.5c-1.3,0.4-2.3,0.7-2.6,2.3
		c-0.4,2.7,0.1,5.7,0.2,8.6c0.1,3.2,0.2,6.5,0.4,9.7c0,1.7,0.1,3.3,0.1,5c0,1.2-0.1,2-0.6,2.8c0.4,0.5,0.7,1,1,1.5
		c0.1,0.1-0.1,0.4-0.2,0.2c-0.4-0.4-0.7-0.7-1.1-1c-0.2,0.2-0.5,0.5-0.7,0.7l0,0l0,0c-0.9,0.9-2.2,1-3.3,0l-0.2-0.2
		c-0.7-0.7-1.3-1.2-1.6-2.4v-0.1c-2-0.1-4,0.4-5.7,1.3c-2.8,1.6-4.9,3.8-6,6.6c0.5,0.6,1,1.1,1.7,1.5c0.1,0.1,0,0.2-0.1,0.1
		c-0.6-0.4-1.2-0.7-1.7-1.1c-0.4,1.1-0.7,2.2-0.9,3.5c-0.6,4.4,0.5,9.7,4.4,12.2c1.7,1.1,3.7,1.7,5.6,1.7c1,0,1.8-0.1,2.8-0.4
		c0.6-0.1,1.3-0.4,2-0.4c0.6,0,1.1,0.1,1.6,0.5h-0.1c-0.4,0-0.2,0,0.2,0c1.5,0.1,2.3,1.6,1.6,2.8l-0.1,0.2v0.1v0.4v0.1v0.1l0,0
		l2.2,3.3c2.7,4,5.4,8.1,8.4,11.7c2.2,2.6,4.5,5.1,7,7.5c2.2,2.1,4.8,3.2,7.3,4.8c1.3,0.9,1.7,2.7,0.5,3.9
		c-3.5,3.5-8.6,0.7-11.4-2.1c-2.7-2.7-5.1-6-7.1-9.2c-3.7-5.7-6.5-11.9-7.7-18.6c-0.5,0.5-1.2,0.7-1.8,1c-1.3,0.5-2.8,0.6-4.3,0.7
		c-2.7,0.1-5.5-0.6-7.9-1.7c-10-4.8-11.5-19.2-5.4-27.6c-0.9-2.4-1.3-5-1.8-7.2l-0.2-1c-2.6-11.1-4.3-22.9,0.2-33.7
		c0.6-1.3,1.2-2.8,2-4c0.6-1.1,1.7-2.2,2-3.4c0.6-2.7-3.4-5.4-4.5-7.5c-1.3-2.4-1.6-5.4,0.2-7.6c0.2-0.2,0.5-0.5,0.7-0.7
		c-1.8-3.2-1.8-7.3,0.5-10.5c1.6-2.1,3.9-3.5,6.5-4c1.6-0.2,3.4-0.1,5.1,0.4C204.8,175.1,215.7,167.7,227.5,162.5z M191.1,272.4
		c2.6-2.2,5.3-3.4,8.8-3.1c3.4,0.2,7.6,1.7,9.7,4.6c1.6,2.3-1.7,5.7-4,4c-2.2-1.6-3.5-3.4-6.2-4.3c-2.4-0.7-5.4-1.2-7.8-0.9
		C191.1,272.9,190.9,272.5,191.1,272.4z"/>
</g>
</svg>
