<?xml version="1.0" encoding="utf-8"?>
<!-- Generator: Adobe Illustrator 25.2.0, SVG Export Plug-In . SVG Version: 6.00 Build 0)  -->
<svg version="1.1" id="圖層_1" xmlns="http://www.w3.org/2000/svg" xmlns:xlink="http://www.w3.org/1999/xlink" x="0px" y="0px"
	 viewBox="0 0 473 567" style="enable-background:new 0 0 473 567;" xml:space="preserve">
<style type="text/css">
	.st0{fill-rule:evenodd;clip-rule:evenodd;fill:#FFFFFF;}
	.st1{fill-rule:evenodd;clip-rule:evenodd;}
</style>
<desc>Created with Sketch.</desc>
<desc>Created with Sketch.</desc>
<g id="head_x2F_mono_x2F_Shaved-2">
	<path id="_xD83C__xDFA8_-Background" class="st0" d="M305,202.5c-2.6-9.1-2.1-10.1-6-18.7c-12.5-25.2-95.8-16.7-104.4,8.4
		c-4.6,13.7-3.5,32.9-4.7,44.7c-0.4,6.3-0.7,12.5-1.1,18.9c-0.1,2.2-0.2,4.3-0.4,6.6c-0.2,4.2-0.5,8.4-0.7,12.7
		c-1.5,13,4.9,14.3,16.2,13.9c2.9,7.1,7.7,13.1,13.7,18c-1.4,3.9,3.7,5.9,6.6,7.5c15.2,8.6,34,13.7,50.8,8.9
		c4.9-1.4,25.4-6.3,31.7-21.3c3-7.4,9.4-45.7,1.1-80.2L305,202.5z"/>
	<path id="_xD83D__xDD8D_-Ink" class="st1" d="M251.7,143.1c2.3-0.5,5-0.2,6.3,2.1c0.2,0.5,0.5,1.1,0.6,1.5
		c6.4-1.4,13.1-1.6,19.7-0.7c2,0.2,2.7,2.9,1.8,4.3c-0.1,0.1-0.2,0.4-0.2,0.5c2.1,0.1,4.1,0.5,6.2,1.1c1.4,0.4,2.8,2.2,2.1,3.9
		c0,0.1-0.1,0.2-0.2,0.4c3.2,0.6,6.3,1.8,8.9,3.9c0.4,0.2,0.6,0.6,0.8,0.9c6-0.7,12.2,0.6,17.5,3.4c1.5,0.8,2.2,3.2,1.2,4.6
		c-0.4,0.5-0.7,0.9-1.1,1.3c2.3,0.8,4.3,2.2,5.7,4.6c1.5,2.5,2,5.6,1.2,8.3c1.6,1.8,2.6,4.3,2,7c-0.6,2.5-2,4-4,4.9
		c0.4,1.2,0.1,2.5-0.8,3.4c-1.3,1.4-2.9,2.5-4.7,3.2c0,0.5-0.1,0.9-0.4,1.4c-1.5,3-4.9,5-8.4,5.4c1.2,4.9,2.1,9.8,3,14.8
		c1.6,8.8,2.9,17.6,3.7,26.5l0.1,1.1c1.3,15,1.5,30.7-1.5,45.4c-2,9.4-7.8,17.3-15.7,22.7c-8,5.5-17.8,8.2-27.4,8.7
		c-4.9,0.2-9.8-0.2-14.6-1.2c-2.2-0.5-4.5-1.2-6.7-2c-2.3-0.9-4.2-2.3-6.2-3.9c-1.1-0.8-0.5-2.7,0.8-2.9c0.8-0.1,1.8-0.4,2.6-0.5
		c0.8-0.1,1.6,0.7,1.5,1.4l1.6,0.5c0.6,0.1,1.2,0.2,1.6,0.5l0.8,0.2c2.3,0.7,4.8,1.2,7.3,1.6c4.9,0.8,10.1,0.8,15,0.2
		c8.3-1.1,16.9-4,23.3-9.5c3.2-2.7,5.9-5.9,7.7-9.6c2.5-4.7,3.2-10,3.7-15.1c1.8-15,1.2-30.1-0.1-45.1c-0.7-7.5-1.6-15-2.6-22.4
		c-0.5-3.9-1.1-7.6-1.5-11.5c-1.1-0.2-2-0.7-2.8-1.4c-0.6-0.5-0.9-0.9-1.1-1.5c-0.8-0.1-1.8-0.6-2.3-1.4l-0.1-0.1
		c-1.5-2.3-4.3-3.6-6.8-4.6c-1.5-0.6-3-1.1-4.7-1.6c-1.6-0.6-3.3-1.3-5-1.5c-1.9-0.2-3.9,0.4-5.9,0.1c-1.8-0.2-3.3-0.8-4.6-2.1
		c-0.5-0.5-0.8-0.9-1.2-1.5c-6,1.3-12.2-0.4-18.4,0c-4.1,0.2-7.6,2.8-11.7,2.7c-1.2,0-2.2-0.5-3-1.1c-3.9,0.7-7.8,2.1-11.5,3.4
		c-3.6,1.2-7,2.8-10.7,4.1l0,0c-0.5,1.5-1.9,2.1-3.3,1.9c-4.8-0.8-8.9-3.9-13.6-5c-1.3,4.7-2.7,9.4-3.6,14.2s-1.6,9.7-2.1,14.6
		c-0.5,4.9-0.7,10-0.7,14.9c0,2.6,0.1,5,0.1,7.6c0.1,2.1,0.5,4.8-0.2,6.8l-0.1,0.1l0,0c-0.1,0.4-0.5,0.5-0.7,0.2
		c-1.4-1.6-1.8-4.3-2.2-6.4c-0.5-2.6-0.8-5.2-1.1-7.7c-0.5-5.2-0.6-10.3-0.4-15.6c0.5-10.2,2.1-21.1,5.6-30.7
		c-1.1,0.1-1.5-1.5-1.6-2.3c-0.1-1.8,0.1-3.7,0.5-5.5l0.4-1.9c0.4-1.8,0.6-3.5,1.2-5.2c1.4-4.1,3.5-8,6.1-11.5
		c5.3-7.1,12.5-12.5,20.8-15.7c0.5-0.2,1.1-0.2,1.4,0c7.6-4.1,15.7-7.3,24-9.5C246.5,144.3,249.1,143.6,251.7,143.1z M188.9,258.2
		c3.4-2.1,10.5-2.7,12.4,1.9c0.1,0.2-0.1,0.4-0.4,0.4l-0.5-0.1c-1.8-0.5-3.4-0.7-5.2,0c-1.6,0.7-3.2,1.6-4.2,3
		c-2.6,3.3-2.8,7.8-2.6,11.8v0.2c0.2,3.5,1.2,7.8,4.6,9.6c1.8,0.9,3.6,0.8,5.5,0.8c2.1,0,4.3,0.2,6.4,0.9c1.2,0.4,1.6,1.9,0.7,2.8
		c-0.4,0.4-0.7,0.6-1.1,0.8c1.1,1.2,2.1,2.2,3,3.4c1.6,2,3.5,4,5.4,5.9c1.8,1.8,3.7,3.5,5.9,5c2.2,1.5,4.8,2.7,6.7,4.6
		c1.2,1.3,1.1,2.9,0,4.2c-2.6,3-6.8-0.1-9.3-2l-0.2-0.2c-2.5-1.9-4.9-4-6.9-6.3c-2.1-2.5-3.9-5-5.2-8c-0.8-1.8-1.3-3.4-1.5-5
		c-4.3,1.9-9.8,1.3-13.7-1.4c-5.2-3.5-6.6-10-6.7-15.8v-0.4C182.2,268.2,183.7,261.4,188.9,258.2z M198.7,266.5h0.1
		c1.9,0,3.6,0.7,5.3,1.6l0.1,0.1c1.5,0.9,3.9,1.6,4.7,3.4c0.5,1.1,0.5,2.2-0.4,3.2c-1.5,1.6-4,1.3-5.6,0.1c-1.3-0.9-2.1-2.3-3.4-3.3
		c-2.3-1.8-6.1-1.6-8.4-0.1c-0.1,0.1-0.4-0.1-0.2-0.2C192.3,268.2,195.2,266.5,198.7,266.5L198.7,266.5z"/>
</g>
<desc>Created with Sketch.</desc>
</svg>
