<?xml version="1.0" encoding="utf-8"?>
<!-- Generator: Adobe Illustrator 25.2.0, SVG Export Plug-In . SVG Version: 6.00 Build 0)  -->
<svg version="1.1" id="圖層_1" xmlns="http://www.w3.org/2000/svg" xmlns:xlink="http://www.w3.org/1999/xlink" x="0px" y="0px"
	 viewBox="0 0 473 567" style="enable-background:new 0 0 473 567;" xml:space="preserve">
<style type="text/css">
	.st0{fill-rule:evenodd;clip-rule:evenodd;fill:#FFFFFF;}
	.st1{fill-rule:evenodd;clip-rule:evenodd;}
</style>
<desc>Created with Sketch.</desc>
<g id="head_x2F_mono_x2F_Twists-2">
	<path id="_xD83C__xDFA8_-Background" class="st0" d="M306.6,235.2c-1.3-10.7-5.5-22-10-32c-10-21.1-32.7-24-53.2-28.3
		c-20.2-2.9-41.5-5.6-61.4,0.3c-11.2,2.7-15.5,16-13.8,26.5c1,6.5,4,12.7,6.5,18.8c5,12.4,8.2,25.8,8.2,39.2
		c-0.3,8.8-1.6,18.8,8.5,22.6c9.6,4.8,10.4,17.8,22.5,25.1c4.9,9.9,18.1,10.7,27.7,13c6,1.2,12.1,2,18.3,2.6
		c17.7,2.3,31.9-2.9,41.2-18.7c6.2-9.6,10.8-20.7,9.7-32.4C309.9,259.7,308,247.5,306.6,235.2z"/>
	<path id="_xD83D__xDD8D_-Ink" class="st1" d="M243.6,149.3c1-1.1,2.6-0.8,3.5,0.2c0.6,0.2,1.2,0.5,1.8,0.8c1.3-0.2,2.6-0.2,3.9-0.1
		c0.3-0.2,0.6-0.3,1-0.5c2.5-0.9,4.8-0.5,6.6,0.8c0.9-0.8,2-1.4,3.4-1.3c1.3,0.1,2.2,0.7,3,1.5c0.8-1.1,2-1.9,3.6-2
		c2.2-0.2,4.3,0.7,6,2.1c1-1.2,2.4-1.8,4-1.8c1-0.2,2.1-0.1,3.1,0.2c1.4,0.4,2.6,1.2,3.6,2.3c1.6-1.5,3.5-2.6,5.7-2.4
		c2.8,0.2,5.2,2.3,6.3,4.9c1.9,0.8,3.7,1.9,5.2,3.4c0.1,0.1,0.2,0.2,0.2,0.3c0.8,0.3,1.6,0.7,2.2,1.3c2.1,1.8,2.6,4.3,1.9,6.8
		c0.1,0.4,0.2,0.8,0.3,1.2c2,0.3,3.8,1.4,4.8,3.3c1.4,2.5,1.1,5.9-0.4,8.3c-0.6,1-1.5,1.9-2.4,2.7c1,2.4,0.5,5.2-1.1,7.1
		c-0.4,0.7-0.9,1.3-1.5,1.8c0.6,2.5-0.5,5-2.7,6.3l-0.2,0.5c0,0.1-0.1,0.2-0.1,0.2c0,0.1-0.1,0.2-0.1,0.3c-0.1,0.9-0.3,1.7-0.9,2.5
		c-1.2,1.7-2.6,2.7-3.4,4.7l-0.1,0.2c-0.3,0.9-1.4,1.6-2.3,1.3c5,10.3,7.7,21.8,9.5,33.1c0.9,5.6,1.6,11.3,2.2,16.9l0.6,5.6
		c0.5,5,0.9,10,0.9,15.1c0,11.4-3.2,22.3-10.2,31.4c-6.6,8.6-16,14.8-26.5,17.2c-10.9,2.5-23.7,1.5-33.5-4.2
		c-2.9-1.7-0.4-5.8,2.6-4.4c5.6,2.6,11.2,4.5,17.4,4.9c6,0.4,12-0.3,17.7-2.3c9.4-3.3,17.4-10.1,22.6-18.5c2.5-4.2,4.4-8.7,5.4-13.5
		c1.2-6,1-12.2,0.6-18.2l0-0.4c-0.9-11.7-2.1-23.4-3.9-34.9c-1.7-10.2-4.2-20.2-7.6-30c-1.3-1.1-2.8-2.1-4.3-2.8
		c-11.4-0.5-22.9-0.3-34.3,0.5c-9.7,0.7-19.4,1.8-29,3.5l-1,0.2c-2.1,0.4-4.5,0.6-6.5,1.5c-1.7,0.7-2.4,2.2-2.8,3.9
		c-1.1,4.4-1.3,9.2-1.4,13.7c-0.2,4.4,0.2,8.9-0.1,13.3c-0.3,3.7-1.2,7.4-4,10.1c-1.4,1.4-3.2,2.2-4.8,3.2c-1.1,0.7-1.5,1.4-1.4,2.6
		c0.3,2.8,2.5,6.2,0,8.6c-0.4,0.4-1.2,0.5-1.6,0c-1-1.1-2.5-2-3.7-2.9c-0.5-0.4-0.1-1.1,0.5-0.8c0.8,0.3,1.5,0.7,2.3,1.1
		c-1.8-1.5-4.3-2.2-6.4-2.6c-1.1-0.2-2.2-0.3-3.2-0.2c-0.8,0.4-1.6,0.7-2.5,1.1c-1.1,0.4-2.1,0.8-3.2,1.2c-3.7,3-5.5,7.9-4.7,12.7
		c0.4,2.7,1.6,5.5,4,7.1c2.7,1.8,6.4,1,9.3,2.4c2.8,1.3,4.4,3.8,5.7,6.5l0.5,1.1c1.2,2.5,2.4,4.8,4,7.1c1.8,2.6,4.1,4.9,6.6,6.9
		c1.2,1,2.5,1.8,3.8,2.6l0.4,0.2c1.3,0.8,2.3,1.5,2.4,3.2c0,0.6-0.3,1.1-0.8,1.4c-2,1.3-4-0.3-5.7-1.4c-1.8-1.2-3.6-2.6-5.2-4
		c-3.1-2.8-5.7-6.1-7.7-9.8c-1.5-2.8-2.4-6.6-4.9-8.8c-1.5-1.3-3.6-1.3-5.5-1.6c-1.7-0.2-3.4-0.6-4.9-1.4
		c-6.3-3.5-8.1-11.9-6.6-18.5c0.3-1.1,0.6-2.2,1-3.2c-2.3,0.4-5-2-4-4.5c0.1-0.2,0.2-0.4,0.2-0.5c-1.5-1-2.8-2.6-3.3-4.6
		c-0.3-1-0.3-2.1-0.2-3.1c-0.7-0.5-1.4-1.2-1.8-2c-1.2-0.6-2.3-1.4-3-2.7c-0.9-1.7-0.8-3.3-0.1-4.7c-0.1-0.2-0.2-0.4-0.3-0.5
		c-2.5-1.6-4.3-4.4-4.1-7.5c0.1-1,0.3-1.9,0.7-2.8c0-0.1-0.1-0.2-0.1-0.3c-2.1-1.1-3.9-2.9-4.5-5.2c-0.6-2.4,0.1-4.8,1.6-6.6
		c-2.2-1.6-3.5-3.8-2.7-7.1c0.3-1.4,1-2.6,1.8-3.6c0,0,0-0.1,0-0.1l-0.2-0.2c-2.7-2.1-4.2-4.8-2.6-8.1c0.7-1.5,1.8-2.5,3-3.2
		l0.1-0.2l0,0c-0.9-1.9-1.2-4-0.6-6.2c0.5-1.8,1.7-3.3,3.2-4.2c-0.1-0.8-0.1-1.7,0.1-2.6c0.3-1.6,1.1-3,2.2-4c0-0.2,0.1-0.4,0.2-0.6
		c0.4-1.3,1.1-2.6,2-3.6c0.7-0.8,1.5-1.1,2.4-1.2c-0.1-0.8,0-1.6,0.1-2.4c0.5-2.5,2.1-4.8,4.4-5.8c1-0.4,2-0.6,2.9-0.5
		c0.8-1.7,2.4-3,4.4-3.3c0.8-0.1,1.5-0.1,2.1,0c0.4-0.2,0.8-0.3,1.2-0.5c0.3-0.1,0.5-0.2,0.8-0.3c0.9-1.1,2.1-2,3.5-2.6
		c1.6-0.6,3.3-0.6,4.7,0l0.5-0.1l0,0c0.7-1.3,1.9-2.2,3.7-2.7c2-0.5,4.1,0.2,5.7,1.5c0,0,0,0,0,0c0.8-1.9,2.3-3.2,4.7-3.1
		c1.5,0.1,2.8,0.8,3.9,1.9c0.6-0.1,1.2-0.1,1.7-0.2c0.6-0.7,1.3-1.4,2.1-2c1.2-1,2.8-0.9,3.8,0.5c0.2,0.3,0.4,0.6,0.6,0.9l0.8-0.1
		l0,0c1-1.3,2.3-2.2,4.2-2.3c1.7-0.1,2.9,0.8,3.8,1.9c0.7,0,1.5,0,2.2,0c0.9-1,1.9-1.9,3.1-2.6c0.9-0.6,2.2-0.4,2.9,0.4
		c0.5,0.5,0.9,1,1.4,1.6C240.6,150.4,242.1,149.6,243.6,149.3z M190.5,263.9c1.7-1,4,0.1,5.6,0.9c2,1,4,2.5,5.2,4.4
		c1.7,2.6-2.2,4.6-4,2.3c-1.1-1.4-1.9-2.8-3.2-4.1c-1.2-1.1-2.9-1.9-3.6-3.4C190.5,264,190.5,263.9,190.5,263.9z M191.7,201.9
		L191.7,201.9c0.5-1.4-1.6-2-2.1-0.7c-0.7,2,0.1,4.1,2.1,5c0.5,0.2,1.2,0.2,1.5-0.4c0.3-0.5,0.1-1.2-0.4-1.5
		C191.7,203.8,191.3,203,191.7,201.9L191.7,201.9z M173.7,198.2c1-0.9-0.5-2.5-1.5-1.5c-1,0.9-1.7,2-1.5,3.4c0.2,1.4,1.2,2.3,2.3,3
		c1.2,0.7,2.3-1.1,1.1-1.9l-0.1-0.1c-0.5-0.3-1.1-0.7-1.2-1.3C172.7,199.1,173.2,198.6,173.7,198.2z M179.6,181.9L179.6,181.9
		c1.2-0.9,0.1-2.7-1-1.9c-1,0.7-1.9,1.7-2,3c-0.1,1.3,0.6,2.4,1.4,3.3c1,1,2.5-0.5,1.5-1.5C178.7,183.8,178.5,182.8,179.6,181.9
		L179.6,181.9z"/>
</g>
</svg>
