<svg xmlns="http://www.w3.org/2000/svg" width="124.708" height="142.096" viewBox="0 0 124.708 142.096">
  <g id="Character_ice-cream" data-name="Character/ice-cream" transform="translate(-467.886 -112.849)">
    <path id="Combined-Shape" d="M630.786,357.76c.806-.086.921,1.008,1.031,1.507.31-.2.588-.009.658-.467.983,1.031,1.769,2.213,2.643,3.333.837,1.074,2.145,1.928,2.869,3.058.615.959-.4,2.414-.525,3.436a4.358,4.358,0,0,0,.945,3.349,2.465,2.465,0,0,0,1.362.806c.54.11,1.055-.208,1.53-.14.4.056.413.317.55.706a3.1,3.1,0,0,0,.875,1.409c.5.418,1.034.538,1.414,1.1a3.95,3.95,0,0,0,1.034,1.3c.687.454,1.788.591,1.714,1.651l.354-.281a18.372,18.372,0,0,0,1.052,2.56,1.9,1.9,0,0,1,.276,1.025c-.007.284-.163.5.006.774.27.44.989.381,1.318.737s-.013.86.376,1.179c-.164.051-.619.418-.448.641.246.321.265-.119.437-.066.4.121.313.616.621.75.063.027.058-.264.055-.343v0l.136.267c2.064,4.026,4.51,7.847,6.449,11.933l.129.273a166.245,166.245,0,0,0,12.475,22.02c1.1,1.648,2.316,3.285,3.337,4.98s2.3,3.213,3.44,4.842c1.167,1.675,2.236,3.42,3.412,5.088.939,1.33,2.086,2.747,2.07,4.462a2.125,2.125,0,0,1-.852,2.014c-.018-.314-.493.034-.606.111-.491.334-.224.3-.753.18-.858-.189-1.591.067-2.384-.421-1.684-1.035-3.343-2.1-5.057-3.088a110.66,110.66,0,0,1-10.809-6.872c-6.007-4.461-12.535-8.458-18.056-13.532s-11.306-10.1-17.854-13.808c-.438-.248-1.7-.621-1.58-1.214.1-.52,1.233-1.248,1.63-1.608,1.377-1.249,2.811-2.43,4.139-3.732a56.958,56.958,0,0,0,6.852-7.877,18.191,18.191,0,0,0,2-4.458c.493-1.377.949-3.072.148-4.434a1.568,1.568,0,0,0-1.6-.839c-.592.04-.565.161-.8-.467a3.178,3.178,0,0,0-1.136-1.853c-.7-.406-1.18.027-1.749.433-.654-.945-1.456-2.58-2.775-2.671-1.377-.094-2.159,1.608-2.634,2.631a51.3,51.3,0,0,1-5.2,8.551c-2.132,2.922-4.312,5.894-6.662,8.646a6.935,6.935,0,0,1-1.763,1.786,1.735,1.735,0,0,1-1.87-.359l-.053-.037c-1.432-.983-2.825-1.993-4.316-2.893-1.652-1-3.35-1.91-5.034-2.849-.743-.414-1.448-.913-2.214-1.285-.713-.347-1.49-.518-2.221-.822,2.682-.8,5.507.248,8.045,1.079a10.57,10.57,0,0,0,4.1.765,6.628,6.628,0,0,0,3.283-1.464c1.739-1.287,1.876-3.22,1.309-5.174-.653-2.249-1.652-4.411-2.405-6.629-.343-1.009-.58-2.08.2-2.952a2.259,2.259,0,0,1,2.557-.569,19.668,19.668,0,0,0,6.843,1.373c1.938-.055,4.4-.606,5.71-2.182a4.778,4.778,0,0,0,.746-3.123,26.794,26.794,0,0,0-.254-3.8c-.317-2.243-1.14-4.49-.109-6.668C629.447,359.021,630.12,357.831,630.786,357.76Zm20.15,28.021v0h0C650.934,385.762,650.935,385.765,650.936,385.781Zm-80.218-10.536c.606-.839,2.264-2.792,3.53-2.365a1.414,1.414,0,0,1,.527.459q.155.2.307.4.095.267.34.158a7.309,7.309,0,0,1,1.326,1.836,13.629,13.629,0,0,0,1.331,2.162,6.748,6.748,0,0,1,.954,2.614v1.7c-.063.659-1.294,1.838-1.727,2.284-1.075,1.107-2.243,1.249-3.836,1.108a6.174,6.174,0,0,1-4.011-1.643c-.877-1.03-.864-2.626-.735-3.894A10.037,10.037,0,0,1,570.718,375.245Zm4.152.281a1.211,1.211,0,0,0-1.263-.518,4.572,4.572,0,0,0-1.455.306c-.4.2-.605.539-1.107.424.2.342-.157.54-.208.848a1.248,1.248,0,0,0,.323,1.052,2.821,2.821,0,0,0,2.1.671,2.2,2.2,0,0,1,1.793.753c.241.385.022.662.135,1.048.083.285.431.448.583.693a4.216,4.216,0,0,0,.181-3.159,7.229,7.229,0,0,0-.644-1.2c-.072-.109-.242-.239-.287-.329C574.946,375.956,574.956,375.685,574.87,375.526Z" transform="translate(-92.231 -224.141)" fill="#ff5678" fill-rule="evenodd"/>
    <g id="Ink" transform="translate(467.886 112.849)">
      <path id="ink-shape" d="M74.114,137.434a8.129,8.129,0,0,1,3.023-.175c1.213.022,2.429.114,3.638.209,2.322.182,4.632.105,6.956.323,1.154.108,2.308.207,3.463.305a12.292,12.292,0,0,0,3.194.162c.417-.08,1.541-.472,1.333-1.083-.16-.471-1.427-.761-1.839-.9-.97-.316-1.972-.542-2.953-.823a4.136,4.136,0,0,0-1.535-.25c-.45.042-.924.379-1.38.34-.675-.057-1.022-.9-1.517-1.279-.788-.6-1.372-.277-1.976.379-.447.485-.872,1.219-1.6,1.262-.932.055-1.113-.744-.7-1.423.379-.625,1.41-1.265,1.466-2.043a3.258,3.258,0,0,0-1.2-2c-.761-.315-1.838.519-2.526.775-1.2.447-2.429.842-3.646,1.246-.833.276-2.068.3-2.225,1.277a23.794,23.794,0,0,0,.037,3.69M26.471,118.646c.242-.537.5-.842.012-1.34-.271-.278-.652-.415-.918-.7-.4-.435-1.027-1.621-.169-1.92.82-.286,1.51.856,2.17,1.107.837.318,1.356-.215,1.476-1.017.154-1.028-.015-2.1.107-3.145a18.132,18.132,0,0,1,.75-2.847c.185-.662.412-1.33-.429-1.477a11.468,11.468,0,0,0-2.448.229c-1.22.067-2.455.129-3.664.312-1.351.2-1.326,1.586-1.665,2.717a77.119,77.119,0,0,0-2.438,8.251,3.78,3.78,0,0,0,1.048,3.01c.855,1.2,1.745,2.394,2.713,3.505a5.8,5.8,0,0,0,2.317,1.774c1.067.386,1.475-.043,1.228-1.1a15.6,15.6,0,0,1-.758-4.177c.021-.527.174-1.093-.205-1.534a3.446,3.446,0,0,0-1.058-.594c-.566-.307-1.444-1.295-.34-1.508.749-.144,1.546.359,2.271.454M51.954,64.234c.673.752,1.405,1.472,2.044,2.254.366.448.625.987,1.018,1.412.86.93,1.718-.1,2.479-.7,3-2.37,5.816-4.939,8.671-7.476,1.36-1.209,2.807-2.324,4.146-3.556,1.356-1.248,2.485-2.708,3.755-4.038a8.372,8.372,0,0,0,1.717-2.087c.321-.7.392-1.452.758-2.14.634-1.191,1.8-2.573,1.53-4.014-.785.823-2.092,3.774-3.462,2.39-.978-.988.021-2.448-.023-3.6-.928.394-.687,1.992-1.676,2.275-.535.153-.993-.332-1.242-.757a2.886,2.886,0,0,1-.077-2.284c.134-.531.986-2.284.143-2.5-.731-.187-1.343,1.157-1.585,1.634-.444.874-.787,1.777-1.275,2.632-.84,1.474-1.808,2.882-2.731,4.3a89.317,89.317,0,0,1-6.3,8.367,52.866,52.866,0,0,1-7.894,7.885m21.11,9.321c-.1,2.582-2.313,4.539-4.231,5.975-2.451,1.834-4.712,3.919-7.635,4.964-1.125.4-2.531.286-2.982,1.553-.176.5-.016.678.175,1.177a13.13,13.13,0,0,1,.62,2.448,10.406,10.406,0,0,1-1.665,7.967,17.486,17.486,0,0,1-3.211,3.247,34.363,34.363,0,0,1-3.584,2.863,23.758,23.758,0,0,1-9.023,3.122c-1.658.243-3.322.459-5,.544-.868.045-1.738.053-2.607.014-.388-.017-1.832-.345-2.112-.122-.216.171-.312,1.208-.355,1.495-.092.6-.164,1.2-.289,1.8a7.827,7.827,0,0,0-.219,3.781c.107.351.193.638.519.755.206.075.571-.057.78-.078a6.569,6.569,0,0,1,1.39-.017,26.731,26.731,0,0,0,4.655.454c3.352-.231,6.707-.467,10.028-.991,1.615-.256,3.166-.738,4.754-1.112a22.054,22.054,0,0,0,4.441-1.383,32.359,32.359,0,0,0,7.614-5.069,25.966,25.966,0,0,0,5.583-7.6c1.341-2.516,2.472-5.063,2.413-7.963-.037-1.836-.3-4.11.76-5.729a2.077,2.077,0,0,1,2.372-1.034c1.653.711.091,2.115-.539,2.885-.908,1.11-.786,2.8-.88,4.155a29.2,29.2,0,0,1-.821,4.553c-.343,1.515.349,3.313.417,4.858.074,1.676.025,3.354.007,5.031-.037,3.335.118,6.661.106,10-.006,1.729.038,3.467-.071,5.194a39.548,39.548,0,0,1-.7,4.628,21.782,21.782,0,0,0-.587,4.878c3.787-1.442,7.473-3.146,11.318-4.435-1.2-1.046-1.253-2.525-1.349-4-.127-1.946-.448-3.876-.587-5.821a76.18,76.18,0,0,1,.128-11.725c.351-4.122.973-8.229,1.1-12.369a30.829,30.829,0,0,0-.417-5.961,15.762,15.762,0,0,0-1.375-5.212c-.825-1.4-2.343-2.295-3.609-3.251-1.852-1.4-3.566-2.97-5.333-4.47m.229-53.909a15.456,15.456,0,0,0,1.577,1.794c.585.578.834.45,1.534.15,1.392-.6,1.365-1.291.588-2.49-1.8-2.783-2.485-6.1-4.392-8.823a21.722,21.722,0,0,0-7.479-6.4,19.747,19.747,0,0,0-9.884-2.141c-1.773.025-3.558.148-5.32.347a35.581,35.581,0,0,0-4.9,1.181c-.835.214-1.7.391-2.509.685-.713.258-1.353.656-2.073.9a22.609,22.609,0,0,0-4.583,1.977,33.259,33.259,0,0,0-3.905,2.776,50.47,50.47,0,0,1-3.857,3.257,37.214,37.214,0,0,0-3.478,3.014,19.527,19.527,0,0,0-3.259,3.659,19.554,19.554,0,0,0-1.775,4.434,25.212,25.212,0,0,0-1.49,5.322c-.442,3.36.55,7.288,1.81,10.4a22.367,22.367,0,0,0,5.676,7.894A17.322,17.322,0,0,0,29.47,50.4c1.229.628,2.831,1.758,4.169.968a5.653,5.653,0,0,1,1.607-.835c.684-.157,1.355-.093,1.907-.595.469-.427.694-.942,1.31-1.2a6.234,6.234,0,0,1,2.378-.359,19.074,19.074,0,0,1,5.193.934c1.537.447,2.823,1.122,4.456.713,1.214-.3,3.16-1.111,3.421-2.5.234-1.244-.668-2.853-1.123-3.966a32.968,32.968,0,0,1-1.591-4.67c-.313-1.282-.8-3.332.079-4.5.867-1.151,2.872-1.137,4.118-.848.816.19,1.567.572,2.384.764a21.717,21.717,0,0,0,2.542.391c2.941.333,7.126-.42,6.97-4.181-.139-3.352-1.986-6.713-.9-10.069.441-1.368,1.341-2.95,2.839-3.311a5.676,5.676,0,0,1,3.844.636c.842.5,1.675,1.545.224,1.879M14.224,34.62C11.259,35.2,9.3,38.327,8.754,41.1A7.4,7.4,0,0,0,8.9,45.069c.549,1.4,2.1,1.987,3.47,2.281a4.469,4.469,0,0,0,4.193-.881,7.745,7.745,0,0,0,1.4-1.641c.4-.621.958-1.074.555-1.769a30.117,30.117,0,0,1-2.509-5.3,22.993,22.993,0,0,1-.749-2.54c-.155-.691-.23-1.113-1.032-.593M40.192,53.394a6.128,6.128,0,0,1-1.973,1.291c-.812.326-1.059.169-1.019,1.11a5.339,5.339,0,0,1-.421,2.836c-.221.452-1.039,1.063-.885,1.571.222.73,2.493,1.469,3.155,1.724a5.778,5.778,0,0,0,4.931-.24c1.738-1,1.892-2.821,1.237-4.58-.07-.188-.324-.5-.261-.71.115-.376.587-.322.858-.178.588.312.834,1.259.961,1.85a4.748,4.748,0,0,1-1.464,4.378,6.814,6.814,0,0,1-3.466,1.505,6.909,6.909,0,0,0-1.193.026c-.624.186-.652.957-.808,1.52a13.71,13.71,0,0,0-.432,3.137,9.294,9.294,0,0,0,1.109,5.258c2.259,3.331,6.628,4.488,10.038,6.2a33.241,33.241,0,0,1,5.109,3.28,4.5,4.5,0,0,0,.589.452c.647.319.082.2.5-.008.319-.162.592-.514.921-.7.759-.423,1.612-.651,2.384-1.05a32.9,32.9,0,0,0,4.976-3.312A55.6,55.6,0,0,0,69.81,74.91c.628-.6,1.335-1.1,1.972-1.683s-.18-.826-.723-1.255c-1.849-1.461-3.675-2.969-5.65-4.261-.659-.431-1.24-1.012-1.927-1.393-.718-.4-1.144-.041-1.709.464a19.029,19.029,0,0,1-1.895,1.568c-.908.625-1.964.926-2.877,1.52.586.614,2.015.819,2.223,1.749s-1.192,1.678-1.848,2.042a13.5,13.5,0,0,1-3.725,1.312c-1.073.232-2.665-.117-3.525.693-.245-.519-.475-.79-.071-1.287a3.389,3.389,0,0,1,1.691-.772c1.537-.515,3.05-1.2,4.537-1.845a3.237,3.237,0,0,0-1.067-1.079,9.494,9.494,0,0,1-1.425-1.44c-.834-1.019-1.581-2.107-2.375-3.156-.344-.455-.658-.91-1.287-.658a17.117,17.117,0,0,0-1.63,1.1,19.46,19.46,0,0,1-3.59,1.755c-.535.173-2.726.667-2.143-.674.173-.4.75-.561,1.106-.735.657-.321,1.312-.649,1.945-1.015,1.3-.753,2.448-1.727,3.664-2.6,1.342-.966,2.708-1.9,3.968-2.979-1.254-.831-2.645-1.44-3.942-2.2s-2.631-1.463-3.987-2.146a24.018,24.018,0,0,1-3.161-1.826c-.391-.279-1.737-1.44-2.166-.714M79.621,26.36q-.247.062-.49.141c1.1,1.682-.114,3.764.23,5.584,1.015-.6,1.148-2.937,2.689-2.5,1.66.465.834,2.509,1.336,3.679.785-.686,1.7-.045,2.024.769.35.882-.136,1.7.027,2.569.17.9.673.31.953-.222A4.07,4.07,0,0,0,86.927,34a11.616,11.616,0,0,0-1.186-2.681,13.252,13.252,0,0,0-1.324-2.478c-1.069-1.432-2.926-2.719-4.8-2.482M90.252,46.528c-.717-1.793-1.78-3.434-2.458-5.241-.2-.528-.309-1.37-.834-1.7-.345-.214-.8-.085-1.184-.2a2.642,2.642,0,0,1-1.05-.67c-.5-.516-.659-1.223-1.245-1.673-.757-.58-1.342-.8-1.7-1.77-.283-.761-.283-.872-1.133-.7a2.266,2.266,0,0,1-2.322-.767,4.417,4.417,0,0,1-.672-4.441c.249-.693.682-1.5.322-2.226-.334-.674-1.145-1.158-1.659-1.7-1.3-1.358-2.316-2.948-3.535-4.374A7.267,7.267,0,0,1,71.963,20c-.143-.248-.227-.675-.558-.746-.57-.121-1.365.865-1.651,1.224-2.1,2.627-.6,6.2-.341,9.166.13,1.508.422,3.316-.246,4.736-.63,1.338-2.224,2.006-3.567,2.379a13.106,13.106,0,0,1-5.6.175,14.693,14.693,0,0,1-2.807-.778c-.935-.354-1.908-.962-2.861-.32-1.23.829-.85,2.491-.58,3.7a48.052,48.052,0,0,0,1.894,5.727c.573,1.6,1.036,3.6-.168,5.03a6.532,6.532,0,0,1-5.053,2.246c-3.848-.154-7.361-3.025-11.293-1.85.739.306,1.52.485,2.242.835.872.422,1.678.984,2.524,1.453,1.624.9,3.254,1.79,4.841,2.756,1.434.873,2.79,1.829,4.159,2.8,1.706,1.2,2.6-.13,3.7-1.431,2.389-2.841,4.663-5.85,6.833-8.861a51.583,51.583,0,0,0,5-8.275c.488-1.046,1.31-2.822,2.739-2.615,1.268.183,2.008,1.715,2.664,2.652.458-.328.85-.767,1.467-.586a2.061,2.061,0,0,1,1.093,1.124c.156.308.262,1.348.523,1.5.185.111.894-.128,1.21-.055,1.081.25,1.427,1.641,1.416,2.606a12.082,12.082,0,0,1-1.026,3.894,22.661,22.661,0,0,1-4.7,7.1,72.591,72.591,0,0,1-6.21,6.188q-.817.727-1.614,1.475a11.131,11.131,0,0,0-1.465,1.318c-.63.891,1.056,1.3,1.684,1.622a48.242,48.242,0,0,1,7.567,5.136c2.452,1.943,4.918,3.894,7.275,5.953,2.305,2.014,4.483,4.161,6.91,6.035,2.494,1.924,5.107,3.7,7.67,5.533s5.062,3.761,7.624,5.6c2.5,1.793,5.192,3.331,7.826,4.924,1.378.833,2.763,1.654,4.147,2.477,1.119.665,2.334,1.7,3.661,1.783,1.2.075,2.33.516,3.045-.785a3.777,3.777,0,0,0-.158-3.3,30.932,30.932,0,0,0-2.215-3.331c-.838-1.246-1.616-2.528-2.443-3.781-.793-1.2-1.674-2.309-2.559-3.441-.9-1.147-1.577-2.44-2.377-3.655-1.708-2.6-3.464-5.147-5.084-7.8-3.715-6.089-7.042-12.376-10.22-18.756-.28-.562-6.815-12.146-6.632-12.246m-5.23,37.438c2,6.905.845,13.926.436,20.951-.207,3.552-.238,7.126-.33,10.681-.045,1.729-.042,3.459.03,5.187.036.869.1,1.736.162,2.6.054.767-.152,1.615-.054,2.355.124.949,2.005,1.134,1.427,2.352-.388.816-1.746.94-2.473,1.285.323.375.829.936,1.368.972.487.031.861-.39,1.3-.549.387-.142.918-.279,1.162.172.256.473-.28,1-.491,1.365.72.14,1.218-.291,1.867-.251.683.042.715.715,1.164,1.1a5.591,5.591,0,0,0,2.043.728,10.337,10.337,0,0,1,2.148.867,6.2,6.2,0,0,1,2.672,3.261,3,3,0,0,1-1.327,3.359,1.776,1.776,0,0,1-1.5.5c-.6-.191-.7-.682-1.432-.645-.66.032-1.288.3-1.951.331-.976.049-1.951-.128-2.928-.091a87.967,87.967,0,0,1-11.818-.194c-1.018-.1-2.016-.179-3.02-.21-.78-.025-.846-.608-.978-1.339-.319-1.766.387-3.5.037-5.22.023.114-.529-.181-.6-.237a2.31,2.31,0,0,1-.662-1.331,13.274,13.274,0,0,1-.219-4.082c.226-3.108.8-6.189.757-9.314-.024-1.575.024-3.147.024-4.722,0-1.446.131-2.874.143-4.311.027-3.149.358-6.263.45-9.41a8.682,8.682,0,0,0-1.419,2.323,27.985,27.985,0,0,1-1.708,2.857,22.005,22.005,0,0,1-4.816,4.8,32.026,32.026,0,0,1-11.337,5.821,85.717,85.717,0,0,1-13.813,2.5,16.793,16.793,0,0,1-3.264.059c-.711-.07-1.866-.644-2.541-.352-.768.331-.922,1.128-1.928.9a4.247,4.247,0,0,1-1-.515c-.495-.254-.514-.079-.986-.046-.527.036-.842-.227-1.3.2-.39.36-.352.613,0,.95.5.474,1.3.554,1.8,1.049s.4,1.073-.353,1.079-1.43-.532-2.17-.6c.158,2.19.816,4.638.086,6.786a2.178,2.178,0,0,1-2.15,1.633c-1.814-.012-3.406-1.682-4.5-2.983-.6-.719-1.094-1.527-1.677-2.264a9.351,9.351,0,0,1-1.577-2.422,5.18,5.18,0,0,1-.054-2.936c.251-1.232.485-2.476.789-3.7.589-2.366,1.774-4.524,2.372-6.883a7.291,7.291,0,0,1,.794-2.7,2.631,2.631,0,0,1,2.478-.811c1.154.064,2.308.192,3.457.322.725.083,2.314.606,2.9.16.2-.153.2-.556.441-.7s.6-.037.849-.019c1.24.092,2.491.2,3.733.24a27.96,27.96,0,0,0,13.614-2.732,22.113,22.113,0,0,0,4.909-4.046,9.8,9.8,0,0,0,3.237-5.139,12.792,12.792,0,0,0-.386-6.108c-.6-1.82-2.734-2.923-4.286-3.82a47.862,47.862,0,0,0-6.758-3.17,2.421,2.421,0,0,0-1.221-.25c-.5.089-.83.519-1.282.709a11.023,11.023,0,0,1-1.762.359c-.549.128-1.085.3-1.644.388-1.762.266-4.238.054-5.694-1.073-2.38-1.841-.942-4.446-.177-6.686a5.373,5.373,0,0,1-2.253-.184,3.441,3.441,0,0,1-1.72-1.721c-.638-1.392-.269-2.992-.081-4.443a7.667,7.667,0,0,1,.432-1.924,10.154,10.154,0,0,0,.63-1.437c.129-.556-.038-.589-.5-.854a4.364,4.364,0,0,1-1.666-1.6,4.492,4.492,0,0,1-.176-4.43c.284-.6.962-1.425.885-2.126-.066-.6-.748-1.072-1.15-1.467a43.859,43.859,0,0,0-3.934-3.408,22.515,22.515,0,0,1-1.935-1.513c-.428-.414-.863-1.314-1.448-1.531s-.976.437-1.384.788a23.43,23.43,0,0,1-1.939,1.651,5.429,5.429,0,0,1-4.189.42A11.108,11.108,0,0,1,9.6,47.925c-.5-.328-1.077-.993-1.689-1.046-.654-.057-1.363.593-1.83.983-1.219,1.019-1.585,2.6-2.3,3.97a8.052,8.052,0,0,0-.914,4.834,8.341,8.341,0,0,0,1.674,3.963c.183.258.612.746.3,1.032-.383.35-1.169-.351-1.426-.578A9.223,9.223,0,0,1,.234,52.05a16.86,16.86,0,0,1,2.329-5.076,4,4,0,0,1,1.6-1.674,8.538,8.538,0,0,1,2.727-.434c-.629-3.083-.826-6.437,1.107-9.123,1.484-2.062,4.523-3.866,6.931-2.194-.1-2.273-.422-4.431.182-6.668a16.354,16.354,0,0,1,1.1-2.912c.447-.915,1.064-1.69,1.425-2.642a26.939,26.939,0,0,1,7.075-9.8c2.95-2.724,5.845-6.048,9.561-7.752A53,53,0,0,1,46.295-.414,36.107,36.107,0,0,1,59.537-.631c3.853.7,7.418,3.037,10.334,5.56A27.037,27.037,0,0,1,77.044,15.3c.373.883.733,1.774,1.191,2.618a22.714,22.714,0,0,1,1.534,2.813,2.742,2.742,0,0,1-.2,2.67c-.417.563-1.273.69-1.637,1.205-.184.26-.166.507.239.584s.617-.386.918-.574c.748-.466,1.8-.069,2.559.2a8.481,8.481,0,0,1,4.27,3.315A25.056,25.056,0,0,1,88.3,32.993a18.99,18.99,0,0,1,1.071,3.219c.088.42.212,1.559-.452,1.06-.269-.2-.654,1.333-.581,1.578a8.684,8.684,0,0,0,1.682,2.337,28.794,28.794,0,0,1,2.957,5.263c1.9,3.965,4.022,7.814,6.058,11.71,4.146,7.934,8.676,15.564,13.429,23.148q3.533,5.636,7.3,11.1c1.111,1.611,2.225,3.223,3.312,4.85.922,1.383,1.834,2.923,1.6,4.649A3.98,3.98,0,0,1,122,105.275a6.673,6.673,0,0,1-2.648.511,6.589,6.589,0,0,1-2.584-1.208q-5.467-3.3-10.937-6.587c-4.079-2.454-7.81-5.367-11.7-8.1-1.98-1.388-4.022-2.639-6.085-3.9-.465-.282-2.572-2.31-3.019-2.033" transform="translate(0 1.143)" fill-rule="evenodd"/>
      <path id="ink-shape-2" data-name="ink-shape" d="M368.123,1064.428a17.142,17.142,0,0,1-3.446,3.96,32.957,32.957,0,0,1-4.672,3.035c-2.909,1.606-6.808,3.027-10.187,2.3-.961-.207-2.5-1.048-1.663-2.249.42-.6,1.32-.446,1.958-.413a7.151,7.151,0,0,0,2.909-.234c1.808-.635,3.629-1.235,5.4-1.983a34.826,34.826,0,0,0,4.779-2.7,31.718,31.718,0,0,0,3.887-3.119c.354-.3.963-.834,1.3-.244.242.426-.126,1.227-.259,1.644" transform="translate(-318.416 -972.333)" fill-rule="evenodd"/>
      <path id="ink-shape-3" data-name="ink-shape" d="M2.191,17.921c-.322.559-1.038,1.645-1.819,1.177-1-.6.3-2.5.538-3.223a20.3,20.3,0,0,0,.616-9.723c-.258-1.61-.725-3.181-.9-4.8C.592,1.033.434.224.829.04c.476-.222.951.547,1.106.885a23.877,23.877,0,0,1,1.15,4.422,25.746,25.746,0,0,1,.714,5.7A13.994,13.994,0,0,1,2.191,17.921Z" transform="matrix(0.94, -0.342, 0.342, 0.94, 81.775, 5.502)" fill-rule="evenodd"/>
      <path id="ink-shape-4" data-name="ink-shape" d="M1.688,3.866c-.1.575-.139,2.218-1.06,2.03C-.415,5.683.165,3.13.126,2.383.105,1.99-.12.207.4.027c1.085-.375,1.246,3.334,1.287,3.84" transform="matrix(0.94, -0.342, 0.342, 0.94, 89.188, 7.97)" fill-rule="evenodd"/>
      <path id="ink-shape-5" data-name="ink-shape" d="M448.763,1032.116c-1,.911-2.161.858-3.423.772-.641-.044-2.126-.424-1.094-1.22.539-.416,4.767-.7,4.517.448" transform="translate(-406.255 -943.766)" fill-rule="evenodd"/>
      <path id="ink-shape-6" data-name="ink-shape" d="M1420.45,1231.206c.071-.141.672-.82.8-.545.122.259-.643.537-.8.545" transform="translate(-1300.014 -1126.161)" fill-rule="evenodd"/>
      <path id="ink-shape-7" data-name="ink-shape" d="M473.5,640.219c-.123.254-.637.032-.814.071.24-.515.526-.4.814-.071" transform="translate(-432.607 -585.58)" fill-rule="evenodd"/>
      <path id="ink-shape-8" data-name="ink-shape" d="M933.779,325.4l-.16.611-.247-.458.407-.153" transform="translate(-854.234 -297.712)" fill-rule="evenodd"/>
      <path id="ink-shape-9" data-name="ink-shape" d="M877.666,601.187c1.284.13,2.571.2,3.86.235,1.088.033,1.535-.172,1.674-1.3.164-1.341.22-2.694.385-4.036.075-.609.666-1.828-.046-2.154-.6-.273-1.527.118-2.152.164-.7.051-1.746-.161-2.361.252-.658.442-.515,1.987-.627,2.712-.214,1.383-.471,2.756-.733,4.13m-.612-6.514c-1.163.088-2.331.157-3.491.281-.516.055-1.561.311-2-.065-1.022-.882,2.8-1.192,3.229-1.261.73-.117,1.979.039,2.447-.651s.346-1.828.466-2.62c.18-1.192.386-2.381.506-3.581.04-.4-.017-1.735.408-1.932.978-.455.671,4.232.654,4.583-.027.6-.058,1.213-.142,1.812a2.92,2.92,0,0,0-.112,1.135c.295.974,1.97.412,2.732.334.855-.087,2.175.244,2.458-.811a26.246,26.246,0,0,0,.435-4.2c.036-.377.132-3.2.828-2.978.776.244.473,2.6.465,3.206-.008.685-.005,1.369-.052,2.052a7.724,7.724,0,0,0-.086,1.974c.225,1.066,1.488.5,1.854,1.347.348.806-1.551.174-1.905.451-.529.413-.4,2.141-.477,2.746-.166,1.329-.485,2.709-.589,4.033-.081,1.046.759.907,1.613.831a10.674,10.674,0,0,1,2.273-.141c.591.079,1.416.623.556.985-1.344.566-4.08-.591-4.756,1.13-.127.325-.72,4.088-1.464,2.23-.311-.777.45-2-.362-2.59a1.968,1.968,0,0,0-1.028-.193c-.8-.056-1.615-.075-2.422-.092s-1.527-.179-1.838.7c-.242.687-.215,1.455-.408,2.158-.145.527-.621,1.449-1.115.587-.324-.566-.076-1.555-.012-2.171.032-.308.216-.946-.018-1.205-.251-.278-.922-.128-1.24-.1-.916.073-2.622.514-3.323-.318-.587-.7.633-.709,1.112-.756s.988-.093,1.482-.145a9.175,9.175,0,0,0,1.774-.151c.859-.286.8-1.455.854-2.213.11-1.481.443-2.943.688-4.406" transform="translate(-797.139 -535.038)" fill-rule="evenodd"/>
      <path id="ink-shape-10" data-name="ink-shape" d="M1107.352,738.473a11.236,11.236,0,0,1-.438,2.626c-.209.614-.63.8-.773.019-.092-.5.514-3.288,1.212-2.644" transform="translate(-1012.346 -675.676)" fill-rule="evenodd"/>
      <path id="ink-shape-11" data-name="ink-shape" d="M460.206,655.933c-.343-.246-1.965-1.541-.792-1.592.6-.026,1.889.959,1.926,1.506.009.138-.286.209-.27.343.031.254.407.375.528.577a1.8,1.8,0,0,1-.189,1.75c-.787.967-1.661-.67-1.052-.991a6.284,6.284,0,0,1-2.026-1.064c-.375-1.147,1.782-.066,1.874-.529" transform="translate(-419.431 -598.765)" fill-rule="evenodd"/>
      <path id="ink-shape-12" data-name="ink-shape" d="M496.005,702.2a2.668,2.668,0,0,1-1.563-.313c-.579-.553.551-.626.881-.883.463-.361.554-1.534,1.282-.808s.087,1.558-.6,2" transform="translate(-452.371 -640.517)" fill-rule="evenodd"/>
      <path id="ink-shape-13" data-name="ink-shape" d="M443.891,690.362c.752-.11,2.426,1.512,1.614,1.62-.537.071-1.5-1.187-1.614-1.62" transform="translate(-406.255 -631.726)" fill-rule="evenodd"/>
    </g>
  </g>
</svg>
