<svg xmlns="http://www.w3.org/2000/svg" width="226.758" height="179.612" viewBox="0 0 226.758 179.612">
  <g id="composition-24" transform="translate(-1520.199 -378.203)">
    <path id="Oval" d="M0,1141.691Z" transform="translate(1590.067 -633.701)" fill="#d9f9ff"/>
    <g id="Illustrations_sitting-reading" data-name="Illustrations/sitting-reading" transform="translate(1520.199 378.203)">
      <path id="Accent" d="M1249.109,416.016c-1.95,3.811-4.009,7.521-6.089,11.262-1.1,1.981-4.652,10.173-5.569,10.486-.988.337-7.038-3.22-8.774-3.916a64.515,64.515,0,0,0-9.24-3.174,34.713,34.713,0,0,0-10.989-1.167c-1.64.139-4.353.536-2.724-1.767a18.858,18.858,0,0,1,3.951-4.438,26.167,26.167,0,0,1,4.27-3.093c1.442-.619,3.57-.482,5.121-.445,1.676.04,9.664,2.531,10.1-.066.814.741,1.289.454,2.222.816,1.053.408,1.708,1.2,2.753,1.678.678.31,1.928,1.538,2.681,1.545,1,.01,1.272-.819,1.991-1.432,1.613-1.372,3.758-2.275,5.507-3.467A23.373,23.373,0,0,1,1249.109,416.016Zm-17.549-30.124c-.137,1.74.332,3.356.321,5.147a7.4,7.4,0,0,0,.2,2.315,21.958,21.958,0,0,1,.177,2.593c-1.993-.607-5.7-1.506-7.731-.688-1.946.782-2.19,4.4-2.259,6.158-.047,1.2.485,3.046.082,4.194a1.776,1.776,0,0,0-.178.759v0c-.034-.02-.188-.025-.746.378s-1.2.611-1.738,1.046c-.981.792-1.15,1.689-1.635,2.837a3.441,3.441,0,0,1-3.124,2.065c1.126-2.038,2.688-3.942,1.791-6.336-.677-1.807.509-3.927,1.441-5.644.308-.568,3.73-4.924,2.214-5.231-.984-.2-3.244,4.423-3.677,5.231-1.206-.815-1.748-1.82-.819-3.048.712-.943,1.588-1.749,2.283-2.725a44.268,44.268,0,0,1,3.563-4.883A14.775,14.775,0,0,1,1231.56,385.892Zm-9.39,20.479h0c.011.008,0,.018,0,0Zm40.973-23.179c1.5,1.438,3.4,2.631,4.853,4.141a17.23,17.23,0,0,1,3.585,5.309c-3.1.6-8.241,2.424-9.475,5.673-4.815-4.42-6.678,3.66-7.634,7.039-2.818-1.219-2.257-5.278-2.219-7.648.029-1.88,1.175-4.105-1.557-4.259a13.512,13.512,0,0,0-5.862,1.494,24.3,24.3,0,0,0-6.56,4.091l-1.932-1.5c3.17-1.779,4.823-5.182,6.678-8.3a24.965,24.965,0,0,0,1.814-3.171c.3-.742.509-2.241.836-2.9.515-1.038,5.545-1.323,6.878-1.591C1256.065,380.862,1260.269,380.439,1263.143,383.192Z" transform="translate(-1097.426 -350.008)" fill="#ff5678" fill-rule="evenodd"/>
      <g id="Ink" transform="translate(0 0)">
        <path id="ink-layer" d="M164.917,57.243c1.3-.066,2.592.224,3.892.1l-3.384-2.947a5.313,5.313,0,0,0-.508,2.849ZM134.09,37.05a14.728,14.728,0,0,0-9.8,4.17,42.091,42.091,0,0,0-3.308,4.531,22.374,22.374,0,0,1-2.24,2.8c-1.243,1.262-.887,1.55.513,2.5.443-.83,2.793-5.269,3.778-5.07,1.5.3-1.394,4.993-1.709,5.577-.935,1.728-2.445,4.142-1.766,5.965.9,2.406-.4,3.777-1.53,5.828,1.184.034,1.3-.427,1.708-1.436a7.477,7.477,0,0,1,2.2-3.277c.858-.694,2.261-.987,2.664-1.825.5-1.036.186-3.083.226-4.235.061-1.752.065-5.893,2-6.671,2.023-.816,5.66-.047,7.638.557-.247-1.544-1.026-2.552-1.016-4.267.011-1.8.506-3.4.643-5.148ZM108.254,65.7a53.738,53.738,0,0,1,5.237-1.523c1.894-.4,2.021-.852,3.088-2.476.81-1.231,1.791-2.19,1.562-3.7-.146-.967-.676-1.438-.517-2.525a11.615,11.615,0,0,1,.641-2.051c.279-.786.857-1.678-.487-1.717-.741-.021-.778.37-1.279,1.027-.926,1.214-1.993,2.315-2.979,3.479-1.711,2.021-3.528,4.171-5.439,6.041a28.273,28.273,0,0,0-5.28,7.175c-.251.487-1.779,3.352-1.127,3.914.6.516,3.926-.687,4.533-.828,2.619-.608,5.592-.825,8.067-1.929,1.261-.563,4.044-1.234,5.04-2.1.925-.809.884-2.769.347-3.91-1.5.935-12.374,4.464-11.405,1.125Zm32.727-16.082a22.142,22.142,0,0,1,6-3.8c1.939-.843,4.347-1.782,6.5-1.636,2.688.182,1.565,2.346,1.555,4.189-.012,2.445-1.084,5.968,1.836,7.236.954-3.386,2.964-11.392,7.777-6.956,1.231-3.256,5.618-4.357,8.708-4.955-.56-1.645-2.261-3.134-3.439-4.368-1.476-1.544-2.64-3.354-4.118-4.87-2.919-2.992-8.207-2.031-11.9-1.285-1.234.249-4.81.561-5.407,1.467-.375.568-.165,1.956-.443,2.65a20.635,20.635,0,0,1-1.562,2.728c-1.914,3.225-3.861,6.471-7.137,8.318ZM151.694,66.99a28.076,28.076,0,0,0-4.545,2.713,46.559,46.559,0,0,0-5.723,3.6c-.612.513-.955,1.4-1.8,1.456-.735.05-1.855-.8-2.506-1.1-1.094-.5-2.137-1.262-3.236-1.709-.9-.367-1.3-.292-2.083-1.007-.438,2.607-8.407.17-10.079.13a13.469,13.469,0,0,0-5.108.768c-1.372.592-2.444,1.9-3.618,2.783a19.052,19.052,0,0,0-4.329,4.135c-1.626,2.311.827,1.657,2.462,1.517,3.733-.319,7.365.57,10.964,1.428a66.2,66.2,0,0,1,9.473,2.93,45.709,45.709,0,0,1,5.184,2.251c.859.479,2.251,1.653,3.237,1.314.9-.31,1.8-2.9,2.352-3.934,1.063-2.008,2.183-3.982,3.282-5.97,2.075-3.756,4.13-7.48,6.075-11.305ZM130.366,116.7c1.068-.613,2.809-.448,3.99-.705a26.949,26.949,0,0,0,3.95-1.257,34.077,34.077,0,0,0,3.683-1.635,11.485,11.485,0,0,0,1.754-.964c.4-.32.547-.914.918-1.2.965-.756,1.248-.281,1.377-1.74.14-1.586-.749-2.483-1.856-3.669a16.426,16.426,0,0,0-3.526-2.726c-.55-.33-1.139-.7-1.7-1.017-.85-.478-1.991-1.271-2.437-.247a.992.992,0,0,1,.3,1.851c-.461.234-1.159-.11-1.678.139a13.986,13.986,0,0,0-2.261,2.035,11.311,11.311,0,0,1-7.36,2.76,94.653,94.653,0,0,1-18.664-1.3,40.64,40.64,0,0,0-4.679-.036,35.624,35.624,0,0,1-4.623-.647c-2.893-.5-5.943-.906-8.791-1.637a60.693,60.693,0,0,1-10.135-3.509c-3.1-1.421-6.608-3.769-10.093-3.95,1.487,1.455,3.715,2.016,5.5,2.975,1.462.783,3.748,1.286,4.671,2.576a23.089,23.089,0,0,1,1.357,3.367c.5,1.09.966,2.2,1.431,3.3s.954,2.228,1.333,3.373c.235.711.336,2.186.89,2.673.885.776,3.846,1.119,5.038,1.378a36.864,36.864,0,0,0,7.036.452c.938.013,1.884.141,2.781.159,1.259.024,1.139-.194,1.121-1.287-.01-.656,0-1.85.881-1.309.6.369.187,2,.076,2.58a116.7,116.7,0,0,0,15.23.584c4.906-.165,9.641-.8,14.488-1.369ZM153,105.193c.885-6.349,1.963-12.8,3.169-19.071,1.218-6.333,2.684-12.608,4.334-18.917l-3.267-.781a33.207,33.207,0,0,1-.682,3.807c-.265,1.826-.771,3.6-1.073,5.42a99.24,99.24,0,0,1-2.581,10.22c-.957,3.44-1.277,6.984-2.156,10.442a82.67,82.67,0,0,0-1.5,8.914c-.982,7.1-2.381,14.222-3.446,21.329a128.956,128.956,0,0,0-1.042,20.188c.035,4.107.663,8.2.629,12.313-.008,1.017.078,2.029.131,3.045.037.716-.348,2.7-.022,3.3.207.38,1.095.73,1.408,1.257.5.835.6,1.832,1.4,2.463.647-2.609.341-6.051.2-8.713-.137-2.565.129-5.215.182-7.82.1-5.108.373-10.142.635-15.252.287-5.606,1.1-11.346,1.9-16.909.726-5.057,1.21-10.206,1.779-15.236ZM129.329,25.571l-1.052-.1c.052.739-.1,1.935.416,2.321.395.292,1.194.2,1.673.29a9.579,9.579,0,0,0,4.943,0c.605-.217.216-.557,1.05-.416,1,.17.637.329.926.955.223.483.339,1.3.592,1.885.339.776,1.026,2.165.732,3.061-.286.871-1.351,1.134-1.8,2.121a13.567,13.567,0,0,0-.432,2.607c-.234,1.077-.529,2.151-.659,3.248-.164,1.382-.108,3,1.605,3.219a4.066,4.066,0,0,0,3.794-1.469,31.925,31.925,0,0,0,5.558-8.11c.139-.325.483-.867.435-1.214-.094-.688-.136.008-.354-.469-.208-.457-.535-.871-.727-1.378a26.659,26.659,0,0,1-1.457-5.656,15.531,15.531,0,0,1-.146-2.617,6.069,6.069,0,0,0,.08-1.411c-.11-.209-.682-.305-.861-.513a18.37,18.37,0,0,0-1.267-1.756c-.451-.353-1.46-.074-1.644-.776-.293-1.125,6.645-2.957,3.4-4.458-2.421-1.121-6.132,4.545-6.978.087-.147-.772.133-1.82-.207-2.528-.374-.782-1.394-1.075-2.1-1.455-.909-.485-1.827-.984-2.709-1.515-.606-.364-1.479-1.332-2.123-1.42.253,1.313-.234,2.614-.241,3.925a4.658,4.658,0,0,1,3.734.286c.657.32,3.13,2.134,1.877,3.007a15.444,15.444,0,0,0-3.232-1.473,5.81,5.81,0,0,0-1.479-.338c-1.1-.022-.946.093-1.36.924-.4.8-.313,2.887-1.188,3.4-.906.528-.208-.211-.98-.04a7.474,7.474,0,0,0-1.325.61c.554.6,1.67,1.148,2.036,1.815.535.972.349,2.982.433,4.045.7-.251,1.437-.261,2.148-.447.668-.175,1.593-.934,1.663.181.078,1.242-1.887,1.572-2.769,1.572Zm9.116,32.709c.055-1.074.115-2.147.235-3.216.08-.718.762-2.8.377-3.431-.42-.686-1.825-.73-2.5-.894-1.295-.316-2.538-.574-3.855-.783a31.461,31.461,0,0,0-3.573-.288c-1.329-.06-1.659-.413-1.953,1.052a22.619,22.619,0,0,0-.584,3.53c-.04,1.107.294,2.067-.8,2.813,2.408,0,5.545-2.144,7.744-.227,3.144,2.742-2.327,3.532-3.771,4.137,1.2.583,2.98,1.04,3.545,2.372.633,1.492-.286,2.126-1.693,2.246.132.575.639.949.789,1.64.221,1.014-.5.678.419,1.462,1.2,1.033,3.684,1.723,5.161,2.38q.519.232,1.05.435.83.739,1.225-.281a18.923,18.923,0,0,0,2.1-2.171,26.087,26.087,0,0,1,4.922-3.6c-.736-.3-1.617.384-2.324.049-.571-.271-.356-.765-.7-1.134q.206-.723-.435-.529a1.032,1.032,0,0,1-.6-.108,1.66,1.66,0,0,1-.542-1.272c-.025-.726.4-.982.557-1.563q.787-.536-.035-1.052a2.481,2.481,0,0,1-.369-1.2c-.1-1.6,1.357-2.246,2.472-3.092-2-.219-1.919-2.559-.539-3.582,1.431-1.06,4.461-.626,6.191-.387.36.049,1.332.514,1.7.218.223-.181.065-1.715.076-1.985a10.483,10.483,0,0,0,.075-1.958c-.2-1.28.229-.635-.692-.671-2.193-.085-4.986,1.829-6.914,2.731-2.16,1.01-3.547,1.165-3.57,3.669a62.505,62.505,0,0,1-.976,7.067c-.128,1.019-.218,6.313-2.083,4.359-.724-.758-.26-1.923-.207-2.858.074-1.286.03-2.592.074-3.881ZM17.817,137.648c1.067.189,2.806-.424,3.971-.488a40.329,40.329,0,0,0,6.128-.729c1.561-.331,3.339-.623,4.181-2.134a20.323,20.323,0,0,0,1.424-4.513,12.506,12.506,0,0,0,.77-2.725c0-1.052-.142-.845-1.239-1.421a22.844,22.844,0,0,0-4.238-2.157q-.68-.132-1.36-.261-.881-.511-1,.5a19.944,19.944,0,0,0-1.39,2.424,11.15,11.15,0,0,1-4.1,3.637,54.61,54.61,0,0,1-9.188,4.053c-1.806.6-3.472,1.447-5.237,2.11-1.414.532-3.366.694-4.453,1.878-1.226,1.335.658,1.82,1.706,2.724.858.739.875.91,2.049.55.874-.268,1.65-.78,2.49-1.127a36.4,36.4,0,0,1,9.481-2.323Zm65.74,21.182q-1.608-.347-3.216-.695c1.054,1.967,3.272,4.847,1.68,7.124a5.609,5.609,0,0,1-2.468,1.524c-1.07.523-2.057,1.192-3.069,1.814-4.17,2.567-8.408,5.171-12.8,7.373a9.873,9.873,0,0,0,4.907.365c1.65-.451,3.177-1.485,4.871-1.937a76.084,76.084,0,0,1,9.323-1.917c2.523-.341,8.839.428,8.532-3.366-.291-3.6-2.443-7.039-3.084-10.6a22.546,22.546,0,0,1-4.676.314Zm63.9-57.65c1.222-6,1.952-12.093,3.393-18.046.72-2.97,1.226-5.98,1.928-8.95.327-1.382.574-2.777.892-4.157a36.01,36.01,0,0,0,1.176-4.129c-1.168.289-1.438,2.963-1.792,3.968a56.134,56.134,0,0,1-2.191,5.385c-1.327,2.808-2.734,5.518-4.231,8.24a68.3,68.3,0,0,1-5.214,8.256,14.264,14.264,0,0,0-1.944,2.482c-.656,1.487-.932,3.259-1.559,4.806a11.668,11.668,0,0,0,2.124.387,9.5,9.5,0,0,1,2.679.854,11.368,11.368,0,0,1,4.274,3.361,11.184,11.184,0,0,0,.465-2.457Zm-47.5,45.746c-.02-5.774-.1-11.6-.007-17.33a39.1,39.1,0,0,1,.387-4.887c.145-.993,1-3.1.437-3.58-.479-.406-3.008-.138-3.629-.153-1.2-.028-2.4-.082-3.61-.172,0,2.14.836,4.57,1.225,6.687.362,1.975.66,3.961.959,5.944.647,4.3.831,8.651,1.534,12.958.636,3.906,1.476,7.795,1.939,11.7.254,2.144.768,4.166,1.168,6.309.209,1.117.97,5.718,1.928,6.171.2-1.651-.625-3.644-.773-5.313-.153-1.723-.271-3.458-.551-5.189-.328-2.034-.494-4.118-.62-6.176-.077-1.26-.1-2.516-.209-3.775a10.535,10.535,0,0,1-.176-3.193Zm30.1-77.215c.039-.629-1.588-.6-1.891-1.326-.616-1.468.786-1.2,1.648-1.355-.307-.816-6.062-.519-4.721-2.722.93-1.529,4.457.811,5.4-.642.619-.954-1.068-1.085-1.735-1.181-1.006-.144-3.377.322-3.3-.984.1-1.64,4.706-2.772,6-3.254-.143-1.123-5.69.473-6.491.928A6.885,6.885,0,0,0,121.5,64.11a4.146,4.146,0,0,0,3.291,4.86,18.114,18.114,0,0,1,2.653.64c.606.242,2.568.845,2.984.235l-.361-.133Zm32.558-14.869c.092-1.021.951-2.943-.038-3.613-1.386-.939-1.961.608-2.274,1.537-.384,1.135-2,3.912-.587,4.619a5.711,5.711,0,0,0,2.159-.135q1.146.3.74-.859ZM128.8,137.284c-.087-2.79,1.162-6.145,1.87-8.877.8-3.1,1.226-6.255,2.076-9.317-.946.114-1.9.207-2.835.4-1.275.259-1.3.218-1.207,1.468a44.773,44.773,0,0,1-.139,5.6c-.194,3.759.278,7.581-.036,11.316.281.071.371-.124.271-.585Zm35.31-73.125a32.273,32.273,0,0,1,8.789,2.745,19.792,19.792,0,0,0,4.947,1.779,58.433,58.433,0,0,0,5.881.293c.686.043,2.492.377,3.162-.027s.612-1.078.643-1.887c.08-2.079-.861-4.115-1.707-5.981a17.121,17.121,0,0,0-2.4-4.2c-1.447-1.768-2.707-3.677-4.062-5.522-1.022-1.391-2.054-2.763-3.1-4.152-.745-.995-.709-1.337-1.833-1.226a16.2,16.2,0,0,0-3.26,1.109,25.836,25.836,0,0,0-4.828,1.618c-.912.531-.952.629-.942,1.557a4.655,4.655,0,0,0,.8,2.593c1.075,1.4,2.855,2.146,4.382,2.846a15.253,15.253,0,0,1,2.434,1.537c.847.6,2.558.957,3.206,1.643,1.889,2-1.548,1.6-2.509,1.543-2.073-.13-4.134-.11-6.222-.112-2.279,0-4.54-.107-6.787-.033a4.67,4.67,0,0,1-3.678-1.736,13.626,13.626,0,0,0-1.113-1.607,13.441,13.441,0,0,0-2.184-2.07,8.719,8.719,0,0,0-5.643-1.105c.6.084,3.423,1.045,2.181,2.252-.152.147-1.968.243-2.363.425a4.608,4.608,0,0,0-2.028,1.493c1.217-.2,5.728-.44,3.427,1.894-.565.573-2.187,1.144-.807,1.754.317.14.951-.058,1.359.068a13.921,13.921,0,0,1,1.671.958,11.565,11.565,0,0,0,5.517,1.063,31.316,31.316,0,0,1,7.062.489Zm-61.695,70.313c.079,3.352-.042,6.724.03,10.092.076,3.6.538,7.121.758,10.681.2,3.191.628,6.321.978,9.5.2,1.829.434,3.579.744,5.394.29,1.7.34,3.2-1.692,3.652-3.884.873-4.487-4.713-5.238-7.066A70.979,70.979,0,0,1,95.6,155.88c-1.033-6.781-2.408-13.468-2.944-20.306-.33-4.211-.809-8.379-1.081-12.586-.053-.825.157-2.095-.567-2.462a20.76,20.76,0,0,0-2.185-.382,32.97,32.97,0,0,1-4.44-1.782c1.061,5.545,1.411,11.063,2.207,16.656.422,2.968,1.23,6.044,1.93,8.965.725,3.027.887,6.287,1.724,9.248.369,1.305.681,1.837.146,3.177-.656,1.645-.221,2.038.6,3.653a19.2,19.2,0,0,1,2.413,9.827c-.209,2.736-2.277,4.168-4.838,4.906-3.2.923-6.558.814-9.781,1.862a86.179,86.179,0,0,0-8.388,2.793,10.247,10.247,0,0,1-3.365,1.152c-1.674.122-2.8-.849-4.385-1.052-.988-.127-2.436.345-3.005-.691-.452-.821.059-2.614.626-3.274,1.592-1.858,4.78-3.477,6.927-4.573a58.449,58.449,0,0,0,7.161-4.476c1.39-.989,2.807-1.938,4.2-2.927.918-.656,1.268-.66,1.174-1.7-.075-.831-.449-1.636-.515-2.486-.05-.652.178-1.54-.13-1.965-.226-.314-1.077-.535-1.411-.773-1.223-.866-1.5-1.938-2.056-3.257-1.261-2.993-2.71-5.9-3.928-8.92-2.615-6.48-4.21-13.292-6.378-19.9a150.939,150.939,0,0,1-5.415-20.854c-1.632.5-3.172,2.693-4.472,3.78-1.756,1.469-3.555,2.89-5.277,4.4a60.663,60.663,0,0,0-8.013,7.844c-1.124,1.427-2.044,2.963-3.061,4.462-.588.866-1.136,1.847-1.772,2.671-.1.133-.1.4-.215.517-.242.247-.705-.083-.861.08-.959,1-.946,3.85-1.245,5.173-.412,1.824-.874,3.919-2.3,5.176-2.2,1.941-6.256,2.242-9.04,2.343a39.711,39.711,0,0,0-10.427,2.193c-1.581.5-3.121,1.082-4.707,1.566a7.877,7.877,0,0,1-2.929.727c-1.175-.129-2.1-1.117-2.964-1.853C1.232,141.649-.043,140.49,0,138.562a5.344,5.344,0,0,1,2.9-4.6,69.286,69.286,0,0,1,10.77-4.572,32.776,32.776,0,0,0,3.914-1.793,37.192,37.192,0,0,0,5.713-3.1c.492-.385,2.3-1.565,2.454-2.174.02-.079-.432-1.008-.434-1.155a3.019,3.019,0,0,1,.358-1.114,57.906,57.906,0,0,1,3.441-5.935c2.041-3.528,4.089-7.074,6.456-10.392A154.065,154.065,0,0,1,51.311,84.863c2.789-2.815,5.2-6.008,8.027-8.784a15.078,15.078,0,0,1,3.684-2.709,15.215,15.215,0,0,1,5.03-1.195c4.275-.588,7.845.676,11.858,1.776,3.794,1.04,7.592,1.917,11.407,3,4.19,1.189,8.337,2.33,12.514,3.627,2.232.693,4.528,1.118,6.77,1.782,1.08.32,5.161,2.324,6.062,1.665a52.285,52.285,0,0,0-8.775-3.346c-.893-.236-1.463.025-1.431-1,.019-.559.648-1.315.874-1.775.542-1.1,1.156-2.18,1.686-3.285-1.924.546-7.094,2.436-8.543.482-1.517-2.045-.25-6.054.7-8.055,2.481-5.226,6.7-9.587,10.814-13.527.89-.852,2.807-1.964,3.282-3.049.144-.33-.169-.815.156-1.243.193-.255.97-.429,1.28-.7,1.131-1,2.033-3.106,2.814-4.418a30.958,30.958,0,0,1,2.584-4.095c1.682-2.016,3.419-4.153,6.143-4.624a23.535,23.535,0,0,0,4.034-.569c1.548-.558,3.019-1.437,4.583-2.014-.388-.8-.7-2.065-1.455-2.152-.725-.084-1.787.539-2.617.534a17.391,17.391,0,0,1-3.413-.431c-1.293-.256-1.72-.209-2.191-1.612a14.885,14.885,0,0,1-.366-4.7c0-.746.151-1.672.086-2.4-.094-1.1-.309-1.145-1.175-1.847-1.081-.876-2.412-2.036-1.089-3.559.715-.823,2.186-.183,2.819-1.067.645-.9.614-3.163.81-4.221-1.989.978-1.26-2.677-1.26-3.556,0-1.28-.859-3.581.377-4.645.573-.494,1-.085,1.655-.369.749-.324,1.22-1.174,2.017-1.5,1.583-.655,3.2.134,4.825,0a23.16,23.16,0,0,1,5.57-.138,5.935,5.935,0,0,1,2.014.857,12.889,12.889,0,0,0,2.24.7,3.006,3.006,0,0,1,1.783.922c.373.481.221,1.291.6,1.706s1.106.349,1.549.835a5.923,5.923,0,0,1,.9,1.816,4.473,4.473,0,0,0,.859,1.7,14.982,14.982,0,0,1,1.5,1.607,7.945,7.945,0,0,1,.636,5.239c-.1.562-.912,2.015-.784,2.493.121.455.885.335,1.231.623.3.249.563,1.357.8,1.425.509.146,1.137-.859,1.523-1.01.67-.262.951-.531,1.322.457a4.277,4.277,0,0,1-.309,2.429,6.009,6.009,0,0,1-1.222,2.637c-.8.792-1.44.359-2.324.786-1.323.639-.933,2.638-2.561,3.209-1.553.544-3.262-1.168-4.435-1.956.243,1.911,1.158,3.753.719,5.711,3.569-1.4,7.1-3.382,10.989-3.819,1.983-.223,3.987-.487,5.859.336,2.191.963,3.534,3.089,5.018,4.854,2.787,3.319,5.648,6.545,8.324,9.97,2.454,3.142,4.523,6.783,7.225,9.726,2.738,2.984,4.806,7.825,4.506,11.956a11.959,11.959,0,0,0-.271,1.622c.035.308.316.7.312.947a1.847,1.847,0,0,1-1.089,1.781,14.381,14.381,0,0,1-5,1.411,27.3,27.3,0,0,1-6.692.011c-2.141-.293-4.023-1.491-5.992-2.215a40.744,40.744,0,0,0-5.276-1.437c-1-.224-2.109-.843-2.728-.244-.568.551-.685,3.376-.818,4.127-1.435,8.143-3.141,16.011-4.653,24.113-1.712,9.183-2.884,18.363-4.075,27.624-1.082,8.419-1.436,16.932-1.678,25.343-.116,4.013-.133,7.982-.108,12,.013,2.249,1.138,9.754-2.2,10.042-1.96.169-3.527-2.639-4.052-4.17a26.663,26.663,0,0,1-1.325-7.2c-.254-4.893-.588-9.791-.785-14.686a131.339,131.339,0,0,1,.494-15.992c.438-5.321,1.544-10.565,1.884-15.9a4.839,4.839,0,0,1-3.039,2.357c-1.774.663-3.48,1.446-5.269,2.062a9.7,9.7,0,0,0-2.058.685c-.921.633-.317-.085-.611,1.149a26.379,26.379,0,0,0-.457,4.257c-.391,6.36-2.154,12.673-2.967,19-.2,1.527.084,8.011-2.545,5.967-2.025-1.573-1.985-6.516-2.272-8.831a65.825,65.825,0,0,1-.11-9.364,49.523,49.523,0,0,1,.973-10.7c-1.51-.258-3.611.445-5.13.564-1.317.1-2.628.168-3.937.24-3.121.171-6.336.308-9.509.247-.577-.011-4.352-.54-4.834-.114a12.778,12.778,0,0,0-.234,2.273c-.111.874-.262,1.748-.374,2.617a53.175,53.175,0,0,0-.579,8.541Z" transform="translate(0 -0.999)" fill-rule="evenodd"/>
        <path id="ink-layer-2" data-name="ink-layer" d="M1504.89,1316.488c2.381.93,4.909,1.268,7.311,2.115,2.148.758,4.141,1.777,6.256,2.547a8.774,8.774,0,0,0-.172-3.565c-.513-1.308-1.862-1.341-3.191-1.807-3.234-1.134-6.637-1.374-9.847-2.7a3.451,3.451,0,0,1-.356,3.408m41.115-3.423c-5.145.152-10.061,1.348-15.129,2.088-2.468.359-4.937.681-7.406,1.017-.95.13-2.681-.023-3.372.8-.573.681.054,3.006-.2,4.005,1.04.077,2.885-.894,4.014-1.055,1.757-.25,3.491-.6,5.267-.711,2.812-.178,5.574-.328,8.381-.641,2.855-.318,5.617-.91,8.495-1.126,1.4-.1,1.962.158,2.044-1.319a7.74,7.74,0,0,0-.05-2.112q.388-1.05-.69-1.02a4.065,4.065,0,0,0-1.354.074m-9.95-4.712c1.391-.13,2.788-.317,4.183-.4.282-.016,1.717.071,1.951-.192.331-.372-.037-1.732-.1-2.153-.207-1.431-.435-2.263-2-2.266-1.318,0-2.681.275-3.994.4-5.959.585-11.886.831-17.78,1.94a9.388,9.388,0,0,1,.338,4.664,36.237,36.237,0,0,0,8.692-.955,66.846,66.846,0,0,1,8.705-1.045m-9.43-14.376c-2.129.009-4.378.946-6.479.737-.031.39.641.066.827.432q.6,0,.413.389a.278.278,0,0,1-.271.309l-.277.024q-.609.019-.2.823a11.026,11.026,0,0,0,.084,2.17c3.775-.513,7.443-1.047,11.245-1.276,1.794-.108,3.588-.108,5.38-.255,1.972-.163,4.125.186,6.053-.184,1.031-.2.923-.184.847-1.523a3.242,3.242,0,0,0-.692-2.375c-1.107-.992-3.628-.418-4.952-.383a90.366,90.366,0,0,0-11.979,1.112m2.179,19.136c5.7-.517,11.363-1.651,17.1-1.651-.406-.405-1.289-.51-1.793-.731-.575-.251-1.118-.788-1.681-1.008-1.128-.441-2.276.172-3.435.437-2.8.641-5.665.663-8.465,1.29a82.064,82.064,0,0,1-8.776,1.577,11.785,11.785,0,0,1-4.3.1l-.339-.242q-.182-.774-1.01-.413a11.734,11.734,0,0,0-2.3.057c-.029.281,2.578,1.165,3.076,1.384a5.129,5.129,0,0,0,3.29.687c2.882-.509,5.716-1.116,8.633-1.492m-20.061-16.668c.223.869,1.159.474,1.965.569a23.275,23.275,0,0,1,3.2.783c1.9.511,3.8,1.015,5.7,1.555-.075-.764.095-2.506-.309-3.184-.425-.711-2.435-1.023-3.372-1.24-2.361-.546-4.882-.236-7.281-.12q.064.818.094,1.638m22.675,5.434c2.24-.19,4.482-.337,6.728-.416,2.568-.089.7-.5.648-2.066-3.376.538-6.781.644-10.146,1.1-2.787.382-6.108,1.378-8.952.843-1.341-.252-2.71-.35-4.136-.492-1.347-.135-2.616-.761-3.946-.917-1.492-.176-3.017.664-4.5.885-.629.094-.776.521-1.073-.236-.307-.786.575-1.428.922-1.9.406-.549.238.342.463-.515a4.515,4.515,0,0,0-.14-1.1c-.079-.654-.285-1.364-.317-2.016-.029-.6-.034-1.514.616-1.864.4-.214.679.1,1.025.037a27.014,27.014,0,0,1,8.624-.055c2.972.491,5.53-.81,8.458-1.338a101.025,101.025,0,0,1,10.374-.973c2.963-.223,8.377-1.383,9.506,2.4.32,1.073.785,4.024-.075,4.936-1.129,1.2-3.742.816-5.2,1.127.218.621.868,1.044.643,1.783,2.046.1,2.407,2.027,2.727,3.83.333,1.866-.314,2.608,1.469,3.579,2.485,1.354,5.118,2.721,5.069,5.945-.024,1.621-.206,4.066-1.87,4.907-1.628.822-4.281.683-6.076.982-3.476.578-6.964,1.258-10.46,1.6-3.724.37-7.509.674-11.239.839-2.032.09-3.788.4-5.751-.287-1.929-.672-3.817-1.163-5.808-1.661-1.966-.492-7.983-1.156-6.229-4.516.28-.537,1.239-.965,1.394-1.474.25-.82-.594-1.46-.559-2.2.064-1.355,1.6-1.526,2.651-1.526-1.811-1.133.615-2.474.6-3.435-.025-1.694-2.133-2.792-2.251-4.213-.29-3.455,10.674.142,12.362.89-1.3,1.926-7.325.26-9.12-.032a7.471,7.471,0,0,1,.549,1.88,7.3,7.3,0,0,0,.041,1.689c.3.855.285.691,1.334.923.776.172,1.543.372,2.316.553,1.188.28,3.057,1.032,4.234.991,1.032-.035.829.285,1.018-.862a5.772,5.772,0,0,0-.176-1.875c-.217-1.265-.534-2.461.57-3.369,1.054-.865,3.274-1.277,4.566-1.583a39.158,39.158,0,0,1,9.12-.808" transform="translate(-1346.427 -1156.605)" fill-rule="evenodd"/>
        <path id="ink-layer-3" data-name="ink-layer" d="M1580.32,1163.53a43.82,43.82,0,0,0-9.429-.492q.255,1.17.512,2.339c2.952-.76,5.947-1.206,8.917-1.846ZM1555,1169.577c-1.249-.091-.38.467-.072,1.285a12.711,12.711,0,0,1,.385,3.33,51.34,51.34,0,0,1,11.792-2.677c1.842-.222,3.711-.286,5.565-.381.547-.028,2.526.2,2.926-.167.3-.274.088-1.785-.2-2.118-1.556-1.812-7.567-.248-9.742-.085-3.566.266-7.067.9-10.658.814Zm5.19-4.857c3.236.312,6.361.281,9.6.766-.245-2.056.048-2.582-2.286-2.691-2.079-.1-4.152-.176-6.221-.174-4.654,0-9.3-.086-13.957-.086v2.089c4.309-.441,8.55.356,12.868.1Zm-15.56,7.686c2.043-.009,3.972.761,6.015.96,1.222.12.838.272,1.686.885,1.321.957,1.7.447,1.536-.851-.562-4.394-6.126-3.408-9.332-3.652a2.921,2.921,0,0,1-.988,2.659Zm22.074-5.641c-2.937.048-5.878.215-8.795.154a24.547,24.547,0,0,0-4.276-.063c-.938.163-1.722.64-2.75.817,1.51.813,2.276.264,3.863.079s3.2-.181,4.789-.277c2.616-.159,5.4-.785,7.982-.615q.07-.544-.813-.094Zm-23.3,9.515c-1.347,0,.507-1.536.751-1.687-1.492,0-1.854-.894-1.422-2.332.408-1.353.709-.939-.316-2.067a1.479,1.479,0,0,1,.021-2.423c.925-.966,2.8-.693,3.62-1.49,1.4-1.356-.406-4.058,1.529-5.1,1.307-.7,3.415-.615,4.859-.763,1.4-.143,2.839-.171,4.244-.19a89.4,89.4,0,0,1,9.29.754c1.112.1,2.362.551,3.456.552,1.116,0,2.287-.247,3.439-.219a29.261,29.261,0,0,1,4.014.156c1.059.168,3.532.256,4.341,1.044,2.7,2.623-3.7,3.828-4.8,4.122,1.12,1.227,1.074,2.849.906,4.393.533,0,1.452-.232,1.728.366.343.742-.926.936-1.227,1.022a32.009,32.009,0,0,1-5.523.543c-3.555.361-7.068.57-10.586,1.244-1.714.328-3.419.734-5.132,1.053-.3.056-.593.1-.892.133q-.688-.058-.445.865c-.476.232-2.248-.347-2.8-.435a21.9,21.9,0,0,0-9.057.459Z" transform="translate(-1381.684 -1039.843)" fill-rule="evenodd"/>
        <path id="ink-layer-4" data-name="ink-layer" d="M1877.832,1535.007a71.325,71.325,0,0,1-6.1,4.48c1.549-.049,6.7-2.519,6.1-4.48m-.79-2.6c-1.1-.949-2.2-.853-3.57-1.14-1.26-.265-2.484-.721-3.74-1.025-.987-.238-1.963-.56-2.945-.785-1.388-.318-1.525.032-2.8.759-4.527,2.579-9.592,4.353-14.36,6.446,1.4,1.233,4.55,1.286,6.3,1.678a28.862,28.862,0,0,1,3.717,1.132c1.139.424,2.975,1.4,4.177,1.428,1.014.028,1.838-.97,2.711-1.508,1.149-.707,2.292-1.4,3.45-2.091,2.45-1.459,4.74-3.247,7.065-4.893m-20.457,10.446c-.522-.5-2.1-.48-2.751-.633-1.291-.3-2.562-.615-3.87-.841-2.122-.367-5.475-.532-5.705-3.284-.192-2.288,2.573-2.831,4.19-3.606,2.432-1.166,4.913-2.242,7.406-3.27,2.338-.964,4.709-1.779,7.091-2.612.464-.162.841-.14,1.219-.511.3-.294.207-.863.535-1.169.751-.7,1.724-.332,2.625-.153a37.43,37.43,0,0,1,6.127,1.7c2.028.787,3.843.951,4.33,3.251,1.037-.487,1.817-.558,1.693.872-.035.419-.341.876-.414,1.309-.108.64.081,1.313-.026,1.953-.387,2.328-3.529,4.053-5.475,4.967-2.4,1.128-5.5,2.793-8.175,3.014-2.855.235-5.966-.887-8.8-.991" transform="translate(-1652.73 -1368.097)" fill-rule="evenodd"/>
        <path id="ink-layer-5" data-name="ink-layer" d="M1591.074,1310.933l-2.554.017a7.177,7.177,0,0,1,2.554-.017" transform="translate(-1423.558 -1174.803)" fill-rule="evenodd"/>
        <path id="ink-layer-6" data-name="ink-layer" d="M1127,444.853q-.382.638-.765,1.276a1.6,1.6,0,0,1,.765-1.276" transform="translate(-1009.275 -398.758)" fill-rule="evenodd"/>
        <path id="ink-layer-7" data-name="ink-layer" d="M1613.11,1429.35l1.532.013-1.532-.013" transform="translate(-1445.594 -1281.018)" fill-rule="evenodd"/>
        <path id="ink-layer-8" data-name="ink-layer" d="M1710.8,1161.087l-1.787-.1,1.787.1" transform="translate(-1531.535 -1040.526)" fill-rule="evenodd"/>
        <path id="ink-layer-9" data-name="ink-layer" d="M1614.642,1310.975l-1.532-.015a2.772,2.772,0,0,1,1.532.015" transform="translate(-1445.594 -1174.833)" fill-rule="evenodd"/>
        <path id="ink-layer-10" data-name="ink-layer" d="M1823.184,601.26l-.044-1.532.044,1.532" transform="translate(-1633.813 -537.549)" fill-rule="evenodd"/>
        <path id="ink-layer-11" data-name="ink-layer" d="M987.174,1345.877q-.016-.638-.031-1.277c.011.427.021.852.031,1.277" transform="translate(-884.632 -1205.069)" fill-rule="evenodd"/>
        <path id="ink-layer-12" data-name="ink-layer" d="M1121.31,1156.53l1.021,0-1.021,0" transform="translate(-1004.866 -1036.53)" fill-rule="evenodd"/>
        <path id="ink-layer-13" data-name="ink-layer" d="M1550.447,273.554l-1.277.092,1.277-.092" transform="translate(-1388.294 -245.247)" fill-rule="evenodd"/>
        <path id="ink-layer-14" data-name="ink-layer" d="M1858.073,1171.25l-1.533-.01,1.533.01" transform="translate(-1663.745 -1049.712)" fill-rule="evenodd"/>
        <path id="ink-layer-15" data-name="ink-layer" d="M1456.818,1466.082c-.013-.342-.026-.682-.037-1.022.012.342.025.681.037,1.022" transform="translate(-1305.499 -1313.02)" fill-rule="evenodd"/>
        <path id="ink-layer-16" data-name="ink-layer" d="M1461.777,1340.711q-.014-.511-.027-1.021c.009.341.018.68.027,1.021" transform="translate(-1309.952 -1200.669)" fill-rule="evenodd"/>
        <path id="ink-layer-17" data-name="ink-layer" d="M1378.1,1406.06c.011.341.024.682.036,1.022-.012-.342-.025-.681-.036-1.022" transform="translate(-1234.989 -1260.147)" fill-rule="evenodd"/>
        <path id="ink-layer-18" data-name="ink-layer" d="M1140.98,1154.04l.766-.01-.766.01" transform="translate(-1022.493 -1034.289)" fill-rule="evenodd"/>
        <path id="ink-layer-19" data-name="ink-layer" d="M1854.09,1281.793l.765-.033-.765.033" transform="translate(-1661.549 -1148.755)" fill-rule="evenodd"/>
        <path id="ink-layer-20" data-name="ink-layer" d="M1382.98,1484.73l.044,1.021c-.015-.342-.029-.681-.044-1.021" transform="translate(-1239.362 -1330.647)" fill-rule="evenodd"/>
        <path id="ink-layer-21" data-name="ink-layer" d="M1646.1,1467.52c-.017.341-.034.682-.052,1.021q.026-.511.052-1.021" transform="translate(-1475.114 -1315.224)" fill-rule="evenodd"/>
        <path id="ink-layer-22" data-name="ink-layer" d="M1353.793,1.154l-1.083-.137c.358.083.75-.224,1.083.137" transform="translate(-1212.236 -0.973)" fill-rule="evenodd"/>
        <path id="ink-layer-23" data-name="ink-layer" d="M1213.409,1263.48q-.014.511-.029,1.021c.009-.342.02-.681.029-1.021" transform="translate(-1087.375 -1132.373)" fill-rule="evenodd"/>
        <path id="ink-layer-24" data-name="ink-layer" d="M1001.843,1554.582l-.053-1.022.053,1.022" transform="translate(-897.758 -1392.329)" fill-rule="evenodd"/>
        <path id="ink-layer-25" data-name="ink-layer" d="M1797.53,1286.776c.257-.005.513-.011.766-.016l-.766.016" transform="translate(-1610.863 -1153.236)" fill-rule="evenodd"/>
        <path id="ink-layer-26" data-name="ink-layer" d="M962.678,690.687q0,.511.005,1.021,0-.512-.005-1.021" transform="translate(-862.707 -619.063)" fill-rule="evenodd"/>
        <path id="ink-layer-27" data-name="ink-layer" d="M911.05,1428.19c0,.341,0,.682,0,1.021,0-.342,0-.681,0-1.021" transform="translate(-816.437 -1279.979)" fill-rule="evenodd"/>
        <path id="ink-layer-28" data-name="ink-layer" d="M1522.879,1408.52c-.009.341-.019.682-.028,1.021a1.244,1.244,0,0,1,.028-1.021" transform="translate(-1364.622 -1262.351)" fill-rule="evenodd"/>
        <path id="ink-layer-29" data-name="ink-layer" d="M1064.75,1159h0" transform="translate(-954.179 -1038.743)" fill-rule="evenodd"/>
        <path id="ink-layer-30" data-name="ink-layer" d="M1459.388,1384.961q0-.511-.008-1.021,0,.511.008,1.021" transform="translate(-1307.828 -1240.324)" fill-rule="evenodd"/>
        <path id="ink-layer-31" data-name="ink-layer" d="M1962.28,1684.98l.766.021-.766-.021" transform="translate(-1758.504 -1510.102)" fill-rule="evenodd"/>
        <path id="ink-layer-32" data-name="ink-layer" d="M1873.76,1372.839l.511-.009-.511.009" transform="translate(-1679.177 -1230.368)" fill-rule="evenodd"/>
        <path id="ink-layer-33" data-name="ink-layer" d="M1812.28,1380.241h0" transform="translate(-1624.081 -1237.008)" fill-rule="evenodd"/>
        <path id="ink-layer-34" data-name="ink-layer" d="M854.392,1389.616q-.015-.383-.031-.766c.01.256.021.511.031.766" transform="translate(-765.639 -1244.724)" fill-rule="evenodd"/>
        <path id="ink-layer-35" data-name="ink-layer" d="M1854.855,1394.36c-.221.224-.507.092-.765.107l.765-.107" transform="translate(-1661.549 -1249.662)" fill-rule="evenodd"/>
        <path id="ink-layer-36" data-name="ink-layer" d="M1560.031,1315.71a1.12,1.12,0,0,1-1.021.011l1.021-.011" transform="translate(-1397.113 -1179.179)" fill-rule="evenodd"/>
        <path id="ink-layer-37" data-name="ink-layer" d="M1773.962,1399.879l-1.022-.009,1.022.009" transform="translate(-1588.826 -1254.599)" fill-rule="evenodd"/>
        <path id="ink-layer-38" data-name="ink-layer" d="M1636.261,1313.523l-1.021-.092,1.021.092" transform="translate(-1465.426 -1177.136)" fill-rule="evenodd"/>
        <path id="ink-layer-39" data-name="ink-layer" d="M893.775,1302.81q-.01.385-.02.766.01-.385.02-.766" transform="translate(-800.942 -1167.619)" fill-rule="evenodd"/>
        <path id="ink-layer-40" data-name="ink-layer" d="M1459.23,1428.955c.014-.255.026-.512.04-.765-.014.255-.026.511-.04.765" transform="translate(-1307.694 -1279.979)" fill-rule="evenodd"/>
        <path id="ink-layer-41" data-name="ink-layer" d="M1788.712,1293.79l-1.022.086,1.022-.086" transform="translate(-1602.045 -1159.536)" fill-rule="evenodd"/>
        <path id="ink-layer-42" data-name="ink-layer" d="M987.213,1279q-.01-.383-.021-.765c.007.256.014.511.021.765" transform="translate(-884.676 -1145.591)" fill-rule="evenodd"/>
        <path id="ink-layer-43" data-name="ink-layer" d="M1397.71,1096.31q-.03.385-.06.766c.021-.256.041-.511.06-.766" transform="translate(-1252.509 -982.563)" fill-rule="evenodd"/>
        <path id="ink-layer-44" data-name="ink-layer" d="M1837.892,1170.682a1.106,1.106,0,0,1-1.022,0l1.022,0" transform="translate(-1646.118 -1049.21)" fill-rule="evenodd"/>
        <path id="ink-layer-45" data-name="ink-layer" d="M1456.786,1505.165c-.016-.255-.03-.511-.046-.765.016.255.03.51.046.765" transform="translate(-1305.463 -1348.274)" fill-rule="evenodd"/>
        <path id="ink-layer-46" data-name="ink-layer" d="M1456.841,1524.827q-.016-.383-.031-.766.016.383.031.766" transform="translate(-1305.526 -1365.893)" fill-rule="evenodd"/>
        <path id="ink-layer-47" data-name="ink-layer" d="M992.16,1200.326c0-.255.007-.512.011-.766,0,.257-.007.511-.011.766" transform="translate(-889.128 -1075.091)" fill-rule="evenodd"/>
        <path id="ink-layer-48" data-name="ink-layer" d="M1691.79,1598.985l.511-.015-.511.015" transform="translate(-1516.104 -1433.024)" fill-rule="evenodd"/>
        <path id="ink-layer-49" data-name="ink-layer" d="M898.612,1613.326c-.014-.255-.028-.512-.041-.766q.021.383.041.766" transform="translate(-805.258 -1445.203)" fill-rule="evenodd"/>
        <path id="ink-layer-50" data-name="ink-layer" d="M1431.14,1640.78l.511.01-.511-.01" transform="translate(-1282.521 -1470.492)" fill-rule="evenodd"/>
        <path id="ink-layer-51" data-name="ink-layer" d="M1778.881,1168.537l-1.021-.077,1.021.077" transform="translate(-1593.235 -1047.221)" fill-rule="evenodd"/>
        <path id="ink-layer-52" data-name="ink-layer" d="M1798.3,1170.886l-.766-.106Z" transform="translate(-1610.863 -1049.3)" fill-rule="evenodd"/>
        <path id="ink-layer-53" data-name="ink-layer" d="M1432.16,1410.818l.044-2.3-.044,2.3" transform="translate(-1283.435 -1262.351)" fill-rule="evenodd"/>
        <path id="ink-layer-54" data-name="ink-layer" d="M1240.44,1160.23q.014.894.027,1.787-.014-.9-.027-1.787" transform="translate(-1111.625 -1039.845)" fill-rule="evenodd"/>
        <path id="ink-layer-55" data-name="ink-layer" d="M805.377,1520.3l-1.277.016,1.277-.016" transform="translate(-720.597 -1362.523)" fill-rule="evenodd"/>
        <path id="ink-layer-56" data-name="ink-layer" d="M1142.257,1031.09l-1.277-.02,1.277.02" transform="translate(-1022.493 -924.098)" fill-rule="evenodd"/>
        <path id="ink-layer-57" data-name="ink-layer" d="M1047.54,1127.032l1.276,0-1.276,0" transform="translate(-938.757 -1010.093)" fill-rule="evenodd"/>
        <path id="ink-layer-58" data-name="ink-layer" d="M1092.822,1028.63l-1.022.017,1.022-.017" transform="translate(-978.42 -921.911)" fill-rule="evenodd"/>
        <path id="ink-layer-59" data-name="ink-layer" d="M827.252,1520.355l-1.021-.005,1.021.005" transform="translate(-740.43 -1362.568)" fill-rule="evenodd"/>
        <path id="ink-layer-60" data-name="ink-layer" d="M1278.68,263.828l1.277-.089-1.277.089" transform="translate(-1145.894 -236.452)" fill-rule="evenodd"/>
        <path id="ink-layer-61" data-name="ink-layer" d="M1333.78,542q.023-.638.048-1.276-.025.639-.048,1.276" transform="translate(-1195.272 -484.676)" fill-rule="evenodd"/>
        <path id="ink-layer-62" data-name="ink-layer" d="M1227.806,591.122h0" transform="translate(-1099.616 -529.837)" fill-rule="evenodd"/>
        <path id="ink-layer-63" data-name="ink-layer" d="M1018.8,1021.29l-.766.008.766-.008" transform="translate(-912.311 -915.334)" fill-rule="evenodd"/>
        <path id="ink-layer-64" data-name="ink-layer" d="M968.852,1121.72l1.021.083-1.021-.083" transform="translate(-868.24 -1005.334)" fill-rule="evenodd"/>
        <path id="ink-layer-65" data-name="ink-layer" d="M962.627,1237.461q.008-.511.016-1.021-.008.511-.016,1.021" transform="translate(-862.662 -1108.141)" fill-rule="evenodd"/>
        <path id="ink-layer-66" data-name="ink-layer" d="M1244.26,1114.37l1.021-.1-1.021.1" transform="translate(-1115.048 -998.658)" fill-rule="evenodd"/>
        <path id="ink-layer-67" data-name="ink-layer" d="M1468.96,1048.171c.021-.341.041-.681.061-1.021-.021.341-.041.681-.061,1.021" transform="translate(-1316.414 -938.508)" fill-rule="evenodd"/>
        <path id="ink-layer-68" data-name="ink-layer" d="M1512.29,603.113l1.021-.079-1.021.079" transform="translate(-1355.244 -540.512)" fill-rule="evenodd"/>
        <path id="ink-layer-69" data-name="ink-layer" d="M1171.256,1033.6l-.766-.007.766.007" transform="translate(-1048.939 -926.356)" fill-rule="evenodd"/>
        <path id="ink-layer-70" data-name="ink-layer" d="M962.561,1424.036q-.019-.385-.038-.766.018.383.038.766" transform="translate(-862.568 -1275.57)" fill-rule="evenodd"/>
        <path id="ink-layer-71" data-name="ink-layer" d="M1237.059,1305.27c.559,1.383.245.4.26.723q-.713.1-.26-.723" transform="translate(-1108.437 -1169.823)" fill-rule="evenodd"/>
        <path id="ink-layer-72" data-name="ink-layer" d="M1006.505,1021.228l-.765-.028.765.028" transform="translate(-901.297 -915.253)" fill-rule="evenodd"/>
        <path id="ink-layer-73" data-name="ink-layer" d="M1515.74,763q.025-.511.049-1.021c-.017.341-.032.681-.049,1.021" transform="translate(-1358.336 -682.95)" fill-rule="evenodd"/>
        <path id="ink-layer-74" data-name="ink-layer" d="M962.695,1397.251c0-.341,0-.68,0-1.021,0,.342,0,.681,0,1.021" transform="translate(-862.72 -1251.338)" fill-rule="evenodd"/>
        <path id="ink-layer-75" data-name="ink-layer" d="M962.447,1325.705q.026-.383.053-.765-.027.383-.053.765" transform="translate(-862.5 -1187.451)" fill-rule="evenodd"/>
        <path id="ink-layer-76" data-name="ink-layer" d="M1473.83,1003.665q.036-.383.072-.765l-.072.765" transform="translate(-1320.778 -898.853)" fill-rule="evenodd"/>
        <path id="ink-layer-77" data-name="ink-layer" d="M930.408,1339.69q.034.383.068.765l-.068-.765" transform="translate(-833.788 -1200.669)" fill-rule="evenodd"/>
        <path id="ink-layer-78" data-name="ink-layer" d="M925.455,1320.02q.038.383.076.766-.038-.385-.076-.766" transform="translate(-829.35 -1183.042)" fill-rule="evenodd"/>
        <path id="ink-layer-79" data-name="ink-layer" d="M1417.34,976.619c.02-.255.038-.511.057-.766q-.03.384-.057.766" transform="translate(-1270.154 -874.615)" fill-rule="evenodd"/>
        <path id="ink-layer-80" data-name="ink-layer" d="M162.3,1316.03l1.021-.08-1.021.08" transform="translate(-145.45 -1179.394)" fill-rule="evenodd"/>
        <path id="ink-layer-81" data-name="ink-layer" d="M1395.37,1376.56q-.016.385-.03.766c.01-.256.02-.511.03-.766" transform="translate(-1250.439 -1233.71)" fill-rule="evenodd"/>
        <path id="ink-layer-82" data-name="ink-layer" d="M1434.55,1377.326q.03-.383.057-.766-.028.383-.057.766" transform="translate(-1285.577 -1233.71)" fill-rule="evenodd"/>
        <path id="ink-layer-83" data-name="ink-layer" d="M1419.69,966.786c.026-.255.054-.511.08-.766-.026.256-.054.511-.08.766" transform="translate(-1272.26 -865.803)" fill-rule="evenodd"/>
        <path id="ink-layer-84" data-name="ink-layer" d="M181.977,1313.491l1.021-.1-1.021.1" transform="translate(-163.079 -1177.1)" fill-rule="evenodd"/>
        <path id="ink-layer-85" data-name="ink-layer" d="M1220.181,1031.14l-.511.005.511-.005" transform="translate(-1093.012 -924.161)" fill-rule="evenodd"/>
        <path id="ink-layer-86" data-name="ink-layer" d="M962.695,1303.576q0-.385,0-.766c0,.257,0,.511,0,.766" transform="translate(-862.72 -1167.619)" fill-rule="evenodd"/>
        <path id="ink-layer-87" data-name="ink-layer" d="M1439.253,1298.666a.787.787,0,0,1,.04-.765c-.014.255-.026.51-.04.765" transform="translate(-1289.721 -1163.219)" fill-rule="evenodd"/>
        <path id="ink-layer-88" data-name="ink-layer" d="M1397.862,1258.56c-.007.255-.014.512-.022.766.007-.256.015-.511.022-.766" transform="translate(-1252.679 -1127.964)" fill-rule="evenodd"/>
        <path id="ink-layer-89" data-name="ink-layer" d="M1400.17,1501.94q.025.383.048.765-.023-.383-.048-.765" transform="translate(-1254.767 -1346.07)" fill-rule="evenodd"/>
        <path id="ink-layer-90" data-name="ink-layer" d="M1581.14,607.808l.766.109-.766-.109" transform="translate(-1416.944 -544.79)" fill-rule="evenodd"/>
        <path id="ink-layer-91" data-name="ink-layer" d="M1571.3,607.728c.343.021.72-.144,1.022.1Z" transform="translate(-1408.126 -544.686)" fill-rule="evenodd"/>
        <path id="ink-layer-92" data-name="ink-layer" d="M1150.82,1127.025l1.021-.005-1.021.005" transform="translate(-1031.311 -1010.084)" fill-rule="evenodd"/>
        <path id="ink-layer-93" data-name="ink-layer" d="M1224.59,605.448l1.021.089-1.021-.089" transform="translate(-1097.421 -542.675)" fill-rule="evenodd"/>
        <path id="ink-layer-94" data-name="ink-layer" d="M1062.29,1126.4l1.022,0a1.06,1.06,0,0,1-1.022,0" transform="translate(-951.975 -1009.528)" fill-rule="evenodd"/>
        <path id="ink-layer-95" data-name="ink-layer" d="M972.318,1532.205q-.029-.383-.058-.765l.058.765" transform="translate(-871.293 -1372.506)" fill-rule="evenodd"/>
        <path id="ink-layer-96" data-name="ink-layer" d="M1331.5,602.953q0-.384.011-.766-.006.384-.011.766" transform="translate(-1193.228 -539.753)" fill-rule="evenodd"/>
        <path id="ink-layer-97" data-name="ink-layer" d="M1123.77,1126.723l1.021-.083-1.021.083" transform="translate(-1007.07 -1009.743)" fill-rule="evenodd"/>
        <path id="ink-layer-98" data-name="ink-layer" d="M1402.78,1560.94c.005.256.011.511.017.765-.005-.256-.011-.511-.017-.765" transform="translate(-1257.106 -1398.943)" fill-rule="evenodd"/>
        <path id="ink-layer-99" data-name="ink-layer" d="M1411.47,546.5l1.021-.1-1.021.1" transform="translate(-1264.894 -489.765)" fill-rule="evenodd"/>
        <path id="ink-layer-100" data-name="ink-layer" d="M1454.16,1168.366q.036-.383.071-.766c-.024.256-.047.511-.071.766" transform="translate(-1303.151 -1046.45)" fill-rule="evenodd"/>
        <path id="ink-layer-101" data-name="ink-layer" d="M1567.33,511.994l.059-.766q-.029.384-.059.766" transform="translate(-1404.568 -458.24)" fill-rule="evenodd"/>
        <path id="ink-layer-102" data-name="ink-layer" d="M1333.94,307.187c.005.255.009.511.015.766q-.006-.384-.015-.766" transform="translate(-1195.415 -275.388)" fill-rule="evenodd"/>
        <path id="ink-layer-103" data-name="ink-layer" d="M1246.72,261.3l1.021.085-1.021-.085" transform="translate(-1117.252 -234.264)" fill-rule="evenodd"/>
        <path id="ink-layer-104" data-name="ink-layer" d="M754.92,1657.66l1.021-.1-1.021.1" transform="translate(-676.524 -1485.529)" fill-rule="evenodd"/>
        <path id="ink-layer-105" data-name="ink-layer" d="M1247.23,237.123h0" transform="translate(-1117.252 -212.599)" fill-rule="evenodd"/>
        <path id="ink-layer-106" data-name="ink-layer" d="M646.725,1689.56a1.208,1.208,0,0,1,1.021,0h-1.021" transform="translate(-579.565 -1514.104)" fill-rule="evenodd"/>
        <path id="ink-layer-107" data-name="ink-layer" d="M1922.94,1547.071l1.787-.091-1.787.091" transform="translate(-1723.249 -1386.433)" fill-rule="evenodd"/>
        <path id="ink-layer-108" data-name="ink-layer" d="M1914.122,1505.51l-1.022.024,1.022-.024" transform="translate(-1714.431 -1349.269)" fill-rule="evenodd"/>
        <path id="ink-layer-109" data-name="ink-layer" d="M1873.76,1455.917l1.276-.1c-.4.249-.85.064-1.276.1" transform="translate(-1679.177 -1304.739)" fill-rule="evenodd"/>
        <path id="ink-layer-110" data-name="ink-layer" d="M1827.04,1461.023l1.276-.092-1.276.092" transform="translate(-1637.308 -1309.319)" fill-rule="evenodd"/>
        <path id="ink-layer-111" data-name="ink-layer" d="M1758.19,1505.32l1.021-.08-1.021.08" transform="translate(-1575.608 -1349.027)" fill-rule="evenodd"/>
        <path id="ink-layer-112" data-name="ink-layer" d="M1775.4,1505.311c.341-.026.681-.054,1.021-.081l-1.021.081" transform="translate(-1591.031 -1349.018)" fill-rule="evenodd"/>
        <path id="ink-layer-113" data-name="ink-layer" d="M1787.69,1502.82l1.022-.09-1.022.09" transform="translate(-1602.045 -1346.778)" fill-rule="evenodd"/>
        <path id="ink-layer-114" data-name="ink-layer" d="M1798.3,1419.56l-.766,0,.766,0" transform="translate(-1610.863 -1272.245)" fill-rule="evenodd"/>
        <path id="ink-layer-115" data-name="ink-layer" d="M1866.38,1554.246l1.022-.086c-.318.223-.677.094-1.022.086" transform="translate(-1672.563 -1392.867)" fill-rule="evenodd"/>
        <path id="ink-layer-116" data-name="ink-layer" d="M1772.94,1357.748l1.022-.1-1.022.1" transform="translate(-1588.826 -1216.764)" fill-rule="evenodd"/>
        <path id="ink-layer-117" data-name="ink-layer" d="M1754.035,1318.79h0" transform="translate(-1571.199 -1181.939)" fill-rule="evenodd"/>
        <path id="ink-layer-118" data-name="ink-layer" d="M1731.65,1323.7l-.51,0,.51,0" transform="translate(-1551.367 -1186.339)" fill-rule="evenodd"/>
        <path id="ink-layer-119" data-name="ink-layer" d="M1672.63,1330.263c-.086.21-.537.183-.51-.033l.51.033" transform="translate(-1498.475 -1192.191)" fill-rule="evenodd"/>
        <path id="ink-layer-120" data-name="ink-layer" d="M1562.55,1339.69l.031.765-.031-.765" transform="translate(-1400.285 -1200.669)" fill-rule="evenodd"/>
        <path id="ink-layer-121" data-name="ink-layer" d="M1898.35,1352.6l.765-.013a.665.665,0,0,1-.765.013" transform="translate(-1701.213 -1212.229)" fill-rule="evenodd"/>
        <path id="ink-layer-122" data-name="ink-layer" d="M1800.5,1316.3l-.511.007.511-.007" transform="translate(-1613.068 -1179.708)" fill-rule="evenodd"/>
        <path id="ink-layer-123" data-name="ink-layer" d="M1740.97,1470.845l1.022-.1-1.022.1" transform="translate(-1560.177 -1318.119)" fill-rule="evenodd"/>
        <path id="ink-layer-124" data-name="ink-layer" d="M1701.63,1475.788l1.021-.088Z" transform="translate(-1524.922 -1322.555)" fill-rule="evenodd"/>
        <path id="ink-layer-125" data-name="ink-layer" d="M1893.43,1549.507l1.022-.1-1.022.1" transform="translate(-1696.804 -1388.61)" fill-rule="evenodd"/>
        <path id="ink-layer-126" data-name="ink-layer" d="M1775.4,1564.195a1.234,1.234,0,0,1,1.021,0l-1.021,0" transform="translate(-1591.031 -1401.762)" fill-rule="evenodd"/>
        <path id="ink-layer-127" data-name="ink-layer" d="M1766.041,1224.658l-.481-.166,1.788-.022s-1.239.193-1.307.188" transform="translate(-1582.213 -1097.414)" fill-rule="evenodd"/>
        <path id="ink-layer-128" data-name="ink-layer" d="M1715.2,1183.581h0" transform="translate(-1535.936 -1060.77)" fill-rule="evenodd"/>
        <path id="ink-layer-129" data-name="ink-layer" d="M1571.3,1276.558a1.856,1.856,0,0,1,1.277-.005l-1.277.005" transform="translate(-1408.126 -1143.989)" fill-rule="evenodd"/>
        <path id="ink-layer-130" data-name="ink-layer" d="M1813.046,1237.62l-.766.009.766-.009" transform="translate(-1624.081 -1109.199)" fill-rule="evenodd"/>
        <path id="ink-layer-131" data-name="ink-layer" d="M1768.02,1205.31l1.277.083-1.277-.083" transform="translate(-1584.417 -1080.244)" fill-rule="evenodd"/>
        <path id="ink-layer-132" data-name="ink-layer" d="M1716.38,1229.95l1.277-.09-1.277.09" transform="translate(-1538.14 -1102.245)" fill-rule="evenodd"/>
        <path id="ink-layer-133" data-name="ink-layer" d="M1748.35,1225.046l1.022-.086-1.022.086" transform="translate(-1566.79 -1097.853)" fill-rule="evenodd"/>
        <path id="ink-layer-134" data-name="ink-layer" d="M1721.3,1202.85l1.022.083-1.022-.083" transform="translate(-1542.549 -1078.039)" fill-rule="evenodd"/>
        <path id="ink-layer-135" data-name="ink-layer" d="M1670.171,1249.921l-.511-.01.511.01" transform="translate(-1496.272 -1120.213)" fill-rule="evenodd"/>
        <path id="ink-layer-136" data-name="ink-layer" d="M1721.811,1225.252l-.511-.032.511.032" transform="translate(-1542.549 -1098.086)" fill-rule="evenodd"/>
        <path id="ink-layer-137" data-name="ink-layer" d="M1689.841,1225.324l-.511-.014.511.014" transform="translate(-1513.899 -1098.167)" fill-rule="evenodd"/>
        <path id="ink-layer-138" data-name="ink-layer" d="M1782.78,1222.359c0,.065.769-.27.765.042Z" transform="translate(-1597.645 -1095.439)" fill-rule="evenodd"/>
        <path id="ink-layer-139" data-name="ink-layer" d="M1751.321,1183.58h0" transform="translate(-1568.995 -1060.77)" fill-rule="evenodd"/>
        <path id="ink-layer-140" data-name="ink-layer" d="M882.787,1053.613c.277-1.128.2-2.011,1.186-1.29a5.77,5.77,0,0,1,1.364,3.082c-.083.839-.466,1.173-1.255.906-.908-.307-1.268-1.855-1.295-2.7" transform="translate(-791.113 -942.909)" fill-rule="evenodd"/>
        <path id="ink-layer-141" data-name="ink-layer" d="M1340.208,1000.5c2.287,0,1.289,2.433-.617,2.488-.876.025-2.136-.147-1.853-1.32.152-.626,2.374-1.469,2.47-1.168" transform="translate(-1198.783 -896.644)" fill-rule="evenodd"/>
        <path id="ink-layer-142" data-name="ink-layer" d="M1101.93,1047.15c1.651.8-.672,4.3-2.171,3.436-1.921-1.111,1.492-2.937,2.171-3.436" transform="translate(-985.033 -938.508)" fill-rule="evenodd"/>
        <path id="ink-layer-143" data-name="ink-layer" d="M1082.488,1079.1c.54.59,2.975,2.587,1.633,3.391-1.651.988-2.907-2.273-1.633-3.391" transform="translate(-969.607 -967.14)" fill-rule="evenodd"/>
        <path id="ink-layer-144" data-name="ink-layer" d="M819.027,1035.711c-.537-1.039.2-3.755,1.842-3.259s-.934,2.984-1.842,3.259" transform="translate(-733.818 -925.283)" fill-rule="evenodd"/>
        <path id="ink-layer-145" data-name="ink-layer" d="M1168.371,1069.356c1.07-.43.866.844,1.028,1.255.184.467,1.126,1.605.89,2.1-.351.738-1.19.268-1.646-.212a2.85,2.85,0,0,1-.272-3.147" transform="translate(-1046.732 -958.33)" fill-rule="evenodd"/>
        <path id="ink-layer-146" data-name="ink-layer" d="M995.6,1055.118c-.893,0-3.023-2.572-1.771-3,1.553-.536,2.852,3.193,1.771,3" transform="translate(-890.276 -942.91)" fill-rule="evenodd"/>
        <path id="ink-layer-147" data-name="ink-layer" d="M1306.3,1042.23c.817.2,1.9,2.515.668,2.783-1.364.3-1.608-2.143-.668-2.783" transform="translate(-1170.137 -934.099)" fill-rule="evenodd"/>
        <path id="ink-layer-148" data-name="ink-layer" d="M1259.472,1061.992c-.642-1.234-.8-3.876.765-1.755.34.459.69.273.515,1.031-.153.661-.76.724-1.28.724" transform="translate(-1128.267 -949.522)" fill-rule="evenodd"/>
        <path id="ink-layer-149" data-name="ink-layer" d="M928.22,1022.56c.653.983.46,4.066-.9,2.243a1.412,1.412,0,0,1,.9-2.243" transform="translate(-830.778 -916.472)" fill-rule="evenodd"/>
        <path id="ink-layer-150" data-name="ink-layer" d="M1254.141,130.211c1.267-.327,1.571,2.661.832,2.99-1.035.461-.906-2.49-.832-2.99" transform="translate(-1123.859 -116.768)" fill-rule="evenodd"/>
        <path id="ink-layer-151" data-name="ink-layer" d="M2010.829,1577.385c-1.177-.069-2.825-.389-1.043-1.224a7.342,7.342,0,0,1,4.005-.348c.823.15,2.058.831.8,1.716-.734.516-2.871-.117-3.764-.143" transform="translate(-1800.374 -1412.16)" fill-rule="evenodd"/>
        <path id="ink-layer-152" data-name="ink-layer" d="M2005.1,1608.155l-1.02-.114c.273-.5,1.065-.6,1.02.114" transform="translate(-1795.964 -1440.798)" fill-rule="evenodd"/>
        <path id="ink-layer-153" data-name="ink-layer" d="M2028.67,1591.56l1.022.022-1.022-.022" transform="translate(-1818 -1426.383)" fill-rule="evenodd"/>
      </g>
    </g>
  </g>
</svg>
