<svg xmlns="http://www.w3.org/2000/svg" width="122.755" height="43.764" viewBox="0 0 122.755 43.764">
  <g id="Group_1138" data-name="Group 1138" transform="translate(-1045.855 -152)">
    <g id="Group_1137" data-name="Group 1137">
      <ellipse id="Ellipse_346" data-name="Ellipse 346" cx="18.721" cy="18.721" rx="18.721" ry="18.721" transform="translate(1156.743 152) rotate(90)" fill="#f16730"/>
      <g id="Group_194" data-name="Group 194" transform="translate(1168.61 158.52) rotate(90)">
        <g id="Group_193" data-name="Group 193" transform="translate(4.769 0)">
          <path id="Path_543" data-name="Path 543" d="M.914,0h.914V37.4H0V.02C.3.005.608,0,.914,0Z" transform="translate(6.518 11.867)" fill="#1b1b1b"/>
          <path id="Path_544" data-name="Path 544" d="M7.432,4.654a7.2,7.2,0,0,1,2.512.452.924.924,0,0,1,.09-.156L13.208.395a.917.917,0,1,1,1.507,1.045L11.566,5.96a7.218,7.218,0,0,1,2.949,7.3,18.766,18.766,0,0,0-14.15,0,7.218,7.218,0,0,1,2.948-7.3L.164,1.439A.917.917,0,1,1,1.67.395L4.85,4.95a.908.908,0,0,1,.09.156,7.2,7.2,0,0,1,2.491-.452Z" transform="translate(0)" fill="#1b1b1b"/>
        </g>
        <circle id="Ellipse_347" data-name="Ellipse 347" cx="2.913" cy="2.913" r="2.913" transform="translate(0 27.117)" fill="#1b1b1b"/>
        <circle id="Ellipse_348" data-name="Ellipse 348" cx="2.913" cy="2.913" r="2.913" transform="translate(16.36 35.993)" fill="#1b1b1b"/>
        <circle id="Ellipse_349" data-name="Ellipse 349" cx="2.496" cy="2.496" r="2.496" transform="translate(19.69 20.326)" fill="#1b1b1b"/>
        <ellipse id="Ellipse_350" data-name="Ellipse 350" cx="2.22" cy="2.22" rx="2.22" ry="2.22" transform="translate(3.607 18.523)" fill="#1b1b1b"/>
        <ellipse id="Ellipse_351" data-name="Ellipse 351" cx="2.22" cy="2.22" rx="2.22" ry="2.22" transform="translate(3.054 42.367)" fill="#1b1b1b"/>
      </g>
    </g>
    <path id="Path_27033" data-name="Path 27033" d="M0,20.2l15.452-8L35.079,9.489H49.915L67.272-3.839" transform="translate(1046.545 174.236)" fill="none" stroke="#707070" stroke-width="3" stroke-dasharray="2 5"/>
  </g>
</svg>
