<svg xmlns="http://www.w3.org/2000/svg" viewBox="0 0 31.32 38.35"><defs><style>.cls-141{fill:#040000;}</style></defs><g id="arrow" data-name="arrow"><g id="arrow"><g id="OBJECT"><g id="Group_672" data-name="Group 672"><g id="Group_670" data-name="Group 670"><path id="Path_27008" data-name="Path 27008" class="cls-141" d="M19.18,38.35a.86.86,0,0,1-.61-.25L.25,19.78a.86.86,0,0,1,0-1.21h0L18.57.25a.86.86,0,0,1,1.21,0,.85.85,0,0,1,0,1.21L2.07,19.18,19.78,36.89a.86.86,0,0,1-.6,1.46Z"/></g><g id="Group_671" data-name="Group 671"><path id="Path_27009" data-name="Path 27009" class="cls-1" d="M30.46,38.35a.86.86,0,0,1-.6-.25L11.54,19.78a.85.85,0,0,1,0-1.21h0L29.86.25a.86.86,0,0,1,1.21,0,.86.86,0,0,1,0,1.21L13.35,19.18,31.07,36.89a.86.86,0,0,1-.61,1.46Z"/></g></g></g></g></g></svg>