<svg xmlns="http://www.w3.org/2000/svg" viewBox="0 0 42.62 27.05"><defs><style>.cls-1{fill:#cce084;}.cls-2{fill:#a9ce57;}.cls-3{fill:#87bf4a;}.cls-4{fill:#b7d670;}.cls-5{fill:#4a3e4d;}.cls-6{fill:#5c525f;}.cls-7{fill:#fff;}</style></defs><g id="cricket" data-name="cricket"><g id="cricket"><g id="cricket-2" data-name="cricket"><g id="Group_190" data-name="Group 190"><path id="Path_212" data-name="Path 212" class="cls-1" d="M38.46,13.18a.67.67,0,0,0,.43-.16c.15-.12,3.73-3,3.73-7.47C42.62,1.84,41.09.27,41,.2a.69.69,0,0,0-1,1s1.18,1.28,1.18,4.37c0,3.78-3.17,6.37-3.2,6.39a.7.7,0,0,0,.43,1.24Z"/><path id="Path_213" data-name="Path 213" class="cls-1" d="M38.46,13.18a.7.7,0,0,0,.63-.42C42,6.21,39.12,2.5,39,2.34a.69.69,0,0,0-1-.09.7.7,0,0,0-.11,1c.11.14,2.46,3.27-.09,9a.71.71,0,0,0,.36.92.64.64,0,0,0,.28.06Z"/></g><path id="Path_214" data-name="Path 214" class="cls-2" d="M6.39,16.58,3.85,18.83a1,1,0,0,0-.08,1.35,1.09,1.09,0,0,0,.26.21c6.46,3.54,20.84,4.35,31.6,1.68V14.45Z"/><path id="Path_215" data-name="Path 215" class="cls-3" d="M3.89,19l0-.15,2.54-2.25,29.24-2.13v7.62c-1,.25-2,.46-3.06.65a26.59,26.59,0,0,1-2.91-4.22,1.36,1.36,0,0,0-1.43-.7A119.93,119.93,0,0,1,9.88,19.09C7.65,19.09,5.63,19,3.89,19Z"/><path id="Path_216" data-name="Path 216" class="cls-1" d="M37.07,12.14l-2.86,3C21.63,18.35,6.38,17.77.45,17.43a.47.47,0,0,1-.22-.88A46.06,46.06,0,0,1,37.07,12.14Z"/><path id="Path_217" data-name="Path 217" class="cls-2" d="M33.61,16.64c0,3.45,2.08,6.94,4.16,6.94s4.16-3.49,4.16-6.94-1.87-4.85-4.16-4.85S33.61,13.2,33.61,16.64Z"/><path id="Path_218" data-name="Path 218" class="cls-1" d="M1.76,25.66H5.64a.7.7,0,0,0,.65-.46L12.7,7.66l.84,1.73L7.6,25.68a2.1,2.1,0,0,1-2,1.36H1.76a.69.69,0,1,1,0-1.38Z"/><path id="Path_219" data-name="Path 219" class="cls-4" d="M15,7.28,28.14,22.19a.85.85,0,0,1-.07,1.2l-.09.07c-1.23.81-3.66,2-5.47.12-.83-.86-6.25-9.13-9.67-14.39a1.66,1.66,0,0,1-.17-1.47h0A1.39,1.39,0,0,1,15,7.28Z"/><path id="Path_220" data-name="Path 220" class="cls-5" d="M37.42,18.72h0A1.72,1.72,0,0,0,39.15,17h0V16.3a1.73,1.73,0,0,0-1.73-1.74h0a1.73,1.73,0,0,0-1.73,1.74h0V17a1.72,1.72,0,0,0,1.73,1.73Z"/><path id="Path_221" data-name="Path 221" class="cls-6" d="M37.07,14.6v2a.69.69,0,1,1-1.38,0V16.3A1.73,1.73,0,0,1,37.07,14.6Z"/><circle id="Ellipse_253" data-name="Ellipse 253" class="cls-7" cx="37.07" cy="15.95" r="0.69"/><path id="Path_222" data-name="Path 222" class="cls-3" d="M40.54,14.85a6.15,6.15,0,0,0-.45-2.44c1.11.72,1.84,2.08,1.84,4.23,0,3.45-2.08,6.94-4.16,6.94a3.19,3.19,0,0,1-2.32-1.4C38,22.08,40.54,18.44,40.54,14.85Z"/><g id="Group_191" data-name="Group 191"><path id="Path_223" data-name="Path 223" class="cls-4" d="M36.09,27.05h3.76a.7.7,0,0,0,.69-.7.69.69,0,0,0-.69-.69H36.09l-2.58-4.5a.68.68,0,0,0-.92-.32.69.69,0,0,0-.32.93s0,.05,0,.08l2.58,4.5A1.4,1.4,0,0,0,36.09,27.05Z"/><path id="Path_224" data-name="Path 224" class="cls-4" d="M31.52,27h1.39a.69.69,0,0,0,0-1.38H31.52V21.5a.69.69,0,1,0-1.38,0h0v4.16A1.38,1.38,0,0,0,31.52,27Z"/></g><path id="Path_225" data-name="Path 225" class="cls-2" d="M24.15,10.14c1.24,1.82,6.35,3.72,10.29,4.78l-.23.25q-1.1.27-2.22.51c-7.34-2.21-9-4.59-9.38-5.53Z"/></g></g></g></svg>