<svg xmlns="http://www.w3.org/2000/svg" viewBox="0 0 23.12 12.57"><defs><style>.cls-181{opacity:0.8;}.cls-182{fill:none;stroke:#493c26;stroke-miterlimit:10;stroke-width:1.83px;}</style></defs><g id="forn-arrow" data-name="forn-arrow"><g id="forn-arrow"><g id="Group_693" data-name="Group 693" class="cls-1"><path id="Path_27030" data-name="Path 27030" class="cls-2" d="M19.68.37l2.24,5L17,7.68"/><path id="Path_27031" data-name="Path 27031" class="cls-2" d="M.33,5.55a15.83,15.83,0,0,1,6.24-1,12,12,0,0,1,3.94.68,5.05,5.05,0,0,1,2.87,2.46A2.89,2.89,0,0,1,12.73,11a2.72,2.72,0,0,1-1.5.63,2.89,2.89,0,0,1-3-2.77V8.81c.06-2.25,2.45-3.61,4.61-4.06a12.24,12.24,0,0,1,8.7,1.47"/></g></g></g></svg>