<svg xmlns="http://www.w3.org/2000/svg" viewBox="0 0 47.29 42.72"><defs><style>.cls-1{fill:#e46533;}.cls-2{fill:#1a1a1a;}</style></defs><g id="圖層_2" data-name="圖層 2"><g id="圖層_1-2" data-name="圖層 1"><g id="ladybird"><circle id="Ellipse_346" data-name="Ellipse 346" class="cls-1" cx="28.57" cy="24" r="18.72"/><g id="Group_194" data-name="Group 194"><g id="Group_193" data-name="Group 193"><path id="Path_543" data-name="Path 543" class="cls-2" d="M13.62,12.73l.55-.73L44,34.51,42.94,36,13.09,13.47C13.25,13.23,13.44,13,13.62,12.73Z"/><path id="Path_544" data-name="Path 544" class="cls-2" d="M7.86,8.39A7.33,7.33,0,0,1,9.73,6.66a1.22,1.22,0,0,1-.07-.17L7.93,1.21A.92.92,0,0,1,8.5.05.93.93,0,0,1,9.67.62v0l1.71,5.24a7.22,7.22,0,0,1,7.61,2,18.74,18.74,0,0,0-8.52,11.3,7.2,7.2,0,0,1-4.06-6.74l-5.5-.21a.92.92,0,1,1,0-1.83H1l5.55.2.18,0A7.18,7.18,0,0,1,7.86,8.39Z"/></g><circle id="Ellipse_347" data-name="Ellipse 347" class="cls-2" cx="22.54" cy="31.08" r="2.91"/><circle id="Ellipse_348" data-name="Ellipse 348" class="cls-2" cx="39.47" cy="23.36" r="2.91"/><circle id="Ellipse_349" data-name="Ellipse 349" class="cls-2" cx="28.38" cy="11.35" r="2.5"/><circle id="Ellipse_350" data-name="Ellipse 350" class="cls-2" cx="16.87" cy="23.16" r="2.22"/><circle id="Ellipse_351" data-name="Ellipse 351" class="cls-2" cx="35.58" cy="37.96" r="2.22"/></g></g></g></g></svg>