<svg xmlns="http://www.w3.org/2000/svg" viewBox="0 0 516.74 140.33"><defs><style>.cls-1,.cls-4{fill:none;stroke:#493c26;stroke-miterlimit:10;}.cls-1{stroke-width:1.41px;}.cls-2{fill:#55ae9e;}.cls-3{fill:#493c26;}.cls-4{stroke-width:1.09px;}</style></defs><g id="pencil" data-name="pencil"><g id="pencil"><path id="Path_27032" data-name="Path 27032" class="cls-1" d="M138.5,127.62c24.85,11.21,57.26,13,84.2,4.77,8.71-2.68,17.58-7,19.65-13.75A6,6,0,0,0,239,111c-5.14-2.12-11.64,2.4-11.09,6.67s5.39,7.55,10.26,10c28.6,14.25,62,11.34,90.43-.53,4.4-1.84,8.76-4.25,10.46-7.73s-.45-8.14-5.39-9c-5.95-1.06-11,3.87-11.18,8.32-.19,5.47,4.22,10.64,10.22,13.95s13.4,5,20.8,6c22.95,3.19,45.94-1.88,63.27-13.28a17.26,17.26,0,0,0,5.14-4.56,4.68,4.68,0,0,0-.05-5.69c-1.82-2.17-6.11-2.87-9.28-1.79a7.28,7.28,0,0,0-5.24,6.18c-.13,2.55,1.36,5,3.59,7,9.36,8.27,34.89,10.54,48.7,11,19.69.68,39.7-2.58,56.86-9.69"/><path id="Path_27033" data-name="Path 27033" class="cls-2" d="M88.93,1.63c-27.27.6-61.66-.5-88.93.11C20.24,27.68,41.89,64.81,60.12,92.8c.92-8.47-2.07-30.39-2.07-30.39,7,4.59,15.2,11.29,22.24,15.88L78.87,52.23,94.94,64.72,92.68,40l27.57,19.28Z"/><g id="Group_694" data-name="Group 694"><path id="Path_27034" data-name="Path 27034" class="cls-3" d="M103.88,115.86a101.49,101.49,0,0,0,20.76-13.38c.55,5.21,1.1,10.38,1.65,15.6a12.18,12.18,0,0,1,0,4,4.09,4.09,0,0,1-2.46,3c-1.44.47-3-.19-4.36-.85A166.49,166.49,0,0,1,103.88,115.86Z"/><path id="Path_27035" data-name="Path 27035" class="cls-4" d="M3.26.29C17.79,23.46,49.28,70.7,61,92.21c16.44,9.31,40.7,24.47,60.11,32.75a3.81,3.81,0,0,0,5-2,3.77,3.77,0,0,0,.3-1.82c-1.69-20.73-2.28-32.36-4.81-59.73-18.38-28.76-17.76-34.06-33.8-59.79"/><path id="Path_27036" data-name="Path 27036" class="cls-4" d="M61,92.21c-1-9.92-2.17-19.16-3-29.8L79.87,75.28a141,141,0,0,0-1-23.05c5.47,4.18,10.6,8.32,16.07,12.49-1-8.59-2.16-16.92-3.2-25.5,9.64,7.94,19.2,14.61,29.52,21.65"/></g><path id="Path_27037" data-name="Path 27037" class="cls-4" d="M69.12,61.34C55,38.06,44.4,18.25,38.1,7.82"/><line id="Line_224" data-name="Line 224" class="cls-4" x1="89.66" y1="34.58" x2="73.33" y2="6.56"/></g></g></svg>