<?xml version="1.0" encoding="utf-8"?>
<!-- Generator: Adobe Illustrator 25.0.0, SVG Export Plug-In . SVG Version: 6.00 Build 0)  -->
<svg version="1.1" id="QQ" xmlns="http://www.w3.org/2000/svg" xmlns:xlink="http://www.w3.org/1999/xlink" x="0px" y="0px"
	 viewBox="0 0 500 500" style="enable-background:new 0 0 500 500;" xml:space="preserve">
<style type="text/css">
	.st0{fill:#FFFFFF;stroke:#231815;stroke-width:8.5447;stroke-linecap:round;stroke-linejoin:round;stroke-miterlimit:10;}
	
		.st1{clip-path:url(#SVGID_2_);fill:none;stroke:#231815;stroke-width:8.5447;stroke-linecap:round;stroke-linejoin:round;stroke-miterlimit:10;}
	.st2{fill:#231815;stroke:#231815;stroke-width:8.6983;stroke-linecap:round;stroke-linejoin:round;stroke-miterlimit:10;}
	.st3{fill:#FFFFFF;stroke:#231815;stroke-width:8.6983;stroke-linecap:round;stroke-linejoin:round;stroke-miterlimit:10;}
	.st4{fill:none;stroke:#231815;stroke-width:8.6983;stroke-linecap:round;stroke-linejoin:round;stroke-miterlimit:10;}
	.st5{fill:#231815;}
	.st6{fill:none;stroke:#231815;stroke-width:5.643;stroke-linecap:round;stroke-linejoin:round;stroke-miterlimit:10;}
	.st7{fill:#231815;stroke:#231815;stroke-width:4.0307;stroke-linecap:round;stroke-linejoin:round;stroke-miterlimit:10;}
	.st8{fill:#A9C7E8;stroke:#231815;stroke-width:7.8624;stroke-linecap:round;stroke-linejoin:round;stroke-miterlimit:10;}
	.st9{fill:none;stroke:#231815;stroke-width:8.5447;stroke-linecap:round;stroke-linejoin:round;stroke-miterlimit:10;}
</style>
<path class="st0" d="M466.8,481.9l-3.2-48.4c0,0,3.2-30.7-38.7-38.7l-121-25.9h-42h-24.2h-42l-121,25.9c-42,8-38.7,38.7-38.7,38.7
	l-3.2,48.4"/>
<g>
	<defs>
		<path id="SVGID_1_" d="M466.8,481.9l-3.2-48.4c0,0,3.2-30.7-38.7-38.7l-121-25.9h-42h-24.2h-42l-121,25.9
			c-42,8-38.7,38.7-38.7,38.7l-3.2,48.4"/>
	</defs>
	<clipPath id="SVGID_2_">
		<use xlink:href="#SVGID_1_"  style="overflow:visible;"/>
	</clipPath>
	<line class="st1" x1="15.9" y1="397.1" x2="489.2" y2="397.1"/>
	<line class="st1" x1="15.9" y1="417.5" x2="489.2" y2="417.5"/>
	<line class="st1" x1="15.9" y1="437.9" x2="489.2" y2="437.9"/>
	<line class="st1" x1="15.9" y1="458.4" x2="489.2" y2="458.4"/>
	<line class="st1" x1="15.9" y1="478.8" x2="489.2" y2="478.8"/>
</g>
<path class="st2" d="M241.4,8.9c0,0-59,9.1-65.1,42.4c0,0-30.3,4.5-31.8,48.4c0,0-17.8,33.7,3,71.1l105.9,1.5l90.8,6.1
	c0,0,13.6-16.6,12.1-54.5c0,0,0-60.5-30.3-72.6c0,0-6.1-30.3-36.3-30.3C289.8,21,277.7,1.4,241.4,8.9z"/>
<path class="st0" d="M250.8,416.8c64.1,1.2,102.8-35.5,102.8-35.5c-37.9-2.4-49.8-26.9-49.8-26.9c-21.8-40.9-9.5-79.5-9.5-79.5
	l-44.4,16.7l-44.4-16.7c0,0,12.3,38.6-9.5,79.5c0,0-18.1,27.7-49.8,26.9c0,0,38.6,36.7,102.8,35.5v0c0.4,0,0.7,0,1,0
	C250.1,416.8,250.5,416.8,250.8,416.8L250.8,416.8z"/>
<g>
	<path class="st3" d="M197,274.8L197,274.8c0,0,21.5,26.9,52.8,26.4c30.1,1.6,52.8-26.4,52.8-26.4l0,0
		c17.7-17.3,28.4-50.5,28.4-50.5c17.2,3.7,21.3-26.9,21.3-26.9c2-33.3-15.9-24.5-15.9-24.5l1.4-26.5c-3.2-75.7-61.5-82.7-88-81.9"/>
	<path class="st4" d="M339.8,188.3c0,0-6.8-10.4-8.6,20"/>
	<path class="st3" d="M302.6,274.8L302.6,274.8c0,0-21.5,26.9-52.8,26.4c-30.1,1.6-52.8-26.4-52.8-26.4l0,0
		c-17.7-17.3-28.4-50.5-28.4-50.5c-17.2,3.7-21.3-26.9-21.3-26.9c-2-33.3,15.9-24.5,15.9-24.5l-1.4-26.5c3.2-75.7,61.5-82.7,88-81.9
		"/>
	<path class="st4" d="M159.8,188.3c0,0,6.8-10.4,8.6,20"/>
</g>
<g>
	<path class="st5" d="M293.3,178.7c0,4.7-2.3,8.5-5.1,8.5c-2.8,0-5.1-3.8-5.1-8.5c0-4.7,2.3-8.5,5.1-8.5
		C291,170.2,293.3,174,293.3,178.7z"/>
	<path class="st5" d="M216.4,178.7c0,4.7-2.3,8.5-5.1,8.5c-2.8,0-5.1-3.8-5.1-8.5c0-4.7,2.3-8.5,5.1-8.5
		C214.1,170.2,216.4,174,216.4,178.7z"/>
</g>
<path class="st4" d="M239.7,223.2c0,0,8.8,12.9,20.4,0"/>
<g>
	<circle class="st6" cx="208.7" cy="186.1" r="30.5"/>
	<circle class="st6" cx="290" cy="186.1" r="30.5"/>
	<path class="st6" d="M234.3,168.9c0,0,14.2-12.7,29.4,1.1"/>
	<line class="st6" x1="163.1" y1="172.9" x2="178.2" y2="175.8"/>
	<line class="st6" x1="336.4" y1="172.9" x2="321.2" y2="175.8"/>
</g>
<path class="st7" d="M162.6,212.4c0,0,5.7,57.3-3.4,81.4c0,0-20.4,56.3,5.7,73.4c0,0-17.2-13.2-2.6-59.6c0,0,20.9-58.5,6-120.4
	L162.6,212.4z"/>
<path class="st7" d="M168.3,187.1c0,0-4.9-47.7-2.6-57.9l-11.3,17c0,0,2.8,43.6,8.2,66.1"/>
<path class="st7" d="M336.5,212.4c0,0-5.7,57.3,3.4,81.4c0,0,20.4,56.3-5.7,73.4c0,0,17.2-13.2,2.6-59.6c0,0-20.9-58.5-6-120.4
	L336.5,212.4z"/>
<path class="st7" d="M330.8,187.1c0,0,4.9-47.7,2.6-57.9l11.3,17c0,0-2.8,43.6-8.2,66.1"/>
<line class="st4" x1="237.9" y1="262.9" x2="261.8" y2="262.9"/>
<line class="st4" x1="237.9" y1="262.9" x2="261.8" y2="262.9"/>
<path class="st8" d="M443,159.5c-4.1,0.3-10.4,0.6-16.7,0.4l-24.2,1.3l1.2-0.6l-1.4,0.2l16.8-17.5c4-4.9,8.3-9.5,11.3-12.4
	c3.1-3.1,5.9-4.5,10.2-5.5c13.7-3.2,19,9.3,19,9.3l0.2,0.3l0,0c0,0,6.1,13.3-4.2,20.4C451.5,157.8,447.3,159.2,443,159.5z"/>
<path class="st8" d="M434.7,236.9c-2.7-3.1-6.8-7.9-10.5-13.1l-15.8-18.4l1.2,0.6l-1-1l24.1,2.7c6.3,0.2,12.6,0.8,16.7,1.4
	c4.3,0.6,7.2,2,10.6,4.7c10.9,8.9,4.2,20.7,4.2,20.7l-0.2,0.3l0,0c0,0-6.9,13-18.7,9.1C441.2,242.7,437.6,240.2,434.7,236.9z"/>
<g>
	<g>
		<path class="st4" d="M274.3,143.2c0,0,21.6,8.9,34.8,7.5"/>
	</g>
	<g>
		<path class="st4" d="M225.3,143.2c0,0-21.6,8.9-34.8,7.5"/>
	</g>
	<g>
		<path class="st5" d="M206.2,178.7c0,4.7,2.3,8.5,5.1,8.5c2.8,0,5.1-3.8,5.1-8.5c0-4.7-2.3-8.5-5.1-8.5
			C208.5,170.2,206.2,174,206.2,178.7z"/>
		<path class="st5" d="M283.1,178.7c0,4.7,2.3,8.5,5.1,8.5s5.1-3.8,5.1-8.5c0-4.7-2.3-8.5-5.1-8.5S283.1,174,283.1,178.7z"/>
	</g>
</g>
<g>
	<path class="st0" d="M198.6,253.9c0,0,15.8-22,21.1-25.5c0,0,7.9-18.4-4.4-22c0,0-25.5,9.7-36,29L198.6,253.9z"/>
	<path class="st0" d="M21.6,491l76.9-183.5c0,0,1.8-36,0-61.5c0,0,6.1-23.7,22-29.9l48.1-24.9l1.1-0.6c0,0,1.1-0.6,3.1-1.2
		c3.3-0.9,9.1-1.6,16.2,1.2l18.4,4.4c0,0,38.6,17.6,11.4,19.3c0,0-7-1.8-19.3-5.3l14.9,31.6c0,0-4.4,15.8-18.4-1.8l8.8,19.3
		c0,0,4.4,15.8-9.7,10.5c0,0-15.8,44.8-39.5,50.9c0,0-20.2,24.6-29.9,63.2l-25.1,108"/>
	<line class="st9" x1="172.7" y1="189.5" x2="199.5" y2="209.1"/>
	<polyline class="st9" points="144.1,207.4 170.5,210 195.9,239 	"/>
	<path class="st9" d="M195.1,268.8c-5.3-0.9-30.7-36-30.7-36l-5.6-1.6l-26.9-2.8l27.2,11.4l9.7,14.9c0,0,13.2,39.5-4.4,25.5
		l-13.2-19.3l-15.8-9.7l-7,11.4c0,0,17.7,13.5,10.1,37.7"/>
</g>
</svg>
