<svg xmlns="http://www.w3.org/2000/svg" viewBox="0 0 113.34 73.57"><defs><style>.cls-31{opacity:0.7;}.cls-2{fill:#e95473;}.cls-32,.cls-33{fill-rule:evenodd;}.cls-33{fill:#040000;}</style></defs><g id="run" data-name="run"><g id="run" data-name="run"><g id="composition-13" class="cls-31"><g id="Characters"><g id="Character_running" data-name="Character running"><path id="Accent" class="cls-32" d="M27.63,39.87c3.9,0,7.81.17,11.7.28.44,0,.45,0,.75-.29.83-.88,1.68-1.73,2.56-2.56a43,43,0,0,1,8.59-6.47c2.24-1.25,4.55-2.39,6.9-3.41a5.3,5.3,0,0,1-.76,2.51,5.7,5.7,0,0,1-1.43,1.34c-1.52,1.14-3.17,2.1-4.64,3.31a5.83,5.83,0,0,0-2,5.07c0,.37,0,.42.38.52a4.89,4.89,0,0,0,1.15.14,67.9,67.9,0,0,0,9.13-.2q2.4-.15,4.8-.42a14.61,14.61,0,0,0,3-.52c4.08-1.38,5.22-7.08,5.54-10.82a38.38,38.38,0,0,0,13.3.68c5.29-.62,11.72-2.33,14.74-7.25a17.44,17.44,0,0,0,2.17-7.85c-2.88.52-5.8.86-8.71,1.19l-1.53.17a2.59,2.59,0,0,0-.73.07,3.89,3.89,0,0,0-.82.8,47.26,47.26,0,0,1-5.64,4.75,16,16,0,0,1-3.44,1.95,12.35,12.35,0,0,1-4.17.63A28.05,28.05,0,0,1,67.9,21.74a2.71,2.71,0,0,1-2.71,2c-1.39-.16-2.44-1.31-3.4-2.23-.35-.34-.81-.21-1.29-.21-1.37,0-2.72.1-4.08.23a47,47,0,0,0-13,3.05,34.07,34.07,0,0,0-10.95,7.21,23.33,23.33,0,0,0-3.65,4.46,6.13,6.13,0,0,0-1.17,3.65"/><path id="Ink" class="cls-33" d="M32.91,8.46a16.34,16.34,0,0,1,4.15.88,12.08,12.08,0,0,0,2,.59c.62.08,1.25,0,1.87.06A13,13,0,0,0,48.9,8c2.42-1.56,4.18-4,6.76-5.31a14.29,14.29,0,0,1,8.07-1.59,14.81,14.81,0,0,1,3.9,1.2A14.56,14.56,0,0,1,71.16,4.1a10.46,10.46,0,0,1,2.48,3.05,7.83,7.83,0,0,1,.84,2.08c.12.51,0,1.08.27,1.53a4.48,4.48,0,0,1,1,1.84,2.73,2.73,0,0,1-.35,1.81,4.21,4.21,0,0,1-1.32,1.37c-.41.27-.56.27-.92-.06a10.29,10.29,0,0,1-1.65,2.56,3.86,3.86,0,0,1-1.32.75,1.85,1.85,0,0,0-1,.55c-.27.34-1.2,1.78-.62,2.08a5.15,5.15,0,0,0,1.37.1,8.52,8.52,0,0,1,1.59.36,16.79,16.79,0,0,0,5.67.81,25.13,25.13,0,0,0,6.1-.84,13.76,13.76,0,0,0,5.17-2.37,9,9,0,0,0,1.88-2c.5-.77.69-1.71,1.22-2.45.35-.48-.21-.92-.47-1.38a18.54,18.54,0,0,1-1.41-3c-.34-1-.74-2-1.18-2.9S87.39,6,86.84,5.07A5,5,0,0,1,86,2.68a1.74,1.74,0,0,1,.49-1.18c.28-.25.52-.15.81-.25a3,3,0,0,1,2.41.3c.44.22.92.39,1.34.63s.5.58.83.73c.15-1.3.23-2.94,2-2.68,1.36.2,2,2.17,2.92,3.06.26-.37.15-.93.18-1.36a2.84,2.84,0,0,1,.38-1.3A1.33,1.33,0,0,1,99.16.19a1.25,1.25,0,0,1,.3.26c.36.33.33.83.69,1.15a3.85,3.85,0,0,1,.62,1.23c.28.55.59,1.07.85,1.62a4.14,4.14,0,0,1,.33.82,2.22,2.22,0,0,0,0,.45c.08.14.28.22.39.35a1.42,1.42,0,0,1,.2.53,4.82,4.82,0,0,0,.49,1,4.71,4.71,0,0,1,.58,3,4.14,4.14,0,0,0-.07,1.36c0,.32-.11.66,0,1s1.54.84.66,1.4c-.36.24-.46.2-.45.69a10.33,10.33,0,0,1-.06,1.47,18.46,18.46,0,0,1-.77,3,9.94,9.94,0,0,1-1.35,3.05,15.11,15.11,0,0,1-2.14,2.31,13.31,13.31,0,0,1-5.69,3.11A46.83,46.83,0,0,1,87,29.55c-2.38.22-4.78.17-7.16.35a10.66,10.66,0,0,1-3.14-.11,22.91,22.91,0,0,1-3.17-.89,27.34,27.34,0,0,1-.63,4.77,12.81,12.81,0,0,1-1.92,3.84A7.43,7.43,0,0,1,67.51,40c-.41.13-1.09.12-1.3.51a1.68,1.68,0,0,0,0,.74c0,.37-.07.75-.06,1.12,0,.57.51.44,1,.54.66.13,1.3.29,1.94.47s1.3.41,2,.58,1.13.23,1.68.42a30.68,30.68,0,0,0,4,.89c1.45.29,2.88.66,4.31,1,2.85.67,5.71,1.39,8.48,2.34,1.3.44,2.56.93,3.87,1.33a8.87,8.87,0,0,1,3.57,1.7,5,5,0,0,0,2.58,1.11c.57.13.9.09,1.2-.46s.57-1.08.88-1.61a46.2,46.2,0,0,0,3.27-6.8c.71-1.74,1.73-3.88,3.81-4.11a2.71,2.71,0,0,1,1.64.39c.37.19,1,.22,1.25.51s.28.42.46.6a4.86,4.86,0,0,1,.53.58c.24.37.12,1.11.5,1.36s.23.82.25,1.11a12.65,12.65,0,0,1,0,1.63,3.76,3.76,0,0,1-.23,1.37c-.19.34-.49.4-.3.85-.31,0-.37.72-.4.91a5.07,5.07,0,0,1-.45,1.43,11.12,11.12,0,0,1-2.36,3c-.34.33-1.1.87-1.06,1.41s.43.84.37,1.42a12.44,12.44,0,0,1-1.23,3.69,2.49,2.49,0,0,1-2.07,1.79,7.42,7.42,0,0,1-3-.47,24,24,0,0,0-3.41-.86,7.26,7.26,0,0,1-1.67-.47A7.31,7.31,0,0,0,96,59.41c-.38-.09-.85-.1-1.1-.46s-.06-.75.09-1.13.18-.31,0-.45a2.32,2.32,0,0,0-.65-.18,1.14,1.14,0,0,0-1.16.16,5.28,5.28,0,0,0-.76,1.4c-.28.55-.61,1.07-.93,1.59-.64,1-1.39,2-2,3-.15.24-.4.82-.73.82s-.17-.18-.31-.26-.27,0-.47-.13c-.49-.2-.77-.76-1.29-1A13.83,13.83,0,0,0,85,62.4,56,56,0,0,1,77.65,60c-1.2-.51-2.37-1.08-3.54-1.63a12.32,12.32,0,0,0-1.72-.73c-.54-.15-1.1-.21-1.65-.35-1.16-.31-2.36-.46-3.51-.79-.55-.15-1-.44-1.51-.63a3.54,3.54,0,0,1-1.21-.57c-.05.34-.53,0-.69,0s-.27-.06-.39-.12-.23-.23-.32-.26-.38,0-.63,0a3.22,3.22,0,0,1-1.08-.37c-.19-.11.09-.05-.22-.17-.15,0-.37,0-.53-.07-.39-.13-.77-.33-1.15-.48a5.16,5.16,0,0,1-2-1.08,36.45,36.45,0,0,1-4.35,5.63,42.8,42.8,0,0,1-5.65,4c-1.93,1.33-3.88,2.68-5.88,3.9-1,.6-2,1.12-3,1.62s-2.15.75-3.23,1.18c-.52.21-1.07.34-1.6.54s-.94.45-1.42.65a10,10,0,0,0-1.32.5c-.29.18-.61.6-.95.26-.1.29-.18.19-.4.23a1.61,1.61,0,0,0-.52.18,1.19,1.19,0,0,1-1.14.1c0,.57-1.51.46-1.76.16,0,.61-1.85.59-2,.07a5.72,5.72,0,0,1,0-1.6c0-.73.08-1.46.16-2.19s.17-1.54.26-2.31c0-.34.07-.68.13-1,0-.17.15-.43.1-.6-.13-.49-1-.29-1.41-.31a6.86,6.86,0,0,1-.9-.09,2.43,2.43,0,0,0-.72-.17c-.51.06-.25.59-.21.95a.74.74,0,0,1-.55.88h0c-.54.15-2.31-.37-2.41.43a7.29,7.29,0,0,0,.2,1.38,6.89,6.89,0,0,0,.49,1.76c.39.93,1.14,2,.9,3.1-.47,2.12-4.12,1.92-5.5,1-2-1.29-2.66-3.88-2.45-6.17a10.22,10.22,0,0,1,.82-3.36c.21-.45.71-1,.68-1.5s-.45-.74-.49-1.18a2.13,2.13,0,0,1,.56-1.36,8.79,8.79,0,0,1,.94-1.24,3.56,3.56,0,0,1,3.16-.65,17.28,17.28,0,0,1,3.53.91,4.81,4.81,0,0,0,1.66.4h1.4c.44,0,.81,0,1-.45s.28-.68.82-.85,1.18-.3,1.77-.44c.12,0,.39-.14.52-.06s0,.3.13.33.61-1.18.89-.35c-.07-.42.41-.34.65-.35h.28a.2.2,0,0,1,.24,0,.17.17,0,0,0,.17-.16h0c1-.29,2.07-.51,3.09-.79a27.12,27.12,0,0,0,3.5-1.17c.42-.18.83-.39,1.25-.56a3,3,0,0,1,.57-.15.57.57,0,0,1,.22,0,.32.32,0,0,1,.09-.17c.69-.43,1.42-.79,2.12-1.19a8.17,8.17,0,0,1,1.43-.69l.1,0h.23a.37.37,0,0,1,.1-.22,1.66,1.66,0,0,1,.47-.26c.72-.28,1.45-.47,2.12-.77.35-.16,1.64-.74,2-.44.08-.5,1.61-.26,1.94-.64a6.58,6.58,0,0,1-1.82-2.54,8.76,8.76,0,0,1-.94-3.46,6.3,6.3,0,0,1,.86-3.29,9.39,9.39,0,0,0,.79-2.84,8.77,8.77,0,0,1,3.74-4.9c1-.65,1.93-1.25,2.9-1.87a3.27,3.27,0,0,0,1.61-2.06,28.55,28.55,0,0,0-9.81,5.42q-2.22,1.73-4.39,3.52A22.65,22.65,0,0,0,41,39.33l-.18.19a8,8,0,0,0-.6.71,2.21,2.21,0,0,0-.31.39c0,.51,1,1.06,1.26,1.4a5.14,5.14,0,0,1,1,1.66.9.9,0,0,1-.42,1.19.84.84,0,0,1-.47.08,6.41,6.41,0,0,1-2.6-.83,2.87,2.87,0,0,0,.53,1.43c.31.59.63,1.19.9,1.81A2.21,2.21,0,0,1,40,50c-1.94,1.83-3.93-1.05-4.81-2.52-.25.31,0,1.14,0,1.5a7.74,7.74,0,0,1,0,2.15,1.74,1.74,0,0,1-.88,1.4,1.63,1.63,0,0,1-1.63-.6,6.32,6.32,0,0,1-1.34-2.58c-.06-.21-.51-2.17-.73-2.17-.32,1.29-.34,2.62-.78,3.89-.38,1.1-1.16,2-2.3,1.15-1.76-1.32-2-3.85-1.92-5.88a14.05,14.05,0,0,1,.5-3.47,9,9,0,0,1,.54-1.29c.17-.36.23-.53,0-.84s-.17-.17-.17-.4a2.62,2.62,0,0,1,.09-.56,13.45,13.45,0,0,1,.31-1.4,10.25,10.25,0,0,1,1.35-2.71l.05-.09h0a2.49,2.49,0,0,0,.23-.3h0c.1-.12.08-.41.28-.2h0a1.21,1.21,0,0,1,.37-.92,1.48,1.48,0,0,1,.25-.31c.07-.05.27-.07.31-.13s.1-.3.19-.43a2.42,2.42,0,0,1,.32-.32c.25-.27.46-.57.7-.85a21.54,21.54,0,0,1,1.63-1.68,35.47,35.47,0,0,1,3.88-3c1.19-.81,2.44-1.61,3.69-2.31a32.21,32.21,0,0,1,4.14-1.55,46,46,0,0,1,8.79-2.34c1.44-.25,2.9-.41,4.36-.52a12.77,12.77,0,0,1,4.27.21c.3.09.89.45,1.18.35s.34-.62.41-.84c.17-.51.41-1,.53-1.55a16.7,16.7,0,0,0,.18-2,6.25,6.25,0,0,1-3.12.68,7.11,7.11,0,0,1-2.62-1.17,3.78,3.78,0,0,0-2.78-.57,8.11,8.11,0,0,0-3,1.6c-2,1.42-4,2.93-6.08,4.17a16.79,16.79,0,0,1-3.24,1.52,13.06,13.06,0,0,0-1.73.59c-.23.11-.29.17-.51.12,0,0-.36-.38-.36-.19s.11.3,0,.46-.53.23-.73.27a5.15,5.15,0,0,1-.88,0c-.47.08-1,.17-1.41.29a2.92,2.92,0,0,1-.59,0c-.21,0-.09,0-.3,0a2.24,2.24,0,0,1-.52.06h-.62c-.19,0-.36,0-.55,0,.23,0-.31-.06-.27,0h0c-.07-.05-.17-.16-.28-.15h0c.49.45-1.18.29-1.29.29a12.06,12.06,0,0,0-2.81-.21,4.47,4.47,0,0,0-2.12,1.64c-.7.76-1.39,1.52-2.07,2.29a29.57,29.57,0,0,1-5.1,4.58c-.91.63-1.86,1.19-2.8,1.77a11.34,11.34,0,0,0-1.29.78c-.26.21-.58.73-1,.45,0,.35-.63.49-.88.57,0,0,0,.07,0,.08s-.2-.09-.31-.09-.22.09-.4.23-.21.07-.45.11a2.87,2.87,0,0,0-.4.18s-.15-.06-.22,0-.23.17-.33.21a4.52,4.52,0,0,1-.8.22c-.37.08-4.09.75-4-.1-.33.53-1.52.14-2,0-.19,0-.22-.11-.34-.17s-.06-.15-.17-.11H5.53A1.13,1.13,0,0,1,5,37.12c-.27-.19-.72-.3-.92-.59,0-.07-.06-.23-.1-.29s-.16,0-.2-.1a1.25,1.25,0,0,1,0-.19c-.22-.11-.46,0-.72-.09a4.86,4.86,0,0,1-1.73-2,8.88,8.88,0,0,1-1.25-5.8A18,18,0,0,1,.9,25.11a5.58,5.58,0,0,1,.34-.85c.07-.1.18-.15.21-.22A6,6,0,0,1,1.89,23a10.43,10.43,0,0,1,.85-1.13c.3-.32.7-.58,1-.88.07-.08,0-.16.09-.25a1.26,1.26,0,0,1,.32-.21,2.22,2.22,0,0,1,.42-.25.59.59,0,0,1,.62.09C5,19.62,6.28,19.15,6.82,19c.25-.06,1.47-.52,1.55-.13.19-.46,1.13-.41,1.54-.4a2.27,2.27,0,0,1,1.25.56l.07-.39c.1,0,.4.06.36.24.24-.39.12-.09.42-.12a1.14,1.14,0,0,0,.35-.13c.05.17,0,.24-.08.39.25-.06,1.2-.43.57.09.14.15.58,0,.75-.05s.3-.07.37,0,0,.17,0,.17,0,.17.12.16.11-.15.14-.16c.18,0,0,0,.25-.07s.22,0,.31,0c1.4-.09,2.75-1.56,3.5-2.64A16.69,16.69,0,0,1,21.16,13,25.8,25.8,0,0,1,25,10.37,14.22,14.22,0,0,1,32.91,8.46Zm49.66,52.4.15,0,.15-.14c-.19,0-.21-.07-.3.11Zm13.11-7.69a7.37,7.37,0,0,0-.62,1.18c-.29.49-.6,1-.91,1.46.51,0,1.37.52,1.8.08.22-.22.26-.71.36-1a11.06,11.06,0,0,1,.55-1.27c.21-.42-.9-.77-1.18-.46ZM64,54.33c.14,0,.5.26.4.4C64.19,54.61,64,54.55,64,54.33ZM22.1,60.5a5,5,0,0,0-.42,1.08c-.1.35-.07.5.27.63a6.5,6.5,0,0,0,2.11.15c.35,0,.83.14,1-.24s.05-.95.07-1.36.05-.67.08-1a5.64,5.64,0,0,1-1.76.41C23,60.18,22.38,60.08,22.1,60.5Zm5.81-19A17.45,17.45,0,0,0,26.78,48c0,1,.06,2.36.78,3.12,1.58,1.64,2.27-4.53,2.45-5.2.1-.4.31-.86.77-.51s.43.91.56,1.34a12,12,0,0,0,1.42,3.93c.27.35.86.8,1.31.49s.41-1.13.45-1.56a14.82,14.82,0,0,0-.34-4.36c-.08-.27-.78-2-.06-1.76.47.14.78,1.4.92,1.8.58,1.55,1.6,4.18,3.62,3.92a1.23,1.23,0,0,0,1.05-.75c.18-.58-.31-1.14-.55-1.63A14.21,14.21,0,0,1,38,44.26c-.16-.55-.35-1.49.48-1.49,1,0,1.71,1.13,2.76.89a1.46,1.46,0,0,0-.42-.59,11.21,11.21,0,0,1-1.8-1.64c-.14-.22-.16-.61-.36-.77a1.12,1.12,0,0,0-.74-.11c-1.48.1-3,.09-4.45.13a24,24,0,0,1-4.64-.2C28.15,40.37,28.14,40.89,27.91,41.48Zm36.15.85c.23,0,.46.09.7.12s.26-.05.28-.24C64.91,42.22,64.1,42.16,64.06,42.33ZM49.51,23.1a49.75,49.75,0,0,0-7.75,2.79c-1.2.6-2.36,1.22-3.5,1.91a5.16,5.16,0,0,0-1.28,1c-.14.16-.5.63-.67.25-.17.28-.43,1.07-.89.8,0,.28-.19.33-.36.47s-.06.17-.14.24-.07-.14-.1-.13-.14.29-.19.37a1.21,1.21,0,0,1-.45.42,1.26,1.26,0,0,1-.26.13c-.1.08-.18.07-.23,0a1.07,1.07,0,0,0-.4.26c.37,0-.19.23-.27.26.06.28.24,0,.4.06,0,.35-.52.78-.73,1l-.2-.24a.56.56,0,0,0-.1.28c0,.11-.07.17-.2.17s-.12.09-.16.24.25.37-.1.34c.13.46-.36.29-.32.16-.33,0-.31.68-.21.9-.19-.12-.28-.07-.4.09h0c.1-.11.07.25.08.24h0c-.21.52-.31,0-.28-.25-.19.15-.17.4-.31.58s-.18.12-.31.18-.18-.11-.21.15c0,.1.09.26.12.37.05-.15,0-.34.11-.45,0,.37-.31,1.8-.79,1.15-.23.27.13.4,0,.72a.69.69,0,0,1-.3-.49,3.13,3.13,0,0,0,0,.43c0,.14-.11.17-.11.31s.15.07.11.31-.21.28-.28.36c-.24.3-.48.63-.1.9.61.44,1.83.17,2.5.09,1.43-.18,2.86-.22,4.3-.28.86,0,1.72-.06,2.58,0,.63,0,1.45-.09,1.91.44,1.2-2,3.12-3.41,4.86-4.89a48.65,48.65,0,0,1,5.94-4.45,34.28,34.28,0,0,1,5.9-2.72,3.2,3.2,0,0,1,1.92-.37.55.55,0,0,1,.36.67l-.06.13c-.09.19-.23.18-.24.48a1.07,1.07,0,0,0,.18.57c-.17-.07-.4.06-.52-.12v0c0,.41.68.28.6.79v0c0,.16-.15-.29-.21-.27s-.21.47-.25.6c.32-.08.26.18.12.34s-.27.21-.41.31-.44.48-.69.69a6.18,6.18,0,0,1-.83.48l-.23.16s0,.09,0,.1c-.19.08-.39-.06-.56.07s0,.22,0,.27-.28.07-.36.08-.25,0-.38.17-.32.5-.69.65a2.78,2.78,0,0,0-.74.29,5.29,5.29,0,0,1-.77.44s0,.15,0,.16-.2.07-.28.12a2.22,2.22,0,0,0-.49.38,11.5,11.5,0,0,0-1.84,2.59c-.21.41-.81,1.45-.42,1.85s.88.24,1.2.29c.49.07,1,.08,1.47.14s1.2.27,1.81.31A11.73,11.73,0,0,0,56,39.77c2.53-.24,5.09-.2,7.62-.44a12.63,12.63,0,0,0,4.12-.81,7.67,7.67,0,0,0,2.89-2.38,11.07,11.07,0,0,0,2.11-6.4c0-.47-.25-1.58.08-2s.59.13.86.27a4.82,4.82,0,0,0,1.46.26,23.61,23.61,0,0,0,3.46.37c1.21,0,2.42-.07,3.64-.13a32.81,32.81,0,0,0,7.18-.89,37.85,37.85,0,0,0,7-2.27A12.11,12.11,0,0,0,101.29,21a16.83,16.83,0,0,0,1.32-3,13.7,13.7,0,0,0,.5-1.69,4.69,4.69,0,0,0,.18-1.49c-.07-.39-.27-.27-.65-.21-.59.1-1.17.22-1.76.31-1.19.2-2.38.36-3.57.54a22.22,22.22,0,0,1-3.65.34c-.37,0-.65-.05-.8.35s0,.76-.39.48A8.14,8.14,0,0,1,90.55,19a29.32,29.32,0,0,1-2.38,2.35,12.49,12.49,0,0,1-6.52,2.39,27.84,27.84,0,0,1-7.12.25,16.89,16.89,0,0,1-3.13-.87,14.4,14.4,0,0,0-1.47-.38,15,15,0,0,1-1.49-.61,2.55,2.55,0,0,1-2,2,3.27,3.27,0,0,1-3.13-.65c-.78-.59-1.18-1.68-2.18-1.85a14.88,14.88,0,0,0-3.53,0A36.31,36.31,0,0,0,49.51,23.1Zm15.6,4c.32.05,1.42.8.76,1-.42.12-.81-.35-1.26-.14-.2.09-.49.25-.5.43,0,.45.64.55.92.59a1.76,1.76,0,0,1,1.13.5c.5.53.84,1.5.14,2a3.32,3.32,0,0,1-1.88.4.89.89,0,0,1-.93-.84.57.57,0,0,1,0-.13c0-.16.12-.46.34-.42s.14.2.22.31c.32.45,1.93.79,2-.07.15-1-1.43-.9-2-1.09a1,1,0,0,1-.69-1.32.8.8,0,0,1,.11-.25A1.56,1.56,0,0,1,65.11,27.09Zm3.33,2.47a5.4,5.4,0,0,1,.08.69c0,.2.07.39-.12.52s-.31,0-.41.11-.27-.68-.27-.73c0-.31-.12-.95.12-1.22.4-.45.56.35.6.63Zm-.37-1.26c-.43.47-.81-.44-.68-.8C67.7,26.6,68.75,27.55,68.07,28.3ZM57.5,30.69c.18.07.11,0,.19.32C57.52,31.06,57.48,30.82,57.5,30.69Zm.51-.41c0,.13.24.21.32.21s-.26-.59-.32-.21ZM29.64,36.19c-.08.24,0,.34.22.2h0Zm2.24-2.7-.12.09-.13.23C31.8,33.73,31.93,33.72,31.88,33.49Zm.64-.48c-.13-.16-.35.29-.33.38.07-.06.5-.19.34-.38Zm.12-.74a.16.16,0,0,0,0,.23l.06,0a1.34,1.34,0,0,0,.1-.44c-.13-.06-.19.08-.21.19ZM88.14,2.84c-.2.16,0,.49.08.67.34.89.75,1.76,1.1,2.64.48,1.25.85,2.55,1.42,3.76s1.19,2.14,1.69,3.26c.33.75.32,1.72,1.3,1.71a20,20,0,0,0,2.69-.39c1.13-.18,2.23-.42,3.34-.67.53-.13,1.06-.23,1.59-.31.32,0,.75.07.9-.28a3.77,3.77,0,0,0,0-1.42,14.64,14.64,0,0,0-.15-1.47,14.52,14.52,0,0,0-1-3.15c-.45-1.11-.87-2.22-1.32-3.33A5.58,5.58,0,0,0,98.44,1.5,14.94,14.94,0,0,0,99,6c.08.32.35,2.16-.41,1.43-.21-.2-.25-.34-.54-.47a1.3,1.3,0,0,1-.58-.6,5.68,5.68,0,0,0-.91-1.48C95.62,4,95,2.71,93.84,2.12a17,17,0,0,0,.83,3.05c.28.58,1,1.34.75,2.06-.11.36-.24.3-.51.21s-.16-.11-.37-.16A2.35,2.35,0,0,1,94,7.19c-.7-.31-1-1.1-1.33-1.72-.81-1.35-2.5-1.86-3.85-2.47C88.69,2.94,88.3,2.71,88.14,2.84ZM67,11.83a4.55,4.55,0,0,1-2.56,1c0,.21.43.46.23.64,0,0-.38,0-.44,0A2.65,2.65,0,0,0,63,13.6c-.35.17-.27.41,0,.61s1.26.07,1.44.7c0,.32,0,.63,0,.95s.1.87.12,1.31a10,10,0,0,1-.23,2.24,4,4,0,0,1-.73,1.82c-.27.33-.17.18,0,.52s.14.4-.17.42h-.19a2.93,2.93,0,0,0,4,.12c-.62-.28-.12-1.21.09-1.6.32-.58.64-1.24,1-1.79.55-.85,1.57-.79,2.35-1.3a4.63,4.63,0,0,0,1.63-2.15A4.78,4.78,0,0,0,73,12.89a4.91,4.91,0,0,1-.17-.5c0-.16.07-.21.09-.33a1.88,1.88,0,0,0,0-.71c-.16-.82-.44-.87-1.23-.88l-1.38,0c-.44,0-.86-.12-1.3-.12C68.11,10.34,67.63,11.32,67,11.83Zm3.52,4.42c.78.23-.21.79-.66.72s.21-.85.65-.72Zm.36-3.82c.81.58,1.89,1.91.62,2.59a3.63,3.63,0,0,1-1.44.53A.52.52,0,0,1,69.5,15a.54.54,0,0,1,.42-.52c.34-.11,1.23,0,1.33-.52,0-.26-.3-.55-.4-.77a.9.9,0,0,1,0-.8ZM34.75,24.69ZM72.12,12.35c.43-.11.46.87.29,1.08C72.1,13.82,71.58,12.5,72.12,12.35Zm-2.63,1.47c-.48.2-.68-1-.24-1.2s.8,1,.24,1.2Zm3.76-3.18c0,.14.33,1.33.48,1.31a6.66,6.66,0,0,0-.22-.88l0-.08s-.17-.74-.24-.35Z"/></g></g></g></g></g></svg>