<svg xmlns="http://www.w3.org/2000/svg" viewBox="0 0 118 162.43"><defs><style>.cls-131{fill:#da3418;}.cls-132,.cls-133{fill:#1a1a1a;}.cls-133{opacity:0.55;}.cls-133,.cls-134,.cls-135{isolation:isolate;}.cls-135{font-size:32px;fill:#fff;font-family:NotoSansTC-Medium-90ms-RKSJ-H, Noto Sans TC;letter-spacing:0.06em;}</style></defs><g id="ladybug" data-name="ladybug"><g id="ladybug"><g id="ladybug"><ellipse id="Ellipse_390" data-name="Ellipse 390" class="cls-1" cx="59" cy="95.42" rx="59" ry="57.5"/><path id="Path_27992" data-name="Path 27992" class="cls-2" d="M59.17,15a23.22,23.22,0,0,1,8,1.44,2.82,2.82,0,0,1,.29-.5L77.66,1.31a2.94,2.94,0,0,1,4.89,3.25l-.07.09L72.4,19.12a23.12,23.12,0,0,1,9.44,23.37,60.06,60.06,0,0,0-45.29,0A23.1,23.1,0,0,1,46,19.12L35.9,4.65a2.93,2.93,0,0,1,4.79-3.39l0,.05L50.91,15.89a3.53,3.53,0,0,1,.28.5A22.93,22.93,0,0,1,59.17,15Z"/><circle id="Ellipse_429" data-name="Ellipse 429" class="cls-3" cx="16.28" cy="88.96" r="7.64"/><circle id="Ellipse_430" data-name="Ellipse 430" class="cls-3" cx="34.92" cy="57.79" r="3.93"/><circle id="Ellipse_431" data-name="Ellipse 431" class="cls-3" cx="28.65" cy="129.83" r="4.43"/><circle id="Ellipse_432" data-name="Ellipse 432" class="cls-3" cx="91.18" cy="64.92" r="8"/><circle id="Ellipse_433" data-name="Ellipse 433" class="cls-3" cx="104.44" cy="96.6" r="4.43"/><circle id="Ellipse_434" data-name="Ellipse 434" class="cls-3" cx="91.17" cy="128.23" r="5.93"/><g id="報_名" data-name="報 名" class="cls-4"><text class="cls-5" transform="translate(43 88.92)">報</text><text class="cls-5" transform="translate(43 128.92)">名</text></g></g></g></g></svg>