<svg xmlns="http://www.w3.org/2000/svg" viewBox="0 0 191.82 124.69"><defs><style>.cls-1{opacity:0.65;}.cls-2{fill:#e95473;}.cls-2,.cls-3{fill-rule:evenodd;}.cls-3{fill:#040000;}</style></defs><g id="slide" data-name="slide"><g id="slide"><g id="composition-7" class="cls-1"><g id="Character_sprinting" data-name="Character sprinting"><path id="Accent" class="cls-2" d="M59,48.08a96.89,96.89,0,0,1,3.45-11.7c.94-2.36,1.93-4.7,2.92-7,.14-.33.2-.64.47-.8a5.11,5.11,0,0,1,1.5-.29A168.82,168.82,0,0,1,84.68,26a81.55,81.55,0,0,1,19.68.8c5.62.93,11.18,2.2,16.68,3.66l2.42.66a5.62,5.62,0,0,1,1.33.38c.7.47.94,2.39,1.2,3.2a12.92,12.92,0,0,0,1.23,3.52A29,29,0,0,0,131,41.89c4.37,4,9.15,7.66,14.78,9.64,8.72,3.07,17.91,5,26.94,6.88l.63.14-7,7.77L162.4,70.7c-.68.75-.6.88-1.56.67-4.8-1.05-9.6-2.19-14.31-3.58a38.82,38.82,0,0,1-6.81-2.5A68.69,68.69,0,0,1,131.27,60q-3.61-2.6-7.09-5.39c-.46-.37-2.11-2.13-2.64-2s-1.26,1.15-1.6,1.46l-2.69,2.41a29.59,29.59,0,0,1-4.58,3.78,55.9,55.9,0,0,1-5.66,2.5L103.88,64a3.18,3.18,0,0,1-.94.37,10.56,10.56,0,0,1-2.94-1q-3.09-1.06-6.15-2.26c-4.34-1.73-9.11-3.59-12.68-6.69a7.55,7.55,0,0,1-1.65-1.87,2.34,2.34,0,0,1-.37-.89c0-.47.24-.56.64-.86,2-1.52,4.22-2.84,6.37-4.18l1.53-.93-25.18,2L59,48.06"/><path id="Ink" class="cls-3" d="M96.48.12c2.66.12,5.38.24,8,.62A25.21,25.21,0,0,1,112,3.22c4.28,2.08,8.66,4.62,11.41,8.63,1.29,1.87,2.34,3.83,4.12,5.31a3.3,3.3,0,0,0,1.42.86,4.77,4.77,0,0,0,1.25-.11c.82,0,1.14.39,1.14,1.21a3.77,3.77,0,0,1,1.95-.38,13.56,13.56,0,0,1,1.55.55,5.08,5.08,0,0,0,2.85-.41,18.77,18.77,0,0,1,7.36-1c1.61.17,3.57.87,2.73,2.95-.69,1.73-3.29,2.6-4.93,3-1.39.36-3.27,0-3.15,2,.08,1.34.29,2.79,1.71,3.22.79.24,3.56.6,1.94,1.81-1.2.9-1.61,2.47-2.52,3.66a9.25,9.25,0,0,1-4.57,3.28c-2.06.61-4.23.5-6.35.73,1.49,2.06,3.64,3.47,5.59,5a36.37,36.37,0,0,0,6.42,4.61c2.14,1.05,4.44,1.78,6.64,2.67s4.64,1.86,7,2.59a134.46,134.46,0,0,0,14.84,3.39,44.58,44.58,0,0,0,7.3.42,45.57,45.57,0,0,1,7.55.94c1.21.22,2.42.36,3.63.58.57.11,2.86.34,2.94,1.19.14,1.38-1.35,2.15-2.45,2.53a13.07,13.07,0,0,0-1.62.37c-.43.25-.26.6-.31,1.08a2.09,2.09,0,0,1-1,1.56c-.47.32-1,.3-.7.9.14.28.51.45.68.74a1.68,1.68,0,0,1-.87,2.48,6.63,6.63,0,0,1-3.13,0,49.64,49.64,0,0,1-5-.59c-1.73-.38-3.4-1-5.14-1.36-.88-.2-1.77-.37-2.63-.65-.57-.18-1.38-.65-2-.5s-1,.82-1.37,1.21c-.51.54-1,1.1-1.51,1.64a14.78,14.78,0,0,1-1.07,1c-.12.1-.87.56-.88.69,0,.34.79.34,1,.48,1,.8-.51,1.31-1.17,1.27-1.52-.09-3-.28-4.55-.5A56.89,56.89,0,0,1,147.47,70a59.29,59.29,0,0,1-9.83-4.22c-3-1.7-5.92-3.62-8.76-5.58A25,25,0,0,1,125,57a33.44,33.44,0,0,1-3-3.89c-2.26,2.19-4.43,4.48-6.86,6.49s-5.09,2.92-7.78,4.16c.09.56,2.72.9,3.2,1,2.19.67,4.29,1.74,6.42,2.58,3.55,1.4,6.91,3.21,8.09,7.09s-.18,7.65-1.83,11.1a60,60,0,0,1-7,11.38c-1.18,1.51-2.46,2.9-3.76,4.3-1.11,1.2-2.06,2.62-1.59,4.32.89-.28,1,.42.47,1a3.64,3.64,0,0,1-2.11.71,30,30,0,0,1-6.36,0,33,33,0,0,1-11.12-3c-1.73-.83-2.35.51-3.53,1.54-.94.81-2.22,1.34-2.93,2.39-.58.86-.2,2.23,1,1.91.94-.26,1.7-1.3,2.7-1.35,1.77-.07-1.57,2.46-2,2.77.85.75,1.81-.28,2.66-.46s1,.26.61.94c-.34.53-1.41.91-.7,1.56a8,8,0,0,0,2.62,1.05A40.17,40.17,0,0,0,99,116.24c.76.11,2,0,2.59.58.81.71.42,1.88,0,2.7-1.55,3.07-4.79,4.59-8.1,4.81-2,.14-4.11,0-6.16.11-2.25.12-4.5.3-6.75.23-3.62-.12-5.92-2.74-7.73-5.62-1.15-1.83-2.2-3.71-3.2-5.62-.39-.75-1.2-1.53-1.34-2.37a2.4,2.4,0,0,1,.83-1.9,31.42,31.42,0,0,1,4.17-3.65,4.41,4.41,0,0,0,1.52-2.18c.31-.82.91-1.17,1.43-1.82s.4-.84,0-1.43a2.54,2.54,0,0,1-.09-2.2c.29-1,.9-1.22,1.81-1.54a10.59,10.59,0,0,0,2.27-1.28c3.64-2.34,7.07-5,10.75-7.28s7.43-4.24,10.9-6.75c-2.82-.38-5.3-1.9-8-2.8-1.36-.47-2.71-1-4-1.54A8.08,8.08,0,0,1,88.29,76c-.45-.33-.8-.76-1.27-1.07a30.65,30.65,0,0,0-3.67-1.72,32.56,32.56,0,0,1-3.8-2.08,17.87,17.87,0,0,1-3.16-2.54,7.16,7.16,0,0,0-2.54-2.13c.11,1.48,1.94,2.7,3,3.59a42.13,42.13,0,0,0,5.14,3.87A32.32,32.32,0,0,1,75,77.94c-2.69,1.33-5.3,2.8-8,4.15-2.27,1.15-4.65,2-7,3.09a77,77,0,0,1-7.64,3,51.62,51.62,0,0,0-6.78,2.73,41.93,41.93,0,0,1-6.76,2.6,69.91,69.91,0,0,0-7.55,2.57,37.44,37.44,0,0,1-6.88,2.1c-.78.17-1.79.49-2.34-.27a5.41,5.41,0,0,1-.6-2.15c-.46-2.59-.49-5.22-.9-7.82a19.65,19.65,0,0,1-4.7,1.13c-1,0-1.67.15-1.93,1.28.6.07,2.74.1,2.8,1s-1.25.78-1.71.8c-.82,0-1.56-.1-2,.71.64.24,2.08-.2,2.36.68.37,1.12-1.3,1.12-1.91,1.21-1,.15-.94,1-.87,1.87.09,1.16.17,2.32.32,3.48.34,2.48.91,4.91,1.19,7.39.23,2.15.36,4.21-1.17,5.92a4.1,4.1,0,0,1-2.44,1.56c-1,.09-1-.6-1.58-1.11a4.48,4.48,0,0,0-1.32-.54,9.42,9.42,0,0,1-3.84-2.94C1.37,107,.49,102,.25,98a50.61,50.61,0,0,1,.23-7.69c.13-1.38.26-2.76.42-4.13.06-.43.14-.85.17-1.28,0-.24-.1-.74,0-1-.16.3-.44.08-.72-.16-.58-.48-.4-1.41-.09-2,.93-1.93,3.72-2,5.53-2.15A69.41,69.41,0,0,0,20,76.44c-.66-1,.38-1.64,1.18-2,1.24-.52,2.52-1,3.78-1.48a62.34,62.34,0,0,1,8.55-2.9c2.68-.65,5.27-1.74,7.91-2.53s5.42-1.76,8.1-2.71c5.33-1.9,10.65-3.83,15.82-6.13,1.3-.57,2.55-1.25,3.81-1.92a14.4,14.4,0,0,0,3.09-1.73c.83-.75,1.33-1.8,2.23-2.48s1.92-.62,2.59-1.39A9.32,9.32,0,0,1,80.3,49.1c.4-.2,3-1.18,3-1.74a42.91,42.91,0,0,0-5.63.82c-1.94.27-3.9.57-5.86.72a51.44,51.44,0,0,1-9.53-.16c-.47-.05-2.37-.44-2.7.06s.37.85.38,1.27a.74.74,0,0,1-.65.8.75.75,0,0,1-.39-.07c-1.09-.42-.93-2.17-.83-3a47.77,47.77,0,0,1,1-5,33.86,33.86,0,0,0-6.29,4.21c-1.49,1.24-2.84,2.93-4.59,3.82s-2.68.12-2.61-1.75a7.77,7.77,0,0,1,.5-2.48c.14-.38.72-1.45.45-1.85-1.54,1.22-3.07,2.45-4.68,3.58-1.14.8-2.79,2-4.28,1.72-1.32-.28-1.19-1.73-.77-2.7A7.32,7.32,0,0,1,38.42,45c.53-.54,1.29-1,1.56-1.76a45.19,45.19,0,0,1-5.44,2c-1.31.4-2.23,2-3.76,1.8s-.93-2.14-.31-3a7.55,7.55,0,0,1,1.59-1.5c.56-.42,1.41-.78,1.69-1.47a22.71,22.71,0,0,1-5.43.81c-1.1-.06-2.92-.54-2.7-2s2.2-1.6,3.31-1.88a43.73,43.73,0,0,0,4.44-1.64c3-1.09,6-2,9-2.84l1-.27c3.41-1,6.85-1.83,10.31-2.65,1.71-.4,3.41-.84,5.13-1.19s3.36-.52,5-.92c-1.4-2.1.29-3.84,2.12-4.84-1.16-.23-2.34-.37-3.48-.66-1-.24-1.92-.61-2.91-.83-1.7-.36-3.39-.56-4.83-1.61a4.71,4.71,0,0,1-1.54-6.49A5.4,5.4,0,0,1,54,13a13.19,13.19,0,0,1,9-3.65,30.41,30.41,0,0,1,11.3,1.89,19.83,19.83,0,0,1,4.9,2.54c1,.74,2.55,2.16,3.87,2.16-1.59-1.91-3.53-3.9-3.82-6.49A7.91,7.91,0,0,1,82,2.82C85.74-.38,91.9-.09,96.48.12ZM75.19,105.4a24.93,24.93,0,0,1-3.6,4c-.44.43-1.32,1-1.37,1.66s.65,1.18,1,1.62c1.57,2.31,2.86,4.86,4.78,6.9,2.18,2.32,4.65,2.77,7.73,2.78,3.41,0,6.87.43,10.28.25a8.42,8.42,0,0,0,7.16-4.05c-.93-.48-2.26-.25-3.28-.24a22.53,22.53,0,0,1-4.1-.25,17.56,17.56,0,0,1-3.62-1,12.45,12.45,0,0,1-1.75-.88c-.41-.25-.71-.63-1.11-.88-1.47-.91-3.17,2-4.74,1.93-1,0-.62-1-.22-1.52a13.38,13.38,0,0,1,2.94-2.24c-.89-.82-1.89,0-2.73.47a12.21,12.21,0,0,1-3.34,1.38c.09-1.52,2.16-2.33,3.3-2.95.51-.28,1.15-.53,1.27-1.14a5.48,5.48,0,0,0-.11-1.56c-.06-.58-.11-.77-.73-.93s-1.51-.15-2.27-.4A20.18,20.18,0,0,1,75.19,105.4ZM8,81.43c-.51.14-1,.26-1.53.37-1,.22-2,.44-3,.63-.51.1-1.08,0-1.23.53-.08.25.12.7.15,1a13.31,13.31,0,0,1,.07,1.41c.05,4.35-.86,8.67-.46,13C2.24,102,3,106.68,5.73,109.41a19.16,19.16,0,0,0,4.07,3.27c1.15.63,2.75-1,3-2.05a5.65,5.65,0,0,0-.3-2.38c-.24-1-.47-2-.7-2.92A38.56,38.56,0,0,1,10.7,99a18,18,0,0,1,0-2.08c0-.38.2-1.29-.07-1.62S9.51,95.17,9,95.21a4.47,4.47,0,0,1-1.5-.12c-1.18-.31-1.39-1.25-.1-1.69.9-.3,2.56.14,3.31-.45s-.91-.78-1.33-.8S7,92.28,7.1,91.23c.07-.77,1.67-.82,2.23-.85,1.19-.07,2.71.37,3.22-1.07.21-.58-1-.87-1.35-1.16a4.25,4.25,0,0,1-1.07-2.86c-.07-1,.88-4.29-.56-4.38A6.66,6.66,0,0,0,8,81.43Zm70.87,19.23c-.85,1-1.58,2.12-2.37,3.17,1.85,1,3.74,1.85,5.66,2.73.87.4,1.48.71,2.32.11.6-.44,1.06-1.06,1.65-1.51.85-.65,1.74-1.24,2.6-1.86-2.56-.94-5.17-1.76-7.73-2.7-1-.35-1.44-.76-2.13.06ZM57.69,97.45c.55.56-.51,2.1-.72,2.63A40.87,40.87,0,0,0,62,99.33c.57-.12.36.58.15.8a2.54,2.54,0,0,1-1.14.47,29.57,29.57,0,0,1-3.95.75c.6.75,2.07,1.92,1.6,3a31.16,31.16,0,0,0-2.4-2.34c-.28.4-.84,1.84-1.46,1.75-1-.14,0-1.81.22-2.21-.66,0-3.11.57-3.45-.23s2-.8,2.45-1l-.08-.1-.08-.1a2.48,2.48,0,0,1-.69-1.33c.74.25,1.23,1.4,2,1.42s1.1-1.13,1.37-1.68c.16-.3.69-1.54,1.09-1.13Zm82.54-10.81c1.64,1.38.53,4.17-.71,5.43-1.39,1.4-4.49,2.7-6.25,1.26-1-.78-.62-2-.38-3a4.63,4.63,0,0,1,1.39-2.94c1.49-1.23,4.29-2.14,6-.73Zm-3.33.8A5.17,5.17,0,0,0,133.3,91c-.5,2.17,1.75,2.32,3.23,2,1.86-.41,3.83-1.77,3.93-3.91.08-1.84-2.31-1.93-3.55-1.67ZM20.46,78.09c-2.4.89-4.65,2.11-7.16,2.64-.77.16-1.08.34-1.27,1.06a6.91,6.91,0,0,0-.33,3.06c.39,2.17,3.41,1.9,5.09,1.82.86,0,2.52.11,3.26-.43.55-.39.32-1.12.24-1.7a29.52,29.52,0,0,1,.17-6.44ZM151.11,57.4c-.88.17-2.41.89-1.14,1.79a7.22,7.22,0,0,0,3.09.82,14.11,14.11,0,0,1,5.68,1.64c3.12,2,2.73,5.84,1.8,9,.67.4,2.64-2.19,3-2.61l4.54-5.1c.65-.72-4.68-3.22-5.16-3.45a20.85,20.85,0,0,0-7.72-2.18,16.08,16.08,0,0,0-4.1.13Zm-11-6.33c-.25.61.18.88.57,1.3,2.17,2.36,3.7,5.69,4.91,8.61a29.19,29.19,0,0,1,1.4,4.46c.37,1.5,1.54,1.9,2.93,2.32,3.22,1,6.6,1.31,9.84,2.28.86.26,1-1.65,1.09-2.13a6.46,6.46,0,0,0-.71-4c-1.37-2.28-4.1-2.77-6.54-3.16-1.39-.22-3.23-.45-4.33-1.41a1.07,1.07,0,0,1-.29-1.5.94.94,0,0,1,.09-.12c.79-1.08,2.17-1.22,3.41-1.31.6,0,4.34.33,4.46-.11-1.86-.6-3.77-1-5.6-1.7-1.43-.54-2.87-1-4.31-1.56l-1.44-.5c-1.47-.52-2.81-1.14-4.22-1.76-.53-.23-1-.31-1.26.31ZM171.67,61a11.67,11.67,0,0,0-1.27,1.85,11.67,11.67,0,0,1-1.65,2A60.16,60.16,0,0,1,177.31,67c1.45.49,2.95.73,4.44,1.08a9,9,0,0,0,3.86.47c-1.47-2-5.39-1.46-6.42-3.91-.7-1.67,1-3,2.43-3.29a58.7,58.7,0,0,1,7.6-.73c0-1-9.06-1.45-10-1.53-1.59-.14-3.26-.44-4.85-.49s-2,1.33-2.74,2.37ZM137,54c-.87.84-1.73,1.71-2.6,2.55a13.53,13.53,0,0,0-1.81,1.82c-.58.85.44,1.25,1.11,1.65,1.7,1,3.47,2,5.2,2.92a25.62,25.62,0,0,0,4.9,2.48c.92.27,1.78.69,2.67,1-.43-3.84-2.63-7.33-4.67-10.53-.46-.74-.94-1.46-1.41-2.2-.24-.37-.67-1.24-1.17-1.32-.73-.11-1.77,1.16-2.22,1.59Zm44.58,9.77a3.71,3.71,0,0,0,3.34.46l.87-.38c-.8-1.09-3.16-.43-4.21-.08ZM93.32,50.4a26.74,26.74,0,0,0-5.55,3c-.61.48-2,1.47-1.65,2.38s1.78,1.43,2.49,1.67c3.75,1.24,8,.34,11.46,2.61A9.17,9.17,0,0,1,102,62.28a1.85,1.85,0,0,0,2.27.33c1.11-.4,2.13-1,3.24-1.4.57-.2,1.53-.33,1.59-1.1.28-3.61-.49-8.22-3.68-10.43-3.57-2.49-8.51-.9-12.1.72Zm-2,8.42c-.09.46,3.45,1.29,3.84,1.4,2.14.59,4.14,2,6.35,2.22.39-.86-2.68-2.23-3.17-2.41a30.91,30.91,0,0,0-7-1.21Zm69.62-1.6a28.45,28.45,0,0,1,7.55,4.32c.78.65,2.67-2.42,3.09-2.89a85,85,0,0,1-10.64-1.43Zm-50.24-21.6c-2.49,1.64-4.66,3.8-7.4,5.06a7.32,7.32,0,0,0,2.61-.61,24.32,24.32,0,0,0,2.38-.59c.47-.16,2.44-1.22,2.81-.5.57,1.12-3.49,1.9-4.06,2.1q-2.92,1-5.82,2T95.53,45c-2,.5-4,.63-5.93,1.4-1.67.68-3.1,1.82-4.71,2.62s-3.44,1.3-4.83,2.49a20.13,20.13,0,0,0,5.25,4c.32-2.47,3.2-3.87,5.17-4.81,4.3-2.07,10.77-5.18,15.15-1.68,3.2,2.55,3.64,7.4,3.64,11.2a17.2,17.2,0,0,0,2.47-1.13c.56-.29.56-1.09.63-1.63a14.08,14.08,0,0,1,.63-2.56c.6-1.86,1.35-3.68,2.07-5.49a64.66,64.66,0,0,0,3.31-8.93c.46-2,1-5.49-1.42-6.49-2.09-.87-4.57.48-6.27,1.61ZM99.8,27.4c-.41.28-.25,1.09-.23,1.5.1,1.5,0,3,.09,4.49.06,1.82.07,5.15,2,6.17,1.28.7,2.88-.34,3.9-1.06,1.73-1.2,3.32-2.6,5.08-3.78,2.08-1.39,6-3.32,8-.7,1.08,1.42.93,3.54.66,5.19a30,30,0,0,1-2,6.28,78.92,78.92,0,0,0-4.43,12.93c2.16-1.28,3.84-3.13,5.72-4.76,1.4-1.2,3.47-2.58,3.8-4.55.07-.44.5-.76.8-1a4.73,4.73,0,0,0,.9-1.27,13.48,13.48,0,0,0,1.1-3.45,21.07,21.07,0,0,0-.18-7.47c-.19-1.12.09-2.32-.17-3.42-.18-.76-.72-.71-1.43-.89l-7.71-1.84a14,14,0,0,0-3.26-.7A5.79,5.79,0,0,0,110,30c-1.26.63-3.27,1.73-4.71,1.11-1.69-.73.27-2.38-.57-3.16-.58-.54-2.31-.22-3.1-.35-.43-.08-1.42-.41-1.82-.15ZM126.33,49a3.45,3.45,0,0,0-2.61,1.77c-.68,1.06-.77,1.58.21,2.41s2.16,1.78,3.28,2.59c1.42,1,3,1.8,4.4,2.84.62.46,3.4-3.14,3.89-3.63.67-.68,1.35-1.36,2.07-2,.26-.23,1.08-.76,1.08-1.14,0-1-2.18-1.87-2.88-2.14a14.09,14.09,0,0,0-4.89-.88,27.67,27.67,0,0,0-4.55.17Zm5.47-4.33c-1.15.61-2.36,1.13-3.52,1.73-.41.21-3,1.3-2.87,2,2.92-.19,5.82-.68,8.73-.12a9.12,9.12,0,0,1,3.64,1.47c.83.59,1.46,1.73,2.27.72A34.09,34.09,0,0,1,135.39,47c-.65-.54-1.32-1-2-1.56-.39-.31-1-1.06-1.61-.76Zm-69-14.22c-.91.13-1.8.37-2.7.58-3.63.84-7.27,1.6-10.89,2.49C42,35.26,34.57,37,27.69,39.82c.57.64,2.11.17,2.83,0,1.4-.25,2.77-.68,4.16-1s2.72-.7,4.09-1c.63-.12,1.74-.28,1.77.66,0,1.35-2.57,2.35-3.53,2.84s-2,1.1-3,1.71c-.77.49-2.19,1.13-2.44,2.09,2.5-1.06,5-2.12,7.48-3.21.93-.41,1.88-.8,2.77-1.3a5.93,5.93,0,0,1,2.06-1c1-.07,1.11.8.71,1.49a8.23,8.23,0,0,1-2.3,2,32.91,32.91,0,0,0-2.7,2.58,8,8,0,0,0-2,2.44c1.3.44,2.79-1,3.74-1.65,1.51-1.09,2.91-2.27,4.35-3.44.74-.6,1.61-1.58,2.58-1.76,1.23-.22,1.13,1.18.83,2-.67,1.73-2.22,3.17-2.33,5.12-.07,1.2.94.74,1.62.26a39.36,39.36,0,0,0,3-3,31.28,31.28,0,0,1,8.43-5.48c.55-.23.75-1.09.92-1.6.25-.76.54-1.5.84-2.25a32.33,32.33,0,0,1,2.12-4.91c.26-.43.93-.86.38-1.1a2.61,2.61,0,0,0-1.18,0Zm26.33-2.76c-.93.1-1.88.1-2.82.2-1.52.16-.86,2-1.1,3.14-.73,3.3-4.22,3.92-6.87,2.36a8.59,8.59,0,0,1-3.18-3.6c-.46-.84-.8-1-1.75-.76a12,12,0,0,1-1.9.16c-.83.06-.9.24-.92,1A2.49,2.49,0,0,1,70,31.94a9.54,9.54,0,0,1-3.65,2.34c-1.28.55-2.72.95-3.42,2.24a6.73,6.73,0,0,0-.83,2.17c-.11.8.16,1.3-.31,2.05a18.29,18.29,0,0,0-1.92,5c-.16.57-.22.81.4,1a12.29,12.29,0,0,0,3.09-.15c.66,0,1-1.18,1.26-1.65a27.92,27.92,0,0,1,1.43-2.64A36.26,36.26,0,0,1,70,36.65c1.14-1.29,2.82-2.9,4.28-1.08s2.44,3.83,4.15,5.37a3.18,3.18,0,0,0,4.49.21L83,41a16,16,0,0,0,3.65-4.71c1-1.86,1.81-3.84,2.82-5.71.31-.59,1.77-2.18,1.32-2.86-.3-.46-1.24-.14-1.66-.09ZM97,27.25c-.82,0-1.65-.05-2.47-.07-1.49,0-2.73,0-3.48,1.45-.66,1.26-1.22,2.6-1.82,3.89a35.69,35.69,0,0,1-4.6,8c-1.78,2.11-4.08,3.18-6.4,1.16a14.8,14.8,0,0,1-2.54-3.19c-.59-.9-1.26-2.51-2.25-3s-2.37.77-3,1.5a31.35,31.35,0,0,0-3,4.1c-.66,1-1.29,2.06-1.93,3.09-.26.42-1.32,1.79-1,2.31s2.08.17,2.58.12c1.19-.12,2.38-.16,3.57-.26C74.34,46,78,45.23,81.71,45A63.81,63.81,0,0,0,89,44c2.34-.42,4.7-.7,7-1.26l4.09-1c.47-.12,2.7-.44,2.83-1a3.24,3.24,0,0,1-2.88-2.36,18.94,18.94,0,0,1-.81-5.94c0-.76,0-1.52,0-2.28v-.91c0-.54.23-1.53-.26-1.91s-1.45-.05-2,0Zm30.43,12.1A16.54,16.54,0,0,1,126,46.56c1.06.17,2.32-1.16,3.21-1.6.34-.18,2.61-1,1.85-1.63-1.4-1.16-2.31-2.78-3.67-4Zm30.41,2c.31.61-.08,1.39-.28,2,1.61.39,3.22.77,4.86,1.1,1.22.25.8,1-.27.94-1.48-.07-2.86-.7-4.34-.78S156.21,45.74,155,46c0-.67.59-1.14,1-1.65-.65-.33-1.31-.64-1.94-1-.32-.18-1.22-1-.87-1.4s1.26.37,1.59.55,1.38.8,1.93.64c.74-.22.59-1.29,1.11-1.74ZM134.49,25.27a5.56,5.56,0,0,0-2,.12,9.94,9.94,0,0,0-1.88,1.35c-.5.43-.75.94-1.37,1.19s-1.26.23-1.5,1c.56.16,1.67-.05,2.12.37.64.6-.48,1.27-1,1.46a3.83,3.83,0,0,1-1.9.13c-.3,0-.29-.11-.54,0-.9.55-.28,2.5,0,3.2,1.43,3.48,6.33,2.3,9.16,2-.9-.91-2.37-1.91-2.45-3.33,0-.42.08-1.18.63-1.22s1,.63,1.23.89c.8.77,1.84,2,3,2.15,1.55.15,2.74-2.36,3.39-3.46-.79-.15-1.66-.14-2.12-.92a7,7,0,0,1-.55-3.38c0-.88.29-1.85-.89-1.9s-2.31.3-3.41.38ZM30.24,27.54c-.23.5-1.21.69-1.64.82-1.65.5-3.25,1.14-4.85,1.76a56.19,56.19,0,0,0-9.38,4.51c-.55.35-.28-.32-.13-.56a4.43,4.43,0,0,1,1.5-1.25,23,23,0,0,1,4.31-2.13c3-1.2,6.08-2.47,9.17-3.44.37-.12,1.32-.37,1,.29ZM67.71,30a8.45,8.45,0,0,0-1.88.12c-.75.25-.63.77-.85,1.4-.38,1.08-.78,2.15-1.17,3.22,1.45-.07,2.85-1.22,4.08-1.89.7-.37,3.13-1.62,2.4-2.76-.46-.73-1.91-.16-2.58-.1ZM84.3,28.11c-.9,0-1.9.25-2.81.3-1.23.06-2.43.29-3.66.35-.8,0-1.59.2-2.39.31a7.49,7.49,0,0,0,4.28,4.11c1.54.52,3.68.61,4.73-.84.6-.84,1.58-4.2-.15-4.23Zm47-7.59a17.61,17.61,0,0,0-2.6,2.43c-2.06,2.1-4.19,4.34-5.08,7.21-.12.39.81.74,1.06.75.53,0,.64-.23.85-.68a12.43,12.43,0,0,1,1.54-3.3,31.75,31.75,0,0,1,3.38-3.28c.79-.67,2.74-1.62,3-2.73.27-1.32-1.52-.79-2.12-.4ZM105.9,28.15c-.55.16-.6.68-.72,1.23-.52,2.23,4.66-.2,5.38-.56-.24-.72-2.6-.59-3.14-.62a5.94,5.94,0,0,0-1.52-.05Zm30.56,1.16c-.76,0-.41-3.1.46-2.79s0,2.77-.46,2.79ZM28.69,25.71c-1.17,1-3,1.15-4.47,1.48-2.16.48-4.29,1.09-6.42,1.64-1.35.35-.59-.48.09-.8a19.82,19.82,0,0,1,3.71-1.11c1.34-.32,2.71-.54,4-.89.93-.24,2.12-.86,3.05-.32ZM65.21,3.92A11.38,11.38,0,0,1,69,5.26c1,.57.91,1.45-.29.94-5.6-2.38-12.55-.94-18,1.17-.6.23-.56-.27-.38-.67a2.64,2.64,0,0,1,1.3-1.1,20.49,20.49,0,0,1,5-1.49,24.25,24.25,0,0,1,8.62-.19ZM66,.5a3.75,3.75,0,0,1,2,1.28c.51.71.1,1.07-.6.65A9.43,9.43,0,0,0,65,1.26c-.48-.13-.46-.43-.12-.7A1.41,1.41,0,0,1,66,.5Z"/></g></g></g></g></svg>