<svg xmlns="http://www.w3.org/2000/svg" viewBox="0 0 423.27 725.15"><defs><style>.cls-1{fill:#f7cf61;}.cls-1,.cls-2,.cls-3,.cls-4,.cls-5{stroke:#fff;stroke-miterlimit:10;}.cls-1,.cls-2,.cls-4,.cls-5{stroke-width:8px;}.cls-2,.cls-3{fill:#59c8df;}.cls-3{stroke-width:7.74px;}.cls-4{fill:#96ceb4;}.cls-5{fill:#ffb3b3;}</style></defs><g id="圖層_2" data-name="圖層 2"><g id="taiwan"><g id="COUNTY_MOI_1090820" data-name="COUNTY MOI 1090820"><path class="cls-1" d="M95.86,236.8l10.2,3.4,5.9,13.7,17.1,5.2,3.5,15.5,10.6,3.3-7.9,1.3,1.1,9.5-6,25.9,4.6,11.8-27.5-3L90.86,317l-26.6,2.1-11.3-3-7.4-6.8,8-7,5.6-12,10.7-12.4,1.7-9.8,11.6-12.2,4.1-11.1Z"/><path class="cls-1" d="M284.56,233.3l1.4,5-13.1,4.8-1.4,8.9,8.9,10.9-8.5,6.5L267,282.6l3.8,5.7-2,17.5-6.1,9.1-2.4,11.9-4.9,3L263,343l-6,23.2-9.3,2.9-4.8,12.7-16.7,1.8-11.3,17.7-12.3-7.3-25.2-.4-6.5-13.8,3.2-10.9-19.8-5-14.8.1-6.9-5.4,3.8-7.9L135,326.5l-4.6-11.8,6-25.9-1.1-9.5,7.9-1.3,14.4,3.3,5.2-2.2,15.8-24.6,16,3.6,6.4-4.3,10.3.2,22.8-15,6.3.2,25.5-10Z"/><path class="cls-1" d="M135,326.4l1.4,24.2-3.8,8,6.8,5.3,14.8-.1-2.7,8.9-15.4-5.2-7.6,2.3L113,367.2l-8-8.6-20.6,1.7-38.2,26.1-16.4-3.5L28,361.7l-2.8-4.9,9.6-24.6-2.6-5.4,13.5-17.4,7.4,6.8,11.3,3L91,317.1l16.6,6.4Z"/><path class="cls-1" d="M307.76,203.3l-6.1,12-9.1,6.1-8,11.9-18.7-4.2-25.5,10-6.3-.2-22.8,15-10.3-.2-6.4,4.3-16-3.6L162.76,279l-5.2,2.2-14.4-3.3-10.6-3.3-3.5-15.5L112,253.9l-5.9-13.7-10.2-3.4,4.2-3.6,10.1-19.5,20.9-26.5L146,202.5l30.1,16.6,15.1-.4,6.6-10.8,14.7,2.3,6.5,7.4,18.5-8.4,14.5-9.6,8.8-.4,5.9-11.6,3.8,1.8,1.4-.2,2.1-.2.1-.2,5.1-2,4.4,10.9,7.5,4.7,13.7-3.1Z"/><path class="cls-1" d="M213.66,143.8h0l1.1.7,5.8,2.9,1.4,1.7.5.3,2.5-.6.8.8,1.8,1v.1l.2.8-.2.8,1.4,1.6.1,1.7-1.2,1.6-.8,1.8-.1.3-.9,2.1-1,.9-1-.6.4.9,2.7,1.5,1,3.3-1.2,6.9-.1.5,3.6.1,7-2.1,5.9.4,4.4.7,10.9,1.5.3.3,2.3,1.6h.3l2.1,3.5,3.1,6.4v.6l-5.9,11.6-8.8.4-14.5,9.6-18.5,8.4-6.5-7.4-14.7-2.3-6.6,10.8-15.1.4-30.1-16.6-14.9-15.3,13.4-17.3,6.6-16.9,15.5-14.1,7.3-1.2,14.7-12.8h.1l4.3.7.2,2.6,1.3.1,7.1,2.3,1.7-.7,2.5,1.5.2.8-1,3,1.7,2.3,1.2.7.6,1,.7.6,2.4,1.7,1.6-.2.6.3v.3l-.3.4-.1.9Z"/><path class="cls-2" d="M417.16,71.6l-8.6,3.1-15.8,16.7-6.7,18.5.3,11.8,6.6,25.5,7,6-2.4,13.8-4.9,10.6-10.4,10.8-5.9,25.3-12.7-2.4L346,202l.4,7.6-15.5,2.6-23-9-3-3.9-13.7,3.1-7.5-4.7-4.4-10.9.7-1.7,1.8-2.9,5.1-4.8.9-.2,4.2-4.9h.5l1.2-1,1-1.7.4-.5h.1l1.5-7.8.4-.5,1.7-3.7h0l-.6-.8-.1-.1-.7-1.4,5.3-3,6.7-14.3,4.4-.1,12.1-3.1,10.7-6.7.9-14.3,16.4-6.3,13.6-8.3,6-.2,6.7-9.2,12.7-5.1-1-7.8Z"/><path class="cls-3" d="M317.06,401.2l-4.5,10.3-2.7,15.8-6.2,5.2-7.4,17.1,2.8,17.9-11.9,9.4L279,497.8l-17.1,24.1-9.5,3.9,2,11.4-15.5,16.3L229,558l-12.6,10.4-2.8,12.8-5,4.2-8.8,25-10.5,24.9.3,18.8-6.3,3.5-14.6-9.9-2.8-14.7-8-5.5,9-9.8-8.1-8.7,2.4-9.1-4.9-10.7,4.6-16.7,7.8-12.6L187,554l4.2-17.6-8.2-9.2-7.7-13.2-1.6-11.9,8.5-10,6.1-19.7-.3-7.6,5.8-21.5,11.7-9.2,12.4-3.5,6,1.4,5.8,12.2,12,6.7,10.6-.5,4.8,12.4,11.1,8.8,11-1.4L292,430.8l7.1-10.7-2.1-8.4,9.8-12.4Z"/><path class="cls-2" d="M376.26,213.8l-6.4,11.5-15.3,11.8-1.8,15.2-9.5,9.5-.5,6,6.7,11.2-7.7,16.1-2.9,16.2-4.6,9.8-.9,11.6-14.7,50.9,2.2,6.4-3.8,11.2-10.7-1.9-9.8,12.4,2.1,8.4-7.1,10.7-12.8,39.4-11,1.4-11.1-8.8-4.8-12.4-10.6.5-12-6.7-5.8-12.2-6-1.4,4.2-6.1-12.8-9.5,8.1-6.9-2.3-6.9L226,383.5l16.7-1.8,4.8-12.7,9.3-2.9,6-23.2-7.6-13.2,4.9-3,2.4-11.9,6.1-9.1,2-17.5-3.8-5.7,4.9-13.2,8.5-6.5-8.9-10.9,1.4-8.9,13.1-4.8-1.4-5,8-11.9,9.1-6.1,6.1-12,23,9,15.5-2.6-.4-7.6,17.7,9.3Z"/><path class="cls-4" d="M362.56,30.4h0l-.2.2L347.56,37,351,48.1l16.3,8.7,6.4-.9-1.3-11,10.1-5.9,26.2,6-2.4,6.4,10.9,20.2-25.3,4.8,1,7.8-12.7,5.1-6.7,9.2-6,.2-13.6,8.3-16.4,6.3-.9,14.3-10.8,6.8-12.1,3.1-12.1-19,5.5-4.9-7.2-10.5-12.3-.9-8.5-16.3,5.4-14,12.9-3.6-3.7-13.7L276,47.4l-4.2-4.5,22.7-6.4,13.4-22.4,6-3.8,20.6-6,9.7,5.3,7,12.9Zm-29.5-4.3-14.5,5.1-7.9,8.8,8.8,13.1-5,7.3,10.7,6.7,5.8,8.3,7.3-9.1,7-16.9Z"/><path class="cls-4" d="M382.56,39l-10.1,5.9,1.3,11-6.4.9-16.3-8.7L347.66,37l14.8-6.4.1-.1.1-.1,11.9,2.8Z"/><path class="cls-4" d="M333.06,26.1l12.3,23.5-7,16.9-7.3,9.1-5.8-8.3-10.7-6.7,5-7.3-9-13.3,7.9-8.8Z"/><path class="cls-4" d="M271.76,43l4.2,4.5,17.7,7.2,3.6,13.6-12.9,3.6-5.4,14,8.5,16.3,12.3.9,7.2,10.5-5.5,4.9,12.1,19-4.4.1-6.7,14.3-5.3,3-.8.3-7.3-2.4-.4-4.6.1-.1.4-1.3-1-.8-.5.1-1.3-7.1-3.5-3.5-7-2.1v-2.6l.1-.6v-.1l-.4-7.3.6-3.1-3.6-2.5-3.5-1.5-.2-.5-2.1-2.3-.5-.8-5.5-2.3-2.5.5-2.5-1.7-.3.4-1-.4-1.5-1.8-4.4-2.8-.7-.6-.1-.1-2.2-.7-1.1-2.6.9-1.7.2-.6-.7-2.7h-.1l-.1-.1.3-.7-.2-.3-1.7-.5-1.9-.2-.9.8-.7-.3h0l-3.2-.4-.6-.1-.4-.2-.4-1.3-.1-1.1-4.3-.1-.8-.4h0l-.5-.4-5.5-1.4.5-2.8-3.7-5.4-.2.1-.3.1-.4-.5-.3-.1-2.1.6-1.1.4-1.1-.1-.7-.2-3.4.4-1.5,1.1-.5-.6,8.6-17.7,20.5-11.9,28.7-10Z"/><path class="cls-4" d="M197.76,129.2l-3.3-.9-1.3-.1-.2-2.6-4.3-.7h-.1V112.4l7-13.4,19.8,10.1-15.3,13.2Z"/><path class="cls-4" d="M219.76,79.6l.4.5.3-.1.2-.1,3.7,5.4-.5,2.8,5.5,1.4.5.4h0l.8.4,4.3.1.1,1.1.4,1.3.4.2.6.1,3.2.4h.1l.7.3.9-.8,1.9.2,1.7.5.2.3-.3.7.1.1h.1l.7,2.7-.2.6-.9,1.7,1.1,2.6,2.6.7.1.1.7.6,4.4,2.8,1.5,1.8,1,.4.3-.4,2.5,1.7,2.5-.5,5.5,2.3.5.8,2.1,2.3.2.5,3.5,1.5,3.6,2.5-.6,3.1.4,7.3v.1l-.1.6v2.6l7,2.1,3.5,3.5,1.3,7.1.5-.1,1,.8-.4,1.3-.1.1.4,4.6L297,155l1.5,1.1.1.1.6.8h0l-1.7,3.7-.4.5-1.5,7.8h-.1l-.4.5-1,1.7-1.2,1h-.5l-4.2,4.9-.9.2-5.1,4.8-1.8,2.9-.7,1.7-5.1,2-.1.2-2.1.2-1.4.2-3.8-2.4-3.6-6.3-2.1-3.5h-.3l-2.3-1.6-.3-.3-10.9-1.5-4.4-.7-5.9-.4-7,2.1-3.6-.1.1-.5,1.2-6.9-1-3.3-2.7-1.5-.4-.9,1,.6,1-.9.9-2.1.1-.3.8-1.8,1.2-1.6-.1-1.7-1.4-1.6.2-.8-.2-.8v-.1l-1.8-1-.8-.8-2.5.6-.5-.3-1.4-1.7-5.8-2.9-1-.7h-.1l-.2-.7.1-.9.3-.4v-.3l-.6-.3-1.6.2-2.4-1.7-.7-.6-.6-1-1.2-.7-1.7-2.3,1-3-.2-.8-2.5-1.5-1.7,1-3.8-1.4,2.3-6.9,15.3-13.2-19.8-10.2L209,81.1l.5.6,1.5-1.1,3.4-.4.7.2,1.1.1,1.1-.4,2.1-.6Z"/><path class="cls-5" d="M137.76,446l-21.1,33.1-19.9,13.8-9.4,18.6L74,516.6l-38.1-4.1-.6-8.1-7.9-10.6-16.3-9.3-6.4-6.8L15.26,451l4-21,4.6-8.8,12.9,10.3,9-.9,15.3-16.9,12-5.5L92,405.6l21.7,18.2-3.7,3.4,1.6,13.6,5.3,6.4Z"/><path class="cls-5" d="M154.16,363.7l19.8,5-3.2,10.9,6.5,13.8,25.2.4-12.9,4-10.1,6.7-4.4,9.5-28.7,19.2-10.6-2.4,2.1,15.2-21,1.5-5.3-6.4L110,427.5l3.7-3.4L92,405.9l-18.9,2.6-12,5.5-15.3,16.9-9,.9-12.9-10.3,8.5-9.7-1.7-14.6-6.5-12.9,5.7-1.2,16.4,3.5,38.2-26.1,20.6-1.7,8,8.6,15.5,2.6,7.6-2.3,15.4,5.2Z"/><path class="cls-5" d="M214.76,401.1l2.3,6.9-8.1,6.9,12.8,9.5-4.2,6.1-12.4,3.5-11.7,9.2-5.8,21.5.3,7.6-6.1,19.7-8.5,10,1.6,11.9,7.7,13.2-8.8-4.8-9.4,6.5-7.6-8.2-8.1-1.5-5.9,5-6.7-6-8.3,2.6-11,9.4-18.2-.4-2.8,23.9L91.76,565l1.3,21.8-4.2,9.4.3,10.6-21.8-12.6L55,578.4,52.06,568l1.4-14.2-10.7-21.9-6.6-19.5,38.1,4.1,13.4-5.1,9.4-18.6L117,479l21.1-33.1L136,430.7l10.6,2.4,28.7-19.2,4.4-9.5,10.1-6.7,12.9-4Z"/><path class="cls-5" d="M182.66,527.2l8.2,9.2-4.2,17.6-18.3,5.9-7.8,12.6L156,589.2l4.9,10.7-2.4,9.1,8.1,8.7-9,9.8,8,5.5,2.8,14.7,14.6,9.9,6.3-3.5-1.8,24.1,2.9,21.1-11.6,10.3-5.1,11L158,717.4l-13.5-15.9,6.7-14.7-9.5-29.8-7.6-16.9L123.26,628l-27-14.9L89,606.8l-.3-10.6,4.2-9.4L91.56,565l4.1-11.4,2.8-23.9,18.2.4,11-9.4,8.3-2.6,6.7,6,5.9-5,8.1,1.5,7.6,8.2,9.4-6.5Z"/></g></g></g></svg>