<svg xmlns="http://www.w3.org/2000/svg" viewBox="0 0 124.95 102.84"><defs><style>.cls-1{opacity:0.7;}.cls-2{fill:#e95473;}.cls-2,.cls-3,.cls-4{fill-rule:evenodd;}.cls-3{fill:#040000;}.cls-4{fill:#c45168;}</style></defs><g id="圖層_2" data-name="圖層 2"><g id="withdog"><g id="Illustrations_dog-jump" data-name="Illustrations dog-jump" class="cls-1"><path id="Accent" class="cls-2" d="M84.22,13.39c1.41,1.37,2.52,2.86,3.86,4.28s3,3.19,4.63,4.61c3,2.65,6.21,3.8,9.72,5.83,2.74,1.58,11.14,7.41,12.57,8.26a22.22,22.22,0,0,1,2.63,2.22,7.4,7.4,0,0,1,1.51,2A14.21,14.21,0,0,0,115,43c-.38.35-1.39,2.09-1.86,2.21s-.65-.71-1.07-1.05a42.39,42.39,0,0,1-3.49-2.94c-1.09-1.08-8-7.71-10.89-9.53-1.47-.93-2.76-2-4.29-2.82s-3-1.77-4.85-1.85a21.42,21.42,0,0,1-.77-4.2,17.28,17.28,0,0,0-1.08-3.57,14.84,14.84,0,0,0-1.44-3.5,12.28,12.28,0,0,0-1.43-1.16c-.25-.25-.32.14-.22-.41C83.61,13.89,84.1,13.62,84.22,13.39Zm-.68,1.5c1,1.17,1.16,3.4,1.59,4.84s.82,3,1.24,4.53c.21.75.23,1.5.39,2.25s.49,1.65.66,2.5c.35,1.69.5,3.42,1.52,4.85a22.24,22.24,0,0,0,3,3.61,20.38,20.38,0,0,1,3.63,3.9,16.2,16.2,0,0,1,1.87,4.93c.14.6,1.15,4.94.8,5.06-1.19-1.56-3.43-2.49-5.09-3.49a23.89,23.89,0,0,0-6.31-2.4c.31-.37.23-1.4.2-1.89,0-.68,0-1.39,0-2.07,0-1.24-.47-5.83-.51-7,0-1.42-2.45-14.65-3.18-15.76A1.55,1.55,0,0,1,83,17.5C83.05,16.79,83.4,15.62,83.54,14.89Zm-9,4.32c.29.52.39.58.27,1.1s-.32.83-.4,1.29a14.51,14.51,0,0,0-.19,3.09,20.46,20.46,0,0,0,1.31,6c.78,2.08,2,4,3,6a4.28,4.28,0,0,1,.54,2.5,6.46,6.46,0,0,1-1.12,2.18,13.69,13.69,0,0,0-2,4.62c-.1.41.18,1.07,0,1.46a13,13,0,0,1-.9,1.88c-.58.78-3.8,2.13-4.7,2.44a14.16,14.16,0,0,1-3.37.32A18.06,18.06,0,0,1,61.27,51c3.5-4.16,7.73-8.59,10.19-13.51.2.31,1.26.9,1.17.6-.58-1.91-1.28-3.78-1.86-5.68a9.09,9.09,0,0,1-.37-1.54c0-.26-1.15.14-1.47.54a34.88,34.88,0,0,1-4.07,3.9C62.23,37.63,59,39.77,57.38,43a23.17,23.17,0,0,0-1.59,4.43,9.56,9.56,0,0,0,.36,5.5c-2.24.19-4.4,1.84-6.15,3-.27-2.06,1-4.95,1.71-6.85a40,40,0,0,1,1.91-4.66,41.51,41.51,0,0,1,6.17-9.35,36.57,36.57,0,0,1,4.05-3.92c.81-.64,1.69-1.18,2.54-1.77a2.93,2.93,0,0,0,1.36-1.91c.56-1.82,2.08-3,3.41-4.26a14.88,14.88,0,0,0,3.37-4Zm-30,9.36,2.61-.1a21.18,21.18,0,0,1-1.54,1.75c-.59.56-.07,3.71-1,4.2s-2.16-1.81-2.24-3c-.06-.79.65-1.74,2.12-2.86Z"/><path id="Fill-1" class="cls-3" d="M55.4,65.79c.15,0,.15-.13,0-.32-.16,0-.16.12,0,.32M82.15,9.24c-.2.13,0,.27.19.28l-.19-.28m4.5,36c.07-.16,0-.22-.26-.17-.06.16,0,.22.26.17M40.54,70.17c-.72.26-1.78-.46-2.21,0s-.49,2.17-.66,3c.52.09,1.06.13,1.58.18s.49.2.7-.34a7.69,7.69,0,0,0,.24-1.34c.1-.5.29-1,.35-1.51M76.62,99.53c.12-.06-1.26-2.73-1.36-3.14A11.58,11.58,0,0,1,75,93.52a12.43,12.43,0,0,0,0-1.36c-.06-.6-.58-.75-1-1.26a7.12,7.12,0,0,1-1.37-3.62c-.87.25-1.77.37-2.62.69a7.6,7.6,0,0,1,1.07,3.2c0,.31-.08.62.18.87.08.08.38,0,.5,0a2.68,2.68,0,0,1,1.28,1.27,66.33,66.33,0,0,0,3.57,6.17M51.08,66.3c.63.12.58-3.17,1.05-3.41,1-.52,1,2.75,1.07,3.11.31-.37.19-1.47.21-1.94s-.13-2.23.21-2.54c.64-.58,1.06.95,1.14,1.33.16.84.32,1.68.52,2.52.3-.48-.17-2.09-.23-2.66a10.78,10.78,0,0,1-.15-2.41,2.39,2.39,0,0,1,.76-1.66c.61-.38,1.22.16,1.86,0-.72-1.47-1.66-2.83-2.29-4.35A25.08,25.08,0,0,0,52,56.38c-.56.45-1,.68-1,1.43,0,.58.09,1.16.12,1.74a41,41,0,0,1-.1,6.74M33.94,68.82c-.36,1.29-.61,2.57-.9,3.88s-1,2.48-1.27,3.79-.17,2.45-.33,3.66a37.21,37.21,0,0,0-.2,4.09c.68-.23.84-.3,1-1s.13-1.18.25-1.75a16.55,16.55,0,0,1,1.22-3.7,13.6,13.6,0,0,1,2.41-3.46c.37-.38.55-.44.57-1s-.12-.79-.11-1.19a5.54,5.54,0,0,1,.82-2.29c-1.13-.43-2.32-.63-3.45-1.07M75.05,14.05c-.14.3.18.94.23,1.26.07.59.06,1.19.08,1.78a6.37,6.37,0,0,0,.72,3.05,2,2,0,0,0,2.56.76,4.52,4.52,0,0,0,2.24-2,10,10,0,0,0,1.29-2.94c.25-.81.13-1.83.57-2.46s1-1.22.72-2.13c-.19-.62-.37-.43-.79,0a12.85,12.85,0,0,0-1,1.4,2,2,0,0,0-1-1.71c-.38-.24-1-.61-1.49-.39-.29.15-.45.65-.66.89s-.58.55-.86.83A7.42,7.42,0,0,1,75,14.05m23.2,37.3c.35-.12-.66-4.44-.81-5.05a15.78,15.78,0,0,0-1.88-4.93,20.36,20.36,0,0,0-3.62-3.91,22.1,22.1,0,0,1-3-3.61c-1-1.44-1.18-3.15-1.53-4.85-.16-.78-.43-1.52-.61-2.29s-.22-1.63-.45-2.45c-.42-1.51-.79-3-1.24-4.53s-.5-3.38-1.46-4.55c-.13.71-.38,1.4-.52,2.09s0,.67.45,1.32a13.56,13.56,0,0,1,1.52,3.72c.71,2.55.89,5.13,1.41,7.7a30.93,30.93,0,0,1,.9,4c.08,1.2-.08,2.4-.06,3.59s-.06,2.59-.09,3.89c0,.62,0,1.23,0,1.85s.34,1.62,0,2a21.5,21.5,0,0,1,5.92,2.51c1.67,1,3.89,1.94,5.08,3.5M88.54,26.94a10.43,10.43,0,0,1,4.65,1.75q2.28,1.24,4.48,2.66a42.82,42.82,0,0,1,7.87,6.39c1.09,1.12,2.32,2.11,3.41,3.2a32.14,32.14,0,0,0,2.93,3c.31.24.8.88,1.23.79s1.32-1.34,1.7-1.68A13.9,13.9,0,0,1,119,40.41c-.19-.55-1.31-1.21-1.76-1.6a23,23,0,0,0-2.29-1.89c-1.41-.92-2.89-1.76-4.36-2.55s-3-1.86-4.58-2.66a13.9,13.9,0,0,1-2.33-1.36,5.51,5.51,0,0,0-.73-.54c-.26-.16-.55-.31-.83-.47a57.46,57.46,0,0,1-9.39-6.88C91.11,21,89.59,19.54,88.08,18s-2.48-3.16-3.94-4.57c-.19.37-.72.63-.49,1,0,.08.79.41.9.49a4.18,4.18,0,0,1,.59.6c.85,1,1,2.41,1.54,3.63a15.6,15.6,0,0,1,1,3.41A21.5,21.5,0,0,0,88.53,27M61.68,50.81a22.88,22.88,0,0,0,5.8.93,8.93,8.93,0,0,0,2.68-.17,11.71,11.71,0,0,0,2.5-1.38,7.92,7.92,0,0,0,2.16-1.74,6.78,6.78,0,0,0,.84-1.15A9.28,9.28,0,0,0,75.89,46a13.54,13.54,0,0,1,2-4.63c1.08-1.58,1.43-2.89.59-4.68-.94-2-2.2-3.87-3-5.95a20.47,20.47,0,0,1-1.31-6,14,14,0,0,1,.2-3.1c.07-.45.29-.85.39-1.28s0-.58-.26-1.1a14.77,14.77,0,0,1-3.38,4c-1.32,1.27-2.85,2.46-3.41,4.26a3,3,0,0,1-1.36,1.92c-.85.58-1.73,1.13-2.54,1.76a38.54,38.54,0,0,0-4.06,3.92,41.47,41.47,0,0,0-6.16,9.35,39.35,39.35,0,0,0-1.92,4.66c-.71,1.9-1.67,4.45-1.41,6.51,1.76-1.19,3.35-2.77,5.59-3a8.5,8.5,0,0,1-.09-5.23,23.42,23.42,0,0,1,1.55-4.37c1.57-3.26,4.74-5.65,7.39-8a34.45,34.45,0,0,0,4-3.84c.3-.37,1.06-1.7,1.5-1.41s.15.76.18,1a7.63,7.63,0,0,0,.3,1.32c.58,2,1.33,3.91,1.92,5.89.09.29.67,1.51.11,1.6-.37.07-1.07-1.88-1.28-2.2-2.46,4.91-6.26,9.11-9.76,13.27M82.93,78.63a16.48,16.48,0,0,0-2.23,2.19,19.55,19.55,0,0,0-2.81,3c-.41.59-.33.75.18,1.3s.8.83,1.19,1.28c.95,1.12,1.92,2.2,2.93,3.27,1.76-4.56,5.09-8.43,8.6-11.75.49-.47,1.06-.84,1.59-1.27s1.08-.63,1.52-1c.27-.23.44-.6.72-.85a21.69,21.69,0,0,0,1.95-1.64,29.79,29.79,0,0,0,2.1-2.75c.69-1,1.27-1.81.88-3-.31-.93-.35-1.92-.69-2.81a15.89,15.89,0,0,0-1.82-3,44.45,44.45,0,0,0-5.24-6.76c-1.89-2-3.63-4.11-5.35-6.23-.34-.41-.73-.74-1.09-1.14-.59-.65-.83-.26-1.49.16a7.22,7.22,0,0,1-4.29.92,9.64,9.64,0,0,0-2.37-.27c-.59.14-.72,1.11-1.08,1.61a12.21,12.21,0,0,1-3.41,2.91c-2.65,1.72-5.73,1.08-8.62.3a42.16,42.16,0,0,1-1.91,6.22,30.46,30.46,0,0,0-1.32,5.24c-.34,1.63-.15,3.77-1,5.25-.5.87-1.21.89-2.18.84-.78,0-1.52.11-2.28.09-3.51-.06-7-.4-10.49-.59-.77,0-2.13-.38-2.83-.07-.52.23-.41.34-.47.9s-.12,1.11-.18,1.66a53.89,53.89,0,0,0-.41,6.6,16.89,16.89,0,0,1,5.45-3.36c1.87-.71,4.24-1.63,6.28-1.55.88,0,1.77.13,2.67.23a21.08,21.08,0,0,0,3.36.48,24.07,24.07,0,0,0,2.89-.54c1.08-.19,2.69-.33,3.52-1.12a7.25,7.25,0,0,0,1.34-2.64c.44-1.1,1.18-2.09,1.65-3.16.85-1.88,1.85-3.65,2.88-5.48,1.22-2.19,2.27-4.51,3.64-6.59.28-.38.54-.78.79-1.19s.22-1,.78-.89.61.63.69,1,0,.52.25.76a6.45,6.45,0,0,0,1.08.56c1.28.83,2.44,1.84,3.7,2.69S84.52,60,85.72,60.9c2.38,1.72,5,2.93,7.33,4.8-.34.43-.61.08-1,.24s-.22.16-.44.64a16.52,16.52,0,0,1-1.09,1.75,30.39,30.39,0,0,1-2.72,3.85c-1.8,2-3.11,4.42-4.89,6.47m32.12-32c.23.59.43,1.19.66,1.79a7,7,0,0,0,.51,1.46c.42-.59.54-1.83,1.53-1.09.59.44.9,1.79,1.18,2.47.57-.49-.45-2,.86-2,1-.05,1.56,2.26,2.29,2.11,0-.91-.86-2.41-1.17-3.29-.14-.41-.52-.86-.09-1.13s1,.15,1.3.31c-.33-1-.32-2.09-1-2.83-.42-.45-.83-.9-1.26-1.35-.25-.26-.85-1.16-1.23-1.22-.72-.12-2.14,1.59-2.61,2a10.21,10.21,0,0,0-1.3,1.41c-.35.52,0,.81.33,1.37M81.46,24a4.43,4.43,0,0,0,1.4-2.08,3.78,3.78,0,0,0-.16-3.25,8.71,8.71,0,0,1-2.83,3c-1.53.89-2.8.41-4.2-.45a7.44,7.44,0,0,0-.1,1.25,1,1,0,0,0,.3.78,6.79,6.79,0,0,0,1.82,1.6A3,3,0,0,0,81.46,24m-4,65,1.4-.77-1.1-1.41c-.31-.41-.55-1.11-1-.94s-.54.74-.94.91-.86,0-1.28.42c-.6.56,0,1.25.31,1.9a3.58,3.58,0,0,0,.46.89c.38.35.17.24.62,0a13.3,13.3,0,0,0,1.56-1M78,7.65c.56-.21,2.5.15,2.73-.32.31-.64-1.7-.8-2.09-.79a5.47,5.47,0,0,0-4.52,4.11c.68-.29,1.14-1.33,1.75-1.79A17.11,17.11,0,0,1,78,7.66M93.32,36.2c1.35,1.45,3.11,2.85,4.07,4.6a14.18,14.18,0,0,1,1.71,5.78c.1,1,.23,2.07.27,3.12a7.72,7.72,0,0,1,0,1.52c-.11.59-.23.61-.8.51.08.55.15,1.12-.62,1.15-.55,0-.84-.53-1.21-.85a20.49,20.49,0,0,0-3.41-2c-1.15-.69-2.24-1.49-3.42-2.1-.57-.3-1.18-.52-1.77-.79a6.69,6.69,0,0,0-1.73-.79c.21.48,1,.87,1.47,1.21A19.85,19.85,0,0,1,89.47,49c1,1,1.85,2.1,2.76,3.15C93.85,54,95.55,55.83,97,57.82a29.47,29.47,0,0,1,3.52,6,9.91,9.91,0,0,1,.38,2.91,7,7,0,0,1-.58,3.58,18,18,0,0,1-4.07,6c-.32.32-.71.47-1,.75s-.56.7-1,1a29.65,29.65,0,0,0-3,2.59c-.73.73-1.43,1.47-2.14,2.21a18.62,18.62,0,0,0-1.71,1.84,49.19,49.19,0,0,0-3,5,4.13,4.13,0,0,0-.59,1.4A3.94,3.94,0,0,0,84,92.51c.07.55-.08,1-.69.81s-.84-1-1.12-1.39C81.8,91.3,80,89,79.44,89c-.41,0-1.18.89-1.56,1.15a6.93,6.93,0,0,1-1.49.81c.56.61.47,1.91.55,2.67a16,16,0,0,0,.81,3.75c.3.84.77,1.59,1.08,2.43s1.2,2,.18,2.74c-1.62,1.15-4-2.06-4.81-3.11A23.16,23.16,0,0,1,71.3,94a3.9,3.9,0,0,0-.48-.93,3.36,3.36,0,0,0-.78,0c-.76-.08-.65-.41-.81-1.08-.3-1.28-1.16-2.62-1-4,.16-1.06,1.7-1.32,2.55-1.53.63-.16,1.29-.26,1.94-.36a11.67,11.67,0,0,0,1.45,0c.72-.22.74-1.32,1.06-1.88a19.24,19.24,0,0,1,2-2.88c1.36-1.6,2.94-3,4.41-4.5a27.25,27.25,0,0,0,2.52-3,20.46,20.46,0,0,1,1.74-2.41,35.29,35.29,0,0,0,2.46-2.86c.83-1.05,1.85-2,2.75-3a69.68,69.68,0,0,1-11.79-7.48c-.43-.34-.84-.68-1.25-1-.2-.18-1-1.08-1.26-1.1-.53,0-1.44,2-1.72,2.52-1,1.91-1.89,3.87-3,5.72-1,1.6-1.79,3.29-2.67,4.91-.48.9-.84,1.9-1.33,2.8s-.89,2.3-1.67,3a6.09,6.09,0,0,1-1.27.65,9.06,9.06,0,0,1-1.6.6c-1.06.24-2.18.48-3.25.65-1.93.31-4-.44-5.9-.53-2.34-.1-4.46.72-6.73,1.21a21.47,21.47,0,0,0-7,3.19c-1.14-2-1-4.14-.85-6.42-1.06-.08-1.57-.21-2.18.74-.45.71-.87,1.36-1.25,2.08s-.92,1.49-1.31,2.32S34.3,81.27,34,82.2c-.25.69-.6,1.39-.89,2.06a1.79,1.79,0,0,1-1.63,1,4.42,4.42,0,0,1-1.15,0c-.35-.15-.29-.41-.32-.85a21.32,21.32,0,0,1,.11-3.1c.1-.9.39-1.77.52-2.67a19.88,19.88,0,0,1,.28-2.55c.24-.93.67-1.81.86-2.76a2.28,2.28,0,0,0,0-1.39c-.14-.3-.63-.4-.75-.61-.28-.49.29-1.46.44-2,.22-.81.48-1.56,1.4-1.77a7,7,0,0,1,2.65.28c.85.23,1.65.61,2.51.82.49.13,1,.21,1.47.32a6.79,6.79,0,0,0,1.14.36c.24,0,.38-.21.65-.36-.12.07.55-.16.51-.16l1-.22A18.9,18.9,0,0,1,47,68.41c3.59.13,7.08.46,10.67.72,1.07.08,1.26-.08,1.46-1.14s.22-2,.36-3a36.22,36.22,0,0,1,1-4.93c.46-1.65,1.19-3.22,1.76-4.83.16-.45.94-2.09.67-2.39s-.76-.27-1-.4a8.11,8.11,0,0,1-1.09-.66c-1.93-1.47.22-2.84,1.18-4.16,1.18-1.61,2.31-3.29,3.56-4.84.64-.78,1.28-1.54,1.94-2.3s1-1.53,1.6-2.25c.43-.54,1.57-1.28,1.67-2,0-.41-.54-1.26-.69-1.62a12.71,12.71,0,0,1-.61-1.8c-.3.1-.64.68-.83.93a9,9,0,0,1-1.09,1.36c-1,.93-2.13,1.62-3.07,2.56A52.28,52.28,0,0,0,60.2,42a16,16,0,0,0-2.8,6.49A13.34,13.34,0,0,0,57.07,52a6.66,6.66,0,0,1,.23,1.49c-.12.35-.88.47-1.17.57.4.73.82,1.44,1.19,2.18a11,11,0,0,1,1.3,2.72c.12.79-.41.91-1.09.86-.89-.08-1.36-.15-1.57.85-.36,1.74.27,3.78.34,5.54,0,.57,0,1.83-.84,1.07-.6-.55-.7-1.62-1.25-2.19,0,.55,0,2.18-.59,2.49-.77.42-1.18-.92-1.43-1.42-.18.74-.64,3.06-1.66,2-.79-.84-.64-2.19-.57-3.23.08-1.21.14-2.43.24-3.63s-.05-2.38.06-3.57c-.41.32-1.36.65-1.47-.2-.06-.44.49-.54.58-.89a5.27,5.27,0,0,0-.18-1.48,17.21,17.21,0,0,1,.4-5.45,31.7,31.7,0,0,1,3.71-9.08,38.45,38.45,0,0,1,7-8.67c1.31-1.25,2.75-2.29,4.14-3.44A4.4,4.4,0,0,0,66,26.85a9.34,9.34,0,0,1,1.36-2.62,10.34,10.34,0,0,1,1.91-1.83,27.68,27.68,0,0,0,2.57-1.68,12.83,12.83,0,0,0,1.56-2.17c.22-.34.72-.76.81-1a6.54,6.54,0,0,0,0-1.82c-.44.43-.84.17-1.23-.2-.64-.61-.5-.37-1.39-.28-.53.05-.94-.36-1.38-.35s-.81.74-1.31.85a1.08,1.08,0,0,1-1.15-.51c-.09-.17,0-.41-.07-.55-.16-.32-.52-.35-.67-.72-.24-.57.08-.63-.47-1.08a2.2,2.2,0,0,1-.79-1.25c-.07-.18-.3-.4-.27-.6s.27-.27.27-.33a1.3,1.3,0,0,0-.2-.63c-.08-.17-.31-.46-.21-.68s.41-.11.5-.24,0-.43.2-.57c.61-.49.78.31.65-.74a2.23,2.23,0,0,1,.17-1.37c.2,0,.28-.1.24-.25V5.86c.25-.22.4,0,.51-.36.17-.55-.63-1.11.22-1.31.61-.15,1.12.46,1.77.32,0-.26-.42-.91-.13-1.15s.88.21,1.1.34a4.68,4.68,0,0,1-.1-1c.17-.55.25-.15.6-.28l.25.09q.2-.27.36-.54c.32-.27.22-.16.6-.21s.22.17.56.06.3-.41.59-.47l.26,0c.23.17.4.12.53-.14.31,0,.87.19,1.12,0,.49-.3,0-.93.56-1.2a3.25,3.25,0,0,1,1.27.24c.33.12.38.35.78.46.58.17.25.09.7.06.66,0,.81-.24,1.36.24A6.64,6.64,0,0,1,81.19,2.6c.19.35.37,1.25.75.81s-.24-1.11.26-1.05.44,1.42.57,1.67c.38.74.53.73.38,1.52a5.44,5.44,0,0,0-.22,1.5c.09.46.81,1,1.08,1.26.59.67.54.91.36,1.78l-.1.19c-.27.14-.27.32,0,.52a8.42,8.42,0,0,1,.24,1c0,.21-.17.74-.1.91s.3.28.7.45a14.86,14.86,0,0,1,4.26,3.16c2.27,2.09,4.71,4,7.11,5.94.94.75,1.86,1.46,2.82,2.22,1.2.94,2.54,1.67,3.81,2.52a19.55,19.55,0,0,0,2.73,1.67c1.16.53,2.17,1.47,3.28,2.11s2.49,1.31,3.67,2,2.36,1.23,3.49,2a15.7,15.7,0,0,1,4.06,3.43c.36.48,1,1.23,1,1.86a1.61,1.61,0,0,1-1.56,1.27,18.39,18.39,0,0,1,2.9,2.95,3.87,3.87,0,0,1,.92,1.41c.16.52.18.16,0,.63s-.39-.31-.28.47a4,4,0,0,0,.42.65c.34.65.66,1.32,1,2,.25.5.55.86-.07,1.14s-1-.15-1.44-.39c.24.62.51,1.21.76,1.82s.62,1-.06,1.29c-1.12.51-2.61-1.2-3.33-1.86a10.09,10.09,0,0,0,.56,3.22c.21.86.85,2.58-.74,2.18-1.06-.26-1.5-1.69-1.83-2.6-.12-.29-.87-3-1.22-3-.16.63-.24,1.57-1.09,1.56s-1-.85-1.23-1.41a31.42,31.42,0,0,1-1.43-5,3.05,3.05,0,0,1-1.07.26c-.35-.08-.26-.26-.51-.48a11.19,11.19,0,0,0-1.18-.75,15.76,15.76,0,0,1-3.07-2.81c-1-1-2.15-1.71-3.13-2.73s-2.18-2.23-3.32-3.31A47.38,47.38,0,0,0,93,30.4c-.39-.23-4-3-4.23-2.8s.3,1.19.37,1.48a11.66,11.66,0,0,0,.81,2c.21,1.76,2.22,3.9,3.38,5.14Z"/><path id="Fill-4" class="cls-3" d="M36.14,61.51c.68-.19.11-1.71-.06-2.18a5.5,5.5,0,0,1-.45-2.26,6.38,6.38,0,0,1,.16-1.23c.06-.22.3-.62.28-.82A8.69,8.69,0,0,0,34.9,53c-.18-.32-1.22-1.7-.9-2s1.3.89,1.53,1.17.43.66.66,1a3.22,3.22,0,0,0,.69.59c.54.51.37,1.28.35,2a14.56,14.56,0,0,0,0,2.47c.13.89.57,1.66.77,2.53a2.88,2.88,0,0,1-2.22,3.21c-.75.16-.85-.35-1.33-.73-.18-.15-.46-.14-.66-.35a2.59,2.59,0,0,1-.45-.91,44.23,44.23,0,0,1-1.12-4.54,15.69,15.69,0,0,1-5.89,5.8c-1.25.67-2.31.9-2.62,2.46-.24,1.21.56,2.66.85,3.84a12,12,0,0,1,.62,4.17c-.22,1.59-1.48,2-2.4.6-.78-1.23-.81-2.79-1.64-4-.47-.55-.92-1.13-1.33-1.72a11.8,11.8,0,0,1-.69-1.79A5.92,5.92,0,0,0,16.9,70a23.31,23.31,0,0,0-.35,3.73c-.16,1.18-.07,2.64-1.31,3.29-1.59.83-2.75-1-2.74-2.4a12.37,12.37,0,0,1,.32-2,3,3,0,0,0-.32-1.89c-.21-.54-.55-1.21-.29-1.79s.83-.66,1-1.26.11-1.31.2-1.9.24-1.51.29-2.26A16.43,16.43,0,0,1,14.9,59c-.52,0-1.39.8-1.91,1a5.85,5.85,0,0,1-3,.3,6.55,6.55,0,0,1-4.29-3.18c-1-1.58-1.78-3.67-1.25-5.53A10,10,0,0,1,5.78,48.8c.37-.55,1.12-1.7,1.84-1.79,1.67-.22-.24,3.65-.46,4.22a5.28,5.28,0,0,0,.13,5c1,1.68,3.06,1.58,4.74,1.39a6.87,6.87,0,0,0,2.65-.81,8,8,0,0,0,1.86-2.14,52.29,52.29,0,0,1,4.16-4.13c1.42-1.31,3.26-2.21,4.79-3.4a24.15,24.15,0,0,0,3.93-3.63c1.22-1.45,1.42-3.89,3-5,1-.69.88.33.64,1s-.66,1.47-1,2.23a12.38,12.38,0,0,1-3.3,4.81,42.28,42.28,0,0,1-3.53,3A51.58,51.58,0,0,0,20.54,53a19.94,19.94,0,0,0-2.32,2.62c-.29.38-.93,1.1-.82,1.45s.44.26.26.84c-.31,1-.91,1.89-1.21,2.9a19.36,19.36,0,0,0-.77,3.37A8.61,8.61,0,0,1,15,67.44a5.64,5.64,0,0,1-.77,1.23c-.25.25-.46.2-.63.51-.44.83.75,2,.95,2.78a18,18,0,0,1,.11,3c.46-.4.34-1.46.38-2a9.29,9.29,0,0,1,.42-1.73c.34-1.26-.07-2.51.44-3.8.94-2.36,3.68-3.71,4.06-6.39.07-.43-.2-1.43,0-1.78.31-.63.85.44,1,.78a5.89,5.89,0,0,1,0,3.93c-.22.52-.69,1-.8,1.54l-.2.23a2.57,2.57,0,0,1,.38.49c.18.31.28.66.44,1a9.93,9.93,0,0,0,1.56,2.08c.41.49.74,1.8,1.23,2.11a23.44,23.44,0,0,1-.77-6.07c0-.46.3-1,.28-1.44l.09-.4a3.61,3.61,0,0,1-.62-.24c-1.19-.86.42-.81,1-1a13.74,13.74,0,0,0,2.44-1.61,21,21,0,0,0,2.24-1.46c.76-.61,1.5-1.26,2.2-1.94s1.2-1.54,1.88-2.18a4,4,0,0,1-2.5-1.39c-.5-.48-1.92-1.53-1.84-2.35s.78,0,1.12.29a7.93,7.93,0,0,0,2.17,1.45c.37.1.68-.1,1.07.09a2,2,0,0,1,.66.71,5.3,5.3,0,0,1,.67,2.46c.29,2.05,1,4,1.06,6.1a10.12,10.12,0,0,0,1.54-.95"/><path id="Fill-6" class="cls-3" d="M39.72,42.08c.36-.33,1.6-1.2.79-1.76s-1.15,1.26-.79,1.76m9.09-13a3.39,3.39,0,0,0-1,.26c-.3.2-.41.55-.71.76-.61.42-1.26.42-1.3,1.34.9-.5,2.86-1.19,3-2.36m-8,25.48c.92-.35-.75-4.36-1-4.88a2.82,2.82,0,0,0-.92,1.9c.12.43.8.85,1.06,1.23a7.06,7.06,0,0,1,.84,1.75M33.6,30.34c-1,.67-1.94,1.65-3.21,1.59-1,0-1.85-.86-2.81-1.07.92,1.65,3.13,2.13,4.94,1.82.92-.16,1.88-1.22,2.8-1.16a2.22,2.22,0,0,1,1.16.59c.5.78-.48.37-.79.58s-.41,1.84-.58,2.41a9.19,9.19,0,0,1-.53,1.25c-.06.14-.46.71-.41.87s.59.4.71.47a7.15,7.15,0,0,0,2.68,1c.49.08.93,0,1.39.07.15,0,.94.38.79.42a9.28,9.28,0,0,1,.12-2.35,3.68,3.68,0,0,1,.76-2.09,5.8,5.8,0,0,1,.89-.75,2.77,2.77,0,0,1,.61-.27c.35,0,.41-.2.17-.49,0-.78-.65-1.46-.62-2.29a2.28,2.28,0,0,1,1.45-2.08,4.82,4.82,0,0,0,1.22-.5,12,12,0,0,0,.87-1.12,13.79,13.79,0,0,0,3-4.45,2.87,2.87,0,0,0,.22-1.18l-.66-.49c-.2-.31-.4-.31-.61,0a7.54,7.54,0,0,0-1,1.22c-.35.38-.71.74-1.05,1.14a17.47,17.47,0,0,1-1.81,1.94c-.7.62-1,.93-1.86.41s-1-1-1.89-.34a9.63,9.63,0,0,0-1.93,2.05,10.25,10.25,0,0,1-1.32,1.69,3.75,3.75,0,0,1-1.29.49,7.08,7.08,0,0,0-1.39.66m12.24-1.19.43-.23-1.32,0c0,1-1.4,1.34-1.85,2.18s-.06,2.56.82,2.82c1.22.37.62-1.61.61-2.14a2.68,2.68,0,0,1,1.31-2.59M33.21,38.36a1.37,1.37,0,0,1-.51-1.85c.46-.91.9-1.87,1.33-2.84a7.48,7.48,0,0,1-3.89.38,3.69,3.69,0,0,1-3.21-2.34c-.4-.74-1.67-2.79-.13-2.84,1.26,0,2.18,1.29,3.5,1.18s2.27-1.28,3.58-1.52c.37-.07,1.62.2,1.87,0s.77-1.41,1-1.76a9.82,9.82,0,0,1,2.19-2.53c.52-.39.67-.55,1.3-.36a3.9,3.9,0,0,1,1.67,1.21c1.34-1.67,2.72-3.3,4.17-4.87a6.87,6.87,0,0,0,1-1.51c.46-.81,1-.82,1.56,0,1.08,1.42.68,2.94.5,4.56a4,4,0,0,1-.71,2.25,25.3,25.3,0,0,1-2.26,1.88c.36.15.81.69,1.1.77s1-.37,1.28-.38c1,0,1.23.68,1.12,1.58a3,3,0,0,1-1.61,2.1,7.09,7.09,0,0,1-1.08.6,7.63,7.63,0,0,0-1.38.51c-.17.21,0,.71.07,1a1.68,1.68,0,0,1-.22,1.24,1.16,1.16,0,0,1-1,.45c-.53,0-.59-.4-1-.59-.21-.33-.39-.32-.54,0l-.5.56a5.67,5.67,0,0,0-.89,1.23c-.44.9-.41,2-1,2.78a2.15,2.15,0,0,1,.74,3,5.42,5.42,0,0,1-.48.67c-.13.13-.57.32-.63.47a13.68,13.68,0,0,0,.54,1.79c.14,1.13-.39,2-.39,3.12s.8,2.28,1.18,3.27a14.14,14.14,0,0,1,1.12,3.81A2.75,2.75,0,0,1,41.19,58c-1.38.5-1.73-1.43-1.73-2.34a5.06,5.06,0,0,0-1.26-3.34c-.46.35-1.44,1.53-1.91.54-.32-.67.76-2.05,1.07-2.65a23.53,23.53,0,0,0,1.78-4.32,6.57,6.57,0,0,0,.23-2.29,4.76,4.76,0,0,0-.51-1.26c-.18-.4-.14-1.1-.34-1.42s-2-.54-2.66-.85a13.32,13.32,0,0,1-2.65-1.74"/><path id="Fill-8" class="cls-3" d="M59.87,25.72c.37-.27,1.65-1.53,2.13-1.28.87.46-.45,1.36-.77,1.62-1.39,1.15-2.69,2.37-4,3.63a58.8,58.8,0,0,0-7,8.19c-.31.46-1.1,2-1.79,1.85-.88-.27.13-1.66.35-2A38.06,38.06,0,0,1,52,33.21a41.63,41.63,0,0,1,7.86-7.49"/><path id="Fill-10" class="cls-3" d="M43.47,84.26a18,18,0,0,1,7.26-2.94,12.39,12.39,0,0,1,2.5-.31,4.48,4.48,0,0,1,1.83.14c.65.41.43.86-.14,1s-1.31.23-1.89.39a56.27,56.27,0,0,0-7.79,2.65,5.91,5.91,0,0,0-1.47,1c-.37.3-1.21,1.35-1.66,1.26-1.64-.32.86-2.85,1.36-3.2"/><path id="Fill-12" class="cls-3" d="M80.59,69.63c.62.76.24,1.08-.26,1.87a26.58,26.58,0,0,1-1.65,2.29,27.61,27.61,0,0,1-2,2.39,9.69,9.69,0,0,1-2.29,2.09c-.32.14-.5.3-.71-.09s.17-.6.44-.87c.83-.82,1.55-1.77,2.33-2.64a38.92,38.92,0,0,0,4.18-5"/><path id="Fill-14" class="cls-3" d="M2.56,59a5.72,5.72,0,0,1-2.21-3c-.15-.39-.75-3.52.08-3.26.49.16.59,2.83.74,3.37A5.27,5.27,0,0,0,2,57.81c.11.14,1,.95.54,1.14"/><path id="Fill-16" class="cls-3" d="M35.41,47.73c-.73-.34-.88-1.93-1-2.63-.1-.43-.56-2,.11-2s.83,1.64.93,2.06c.16.62.73,2.15,0,2.57"/><path id="Fill-18" class="cls-4" d="M98.62,52.48l-.08-.67c.28,0,.59,0,.52.3a.6.6,0,0,1-.44.38"/><path id="Fill-20" class="cls-4" d="M71.82,20.75a4.86,4.86,0,0,1-.89.55l.89-.55"/><path id="Fill-22" class="cls-4" d="M97.62,41.17l-.38-.68.38.68"/><path id="Fill-24" class="cls-4" d="M33.16,54.62l-.38-.68.38.68"/><path id="Fill-26" class="cls-4" d="M32.75,28.81l-.68.38a1.22,1.22,0,0,1,.68-.38"/><path id="Fill-28" class="cls-4" d="M73.11,98c.08.15.17.3.24.46L73.11,98"/><path id="Fill-30" class="cls-4" d="M14.2,59.41l.34-.19-.34.19"/><path id="Fill-32" class="cls-4" d="M100.63,64c-.08-.15-.17-.3-.26-.45l.26.45"/><path id="Fill-34" class="cls-4" d="M89.91,31l-.23-.47.23.47"/><path id="Fill-36" class="cls-4" d="M66.86,13.8c.08.16.16.31.23.47l-.23-.47"/><path id="Fill-38" class="cls-4" d="M123.72,47.51c-.09-.15-.17-.3-.25-.45.08.15.16.3.25.45"/><path id="Fill-42" class="cls-4" d="M49.45,20.19l-.27-.45.27.45"/><path id="Fill-44" class="cls-4" d="M7.34,56.3l-.23-.46.23.46"/><path id="Fill-46" class="cls-4" d="M47.41,31.94l.34-.19-.34.19"/><path id="Fill-48" class="cls-4" d="M81.41,3.06l-.27-.44.27.44"/><path id="Fill-50" class="cls-4" d="M19.54,68.11l.26.45-.26-.45"/><path id="Fill-52" class="cls-4" d="M123.28,45.08l-.28-.44.28.44"/><path id="Fill-54" class="cls-4" d="M66.06,75.24l.34-.2-.34.2"/><path id="Fill-56" class="cls-4" d="M91.63,34.09l-.27-.44.27.44"/><path id="Fill-58" class="cls-4" d="M47,82.21l-.45.25.45-.25"/><path id="Fill-60" class="cls-4" d="M43.4,84.2l-.44.3.44-.3"/><path id="Fill-62" class="cls-4" d="M91,33.14a3.79,3.79,0,0,1-.2-.34,3.79,3.79,0,0,0,.2.34"/><path id="Fill-64" class="cls-4" d="M83.78,8.14c-.07-.11-.14-.23-.21-.33l.21.33"/><path id="Fill-66" class="cls-4" d="M49.56,28.45l-.19-.35.19.35"/><path id="Fill-68" class="cls-4" d="M51.08,68.49l.19-.09c-.07.2-.3.17-.19.09"/><path id="Fill-70" class="cls-4" d="M64.29,76.07l.23-.13-.23.13"/><path id="Fill-72" class="cls-4" d="M122.66,44.23l-.21-.32.21.32"/><path id="Fill-74" class="cls-4" d="M21.6,71l.16.36L21.6,71"/><path id="Fill-76" class="cls-4" d="M65.59,27.47c-.08.18-.28.21-.44.29l.44-.29"/><path id="Fill-78" class="cls-4" d="M124.42,49.05c-.06-.11-.13-.23-.18-.34l.18.34"/><path id="Fill-80" class="cls-4" d="M101.05,67.5c0-.12-.11-.24-.16-.35l.16.35"/><path id="Fill-82" class="cls-4" d="M12.88,60l.24-.11-.24.11"/><path id="Fill-84" class="cls-4" d="M59.88,25.75l-.44.29.44-.29"/><path id="Fill-86" class="cls-4" d="M82.35,92.13l.16.36-.16-.36"/><path id="Fill-88" class="cls-4" d="M36.15,61.48l-.44.29.44-.29"/><path id="Fill-96" class="cls-4" d="M76.62,89.46l.89-.54-.89.54"/><path id="Fill-98" class="cls-4" d="M98.38,63.49c-.09-.2-.19-.39-.29-.59l.29.59"/><path id="Fill-100" class="cls-4" d="M76,8.81l.55-.35L76,8.81"/><path id="Fill-102" class="cls-4" d="M43.34,77.4l.59-.27-.59.27"/><path id="Fill-104" class="cls-4" d="M54.4,65.58a.51.51,0,0,1-.24-.46.74.74,0,0,1,.24.46"/><path id="Fill-106" class="cls-4" d="M114.82,46.2c.08.16.17.31.26.46l-.26-.46"/><path id="Fill-108" class="cls-4" d="M77.5,86.35c-.08-.15-.17-.3-.26-.45.09.15.17.31.26.45"/><path id="Fill-112" class="cls-4" d="M63.68,74.16l.47-.22-.47.22"/><path id="Fill-114" class="cls-4" d="M55.34,65.79c-.13-.17-.13-.26,0-.26.12.16.13.25,0,.26"/><path id="Fill-116" class="cls-4" d="M56.68,55l.18.34L56.68,55"/><path id="Fill-118" class="cls-4" d="M120.82,47.63l-.19-.34.19.34"/><path id="Fill-122" class="cls-4" d="M81.45,23.94l.44-.29Z"/><path id="Fill-124" class="cls-4" d="M84.87,47l-.23.13.23-.13"/><path id="Fill-126" class="cls-4" d="M99.53,67.16l-.17-.35c.06.12.12.23.17.35"/><path id="Fill-128" class="cls-4" d="M83,78.64l-.22.14.22-.14"/><path id="Fill-130" class="cls-4" d="M56.93,55.41l.19.34-.19-.34"/><path id="Fill-134" class="cls-4" d="M39.44,38.8c.22,0,.31.12.26.31s-.27,0-.26-.31"/><path id="Fill-136" class="cls-4" d="M45.38,29.35l.46-.25-.46.25"/><path id="Fill-138" class="cls-4" d="M43.18,33l.19.34L43.18,33"/><path id="Fill-140" class="cls-4" d="M40.5,34.75l.43-.29Z"/><path id="Fill-142" class="cls-3" d="M72.63,44.24a7.4,7.4,0,0,1-3.83,1.44c-.91,0-1.91-1-1-1.78.51-.41,1.47-.29,2.08-.37A21.65,21.65,0,0,0,72,43c.48-.12,1.24-.18,1.19.63,0,.14-.44.81-.57.61"/><path id="Fill-144" class="cls-3" d="M91.37,41a7.88,7.88,0,0,1,.73,2.42c0,1.21-.63.26-.84-.3a12.27,12.27,0,0,0-1.16-2.39c-.4-.6-1.24-1.11-1.24-1.85C90,39,90.71,40.2,91.37,41"/><path id="Fill-146" class="cls-3" d="M79.08,18.76c-.53.15-1.47.27-1-.54.17-.32.75-.53,1-.87s.11-.47.25-.65c.45-.6.76-.19.85.5a1.53,1.53,0,0,1-1,1.56"/><path id="Fill-148" class="cls-3" d="M76.73,15.15c.45-1,.74-.22.62.51l-.17.76.22.09c.11.25.42.3.24.6-.3.49-1,.08-1.14-.25-.3-.54,0-1.18.23-1.71"/><path id="Fill-150" class="cls-3" d="M76.65,15.25c-.33,1.11-1.09-.33-.88-.85.41-1,.7.63.88.85"/><path id="Fill-152" class="cls-3" d="M78.33,15c-.19-.22-.86-1.4-.32-1.6s.72,1.43.32,1.6"/><path id="Fill-154" class="cls-4" d="M79.19,18.77l.23-.11-.23.11"/><path id="Fill-156" class="cls-3" d="M39.62,29.05c-1.2-.71-.79-3.27.72-2.21.2.14.71.55.54.86s-.26,0-.51.13-.29-.08-.53.24a2.93,2.93,0,0,0-.23,1"/></g></g></g></svg>