<svg xmlns="http://www.w3.org/2000/svg" viewBox="0 0 25.71 25.71"><defs><style>.cls-1{fill:#5c525f;}.cls-2{fill:#4a3e4d;}.cls-3{fill:#6e6470;}.cls-4{fill:#edea4b;}.cls-5{fill:#dac037;}</style></defs><g id="yellow-bug" data-name="yellow-bug"><g id="yellow-bug"><g id="beetle"><g id="Group_303" data-name="Group 303"><path id="Path_566" data-name="Path 566" class="cls-1" d="M18.73,13.35l1.2,1.2a1,1,0,0,0,1,.27L24.07,14a.34.34,0,0,1,.33.1l.71.7a.36.36,0,0,0,.49,0,.35.35,0,0,0,0-.49l0,0-.71-.7a1,1,0,0,0-1-.28l-3.17.79a.37.37,0,0,1-.33-.09l-1.19-1.19a.35.35,0,0,0-.49,0,.35.35,0,0,0,0,.47Z"/><path id="Path_567" data-name="Path 567" class="cls-1" d="M17.44,19.42l1.29,1.29a.35.35,0,0,0,.49-.49l-1.29-1.29a.37.37,0,0,1-.1-.22l-.22-2.93a.36.36,0,0,0-.38-.32.34.34,0,0,0-.31.37l.22,2.93A1.09,1.09,0,0,0,17.44,19.42Z"/><path id="Path_568" data-name="Path 568" class="cls-1" d="M12.85,25.61a.34.34,0,0,0,.49,0,.35.35,0,0,0,.1-.21l.2-2.19a1.3,1.3,0,0,1,.29-.73l1-1.32a1,1,0,0,0-.09-1.37l-1-1a.35.35,0,1,0-.51.47l0,0,1,1a.35.35,0,0,1,0,.46l-1,1.32A2.13,2.13,0,0,0,13,23.15l-.2,2.19A.34.34,0,0,0,12.85,25.61Z"/></g><path id="Path_569" data-name="Path 569" class="cls-2" d="M18.37,6.37a.34.34,0,0,1-.1-.32L18.88,3a.35.35,0,0,1,.42-.26.35.35,0,0,1,.26.4L19,6.19a.34.34,0,0,1-.41.27A.28.28,0,0,1,18.37,6.37Z"/><path id="Path_570" data-name="Path 570" class="cls-2" d="M19.35,7.35a.34.34,0,0,1,0-.49.42.42,0,0,1,.17-.1l3.07-.61a.35.35,0,0,1,.15.68h0l-3.06.61A.33.33,0,0,1,19.35,7.35Z"/><circle id="Ellipse_361" data-name="Ellipse 361" class="cls-3" cx="18" cy="7.72" r="2.08"/><path id="Path_571" data-name="Path 571" class="cls-4" d="M17.19,8.52C15,6.35,10.91,8,10.91,8L6.25,12.64c-2.16,2.17-2.54,5-.37,7.2A5.4,5.4,0,0,0,9.2,21.58,5.53,5.53,0,0,0,13.58,20l4.66-4.65S19.36,10.69,17.19,8.52Z"/><path id="Path_572" data-name="Path 572" class="cls-1" d="M12.36,7,11.17,5.79a1.06,1.06,0,0,1-.28-1l.79-3.16a.33.33,0,0,0-.09-.33l-.7-.7a.34.34,0,0,1,0-.49.34.34,0,0,1,.49,0l0,0,.7.7a1.05,1.05,0,0,1,.28,1L11.56,5a.34.34,0,0,0,.1.33l1.19,1.19a.36.36,0,0,1,0,.49.34.34,0,0,1-.49,0l0,0Z"/><path id="Path_573" data-name="Path 573" class="cls-1" d="M6.29,8.27,5,7a.35.35,0,0,1,0-.49.36.36,0,0,1,.49,0l0,0L6.78,7.78a.32.32,0,0,0,.22.1l2.93.23a.34.34,0,0,1,.32.37.35.35,0,0,1-.37.32L7,8.57a1,1,0,0,1-.66-.3Z"/><path id="Path_574" data-name="Path 574" class="cls-1" d="M.1,12.86a.36.36,0,0,1,0-.49.41.41,0,0,1,.22-.1l2.19-.2a1.37,1.37,0,0,0,.72-.28l1.32-1a1.05,1.05,0,0,1,1.38.09l1,1a.35.35,0,0,1,0,.49.34.34,0,0,1-.49,0s0,0,0,0l-1-1a.36.36,0,0,0-.46,0l-1.32,1a2,2,0,0,1-1.09.43L.38,13A.33.33,0,0,1,.1,12.86Z"/><path id="Path_575" data-name="Path 575" class="cls-5" d="M7,20.22a5.55,5.55,0,0,1,0-7.85l4.44-4.44-1-.46L5.74,12.13a5.55,5.55,0,0,0-.24,7.59l.49.49A5.57,5.57,0,0,0,9.2,21.58,5.58,5.58,0,0,1,7,20.22Z"/><path id="Path_576" data-name="Path 576" class="cls-2" d="M15.25,9.93A1.73,1.73,0,0,0,12.69,12a.71.71,0,0,1-.16.72l-7,7,.24.25a1.88,1.88,0,0,0,.25.24l7-7a.67.67,0,0,1,.71-.16,1.74,1.74,0,0,0,1.52-3.1Z"/><path id="Path_577" data-name="Path 577" class="cls-1" d="M18.24,7.47a5.55,5.55,0,0,0-4.82-1.55L11.15,7.65l0,.56,7.11,7.11A5.55,5.55,0,0,0,18.24,7.47Z"/><path id="Path_578" data-name="Path 578" class="cls-2" d="M11.13,8.21l2.29-2.29a5.53,5.53,0,0,0-3,1.55Z"/></g></g></g></svg>