<svg xmlns="http://www.w3.org/2000/svg" viewBox="0 0 172.23 132.82"><defs><style>.cls-1{fill:#da3418;stroke:#1b1a1a;stroke-width:2px;}.cls-2{fill:#fbf1da;}.cls-3{fill:#1b1a1a;}</style></defs><g id="圖層_2" data-name="圖層 2"><g id="__1" data-name="_1"><g id="Group_654" data-name="Group 654"><ellipse id="Ellipse_376" data-name="Ellipse 376" class="cls-1" cx="85.79" cy="71.05" rx="47.73" ry="48.65" transform="translate(-13.83 21.21) rotate(-13.05)"/><g id="Group_650" data-name="Group 650"><g id="Group_649" data-name="Group 649"><path id="Path_612" data-name="Path 612" class="cls-2" d="M158.27,67.85l-8.1-13.34c-25.9,11.35-47.76,26-65.17,44.29C68.85,79.32,48,63.14,22.92,50L14,62.71a772.42,772.42,0,0,1,70.25,59.5l0,0,0,0A763.77,763.77,0,0,1,158.27,67.85Z"/></g><path id="Path_613" data-name="Path 613" class="cls-3" d="M172.23,74.46l-9.69-14.37C131.65,72.23,105.6,88,84.86,107.62c-19.33-21-44.23-38.48-74.2-52.71L0,68.59a907.47,907.47,0,0,1,84,64.23l0,0,0,0A909.36,909.36,0,0,1,172.23,74.46Z"/></g><g id="Group_652" data-name="Group 652"><g id="Group_651" data-name="Group 651"><path id="Path_614" data-name="Path 614" class="cls-3" d="M50,9.56c.88,2.43,1.33,3.64,2.28,6,1,2.18,1.57,3.26,2.65,5.42-.78.57-1.17.87-1.93,1.47-.71.25-1.43.46-2.16.64a6.75,6.75,0,0,1-2,.21c-.31-1.86-.43-2.8-.63-4.69a54.73,54.73,0,0,0-9.5,7.8c1.46,1.72,2.2,2.57,3.68,4.26-.63.79-1,1.19-1.57,2a21.42,21.42,0,0,1-2,1.27,6.94,6.94,0,0,1-2,.83c-.86-2-1.26-3.07-2-5.19L29.73,25.2c.31-.57.46-.86.78-1.43a12.31,12.31,0,0,1,1.24-1q.81-.63,1.65-1.17a7.74,7.74,0,0,1,1.29-.72c1.07,1.59,1.62,2.37,2.73,3.93a56.31,56.31,0,0,1,9.89-8.06l-2.94-4.43,1.06-1.13a14.69,14.69,0,0,1,1.4-.64c.61-.24,1.21-.45,1.82-.65A7.78,7.78,0,0,1,50,9.56Z"/><path id="Path_615" data-name="Path 615" class="cls-3" d="M71.64,1.14a16.79,16.79,0,0,1,2,.31c.7.15,1.36.33,2,.52a6,6,0,0,1,1.4.62c-.22,3.45-.27,5.17-.33,8.62-.36.3-.84.63-1.4,1s-1.16.77-1.79,1.17-1.22.74-1.79,1.05a50,50,0,0,0-7.18,2.1,11.84,11.84,0,0,1-1.68.31c-.71.1-1.46.17-2.25.24a20.94,20.94,0,0,1-2.14.1,3.19,3.19,0,0,1-1.3-.2c-.85-3.28-1.23-4.93-1.91-8.27a12.42,12.42,0,0,1,1-1.27A20.89,20.89,0,0,1,57.77,5.9c.59-.54,1.13-1,1.63-1.38a42.32,42.32,0,0,1,6.38-2.33A34.28,34.28,0,0,1,71.64,1.14Zm-9,14.08a51.59,51.59,0,0,1,8.87-3.37,11.93,11.93,0,0,0,.41-2.06A12.5,12.5,0,0,0,72,7.5a10.4,10.4,0,0,0-.36-2.21c-.18-.7-.56-1.68-.84-1.8a14.17,14.17,0,0,0-4.94,1A14.07,14.07,0,0,0,61.06,6.3a5.1,5.1,0,0,0-.49,2.43,12.4,12.4,0,0,0,.18,2.58,8.76,8.76,0,0,0,.74,2.29A5.56,5.56,0,0,0,62.62,15.22Z"/><path id="Path_616" data-name="Path 616" class="cls-3" d="M107.2,4.05c-1.15,2.32-1.71,3.48-2.79,5.83-.86,2.25-1.27,3.38-2.1,5.65-.92-.17-1.38-.24-2.3-.37A18.19,18.19,0,0,1,98.16,14a6,6,0,0,1-1.47-1.33l.87-1.19a51.52,51.52,0,0,0-8.64-8.25c-.31,1.52-.47,2.28-.75,3.8-.28,2.39-.4,3.59-.64,6-.93.07-1.39.11-2.32.21a19,19,0,0,1-2.07-.63,6.14,6.14,0,0,1-1.75-.93c.81-2,1.25-3,2.21-5L83.5,2c-1.51.06-2.26.1-3.76.24a1.33,1.33,0,0,1-.72-1A1.47,1.47,0,0,1,79.28.23a62.7,62.7,0,0,1,7-.21A17.09,17.09,0,0,1,88,.48c.67.21,1.34.44,2,.7s1.25.51,1.72.73a53.17,53.17,0,0,1,7.62,7.38c.28-.34.42-.5.71-.83l1.5-6.56,1.48,0a12.57,12.57,0,0,1,1.36.57c.57.27,1.12.56,1.66.86A6.76,6.76,0,0,1,107.2,4.05Z"/><path id="Path_617" data-name="Path 617" class="cls-3" d="M127.42,27.38a1.87,1.87,0,0,1,0,.91,2.46,2.46,0,0,1-.38.86q-2-1.27-4.11-2.36c-.57-.58-1.14-1.2-1.7-1.85s-1.08-1.27-1.53-1.86a16.15,16.15,0,0,1-1-1.44,54.38,54.38,0,0,0-.92-5.83c-1.49-.27-2.22-.38-3.68-.55-.93,1.58-1.38,2.37-2.28,4-.89-.33-1.33-.48-2.22-.77A17.15,17.15,0,0,1,107.9,17a6,6,0,0,1-1.23-1.56c1.54-1.48,2.35-2.2,4-3.58,1-2.5,1.55-3.74,2.59-6.23l1.48.23a11.68,11.68,0,0,1,1.26.8c.52.36,1,.74,1.5,1.13a7,7,0,0,1,1,.95c-1.39,1.9-2.08,2.87-3.42,4.8a51.89,51.89,0,0,1,15.73,2.59c.63.52.95.78,1.58,1.32a3.94,3.94,0,0,1,.13,2.94A52.28,52.28,0,0,0,122,16.72c.19,1.27.46,2.64.78,4.09A33.27,33.27,0,0,0,124,25C125.38,25.88,126.07,26.36,127.42,27.38Z"/><path id="Path_618" data-name="Path 618" class="cls-3" d="M132,35.72c-.7-.73-1.06-1.08-1.78-1.76-.36-.68-.68-1.37-1-2.08a6.68,6.68,0,0,1-.51-2c2.07-.66,3.13-.95,5.29-1.46l5-4.53c.52.36.78.54,1.29.91a14.46,14.46,0,0,1,.87,1.33c.34.59.65,1.18,1,1.77a8.57,8.57,0,0,1,.56,1.37c-2.3,1.2-3.44,1.81-5.69,3.08C134.93,33.67,133.94,34.35,132,35.72Z"/></g></g></g></g></g></svg>