<svg xmlns="http://www.w3.org/2000/svg" width="518.682" height="330.162" viewBox="0 0 518.682 330.162">
  <g id="Character_chilling" data-name="Character/chilling" transform="translate(-45.979 -87.002)">
    <path id="Accent" d="M386.743,324.657c20.776-1.653,40.6,6.09,57.2,18.157,21.4,15.553,39.542,37.8,51.82,61.233,1.306,1.006,2.593,2.037,3.871,3.078a174.733,174.733,0,0,1,19.428,17.992c3.3,3.653,11.97,12.536,8.208,18.14a6.655,6.655,0,0,1-3.423,2.344c-3.682,1.318-7.521,1.986-11.152,3.529-4.483,1.9-9.131,4.569-12,8.633-.817,1.156-1.03,2.52-2.128,3.029-1.164.54-3.36.33-4.632.454l-7.676.752c-6.011.589-12.3.654-18.176,2.106l-27.053,6.68c-5.533,1.366-11.893,2.119-17.14,4.364-7.83,3.351-15.3,8.258-22.793,12.3l-10.869,5.866c-1.769.955-2.98.968-5.054,1.128l-14.963,1.151c-2.414.186-3.573,1.158-3.889-1.258l-3.478-26.555-1.838-14.042c-.11-.835-.077-4.972-.762-5.471-.429-.313-2.948.361-3.414.418l-6.792.832-14.674,1.8c-.4.048-2.6.023-2.843.348-.289.381.261,2.564.31,3.034q.778,7.4,1.557,14.793c.061.572.755,3.223.389,3.693-.255.326-2.1.365-2.472.426l-14.155,2.311c-3.379.552-7.8.524-10.99,1.794-1.834.729-3.649,2.6-5.234,3.761l-23.012,16.934c-3.49,2.568-8.194,1.914-12.445,2.238l-49.03,3.735q.061-2.29.122-4.581.324-12.131.647-24.263l.282-10.578c.018-.669-.25-2.628.188-3.123.582-.657,3.181-.941,3.988-1.181l8.118-2.4L254.6,451.2l23.536-6.967,8.053-2.384c.62-.184,2.786-.428,3.217-.952.543-.661.3-3.479.387-4.317.426-4.086,1.033-8.154,1.773-12.2,5.334-29.147,17.8-58.752,40.913-78.2C347.756,333.34,366.922,326.233,386.743,324.657Zm3.664,58.449c-2.057-2.415-5.512-6.354-9.146-5.7-2.953.532-4.562,4.193-5.592,6.626-4.138,9.782-5.421,20.994-6.708,31.449-.807,6.56-1.457,13.148-1.872,19.744l44.215-3.4c-.7-4.7-1.253-9.436-2.091-14.11a28.178,28.178,0,0,0-2.573-6.616C402.2,401.419,397.356,391.265,390.407,383.106Z" transform="translate(-76.122 -105.411)" fill="#ff5678" fill-rule="evenodd"/>
    <path id="Ink" d="M518.878,87l.36.006c9.781.26,18.406,6.554,25.1,13.215,3.308,3.293,6.324,7.167,7.744,11.675,1.639,5.207,1.1,10.935-.147,16.161-2.755,11.55-6.122,23.159-9.909,34.414-1.863,5.537-4.565,10.966-5.971,16.633-1.159,4.669,3.723,8.07,3.91,12.868a11.784,11.784,0,0,1-7.543,11.117c-1.906.737-4.212.121-5.969.876-1.607.69-2.17,2.727-2.478,4.29a25.517,25.517,0,0,0-.225,6.414c.073,1.316-.255,3.464.388,4.638.441.806,1.244,1.07,1.937,1.621a25.4,25.4,0,0,1,2.4,2.555c1.366,1.428,2.68,2.2,3.05,4.284l.592-1.419c1.018,1.862,1.773,2.755.8,4.523,3-.295,4.782,5.153,5.57,7.22,1.442,3.781,2.432,7.71,3.877,11.493,1.981,5.187,4.583,10.306,5.847,15.734,1.061,4.562,1.9,9.247,2.845,13.84a45.931,45.931,0,0,0,1.967,7.679,27.018,27.018,0,0,0,1.515,2.455c.594,1.168.362,1.785.39,3.065.05,2.281,1.489,3.762,1.942,5.977.483,2.367.878,4.761,1.366,7.133.983,4.778,2.8,9.549,3.241,14.389.509,5.62,1.6,11.171,2.149,16.792.48,4.912-.336,10.186.69,14.938.91,4.218-.218,8.074-.619,12.262-.1,1.063,1.536,7.393-1.1,6.178.494,1.492,1.187,2.2,1.224,3.841a20.012,20.012,0,0,1-.683,4.59c-.623,2.869-1.038,6-2.258,8.684-1.38,3.04-3.482,3.4-6.34,4.448-1.935.706-5.419,3.226-6.944.53-.909,2.767-2.684.855-4.674.7.013,0-1.139.427-1.355.456a11.128,11.128,0,0,1-2.222-.294,17.916,17.916,0,0,0-5.136.439c-3.912.811-7.7,1.932-11.666,2.5-7.754,1.1-15.353.582-23.118,1.065-15.2.945-30.645.152-45.853-.257a40.324,40.324,0,0,1-5-.066c-1.737-.271-2.115-1.093-3.468-1.916-2.249-1.367-4.745-.037-7.078.462-6.85,1.466-14,1.575-20.909,2.993-14.029,2.881-26.955,8.566-40.392,13.362-5.826,2.079-12.663,5.446-18.945,5.595-7.613.162-5.815-7.337-4.416-12.157-4.4,1.168-11.307,6.5-15.778,3.407-5.329-3.69,1.451-9.824,1.77-14.161-9.523,1.977-20.326,6.312-29.992,2.788-1.86-.678-3.479-2.111-5.475-2.344-2.076-.242-4.27.491-6.368.478-4.781-.031-9.423-.667-14.2-.078-10.655,1.312-21.16,2.031-31.9,2.314-10.814.285-21.628.925-32.447.9-5.491-.014-11.085-.665-16.565-.373-2.152.115-6.783,1.678-8.3-.509-1.518,1.82-2.807.6-4.755.806.361-.037-1.014.758-1.221.835a8,8,0,0,1-3.049.254c-2.847-.029-5.506,1.3-8.339,1.174a5.338,5.338,0,0,1-1.866-.487c-.144-.058-.11-.678-.34-.73-1.386-.31-1.028.538-1.907.966-.975.474-2.418-.293-1.863,1.165-2.646-.116-5.153.776-7.561-.793,1.138,2.516-2.838.426-3.877.385-1.727-.069-3.239.794-4.962.993-2.066.238-4.141-.72-6.163-.135-1.584.458-2.126,1.559-3.774,1a5.594,5.594,0,0,1-2.954-2.653c-.937-1.567-1.058-2.267-3.318-2.295-1.676-.021-3.362.34-5.054.337-1.939,0-4.071-.21-5.841.712-1.907.993-3.028,2.5-5.143,3.283-9.512,3.5-19.953,2.572-29.877,2.512-4.187-.025-7.26.36-8.435-4.416-.993-4.035-1.391-8.255-2.339-12.324-1.161-4.985-2.437-9.61-5.013-14.067-2.5-4.322-4.6-8.787-6.777-13.277-4.525-9.337-10.824-17.281-17.847-24.869-2.668-2.883-5.726-6.095-5.854-10.246A17.372,17.372,0,0,1,49.546,315.4c1.849-2.549,4.9-5.424,8.343-4.83,2.076.358,3.436,2.032,4.985,3.288a19.018,19.018,0,0,0,5.578,3.056,49.634,49.634,0,0,1,12.87,6.668A93.073,93.073,0,0,1,93,333.738c6.922,7.1,14.015,14.471,17.992,23.662a85.045,85.045,0,0,1,3.638,10.867c1.05,3.687,3.908,2.671,7.122,2.141,3.917-.646,7.853-.993,11.8-1.4,1.484-.154,3.576-.2,4.47-1.6.985-1.546-.143-3.55-.233-5.154a15.2,15.2,0,0,1,.307-2.324c.082-.95-.2-1.818-.2-2.765a6.384,6.384,0,0,1,2.534-5.081c2.962-2.308,7.282-3.683,10.789-4.953,4.788-1.734,9.919-2.586,14.85-3.823,5.552-1.393,11.137-2.649,16.72-3.915,5.485-1.243,10.961-2.522,16.5-3.48,3.252-.562,6.779-.356,9.931-1.383,3.35-1.091,2.795-4.462,2.785-7.448a100.662,100.662,0,0,1,1.317-14.886c1.537-10.366,5.2-20.51,8.526-30.416,3.206-9.541,7.178-18.7,13.735-26.44a115.317,115.317,0,0,1,22.343-19.959c8.467-5.836,17.89-10.053,26.728-15.263-1.932-1.477-4.236-2.738-5.346-5.013-1.253-2.568-.722-5.639-.669-8.385a24.958,24.958,0,0,1,1.261-8.769c.605-1.616,2.946-4.682,2.588-6.44-.6-2.951-7.058-5.107-9.435-6.322a90.952,90.952,0,0,1-10.9-6.245,27.286,27.286,0,0,1-8.4-8.625,17.775,17.775,0,0,1-1.4-3.156c-.4-1.222-.121-1.639-1.343-1.728-1.95-.143-4.874,1.814-6.517,2.678-8.471,4.458-17.775,10.457-27.77,10.059-3.626-.144-7.7-1.283-8.986-5.066-1.688-4.979,1.837-10.123,4.929-13.72-6.032.948-17.157,3.911-21.917-1.471-3.172-3.586-.78-9.279,1.881-12.389,3.515-4.108,8.525-6.609,13.154-9.223-5.679-2.165-11.967-3.55-16.961-7.173-4.777-3.465-4.186-8.788-.414-12.875,4.034-4.369,11.086-6.606,16.633-8.228,6.8-1.99,13.563-1.83,20.574-1.7,12.583.239,23.392,4.878,33.713,11.89a132.126,132.126,0,0,1,15.675,12.2c4.54,4.212,9.382,8.129,13.855,12.386,4.334,4.125,7.743,9.236,12.317,13.09,3.89,3.277,8.154,7.921,13.095,9.376,5.24,1.542,9.956,4.094,15.24,5.612,5.994,1.722,11.143,4.6,16.7,7.349,23.312,11.53,48.338,19.034,72.915,27.312,12.571,4.234,25.225,7.218,38.059,10.451a64.134,64.134,0,0,0,19.081,2.2,24.231,24.231,0,0,1,4.511.106c1.109.156,1.952.575,2.943-.088,1.425-.952,1.96-3.43,2.809-4.84-4.733-1.467-9.366-3.055-11.526-7.905a44.187,44.187,0,0,1-2.663-9.9c-.32-1.765-.327-3.546-.6-5.312a16.634,16.634,0,0,1-.578-2.991c-.106.554-3.633-1.269-4.145-1.607-1.973-1.307-2.333-3.942-2.316-6.166a11.063,11.063,0,0,1,2.483-7.178,6.252,6.252,0,0,1,2.942-1.918c.833-.241,1.932.074,2.666-.168,3.258-1.077,3.623-9.14,4.085-12.076,1.019-6.468,2.033-12.643,4.232-18.843a183.18,183.18,0,0,1,15.312-32.58c5.265-8.818,10.525-19.6,22.1-19.727ZM418.8,358.527c-4.686.811-9.175,2.468-13.7,3.873a122.975,122.975,0,0,1-12.848,3c-8.63,1.7-17.45,3.252-25.955,5.466-2.395.623-3.655,2.03-5.744,3.008-1.549.725-3-.009-4.615-.071-3.508-.134-7.4,1.01-10.774,1.863-7.965,2.012-15.033,5.508-22.241,9.372-.645.345-5.006,2.341-4.8,3.167.168.674,5.712-1.137,6.594-1.271,4.464-.68,8.824-2.087,13.255-2.961,3.637-.718,7.315-1.2,10.937-2,4.03-.886,12.615-3.969,12.957,2.687.369,7.194-7.575,9.407-12.351,12.762.532.918,8.193-2.109,9.143-2.415,3.258-1.05,6.28-2.944,9.6-3.75,5.771-1.4,5.072,4.97,1.886,7.806-3.54,3.149-9.394,4.1-11.354,8.948,2.574.929,5.939-.815,8.3-1.682q4.657-1.707,9.345-3.345c7.012-2.437,13.672-5.793,20.722-8.115,14.464-4.762,29.752-6.128,44.872-6.974-1.347-5.226-2.821-10.422-4.031-15.683-.518-2.251-.992-4.513-1.385-6.79-.273-1.584-.041-5.373-1.132-6.622-1.328-1.521-4.788.616-6.671.575-1.844-.04-3.19-.992-4.894-1.292A15.807,15.807,0,0,0,418.8,358.527ZM147.036,388.779c0,2.5-.433,5.529,2.853,5.821,2.658.236,7.857.54,9.978-1.35-2.032-.99-4.341-1.163-6.5-1.734A25.815,25.815,0,0,1,147.036,388.779Zm54.24-45.521c-1,.007-2.686,1.119-3.6,1.429-1.669.567-3.365,1.046-5.068,1.5-5.119,1.356-11.71,1.567-14.06,7.062-1.173,2.742-1.987,9.795-6.064,9.769-3.624-.023-5.794-5.254-8.379-7.115-2.672-1.923-6.908-.614-9.789.221-2.928.848-7.472,1.936-7.143,5.647a78.144,78.144,0,0,1,.7,7.821c-.028,3.469-.321,6.931-.321,10.4,2.056-2.816,3.849-8.479,7.491-9.611,3.679-1.144,5.761,5.284,6.718,7.748,1.186,3.053,2.677,6.515,2.767,9.823.028,1.039-.6,3.892.12,4.746.641.758,3.107.209,3.9.126,4.932-.513,9.837-1.152,14.784-1.58,2.541-.22,3.232-.777,2.984-3.51a29.006,29.006,0,0,1,.013-6.347c1.2-9.62,7.125-18.42,17.142-20.09,6.036-1.007,13.085-.271,19.111.7,2.323.372,4.844,1.5,7.2,1.4,1.743-.072,1.182-.171,1.539-1.812a5.388,5.388,0,0,1,1.656-2.921c.689-.628,1.565-.274,2.215-1.095.47-.594.4-1.4.622-2.089.433-1.333,1.216-3.132,2.775-3.468,2.508-.542,5.175,2.816,6.441,4.548,1.308,1.791,1.7,7.138,3.807,7.838,2.427.807,5.315-2.374,5.821-4.378.681-2.7-.177-5.612-.587-8.282a13.127,13.127,0,0,0-.28-2.081c-.354-.312-3.023-.225-3.5-.248-2.325-.111-4.653-.116-6.981-.122a263.513,263.513,0,0,1-27.122-1.876c1.316,2.146,3.57,5.669,1.257,7.934-1.714,1.678-4.808.836-6.961,1.182-3.042.488-8.169,3.375-11.067,1.264-4.085-2.975.536-8.086,2.053-10.9.325-.6,1.529-2.723,1.019-3.43C202.051,342.845,201.922,343.253,201.275,343.258ZM133.246,376.32c-2.086.636-4.187,1.248-6.318,1.719-2.5.553-6.375.016-7.591,2.766-.925,2.091-.466,5.464.286,7.546.861,2.385,2.881,3,5.265,3.18a39.491,39.491,0,0,0,8.351-.617,25.309,25.309,0,0,1,3.34-.423c.653,0,1.972.6,2.553.107.752-.633.257-4.231.2-5.093-.146-2.136-.552-4.243-.662-6.382-.079-1.536.5-3.624-1.3-3.952C136.246,374.967,134.221,376.023,133.246,376.32Zm168.425-42.28a25.177,25.177,0,0,1-4.691.439c-.975-.015-2.143-.346-3.044.189-1.665.988-1.417,3.591-1.36,5.215.069,1.971.242,3.971.452,5.931.2,1.875,1.229,4.963-.224,6.569-1.025-1.121-1.53-4.789-3.508-4.655-2.175.147-1.169,3.622-.976,4.866,1.066,6.879,2.281,13.761,3.233,20.66.453,3.28,1.038,6.535,1.341,9.831.2,2.212.271,4.2,2.744,4.662,2.291.425,4.865-.3,7.181-.356,2.384-.057,3.75-.219,5.122-2.374-3.285-.719-8.487-.279-10.338-3.753-2.157-4.053,2.393-7.7,4.632-10.47,1.719-2.127,5.233-9.2,8.423-5,1.149,1.512,1.356,3.821,1.936,5.58.944,2.859,2.1,5.676,3.227,8.464,10.347-5.341,20.965-10.157,32.25-13.155-2.877-4.863-6.438-9.241-8.592-14.512-2.413-5.907-4.412-11.975-6.879-17.863-3.912,2.283-8.094-3.252-11.989-3.475C314.458,330.482,307.7,332.995,301.671,334.04Zm-61.294,39.822c-2.145,1.278-5.3,3.763-5.816,6.332-.89,4.441,4.179,1.472,5.743.5a11.357,11.357,0,0,1,10.247-1.431c4.824,1.608,9.27,4.322,14.448,2.26,2.576-1.026,8.291-3.219,6.749-7.155-1.063-2.712-4.174-.386-5.818.587-4.3,2.546-7.87.933-12.171-.9S244.612,371.34,240.378,373.862ZM87.6,351.071c-1.722,2.441,1.779,1.914,3.316,2.152,3.214.5,6.524,3.059,5.638,6.686-.864,3.536-4.247,5.746-4.891,9.458-.554,3.187-.02,7.221,3.058,8.971,1.729.983,5.507,1.387,7.247.259,2.657-1.724-.643-4.29-2.4-5.144-2.329-1.132-4.21-1.744-3.058-4.717,1.405-3.624,4.134-6.4,3.892-10.551-.2-3.435-2.013-7.339-5.317-8.767C92.721,348.4,89.216,348.784,87.6,351.071ZM322.734,340.54c2.977-.127,3.1,3.47,2.945,5.24a72.129,72.129,0,0,0,.285,7.425c.067,3.214.74,13.741-4.944,12.178-3.655-1.005-6.663-4.508-9.6-6.759-2.7-2.072-9.576-4.557-10.022-8.485-.5-4.437,4.917-5.267,8.021-5.972C313.851,343.16,318.154,340.737,322.734,340.54Zm-14.5-116.93a59.166,59.166,0,0,0-13.908,2.725c-3.04,1.061-7.709,1.822-9.864,4.425-1.863,2.251-1.055,5.461-1.661,8.121-.819,3.6-3.3,3.107-5.713.86-2.884-2.69-3.718-4.638-7.732-2.113-8.31,5.226-14.9,12.941-21.49,20.088,5.1,1.544,15.1,1.917,16.79,8.286.925,3.482-1.864,6.015-4.371,7.915-3.237,2.454-6.615,4.723-9.781,7.275-2.954,2.382-9.579,11.864-11.453,3.527-1.16-5.161,1.014-10.494.091-15.591-4.008,6.462-8.078,12.909-11.752,19.569a70.616,70.616,0,0,0-6.447,18c2.339.153,4.773-1.034,7.085-.333,2.226.675,3.268,2.781,3.425,4.963.266,3.7-1.442,7.465-2.3,11.017-.59,2.44-1.267,7.977-4.239,8.772-3.387.9-5.513-4.306-7.023-6.423-1.438,2.21-1.414,5.444-1.624,7.978-.144,1.742-1.116,5,.844,5.962,1.834.9,5.7-.228,7.662-.311,3.639-.155,7.348-.449,10.988-.342,3.439.1,8.5,1.94,9.842-2.286.915-2.878,1.72-13.219,6.6-7.608,2.167,2.492,3.862,5.332,5.956,7.871,2.112,2.561,4.032,2.728,7.186,2.6,6.243-.256,12.34.943,18.448,1.911,5.36.849,4.657-3.7,4.577-7.751-.122-6.278,1.123-12.843,1.8-19.087a186.917,186.917,0,0,1,10.027-43.557c-4.265-1.452-11.91,4.407-15.064-.043-2.592-3.658.738-8.7,2.094-12.117,1.691-4.266,2.546-8.724,5.3-12.5.87-1.194,2.108-2.794,3.793-2.392,1.446.345,2.022,2.189,2.835,3.229,2.582,3.3,5.881,5.778,8.176,9.379a19.666,19.666,0,0,1,2.952,7.144c.126.711-.033,2.167.467,2.764,1.552,1.849,6.441,1.822,8.614,2.955,7.419,3.872,10.026,15.142,12.907,22.248a34.975,34.975,0,0,1,2.048,6.129c.288,1.418.274,3.221,1.043,4.492,1.679,2.776,6.894.3,9.454-.133,4.29-.721,8.559-1.408,12.866-2.013,2.628-.369,6.453-1.321,8.455,1.007,2.076,2.414.882,6.215-.16,8.8-1.7,4.226-3.874,8.264-5.669,12.453-1.432,3.341-2.145,7.644-4.9,10.218a7.688,7.688,0,0,1-9.133,1.055c-1.6-1.036-5.713-11.057-6.8-10.609a174.5,174.5,0,0,0,7.864,23.02c.931,2.269,2.531,6.9,4.885,8.127,1.951,1.02,6.378-.907,8.375-1.281,1.893-.355,5.629-1.892,7.439-.766,2.194,1.366,2.461,5.008,2.707,7.269.183,1.676-.149,2.928,1.891,2.844a21.7,21.7,0,0,0,4.266-1.112c3.2-.817,6.523-1.357,9.782-1.883q11.306-1.826,22.605-3.679c6.477-1.073,12.869-1.066,18.721-4.139,2.966-1.557,6.367-2.032,9.526-3.074a48.179,48.179,0,0,1,9.534-2.091c7.167-.847,14.141-1.678,21.224-3.129q5.814-1.192,11.6-2.517c3.432-.792,6.75-2.051,10.165-2.828,2.841-.646,5.175-.161,6.392-3.386.873-2.313.67-4.9.894-7.325,1.025-11.059-2.848-22.181-3.64-33.18-.257-3.562-.336-7.135-.6-10.694-.122-1.631-.048-6.379-1.951-7.259-.173,1.3-.038,3.5-1.52,4.145.724-.316-.226,3.537-.277,3.924-.2,1.538.3,3.184.036,4.693a.9.9,0,0,1-.276,1.2,1.876,1.876,0,0,0-.588.827c-.019,1.076.3.442.311.813.149,3.7-.477,7.538-.209,11.329.283,4.007,1.178,7.939,1.857,11.891.61,3.548,1.267,7.1,1.776,10.666.357,2.5.622,5.372-.724,7.648-2.555,4.322-9.952,3.852-14.26,4.559-7.161,1.175-14.331,2.236-21.518,3.235-2.759.383-5.551,1.258-8.343,1.3-2.982.047-4.578-1.158-6.458-3.358-3.788-4.433-6.23-9.469-9.385-14.291-1.772-2.709-3.246-3.423-6.229-4.25-2.771-.768-4.994-2.79-7.249-4.471-4.735-3.532-10.85-7.373-13.957-12.574-3.27-5.474,1.338-7.291,5.75-8.784-1.074-2.854-3.179-5.146-4.914-7.6-1.972-2.791-3.76-5.691-5.884-8.377-4.328-5.475-8.651-10.922-12.852-16.5a77.708,77.708,0,0,0-11.8-13.144,139.528,139.528,0,0,0-14.78-10.305c-2.64-1.7-7.275-6.031-10.611-5.588-3.237.43-4.517,6.459-5.325,8.993-.928,2.908-1.256,6.962-3.417,9.251-3.177,3.364-6.476-1.935-7.993-4.377-2.776-4.473-5.618-8.907-8.39-13.384-1.263-2.041-3.088-3.983-3.838-6.3-.009-.028-.36-2.018-.006-1.739l.024.022-.024-.027c-.793-.786-3.722-.949-4.818-1.044l-.1-.009A36.579,36.579,0,0,0,308.231,223.61ZM277.285,349.045c-2.654-.016-5.3.292-7.942.509a46.51,46.51,0,0,1-6.764-.3c-2.866-.172-4.283.128-3.623,3.088.48,2.154,1.057,5.022,3.268,5.932,2.987,1.23,7.011,1.064,10.193,1.53,2.336.342,4.667.651,6.993,1.04,1.545.259,2.339.53,3.062-1.221.6-1.467.215-3.428.009-4.944-.159-1.163-.064-3.209-.613-4.244C281.048,348.886,278.9,349.055,277.285,349.045Zm123.728-29.514c3.9,3.564,6.523,8.12,9.467,12.443,1.8,2.638,5.314,6.845,2.76,10.044-2.175,2.727-7.235,2.1-10.278,2.234-4.783.206-8.69,2.368-13.242,3.482-11.464,2.808-1.942-16.462-.355-20.483,1.115-2.821,2.264-5.63,3.611-8.349.608-1.226,1.821-4.8,3.332-5.269C398.5,312.953,399.625,318.263,401.013,319.531Zm-98.5-40.515c-1.822,3.483-2.118,8.3-2.982,12.108a295.131,295.131,0,0,0-5.4,35.332c6.038-2.395,12.411-2.561,18.787-3.147a97.867,97.867,0,0,1,13.481-.714c.787.033,3.052.433,3.7-.236.871-.9-.184-3.406-.442-4.351-1.4-5.134-2.016-10.439-3.607-15.541-1.623-5.2-3.595-10.4-5.693-15.43-1.535-3.679-3.643-7.267-7.362-9.072C309.743,276.385,304.536,275.152,302.515,279.016Zm-24.867,22.638c2.488,3.75,5.639,7.031,8.069,10.817,1.723,2.685,3.74,7.652-.4,9.359-1.452.6-3.167.34-4.689.366-2.354.041-4.685.243-7.042.187-2.23-.053-4.438-.324-6.662-.44-1.4-.073-3.163.035-4.4-.77-3.31-2.159-.916-6.568.15-9.389a81.616,81.616,0,0,1,4.136-8.67c1.023-1.969,2.552-5.982,4.878-6.785C274.445,295.377,276.5,299.923,277.648,301.653ZM398.28,259.159a170.8,170.8,0,0,1,14.686,20.376c2.182,3.456,4.3,6.953,6.416,10.451,1.384,2.289,2.423,5.216,4.109,7.289,3.846,4.728,4.916-5.588,5.483-7.831,2.091-8.269,4.681-16.471,6.984-24.688H433.6c-9.411-.005-18.434-.144-27.6-2.917C403.406,261.054,401.041,259.351,398.28,259.159Zm-19.878,1.6c2.977,2.2,22.033,15.107,14.017,20.088-1.659,1.031-4.369.563-6.244.711-2.4.19-4.842.422-7.215.847-3.072.552-6.057,1.513-9.144,2-2.454.388-5.706.84-7.9-.688-3.616-2.521-1.421-7.472-.227-10.677,1.7-4.554,3.305-10.65,7.516-13.363.98-.631,2.18-2.885,3.234-3.091C374.093,256.266,377.195,259.871,378.4,260.762ZM483.536,153.686c-1.437,1.1-1.5,3.382-1.875,4.994-1.253,5.42-3,10.7-4.041,16.175a57.067,57.067,0,0,0-.833,16.018c.331,3.611.37,8.055,2.565,11.131,2.627,3.68,7.83,3.491,11.764,4.581,3.786,1.049,7.539,4.3,3.41,7.673-1.467,1.2-3.394,1.395-4.845,2.55-1.789,1.426-2.817,3.982-3.577,6.071-.626,1.72-.608,2.049,1.262,2.657a6.63,6.63,0,0,0,2.616.379c2.046-.17,3.872-1.521,5.585-2.537,4.369-2.589,9.416-6.046,14.633-6.437,1.668-.125,3.563.558,5.185.016,1.511-.505,1.047-.815,1.309-2.22,1.039-5.569,1.461-11.036,4.3-16.074,1.4-2.486,5.107-7.572,7.591-3.7,1.037,1.616,1.412,2.406,3.713,1.91,1.872-.4,3.929-1.884,3.558-4.046-.35-2.04-3.033-3.429-4.659-4.323-2.166-1.19-3.684-1.053-6.042-1.335-6.48-.775-1.937-10.251-1-13.807.587-2.235,1.274-5.123-.267-7.141-2.346-3.069-7.457-2.06-10.676-1.625-4.452.6-9.312.923-13.479-1.1-4.408-2.137-6.287-6.958-10.421-9.3C487.782,153.329,485.106,152.484,483.536,153.686Zm19.346,39.149c3.064-.041,1.574,4.327.736,5.8a7.4,7.4,0,0,1-8.875,3.153c-2.629-.9-5.472-4.895-1.355-5.557,1.975-.317,3.93-.188,5.8-1.127C500.254,194.564,501.632,192.852,502.883,192.835ZM495.2,169.609c1.9,1.155-1.345,8.535-1.892,10.029-.891,2.438-1.684,4.011.583,5.89,1.576,1.307,4.684,2.434,3.2,5.038-1.373,2.409-6.086,1.4-8,.22-2.785-1.714-1.964-5-1.35-7.692C488.138,181.329,491.809,167.552,495.2,169.609ZM195.493,121.155a116.182,116.182,0,0,0,18.082,6.283c5.428,1.321,10.764,2.745,16.358,2.434,5.175-.286,5.792,4.8,2.836,8.318-1.606,1.913-3.469,1.865-5.809,1.939a35.73,35.73,0,0,0-7.87,1.527,116.648,116.648,0,0,0-12,3.38,28.443,28.443,0,0,0-5.793,2.836c-1.128.751-3.646,2.1-2.314,3.152,1.925,1.515,7.639-.56,9.93-.7q8-.477,15.962-1.467a33.987,33.987,0,0,0,7.847-1.595c1.61-.617,3.392-2.15,5.215-1.76,3.846.821,1.94,6.586.194,8.462-2.593,2.785-6.529,4.015-9.878,5.6-2.341,1.107-4.667,2.278-6.94,3.516-1.074.585-6.078,2.776-5.92,4.44.166,1.749,4.116.867,5.093.708,6.52-1.06,12.4-3.581,18.428-6.161,2.637-1.129,5.311-2.213,7.892-3.465,1.8-.875,3.576-2.209,5.568-2.606,4.7-.938,4.492,4.308,6.341,7.142,5.5,8.423,16.118,12.016,24.382,16.884a86.81,86.81,0,0,1,8.977,6.179c2.049,1.584,2.868,3.763,5.156,1.675,1.907-1.741,2.826-4.294,4.049-6.508,1.423-2.578,3.323-4.854,4.782-7.41,2.155-3.777,2.8-7.38-1.932-8.77a40.55,40.55,0,0,1-13.124-6.739c-10.364-7.619-18.964-17.348-29.3-25.025-9.574-7.113-19.726-13.788-31.728-15.7C218.6,115.913,206.124,116.359,195.493,121.155Zm310.5,54.711c-.242,2.1-.759,6.571-3.673,6.738-3.539.2-1.163-10.547.842-11.757C506.373,168.909,506.2,174.088,505.993,175.865Zm-32.927-.856c-4.417.366-5.676,5.2-1.261,6.917Zm16.379-4.246c-.567,2.2-.365,5.719-2.127,7.4-2.484,2.375-3.565-1.11-3.547-3.1.018-1.966.992-6.882,3.623-7.141C489.641,167.708,487.77,170.313,489.445,170.763Zm47.67-48.853c-1.615,3.36.121,6.676,1.088,9.979-1.982.639-4.654.156-5.864,2.251-.763,1.321-.63,3.309-.4,4.739.187,1.173,1.149,2.753.349,3.842-1.048,1.425-3.65.766-4.806,2.352-1.757,2.411-.771,7.918,1.694,9.733,3.465,2.549,1.4-3.707,1.185-4.846-.532-2.854,2.425-2.466,4.445-3.619,1.084-.618,1.277-.738,1.526-2.058a8.022,8.022,0,0,0-.182-3.491c-.983-4.447.736-3.72,4.268-4.7,3.047-.846,2.8-3.281,2.029-5.84-.607-2.006-2.417-5.3-.456-7.008.778-.679,1.959-.25,2.127-1.666.113-.956-1.17-2.524-1.844-3.074C539.95,116.606,538.059,119.945,537.115,121.91Z" transform="translate(0)" fill-rule="evenodd"/>
  </g>
</svg>
