<svg xmlns="http://www.w3.org/2000/svg" viewBox="0 0 50 50"><defs><style>.cls-1{fill:#303030;}.cls-2{fill:#fff;}</style></defs><g id="圖層_2" data-name="圖層 2"><g id="圖層_1-2" data-name="圖層 1"><g id="Group_1266" data-name="Group 1266"><g id="Group_1263" data-name="Group 1263"><g id="Group_1265" data-name="Group 1265"><g id="Group_1264" data-name="Group 1264"><rect id="Rectangle_898" data-name="Rectangle 898" class="cls-1" width="50" height="50" rx="5"/></g><path id="google-brands" class="cls-2" d="M44,25.93C44,36.49,36.65,44,25.8,44A18.63,18.63,0,0,1,7,25.54v0a18.33,18.33,0,0,1,2.34-8.95A18.72,18.72,0,0,1,25.8,7a18.23,18.23,0,0,1,12.61,4.84l-5.12,4.84C26.6,10.33,14.15,15.1,14.15,25.5A11.68,11.68,0,0,0,25.8,37.18c7.44,0,10.24-5.25,10.67-8H25.8V22.84H43.7a16.1,16.1,0,0,1,.3,3.09Z"/></g></g></g></g></g></svg>