<svg xmlns="http://www.w3.org/2000/svg" viewBox="0 0 38.06 34.37"><defs><style>.cls-1{fill:#f16730;}.cls-2{fill:#1b1b1b;}</style></defs><g id="圖層_2" data-name="圖層 2"><g id="圖層_1-2" data-name="圖層 1"><g id="ladybird"><circle id="Ellipse_346" data-name="Ellipse 346" class="cls-1" cx="22.99" cy="19.3" r="15.06"/><g id="Group_194" data-name="Group 194"><g id="Group_193" data-name="Group 193"><path id="Path_543" data-name="Path 543" class="cls-2" d="M11,10.24l.45-.59,24,18.11-.88,1.18-24-18.11C10.67,10.63,10.81,10.43,11,10.24Z"/><path id="Path_544" data-name="Path 544" class="cls-2" d="M6.33,6.74a5.68,5.68,0,0,1,1.5-1.39.69.69,0,0,1,0-.13L6.39,1A.74.74,0,0,1,7.79.51h0L9.17,4.72a5.82,5.82,0,0,1,6.12,1.64,15.12,15.12,0,0,0-6.85,9.1A5.82,5.82,0,0,1,5.17,10L.74,9.86a.74.74,0,1,1,0-1.48H.8l4.47.17.14,0a5.66,5.66,0,0,1,.91-1.82Z"/></g><circle id="Ellipse_347" data-name="Ellipse 347" class="cls-2" cx="18.14" cy="25" r="2.34"/><circle id="Ellipse_348" data-name="Ellipse 348" class="cls-2" cx="31.76" cy="18.79" r="2.34"/><circle id="Ellipse_349" data-name="Ellipse 349" class="cls-2" cx="22.84" cy="9.13" r="2.01"/><circle id="Ellipse_350" data-name="Ellipse 350" class="cls-2" cx="13.58" cy="18.63" r="1.79"/><circle id="Ellipse_351" data-name="Ellipse 351" class="cls-2" cx="28.64" cy="30.54" r="1.79"/></g></g></g></g></svg>