<svg xmlns="http://www.w3.org/2000/svg" viewBox="0 0 42.11 48.13"><defs><style>.cls-1{fill:#5c4b51;}.cls-2{fill:#e85d67;}.cls-3{fill:#fff;}</style></defs><g id="圖層_2" data-name="圖層 2"><g id="圖層_1-2" data-name="圖層 1"><g id="小瓢蟲"><g id="Group_570" data-name="Group 570"><g id="Group_568" data-name="Group 568"><path id="Path_26946" data-name="Path 26946" class="cls-1" d="M16,16.88a.49.49,0,0,1-.23-.45c.18-4.23-5.35-5.25-5.41-5.26a.5.5,0,1,1,.17-1c.07,0,6.47,1.19,6.24,6.3a.51.51,0,0,1-.78.4Z"/><path id="Path_26947" data-name="Path 26947" class="cls-1" d="M10.28,20.15a.48.48,0,0,1-.22-.36C9.59,15.58,4,15.42,3.9,15.42a.51.51,0,0,1,0-1c.07,0,6.57.18,7.14,5.27a.49.49,0,0,1-.43.55A.48.48,0,0,1,10.28,20.15Z"/><path id="Path_26948" data-name="Path 26948" class="cls-1" d="M32.85,27.85a.5.5,0,0,1-.15-.69.49.49,0,0,1,.2-.18c4.57-2.28,8.26,3.08,8.3,3.13a.51.51,0,0,1-.14.7.5.5,0,0,1-.7-.13h0a10,10,0,0,0-2.14-2.17,4.47,4.47,0,0,0-4.87-.63A.5.5,0,0,1,32.85,27.85Z"/><path id="Path_26949" data-name="Path 26949" class="cls-1" d="M32.17,34.37a.51.51,0,0,1-.16-.69.53.53,0,0,1,.28-.21C37.17,31.92,40,37.79,40,37.85a.5.5,0,0,1-.91.43h0a9.66,9.66,0,0,0-1.78-2.47,4.47,4.47,0,0,0-4.71-1.38A.47.47,0,0,1,32.17,34.37Z"/></g><g id="Group_569" data-name="Group 569"><path id="Path_26950" data-name="Path 26950" class="cls-1" d="M.23,23.26a.5.5,0,0,1-.15-.69.49.49,0,0,1,.33-.23C.47,22.33,7.22,21,9,26.08a.5.5,0,0,1-.31.64A.49.49,0,0,1,8,26.41a4.79,4.79,0,0,0-4.2-3.14,10.3,10.3,0,0,0-3.23.06A.51.51,0,0,1,.23,23.26Z"/><path id="Path_26951" data-name="Path 26951" class="cls-1" d="M32.62,44.29A.47.47,0,0,1,32.4,44h0a10.5,10.5,0,0,0-1.26-3,4.78,4.78,0,0,0-4.58-2.55A.5.5,0,0,1,26,38a.51.51,0,0,1,.46-.55c5.38-.44,6.89,6.26,6.9,6.33a.5.5,0,0,1-.76.53Z"/></g></g><g id="Group_571" data-name="Group 571"><circle id="Ellipse_358" data-name="Ellipse 358" class="cls-1" cx="29.38" cy="14.72" r="5.94"/><ellipse id="Ellipse_359" data-name="Ellipse 359" class="cls-1" cx="19.22" cy="30.35" rx="16.46" ry="14.66" transform="translate(-16.7 29.94) rotate(-56.99)"/><path id="Path_26952" data-name="Path 26952" class="cls-2" d="M31.36,15.14c-.47-.57-.92-1.05-1.31-1.45-.53-.2-1.15-.41-1.86-.61C21.42,11.13,7,10.1,1.33,33.87c0,0,9.55,1.88,19.91-6.62-3.55,12.92,2,20.88,2,20.88C42.72,33.33,35.89,20.53,31.36,15.14Z"/><circle id="Ellipse_360" data-name="Ellipse 360" class="cls-1" cx="16.39" cy="20.05" r="2.97"/><circle id="Ellipse_361" data-name="Ellipse 361" class="cls-1" cx="27.07" cy="17.54" r="2.97"/><circle id="Ellipse_362" data-name="Ellipse 362" class="cls-1" cx="25.48" cy="38.16" r="2.97"/><circle id="Ellipse_363" data-name="Ellipse 363" class="cls-3" cx="31.69" cy="29.21" r="2.97"/><circle id="Ellipse_364" data-name="Ellipse 364" class="cls-3" cx="8.71" cy="28.84" r="2.97"/></g><g id="Group_572" data-name="Group 572"><path id="Path_26953" data-name="Path 26953" class="cls-1" d="M33,12.47a.5.5,0,0,1-.22-.5,5.12,5.12,0,0,1,5.89-4.19,4.19,4.19,0,0,1,3.43,4.83,3.45,3.45,0,0,1-4,2.82,2.84,2.84,0,0,1-2.34-3.29,2.39,2.39,0,0,1,2.75-2h0a.5.5,0,1,1-.17,1,1.38,1.38,0,0,0-1.59,1.13,1.86,1.86,0,0,0,1.52,2.14,2.44,2.44,0,0,0,2.81-2,3.18,3.18,0,0,0-2.6-3.67h0a4.11,4.11,0,0,0-4.73,3.36.51.51,0,0,1-.58.42.77.77,0,0,1-.19-.08Z"/><path id="Path_26954" data-name="Path 26954" class="cls-1" d="M29.91,10.5a.5.5,0,0,1-.15-.69.54.54,0,0,1,.15-.15,5,5,0,0,0,1.4-6.91,3.89,3.89,0,0,0-5.39-1.09h0a3,3,0,0,0-.85,4.17,2.32,2.32,0,0,0,3.2.65h0a1.75,1.75,0,0,0,.49-2.42.5.5,0,1,1,.84-.56,2.77,2.77,0,0,1-.77,3.82,3.33,3.33,0,0,1-4.6-.93A4,4,0,0,1,25.36.82h0a4.9,4.9,0,0,1,6.79,1.37,6,6,0,0,1-1.68,8.31A.52.52,0,0,1,29.91,10.5Z"/></g></g></g></g></svg>