<svg xmlns="http://www.w3.org/2000/svg" xmlns:xlink="http://www.w3.org/1999/xlink" viewBox="0 0 100 100"><defs><style>.cls-1,.cls-3{fill:none;}.cls-2,.cls-6{fill:#fff;}.cls-3{stroke:#707070;}.cls-4{fill:#dcd972;}.cls-5{clip-path:url(#clip-path);}.cls-6,.cls-7{fill-rule:evenodd;}</style><clipPath id="clip-path"><circle class="cls-1" cx="50" cy="52" r="48"/></clipPath></defs><g id="圖層_2" data-name="圖層 2"><g id="圖層_1-2" data-name="圖層 1"><g id="Group_881" data-name="Group 881"><g id="Ellipse_387-2" data-name="Ellipse 387-2"><circle class="cls-2" cx="50" cy="50" r="50"/><circle class="cls-3" cx="50" cy="50" r="49.5"/></g><g id="Group_871" data-name="Group 871"><g id="Group_870" data-name="Group 870"><circle id="Ellipse_404" data-name="Ellipse 404" class="cls-4" cx="50" cy="50" r="50"/></g><g class="cls-5"><g id="Mask_Group_141" data-name="Mask Group 141"><g id="a-mono_bust" data-name="a-mono bust"><g id="body_mono_Tee-1" data-name="body mono Tee-1"><path id="_-Background" data-name=" -Background" class="cls-6" d="M77.55,88.38q-.45-2.58-.84-5.18c-.12-.83-.24-1.65-.34-2.48a2,2,0,0,1,.2-1.66,3.3,3.3,0,0,0,1.13-2,8.75,8.75,0,0,0-.39-2.49c-.36-1.65-.8-3.28-1.29-4.9S75,66.42,74.4,64.8a45.41,45.41,0,0,0-1.71-4.51,13.21,13.21,0,0,0-6.19-6.18c-.67-.34-2-1.55-2.74-1.82s-.65.48-1.28.2a2.57,2.57,0,0,1-1.27-1c-.31-.53-1.08-1.28-1.2-1.9-.25-1.31,0-2.43-.92-3.42A6.74,6.74,0,0,0,56,44.37c-2.54-.71-5.94-.22-7.48,2.15-.73,1.13-1,2.5-2,3.42s-.67,1.35-1.79,1.77c-.07,0-1.79-.35-1.85-.32-1.23-.27-2.4.47-3.52.9a24.11,24.11,0,0,0-4.77,2.44,30.41,30.41,0,0,0-7.76,7.46,36.73,36.73,0,0,0-5,9.67c-.29.83-.55,1.68-.78,2.53a2.73,2.73,0,0,0-.11,1.47,1.91,1.91,0,0,0,.75.93c.45.33,1.36.54,1.34,1.2a9.76,9.76,0,0,1-.27,1.51c-.1.58-.17,1.17-.25,1.76-.37,2.68-.66,5.37-.78,8.08a69.38,69.38,0,0,0,0,8,1.13,1.13,0,0,0,.15.47.11.11,0,0,0-.05.14.11.11,0,0,0,.07.06l.2,0a.85.85,0,0,0,.53.18l.41,0c1.46.31,2.93.59,4.41.81,1.8.27,3.6.49,5.42.66a74,74,0,0,0,11.14,0q5.58-.29,11.16-.14c3.73.1,7.46.26,11.19.33,4.17.07,8.33,0,12.48-.37a.87.87,0,0,0,.84-.88,1.25,1.25,0,0,0,0-.19C78.92,95.15,78.15,91.79,77.55,88.38Z"/><path id="_-Ink" data-name=" -Ink" class="cls-7" d="M41.72,51.3a7.55,7.55,0,0,1,1.16.09,0,0,0,0,1,0,.06c-.69.14-1.37.34-2,.54l-.29.08c-.75.22-1.5.47-2.24.76a20.2,20.2,0,0,0-4.15,2.34c-4.94,3.58-8.53,9-10.78,14.6a38.18,38.18,0,0,0-1.56,4.67c-.1.39-.2.77-.29,1.16,0,.12-.14.41-.08.53s.28.16.38.22l.35.18,1.91,1,.17.09a22.56,22.56,0,0,0,9.17,2.68l0-.28h0a25.89,25.89,0,0,1,.74-4.54.07.07,0,0,1,.14,0,30,30,0,0,1,.07,5.28c-.14,3.11-.33,6.23-.5,9.34-.08,1.56-.19,3.11-.29,4.67s-.13,3.16-.35,4.7a.69.69,0,0,1-1.36-.18c0-.9.11-1.81.17-2.71s.12-1.71.19-2.56c.24-3.12.52-6.23.77-9.35.09-1.1.19-2.2.29-3.31a24,24,0,0,1-9.67-2.86c-.05,1-.15,2-.26,3-.28,2.79-.54,5.57-.73,8.37-.1,1.41-.16,2.83-.23,4.24,0,.69-.05,1.39-.07,2.08,0,.24,0,.47,0,.7v.53a1.07,1.07,0,0,1-.32.9.71.71,0,0,1-1,0c-.38-.35-.32-.83-.3-1.3l0-1.19c0-.8.06-1.59.1-2.39.15-2.77.43-5.54.8-8.29l.15-1.06A34.83,34.83,0,0,1,23,78.18l-.71-.36c-.42-.21-.85-.41-1.25-.64a1.29,1.29,0,0,1-.69-.81,2.79,2.79,0,0,1,.15-1.28v0c.1-.41.21-.82.32-1.22a40.75,40.75,0,0,1,6.82-13.7,27.07,27.07,0,0,1,6.72-6.31,18.21,18.21,0,0,1,4.08-2,11.64,11.64,0,0,1,2.1-.49C41,51.34,41.33,51.32,41.72,51.3Zm6.82-5a.69.69,0,0,1,1,0,.68.68,0,0,1,.17.64,8.25,8.25,0,0,1-2.62,3.94,6,6,0,0,1-4.21,1.42h0l.14.18a24,24,0,0,0,3.49,4,11.2,11.2,0,0,0,10,2.73,8.33,8.33,0,0,0,6-5.77.56.56,0,0,1-.36,0,3.37,3.37,0,0,1-1.54-1.17,5.73,5.73,0,0,1-1-1.57,4.1,4.1,0,0,1,0-3.46.12.12,0,0,1,.18-.05.15.15,0,0,1,.07.11l0,.2a7.61,7.61,0,0,0,.71,2.77,5.23,5.23,0,0,0,.81,1.21,3.64,3.64,0,0,0,.57.54,5.41,5.41,0,0,1,.61.46l0,0h0a.56.56,0,0,1,.56-.54h0a2,2,0,0,1,.67.18h0a25.66,25.66,0,0,1,4.93,3.19,19.58,19.58,0,0,1,6.7,9.77A53,53,0,0,1,76.76,71L77,72.21a24.32,24.32,0,0,0,1.4,5.36.71.71,0,0,1-.28,1l-.13.06-1.72.62c.28,1.21.45,2.46.66,3.68.45,2.58,1,5.15,1.48,7.73.24,1.32.45,2.64.7,4,.11.64.23,1.27.35,1.9l.18,1v.06a1.27,1.27,0,0,1,0,.55,1.36,1.36,0,0,1-.36.5.38.38,0,0,1-.44,0l0,0a.87.87,0,0,1-.56-.53c0-.2-.09-.39-.12-.59-.07-.36-.14-.73-.2-1.1-.14-.73-.26-1.46-.39-2.2l-.11-.69c-.4-2.37-.78-4.76-1-7.16l-.27-3.19-.07-.8c-.08-1-.19-2-.2-3.06l-.35.12h0L73.9,80h0a3.41,3.41,0,0,1-1.39.39.87.87,0,0,1-.52-.22c.16,2.18.37,4.35.65,6.51.25,2,.53,3.94.86,5.89.16,1,.33,1.94.52,2.9.09.48.18,1,.28,1.45,0,.24.11.48.14.72a.88.88,0,0,1-.18.68.45.45,0,0,1-.59.15,1,1,0,0,1-.5-.63c-.07-.29-.12-.58-.18-.87l-.3-1.59c-.2-1.11-.39-2.23-.55-3.34A118.44,118.44,0,0,1,71,80.19q-.14-2.94-.1-5.88c0-1,0-2,.11-3s.22-2,.36-3c0,0,0,0,0,0a0,0,0,0,1,0,0c.07,1.13.17,2.25.21,3.38s.07,2.16.1,3.24q.08,2.13.21,4.26a.72.72,0,0,1,.65-.23,10.48,10.48,0,0,0,1.07-.38l1.26-.42h0l2-.66a53,53,0,0,1-1.35-6.12l-.16-.93A39.27,39.27,0,0,0,74.18,65a17.42,17.42,0,0,0-2.63-5.17,28.76,28.76,0,0,0-4-4.19c-1.23-1.09-2.55-2.08-3.81-3.14a.88.88,0,0,1,0,.23A8.85,8.85,0,0,1,61,57.83a10.51,10.51,0,0,1-10.75,2,12.44,12.44,0,0,1-7.77-7.78c0-.06.06-.09.1,0l.18.25a.1.1,0,0,1,.06-.09A9.65,9.65,0,0,0,46.37,50a7.44,7.44,0,0,0,1.2-1.64,5.85,5.85,0,0,0,.41-.88l0-.08a2.83,2.83,0,0,1,.53-1.07Z"/></g><g id="head_mono_Bun-2" data-name="head mono Bun-2"><path id="_-Background-2" data-name=" -Background-2" class="cls-6" d="M66.05,30.18c-.18-2.33.1-4.77-.8-7-1.56-3.68-6-4.9-9.36-6.3-1.36-.4-6-.46-7.55-1-3.61-1.21-4.47-2.65-7.34-.35A3.2,3.2,0,0,0,40,17h0a.76.76,0,0,0,.15.67A4.7,4.7,0,0,0,39,22.51C41.1,26.92,41,29.3,40.33,34c-.88,4.43,1.13,6,4.45,8.45a.82.82,0,0,0,0,.84c3.84,5.4,11.08,8,17.28,5.23,2.51-1.12,3.64-3.8,4.28-6.22A17.32,17.32,0,0,0,66.72,34,33.69,33.69,0,0,1,66.05,30.18Z"/><path id="_-Ink-2" data-name=" -Ink-2" class="cls-7" d="M43.91,4.38a.91.91,0,0,1,1,.63V5a2.87,2.87,0,0,0,.18.4,2.8,2.8,0,0,1,3.56.74,3.42,3.42,0,0,1,0,2.68l-.13.58a.91.91,0,0,1,.43.75v0l-.05.8a4.06,4.06,0,0,0,.46-.55c.09-.17.2-.34.31-.51a.9.9,0,0,1,1.56.91c-.1.2-.22.39-.34.58a5.37,5.37,0,0,0-.34.83A.79.79,0,0,1,51,13a2.2,2.2,0,0,1-1.12,2,.81.81,0,0,1-.63.11l-.1.14a4.48,4.48,0,0,1,.77.8,13.6,13.6,0,0,1,2-.15,4.48,4.48,0,0,1,2.68-.25c.57.1,1.12.29,1.68.43s1.19.14,1.78.24a2.82,2.82,0,0,1,1.83,1,2.79,2.79,0,0,1,1.33.46L64,19.59a.93.93,0,0,1,.42,1v0l0,.17.08.1a6.7,6.7,0,0,1,.76,1.26,12.28,12.28,0,0,1,.92,1.52A11,11,0,0,1,67,25.89a5.61,5.61,0,0,1,.13.59,2.18,2.18,0,0,1-.07.76c0,.34-.06.69-.12,1a.41.41,0,0,1-.43.34c.08.58.13,1.16.19,1.74.07.82.12,1.64.16,2.47a2,2,0,0,0,1,.67,2.35,2.35,0,0,0,1.36-.17.32.32,0,0,1,.36.47,1.47,1.47,0,0,1-2,.4,1.93,1.93,0,0,1-.72-.58c0,.24,0,.48,0,.72v.22a32.35,32.35,0,0,1,0,7.68,9.67,9.67,0,0,1-8.84,7.93,12.21,12.21,0,0,1-5.2-.93c-.95-.38-.58-1.16.08-.93a12.43,12.43,0,0,0,5.13.7c4.44-.58,8.2-2.8,7.81-12.34,0-1.35-.22-2.71-.26-4.06s0-2.65-.08-4l0-.45c0-.53,0-1.06-.08-1.59,0-.2-.09-.41-.15-.61a9,9,0,0,0-.62-1.59.37.37,0,0,1-.19.09,2.49,2.49,0,0,1-1.5-.15,2.53,2.53,0,0,1-.62-.4,1.43,1.43,0,0,1-.2-.23.84.84,0,0,1-.62-.24.56.56,0,0,1-.13-.58v0h0a3,3,0,0,1-1,1.28,4.25,4.25,0,0,1-2.38.65,17.36,17.36,0,0,1-2.79-.28c-.24,0-.47-.08-.7-.13l0,0a2.58,2.58,0,0,1-2.85.51,4.51,4.51,0,0,1-1.47-1.09c0,.24,0,.48,0,.71v.09a1.83,1.83,0,0,1-.46,1.22,1.62,1.62,0,0,1-1.92,0v.05c.17.56.34,1.12.5,1.69l0,.12a5.7,5.7,0,0,1,.29,1.22c.07.8-.46,1.59-1.35,1.33a3.54,3.54,0,0,1-1.2-.85l-.23-.2a21.42,21.42,0,0,1,1,5.89.21.21,0,0,1-.19.2,1.92,1.92,0,0,1-.75-.14h0a2.74,2.74,0,0,1-1.13-.43,2.14,2.14,0,0,1,.09.79c0,.07-.11.1-.13,0A2.06,2.06,0,0,0,42.4,34a2.62,2.62,0,0,0-2,2.11,4.09,4.09,0,0,0,.9,3.21,2.21,2.21,0,0,0,1.28.8,1.65,1.65,0,0,0,.7,0l.28-.11c.14-.06.3-.06.42-.12a.32.32,0,0,1,.44.43,1.22,1.22,0,0,1-.46.57,5.82,5.82,0,0,1,.39.58,14.16,14.16,0,0,0,.93,1.12,9.63,9.63,0,0,0,1.1,1l.17.13a4.09,4.09,0,0,1,1,1,.55.55,0,0,1-.2.73.59.59,0,0,1-.26.07c-1.24,0-2.13-1.1-2.77-2-.09-.14-.18-.28-.26-.43a.64.64,0,0,1-.1.13l.07.19c.21.56-.69.92-.95.4a8.68,8.68,0,0,0-.66-1.08.53.53,0,0,1-.36-.22c-.2-.29-.43-.58-.61-.89-.1-.1-.22-.19-.33-.28l-.1.08a3.65,3.65,0,0,1-.52.87l0,.06a2.92,2.92,0,0,1-1.58,1.16c-.2,0-.39-.21-.21-.37a17.25,17.25,0,0,0,1.41-1.15,5.1,5.1,0,0,0,.57-.73l0-.06.09-.14-.57-.39a13.83,13.83,0,0,1-1.79,1l-.06,0c-.52.35-1.07-.42-.65-.84a17,17,0,0,0,1.26-1.55,2.94,2.94,0,0,1-.32-1.2l0-.36a1.4,1.4,0,0,1-.84-.27l-.1-.06a2.91,2.91,0,0,1-.93.13.81.81,0,0,1-.78-.83.81.81,0,0,1,.22-.53,1.71,1.71,0,0,1,1.9-.39l.06,0a.82.82,0,0,1,0-.38v-.07a1.65,1.65,0,0,1-.26-.71,1.78,1.78,0,0,1,0-.61,1.8,1.8,0,0,1,.08-.21,1.38,1.38,0,0,1-.1-.4.1.1,0,0,0,0-.05,1.1,1.1,0,0,1,0-1.34.17.17,0,0,1,0-.07.61.61,0,0,1-.05-.12,1.36,1.36,0,0,1-.47-1.09,1.2,1.2,0,0,1,.29-.67.39.39,0,0,1,0-.26,4,4,0,0,1,0-2.28,1,1,0,0,1,0-.38A1.13,1.13,0,0,1,38.66,26l.2,0v0a1.55,1.55,0,0,1,.12-.47l-.09-.05a5,5,0,0,1-1.18.45.39.39,0,0,1-.46-.28.42.42,0,0,1,0-.27,3.51,3.51,0,0,1,.29-.36,3.4,3.4,0,0,0-.45,0,.88.88,0,0,1-.76-.4l-.66.64a.89.89,0,0,1-1.26,0,.92.92,0,0,1-.24-.54,1.17,1.17,0,0,1-.46-.23,8,8,0,0,1-2.82.64.93.93,0,0,1-.9-.93,1.16,1.16,0,0,1,.12-.44,4.49,4.49,0,0,1,.81-1,11,11,0,0,1-1.51.32.86.86,0,0,1-.78-.45,3.35,3.35,0,0,1,.1-3l.06-.11c.05-.13.11-.25.17-.37a2.16,2.16,0,0,1-.33-2.35.76.76,0,0,1-.09-.7,5.77,5.77,0,0,1,1.07-1.8,1.53,1.53,0,0,1-.11-.27,2.24,2.24,0,0,1,.64-2.28,3.17,3.17,0,0,1,1.28-.68,3.89,3.89,0,0,1,.74-.92.3.3,0,0,0,0-.08,2.76,2.76,0,0,1,2.18-1.43A.91.91,0,0,1,35,7.9a2.63,2.63,0,0,1,.41-.82.93.93,0,0,1,1.24-.33,5.71,5.71,0,0,1,.72.49,1,1,0,0,1,.34-.09h0l.74,0,.94-.42a2.25,2.25,0,0,1,.63-.38,2.35,2.35,0,0,1,.79-.19,4.81,4.81,0,0,1,.65-.18,7.2,7.2,0,0,1,1.6-.18c0-.14,0-.28,0-.42V5.27A.89.89,0,0,1,43.91,4.38Zm-.52,36.67-.22,0,.06.17.19.1a1.53,1.53,0,0,1,0-.3ZM39.5,39.89l0,.09,0,.05a1.13,1.13,0,0,1,.32,0v0h0A1.32,1.32,0,0,1,39.5,39.89Zm2.1-4.23a4.57,4.57,0,0,1,1.85.44l0,0c.54.27,1.43.76,1.35,1.47a.4.4,0,0,1-.4.4c-.63,0-1-.68-1.42-1.07a6.9,6.9,0,0,0-1.48-1.09.11.11,0,0,1,0-.13l.07,0Zm-3-9.33c-.16,0-.11.16,0,0Zm8.67-10.42A7.54,7.54,0,0,0,43,17.76a14.74,14.74,0,0,0-2.61,2.74c-.19.5-.35,1-.5,1.54-.09.34-.15.68-.23,1l0,.11a1.42,1.42,0,0,0-.14.36,1.12,1.12,0,0,0,.52.29.24.24,0,0,1,.15.09,3.12,3.12,0,0,0,.37-.84v0c.31-.5.65-1,1-1.45a17.72,17.72,0,0,1,3.36-3.45,11.09,11.09,0,0,1,3.25-1.7A3.52,3.52,0,0,0,47.23,15.91Z"/></g><g id="face_Smile" data-name="face Smile"><path id="_-Ink-3" data-name=" -Ink-3" class="cls-7" d="M59.09,44.06a3.19,3.19,0,0,1-1.3-1,.6.6,0,0,1-.12-.47.65.65,0,0,1,.26-.42.6.6,0,0,1,.47-.12.57.57,0,0,1,.4.26l0,0a2.08,2.08,0,0,0,.75.63,1.66,1.66,0,0,0,.93.16,2.42,2.42,0,0,0,1.5-.86l.17-.18a.25.25,0,0,1,.15-.1.21.21,0,0,1,.19,0,.28.28,0,0,1,.15.11.26.26,0,0,1,.05.19,1.93,1.93,0,0,1-.64,1.23,2.76,2.76,0,0,1-3,.54Zm1.84-7.32c.57.35,1.44,1.16.82,2s-1.76-.11-2.28-.5-1,.48-.57.83c3.72,2.75,5.22-2.26,2.32-2.76C60.89,36.28,60.78,36.64,60.93,36.74Zm-6.66-3.2c.06-.78,1.26-1,1.38-.18a3.24,3.24,0,0,1-.33,2,.58.58,0,0,1-1.11-.23,6.63,6.63,0,0,1,.06-1.54Zm9.1-.34a.64.64,0,0,1,.7-.29c.9.27.64,1.54.32,2.17a.63.63,0,0,1-.86.21l-.12-.09a1.51,1.51,0,0,1-.09-1.93l0-.07ZM55.3,30.11l.14,0c.44-.08,1-.15,1.3.2a.5.5,0,0,1,0,.71c-.39.32-.82.2-1.29.22a4.79,4.79,0,0,0-1.12.2,7.51,7.51,0,0,0-2.18,1.12c-.09.06-.18-.06-.14-.14a4.56,4.56,0,0,1,2-1.83A4.88,4.88,0,0,1,55.3,30.11Zm7.25-.35.1,0c1.19.25,2.73.74,3.29,1.91,0,.16,0,.2,0,.22h0a.18.18,0,0,1-.1.07l-.06,0a4.06,4.06,0,0,1-.66-.25l-.21-.11a5.57,5.57,0,0,0-.76-.32,8.75,8.75,0,0,0-1.74-.39.79.79,0,0,1-.35-.13.51.51,0,0,1-.19-.3A.49.49,0,0,1,61.9,30a.52.52,0,0,1,.27-.24A.62.62,0,0,1,62.55,29.76Z"/></g></g></g></g></g></g></g></g></svg>